<?xml version="1.0" encoding="utf-8" standalone="no"?>
<!DOCTYPE svg PUBLIC "-//W3C//DTD SVG 1.1//EN"
  "http://www.w3.org/Graphics/SVG/1.1/DTD/svg11.dtd">
<!-- Created with matplotlib (https://matplotlib.org/) -->
<svg height="497.80125pt" version="1.1" viewBox="0 0 936.426562 497.80125" width="936.426562pt" xmlns="http://www.w3.org/2000/svg" xmlns:xlink="http://www.w3.org/1999/xlink">
 <metadata>
  <rdf:RDF xmlns:cc="http://creativecommons.org/ns#" xmlns:dc="http://purl.org/dc/elements/1.1/" xmlns:rdf="http://www.w3.org/1999/02/22-rdf-syntax-ns#">
   <cc:Work>
    <dc:type rdf:resource="http://purl.org/dc/dcmitype/StillImage"/>
    <dc:date>2021-02-28T07:38:27.956393</dc:date>
    <dc:format>image/svg+xml</dc:format>
    <dc:creator>
     <cc:Agent>
      <dc:title>Matplotlib v3.3.4, https://matplotlib.org/</dc:title>
     </cc:Agent>
    </dc:creator>
   </cc:Work>
  </rdf:RDF>
 </metadata>
 <defs>
  <style type="text/css">*{stroke-linecap:butt;stroke-linejoin:round;}</style>
 </defs>
 <g id="figure_1">
  <g id="patch_1">
   <path d="M 0 497.80125 
L 936.426562 497.80125 
L 936.426562 0 
L 0 0 
z
" style="fill:none;"/>
  </g>
  <g id="axes_1">
   <g id="patch_2">
    <path d="M 36.426563 457.198125 
L 929.226562 457.198125 
L 929.226562 22.318125 
L 36.426563 22.318125 
z
" style="fill:#ffffff;"/>
   </g>
   <g id="patch_3">
    <path clip-path="url(#p14ba66cd98)" d="M 40.981665 457.198125 
L 50.091869 457.198125 
L 50.091869 43.026696 
L 40.981665 43.026696 
z
" style="fill:#9c00ff;"/>
   </g>
   <g id="patch_4">
    <path clip-path="url(#p14ba66cd98)" d="M 59.202073 457.198125 
L 68.312277 457.198125 
L 68.312277 72.159428 
L 59.202073 72.159428 
z
" style="fill:#9c00ff;"/>
   </g>
   <g id="patch_5">
    <path clip-path="url(#p14ba66cd98)" d="M 77.422481 457.198125 
L 86.532685 457.198125 
L 86.532685 77.167883 
L 77.422481 77.167883 
z
" style="fill:#9c00ff;"/>
   </g>
   <g id="patch_6">
    <path clip-path="url(#p14ba66cd98)" d="M 95.642889 457.198125 
L 104.753093 457.198125 
L 104.753093 77.382332 
L 95.642889 77.382332 
z
" style="fill:#9c00ff;"/>
   </g>
   <g id="patch_7">
    <path clip-path="url(#p14ba66cd98)" d="M 113.863297 457.198125 
L 122.973501 457.198125 
L 122.973501 78.712298 
L 113.863297 78.712298 
z
" style="fill:#9c00ff;"/>
   </g>
   <g id="patch_8">
    <path clip-path="url(#p14ba66cd98)" d="M 132.083705 457.198125 
L 141.193909 457.198125 
L 141.193909 79.231141 
L 132.083705 79.231141 
z
" style="fill:#9c00ff;"/>
   </g>
   <g id="patch_9">
    <path clip-path="url(#p14ba66cd98)" d="M 150.304114 457.198125 
L 159.414318 457.198125 
L 159.414318 83.646696 
L 150.304114 83.646696 
z
" style="fill:#9c00ff;"/>
   </g>
   <g id="patch_10">
    <path clip-path="url(#p14ba66cd98)" d="M 168.524522 457.198125 
L 177.634726 457.198125 
L 177.634726 87.568988 
L 168.524522 87.568988 
z
" style="fill:#9c00ff;"/>
   </g>
   <g id="patch_11">
    <path clip-path="url(#p14ba66cd98)" d="M 186.74493 457.198125 
L 195.855134 457.198125 
L 195.855134 96.669918 
L 186.74493 96.669918 
z
" style="fill:#9c00ff;"/>
   </g>
   <g id="patch_12">
    <path clip-path="url(#p14ba66cd98)" d="M 204.965338 457.198125 
L 214.075542 457.198125 
L 214.075542 102.12726 
L 204.965338 102.12726 
z
" style="fill:#9c00ff;"/>
   </g>
   <g id="patch_13">
    <path clip-path="url(#p14ba66cd98)" d="M 223.185746 457.198125 
L 232.29595 457.198125 
L 232.29595 100.888634 
L 223.185746 100.888634 
z
" style="fill:#9c00ff;"/>
   </g>
   <g id="patch_14">
    <path clip-path="url(#p14ba66cd98)" d="M 241.406154 457.198125 
L 250.516358 457.198125 
L 250.516358 99.483576 
L 241.406154 99.483576 
z
" style="fill:#9c00ff;"/>
   </g>
   <g id="patch_15">
    <path clip-path="url(#p14ba66cd98)" d="M 259.626562 457.198125 
L 268.736767 457.198125 
L 268.736767 102.869747 
L 259.626562 102.869747 
z
" style="fill:#9c00ff;"/>
   </g>
   <g id="patch_16">
    <path clip-path="url(#p14ba66cd98)" d="M 277.846971 457.198125 
L 286.957175 457.198125 
L 286.957175 103.846296 
L 277.846971 103.846296 
z
" style="fill:#9c00ff;"/>
   </g>
   <g id="patch_17">
    <path clip-path="url(#p14ba66cd98)" d="M 296.067379 457.198125 
L 305.177583 457.198125 
L 305.177583 106.119518 
L 296.067379 106.119518 
z
" style="fill:#9c00ff;"/>
   </g>
   <g id="patch_18">
    <path clip-path="url(#p14ba66cd98)" d="M 314.287787 457.198125 
L 323.397991 457.198125 
L 323.397991 106.875921 
L 314.287787 106.875921 
z
" style="fill:#9c00ff;"/>
   </g>
   <g id="patch_19">
    <path clip-path="url(#p14ba66cd98)" d="M 332.508195 457.198125 
L 341.618399 457.198125 
L 341.618399 105.162042 
L 332.508195 105.162042 
z
" style="fill:#9c00ff;"/>
   </g>
   <g id="patch_20">
    <path clip-path="url(#p14ba66cd98)" d="M 350.728603 457.198125 
L 359.838807 457.198125 
L 359.838807 109.909401 
L 350.728603 109.909401 
z
" style="fill:#9c00ff;"/>
   </g>
   <g id="patch_21">
    <path clip-path="url(#p14ba66cd98)" d="M 368.949011 457.198125 
L 378.059216 457.198125 
L 378.059216 109.8724 
L 368.949011 109.8724 
z
" style="fill:#9c00ff;"/>
   </g>
   <g id="patch_22">
    <path clip-path="url(#p14ba66cd98)" d="M 387.16942 457.198125 
L 396.279624 457.198125 
L 396.279624 109.757242 
L 387.16942 109.757242 
z
" style="fill:#9c00ff;"/>
   </g>
   <g id="patch_23">
    <path clip-path="url(#p14ba66cd98)" d="M 405.389828 457.198125 
L 414.500032 457.198125 
L 414.500032 115.277939 
L 405.389828 115.277939 
z
" style="fill:#9c00ff;"/>
   </g>
   <g id="patch_24">
    <path clip-path="url(#p14ba66cd98)" d="M 423.610236 457.198125 
L 432.72044 457.198125 
L 432.72044 125.933474 
L 423.610236 125.933474 
z
" style="fill:#9c00ff;"/>
   </g>
   <g id="patch_25">
    <path clip-path="url(#p14ba66cd98)" d="M 441.830644 457.198125 
L 450.940848 457.198125 
L 450.940848 129.420326 
L 441.830644 129.420326 
z
" style="fill:#9c00ff;"/>
   </g>
   <g id="patch_26">
    <path clip-path="url(#p14ba66cd98)" d="M 460.051052 457.198125 
L 469.161256 457.198125 
L 469.161256 125.018796 
L 460.051052 125.018796 
z
" style="fill:#9c00ff;"/>
   </g>
   <g id="patch_27">
    <path clip-path="url(#p14ba66cd98)" d="M 478.27146 457.198125 
L 487.381665 457.198125 
L 487.381665 121.464105 
L 478.27146 121.464105 
z
" style="fill:#9c00ff;"/>
   </g>
   <g id="patch_28">
    <path clip-path="url(#p14ba66cd98)" d="M 496.491869 457.198125 
L 505.602073 457.198125 
L 505.602073 123.298166 
L 496.491869 123.298166 
z
" style="fill:#9c00ff;"/>
   </g>
   <g id="patch_29">
    <path clip-path="url(#p14ba66cd98)" d="M 514.712277 457.198125 
L 523.822481 457.198125 
L 523.822481 129.056002 
L 514.712277 129.056002 
z
" style="fill:#9c00ff;"/>
   </g>
   <g id="patch_30">
    <path clip-path="url(#p14ba66cd98)" d="M 532.932685 457.198125 
L 542.042889 457.198125 
L 542.042889 135.663793 
L 532.932685 135.663793 
z
" style="fill:#9c00ff;"/>
   </g>
   <g id="patch_31">
    <path clip-path="url(#p14ba66cd98)" d="M 551.153093 457.198125 
L 560.263297 457.198125 
L 560.263297 140.487653 
L 551.153093 140.487653 
z
" style="fill:#9c00ff;"/>
   </g>
   <g id="patch_32">
    <path clip-path="url(#p14ba66cd98)" d="M 569.373501 457.198125 
L 578.483705 457.198125 
L 578.483705 139.438351 
L 569.373501 139.438351 
z
" style="fill:#9c00ff;"/>
   </g>
   <g id="patch_33">
    <path clip-path="url(#p14ba66cd98)" d="M 587.593909 457.198125 
L 596.704114 457.198125 
L 596.704114 148.054084 
L 587.593909 148.054084 
z
" style="fill:#9c00ff;"/>
   </g>
   <g id="patch_34">
    <path clip-path="url(#p14ba66cd98)" d="M 605.814318 457.198125 
L 614.924522 457.198125 
L 614.924522 148.693619 
L 605.814318 148.693619 
z
" style="fill:#9c00ff;"/>
   </g>
   <g id="patch_35">
    <path clip-path="url(#p14ba66cd98)" d="M 624.034726 457.198125 
L 633.14493 457.198125 
L 633.14493 145.469321 
L 624.034726 145.469321 
z
" style="fill:#9c00ff;"/>
   </g>
   <g id="patch_36">
    <path clip-path="url(#p14ba66cd98)" d="M 642.255134 457.198125 
L 651.365338 457.198125 
L 651.365338 152.885667 
L 642.255134 152.885667 
z
" style="fill:#9c00ff;"/>
   </g>
   <g id="patch_37">
    <path clip-path="url(#p14ba66cd98)" d="M 660.475542 457.198125 
L 669.585746 457.198125 
L 669.585746 166.78214 
L 660.475542 166.78214 
z
" style="fill:#9c00ff;"/>
   </g>
   <g id="patch_38">
    <path clip-path="url(#p14ba66cd98)" d="M 678.69595 457.198125 
L 687.806154 457.198125 
L 687.806154 175.522693 
L 678.69595 175.522693 
z
" style="fill:#9c00ff;"/>
   </g>
   <g id="patch_39">
    <path clip-path="url(#p14ba66cd98)" d="M 696.916358 457.198125 
L 706.026563 457.198125 
L 706.026563 171.193917 
L 696.916358 171.193917 
z
" style="fill:#9c00ff;"/>
   </g>
   <g id="patch_40">
    <path clip-path="url(#p14ba66cd98)" d="M 715.136767 457.198125 
L 724.246971 457.198125 
L 724.246971 174.996954 
L 715.136767 174.996954 
z
" style="fill:#9c00ff;"/>
   </g>
   <g id="patch_41">
    <path clip-path="url(#p14ba66cd98)" d="M 733.357175 457.198125 
L 742.467379 457.198125 
L 742.467379 183.320025 
L 733.357175 183.320025 
z
" style="fill:#9c00ff;"/>
   </g>
   <g id="patch_42">
    <path clip-path="url(#p14ba66cd98)" d="M 751.577583 457.198125 
L 760.687787 457.198125 
L 760.687787 190.032625 
L 751.577583 190.032625 
z
" style="fill:#9c00ff;"/>
   </g>
   <g id="patch_43">
    <path clip-path="url(#p14ba66cd98)" d="M 769.797991 457.198125 
L 778.908195 457.198125 
L 778.908195 192.381823 
L 769.797991 192.381823 
z
" style="fill:#9c00ff;"/>
   </g>
   <g id="patch_44">
    <path clip-path="url(#p14ba66cd98)" d="M 788.018399 457.198125 
L 797.128603 457.198125 
L 797.128603 196.354009 
L 788.018399 196.354009 
z
" style="fill:#9c00ff;"/>
   </g>
   <g id="patch_45">
    <path clip-path="url(#p14ba66cd98)" d="M 806.238807 457.198125 
L 815.349011 457.198125 
L 815.349011 199.973993 
L 806.238807 199.973993 
z
" style="fill:#9c00ff;"/>
   </g>
   <g id="patch_46">
    <path clip-path="url(#p14ba66cd98)" d="M 824.459216 457.198125 
L 833.56942 457.198125 
L 833.56942 207.35354 
L 824.459216 207.35354 
z
" style="fill:#9c00ff;"/>
   </g>
   <g id="patch_47">
    <path clip-path="url(#p14ba66cd98)" d="M 842.679624 457.198125 
L 851.789828 457.198125 
L 851.789828 215.526105 
L 842.679624 215.526105 
z
" style="fill:#9c00ff;"/>
   </g>
   <g id="patch_48">
    <path clip-path="url(#p14ba66cd98)" d="M 860.900032 457.198125 
L 870.010236 457.198125 
L 870.010236 216.524631 
L 860.900032 216.524631 
z
" style="fill:#9c00ff;"/>
   </g>
   <g id="patch_49">
    <path clip-path="url(#p14ba66cd98)" d="M 879.12044 457.198125 
L 888.230644 457.198125 
L 888.230644 221.14489 
L 879.12044 221.14489 
z
" style="fill:#9c00ff;"/>
   </g>
   <g id="patch_50">
    <path clip-path="url(#p14ba66cd98)" d="M 897.340848 457.198125 
L 906.451052 457.198125 
L 906.451052 228.161991 
L 897.340848 228.161991 
z
" style="fill:#9c00ff;"/>
   </g>
   <g id="patch_51">
    <path clip-path="url(#p14ba66cd98)" d="M 915.561256 457.198125 
L 924.67146 457.198125 
L 924.67146 229.674392 
L 915.561256 229.674392 
z
" style="fill:#9c00ff;"/>
   </g>
   <g id="matplotlib.axis_1">
    <g id="xtick_1">
     <g id="line2d_1">
      <defs>
       <path d="M 0 0 
L 0 3.5 
" id="m7a3c26db63" style="stroke:#000000;stroke-width:0.8;"/>
      </defs>
      <g>
       <use style="stroke:#000000;stroke-width:0.8;" x="45.536767" xlink:href="#m7a3c26db63" y="457.198125"/>
      </g>
     </g>
     <g id="text_1">
      <!-- 2 -->
      <g transform="translate(48.296142 470.560625)rotate(-90)scale(0.1 -0.1)">
       <defs>
        <path d="M 19.1875 8.296875 
L 53.609375 8.296875 
L 53.609375 0 
L 7.328125 0 
L 7.328125 8.296875 
Q 12.9375 14.109375 22.625 23.890625 
Q 32.328125 33.6875 34.8125 36.53125 
Q 39.546875 41.84375 41.421875 45.53125 
Q 43.3125 49.21875 43.3125 52.78125 
Q 43.3125 58.59375 39.234375 62.25 
Q 35.15625 65.921875 28.609375 65.921875 
Q 23.96875 65.921875 18.8125 64.3125 
Q 13.671875 62.703125 7.8125 59.421875 
L 7.8125 69.390625 
Q 13.765625 71.78125 18.9375 73 
Q 24.125 74.21875 28.421875 74.21875 
Q 39.75 74.21875 46.484375 68.546875 
Q 53.21875 62.890625 53.21875 53.421875 
Q 53.21875 48.921875 51.53125 44.890625 
Q 49.859375 40.875 45.40625 35.40625 
Q 44.1875 33.984375 37.640625 27.21875 
Q 31.109375 20.453125 19.1875 8.296875 
z
" id="DejaVuSans-50"/>
       </defs>
       <use xlink:href="#DejaVuSans-50"/>
      </g>
     </g>
    </g>
    <g id="xtick_2">
     <g id="line2d_2">
      <g>
       <use style="stroke:#000000;stroke-width:0.8;" x="63.757175" xlink:href="#m7a3c26db63" y="457.198125"/>
      </g>
     </g>
     <g id="text_2">
      <!-- 3 -->
      <g transform="translate(66.51655 470.560625)rotate(-90)scale(0.1 -0.1)">
       <defs>
        <path d="M 40.578125 39.3125 
Q 47.65625 37.796875 51.625 33 
Q 55.609375 28.21875 55.609375 21.1875 
Q 55.609375 10.40625 48.1875 4.484375 
Q 40.765625 -1.421875 27.09375 -1.421875 
Q 22.515625 -1.421875 17.65625 -0.515625 
Q 12.796875 0.390625 7.625 2.203125 
L 7.625 11.71875 
Q 11.71875 9.328125 16.59375 8.109375 
Q 21.484375 6.890625 26.8125 6.890625 
Q 36.078125 6.890625 40.9375 10.546875 
Q 45.796875 14.203125 45.796875 21.1875 
Q 45.796875 27.640625 41.28125 31.265625 
Q 36.765625 34.90625 28.71875 34.90625 
L 20.21875 34.90625 
L 20.21875 43.015625 
L 29.109375 43.015625 
Q 36.375 43.015625 40.234375 45.921875 
Q 44.09375 48.828125 44.09375 54.296875 
Q 44.09375 59.90625 40.109375 62.90625 
Q 36.140625 65.921875 28.71875 65.921875 
Q 24.65625 65.921875 20.015625 65.03125 
Q 15.375 64.15625 9.8125 62.3125 
L 9.8125 71.09375 
Q 15.4375 72.65625 20.34375 73.4375 
Q 25.25 74.21875 29.59375 74.21875 
Q 40.828125 74.21875 47.359375 69.109375 
Q 53.90625 64.015625 53.90625 55.328125 
Q 53.90625 49.265625 50.4375 45.09375 
Q 46.96875 40.921875 40.578125 39.3125 
z
" id="DejaVuSans-51"/>
       </defs>
       <use xlink:href="#DejaVuSans-51"/>
      </g>
     </g>
    </g>
    <g id="xtick_3">
     <g id="line2d_3">
      <g>
       <use style="stroke:#000000;stroke-width:0.8;" x="81.977583" xlink:href="#m7a3c26db63" y="457.198125"/>
      </g>
     </g>
     <g id="text_3">
      <!-- 4 -->
      <g transform="translate(84.736958 470.560625)rotate(-90)scale(0.1 -0.1)">
       <defs>
        <path d="M 37.796875 64.3125 
L 12.890625 25.390625 
L 37.796875 25.390625 
z
M 35.203125 72.90625 
L 47.609375 72.90625 
L 47.609375 25.390625 
L 58.015625 25.390625 
L 58.015625 17.1875 
L 47.609375 17.1875 
L 47.609375 0 
L 37.796875 0 
L 37.796875 17.1875 
L 4.890625 17.1875 
L 4.890625 26.703125 
z
" id="DejaVuSans-52"/>
       </defs>
       <use xlink:href="#DejaVuSans-52"/>
      </g>
     </g>
    </g>
    <g id="xtick_4">
     <g id="line2d_4">
      <g>
       <use style="stroke:#000000;stroke-width:0.8;" x="100.197991" xlink:href="#m7a3c26db63" y="457.198125"/>
      </g>
     </g>
     <g id="text_4">
      <!-- 5 -->
      <g transform="translate(102.957366 470.560625)rotate(-90)scale(0.1 -0.1)">
       <defs>
        <path d="M 10.796875 72.90625 
L 49.515625 72.90625 
L 49.515625 64.59375 
L 19.828125 64.59375 
L 19.828125 46.734375 
Q 21.96875 47.46875 24.109375 47.828125 
Q 26.265625 48.1875 28.421875 48.1875 
Q 40.625 48.1875 47.75 41.5 
Q 54.890625 34.8125 54.890625 23.390625 
Q 54.890625 11.625 47.5625 5.09375 
Q 40.234375 -1.421875 26.90625 -1.421875 
Q 22.3125 -1.421875 17.546875 -0.640625 
Q 12.796875 0.140625 7.71875 1.703125 
L 7.71875 11.625 
Q 12.109375 9.234375 16.796875 8.0625 
Q 21.484375 6.890625 26.703125 6.890625 
Q 35.15625 6.890625 40.078125 11.328125 
Q 45.015625 15.765625 45.015625 23.390625 
Q 45.015625 31 40.078125 35.4375 
Q 35.15625 39.890625 26.703125 39.890625 
Q 22.75 39.890625 18.8125 39.015625 
Q 14.890625 38.140625 10.796875 36.28125 
z
" id="DejaVuSans-53"/>
       </defs>
       <use xlink:href="#DejaVuSans-53"/>
      </g>
     </g>
    </g>
    <g id="xtick_5">
     <g id="line2d_5">
      <g>
       <use style="stroke:#000000;stroke-width:0.8;" x="118.418399" xlink:href="#m7a3c26db63" y="457.198125"/>
      </g>
     </g>
     <g id="text_5">
      <!-- 6 -->
      <g transform="translate(121.177774 470.560625)rotate(-90)scale(0.1 -0.1)">
       <defs>
        <path d="M 33.015625 40.375 
Q 26.375 40.375 22.484375 35.828125 
Q 18.609375 31.296875 18.609375 23.390625 
Q 18.609375 15.53125 22.484375 10.953125 
Q 26.375 6.390625 33.015625 6.390625 
Q 39.65625 6.390625 43.53125 10.953125 
Q 47.40625 15.53125 47.40625 23.390625 
Q 47.40625 31.296875 43.53125 35.828125 
Q 39.65625 40.375 33.015625 40.375 
z
M 52.59375 71.296875 
L 52.59375 62.3125 
Q 48.875 64.0625 45.09375 64.984375 
Q 41.3125 65.921875 37.59375 65.921875 
Q 27.828125 65.921875 22.671875 59.328125 
Q 17.53125 52.734375 16.796875 39.40625 
Q 19.671875 43.65625 24.015625 45.921875 
Q 28.375 48.1875 33.59375 48.1875 
Q 44.578125 48.1875 50.953125 41.515625 
Q 57.328125 34.859375 57.328125 23.390625 
Q 57.328125 12.15625 50.6875 5.359375 
Q 44.046875 -1.421875 33.015625 -1.421875 
Q 20.359375 -1.421875 13.671875 8.265625 
Q 6.984375 17.96875 6.984375 36.375 
Q 6.984375 53.65625 15.1875 63.9375 
Q 23.390625 74.21875 37.203125 74.21875 
Q 40.921875 74.21875 44.703125 73.484375 
Q 48.484375 72.75 52.59375 71.296875 
z
" id="DejaVuSans-54"/>
       </defs>
       <use xlink:href="#DejaVuSans-54"/>
      </g>
     </g>
    </g>
    <g id="xtick_6">
     <g id="line2d_6">
      <g>
       <use style="stroke:#000000;stroke-width:0.8;" x="136.638807" xlink:href="#m7a3c26db63" y="457.198125"/>
      </g>
     </g>
     <g id="text_6">
      <!-- 7 -->
      <g transform="translate(139.398182 470.560625)rotate(-90)scale(0.1 -0.1)">
       <defs>
        <path d="M 8.203125 72.90625 
L 55.078125 72.90625 
L 55.078125 68.703125 
L 28.609375 0 
L 18.3125 0 
L 43.21875 64.59375 
L 8.203125 64.59375 
z
" id="DejaVuSans-55"/>
       </defs>
       <use xlink:href="#DejaVuSans-55"/>
      </g>
     </g>
    </g>
    <g id="xtick_7">
     <g id="line2d_7">
      <g>
       <use style="stroke:#000000;stroke-width:0.8;" x="154.859216" xlink:href="#m7a3c26db63" y="457.198125"/>
      </g>
     </g>
     <g id="text_7">
      <!-- 8 -->
      <g transform="translate(157.618591 470.560625)rotate(-90)scale(0.1 -0.1)">
       <defs>
        <path d="M 31.78125 34.625 
Q 24.75 34.625 20.71875 30.859375 
Q 16.703125 27.09375 16.703125 20.515625 
Q 16.703125 13.921875 20.71875 10.15625 
Q 24.75 6.390625 31.78125 6.390625 
Q 38.8125 6.390625 42.859375 10.171875 
Q 46.921875 13.96875 46.921875 20.515625 
Q 46.921875 27.09375 42.890625 30.859375 
Q 38.875 34.625 31.78125 34.625 
z
M 21.921875 38.8125 
Q 15.578125 40.375 12.03125 44.71875 
Q 8.5 49.078125 8.5 55.328125 
Q 8.5 64.0625 14.71875 69.140625 
Q 20.953125 74.21875 31.78125 74.21875 
Q 42.671875 74.21875 48.875 69.140625 
Q 55.078125 64.0625 55.078125 55.328125 
Q 55.078125 49.078125 51.53125 44.71875 
Q 48 40.375 41.703125 38.8125 
Q 48.828125 37.15625 52.796875 32.3125 
Q 56.78125 27.484375 56.78125 20.515625 
Q 56.78125 9.90625 50.3125 4.234375 
Q 43.84375 -1.421875 31.78125 -1.421875 
Q 19.734375 -1.421875 13.25 4.234375 
Q 6.78125 9.90625 6.78125 20.515625 
Q 6.78125 27.484375 10.78125 32.3125 
Q 14.796875 37.15625 21.921875 38.8125 
z
M 18.3125 54.390625 
Q 18.3125 48.734375 21.84375 45.5625 
Q 25.390625 42.390625 31.78125 42.390625 
Q 38.140625 42.390625 41.71875 45.5625 
Q 45.3125 48.734375 45.3125 54.390625 
Q 45.3125 60.0625 41.71875 63.234375 
Q 38.140625 66.40625 31.78125 66.40625 
Q 25.390625 66.40625 21.84375 63.234375 
Q 18.3125 60.0625 18.3125 54.390625 
z
" id="DejaVuSans-56"/>
       </defs>
       <use xlink:href="#DejaVuSans-56"/>
      </g>
     </g>
    </g>
    <g id="xtick_8">
     <g id="line2d_8">
      <g>
       <use style="stroke:#000000;stroke-width:0.8;" x="173.079624" xlink:href="#m7a3c26db63" y="457.198125"/>
      </g>
     </g>
     <g id="text_8">
      <!-- 9 -->
      <g transform="translate(175.838999 470.560625)rotate(-90)scale(0.1 -0.1)">
       <defs>
        <path d="M 10.984375 1.515625 
L 10.984375 10.5 
Q 14.703125 8.734375 18.5 7.8125 
Q 22.3125 6.890625 25.984375 6.890625 
Q 35.75 6.890625 40.890625 13.453125 
Q 46.046875 20.015625 46.78125 33.40625 
Q 43.953125 29.203125 39.59375 26.953125 
Q 35.25 24.703125 29.984375 24.703125 
Q 19.046875 24.703125 12.671875 31.3125 
Q 6.296875 37.9375 6.296875 49.421875 
Q 6.296875 60.640625 12.9375 67.421875 
Q 19.578125 74.21875 30.609375 74.21875 
Q 43.265625 74.21875 49.921875 64.515625 
Q 56.59375 54.828125 56.59375 36.375 
Q 56.59375 19.140625 48.40625 8.859375 
Q 40.234375 -1.421875 26.421875 -1.421875 
Q 22.703125 -1.421875 18.890625 -0.6875 
Q 15.09375 0.046875 10.984375 1.515625 
z
M 30.609375 32.421875 
Q 37.25 32.421875 41.125 36.953125 
Q 45.015625 41.5 45.015625 49.421875 
Q 45.015625 57.28125 41.125 61.84375 
Q 37.25 66.40625 30.609375 66.40625 
Q 23.96875 66.40625 20.09375 61.84375 
Q 16.21875 57.28125 16.21875 49.421875 
Q 16.21875 41.5 20.09375 36.953125 
Q 23.96875 32.421875 30.609375 32.421875 
z
" id="DejaVuSans-57"/>
       </defs>
       <use xlink:href="#DejaVuSans-57"/>
      </g>
     </g>
    </g>
    <g id="xtick_9">
     <g id="line2d_9">
      <g>
       <use style="stroke:#000000;stroke-width:0.8;" x="191.300032" xlink:href="#m7a3c26db63" y="457.198125"/>
      </g>
     </g>
     <g id="text_9">
      <!-- 10 -->
      <g transform="translate(194.059407 476.923125)rotate(-90)scale(0.1 -0.1)">
       <defs>
        <path d="M 12.40625 8.296875 
L 28.515625 8.296875 
L 28.515625 63.921875 
L 10.984375 60.40625 
L 10.984375 69.390625 
L 28.421875 72.90625 
L 38.28125 72.90625 
L 38.28125 8.296875 
L 54.390625 8.296875 
L 54.390625 0 
L 12.40625 0 
z
" id="DejaVuSans-49"/>
        <path d="M 31.78125 66.40625 
Q 24.171875 66.40625 20.328125 58.90625 
Q 16.5 51.421875 16.5 36.375 
Q 16.5 21.390625 20.328125 13.890625 
Q 24.171875 6.390625 31.78125 6.390625 
Q 39.453125 6.390625 43.28125 13.890625 
Q 47.125 21.390625 47.125 36.375 
Q 47.125 51.421875 43.28125 58.90625 
Q 39.453125 66.40625 31.78125 66.40625 
z
M 31.78125 74.21875 
Q 44.046875 74.21875 50.515625 64.515625 
Q 56.984375 54.828125 56.984375 36.375 
Q 56.984375 17.96875 50.515625 8.265625 
Q 44.046875 -1.421875 31.78125 -1.421875 
Q 19.53125 -1.421875 13.0625 8.265625 
Q 6.59375 17.96875 6.59375 36.375 
Q 6.59375 54.828125 13.0625 64.515625 
Q 19.53125 74.21875 31.78125 74.21875 
z
" id="DejaVuSans-48"/>
       </defs>
       <use xlink:href="#DejaVuSans-49"/>
       <use x="63.623047" xlink:href="#DejaVuSans-48"/>
      </g>
     </g>
    </g>
    <g id="xtick_10">
     <g id="line2d_10">
      <g>
       <use style="stroke:#000000;stroke-width:0.8;" x="209.52044" xlink:href="#m7a3c26db63" y="457.198125"/>
      </g>
     </g>
     <g id="text_10">
      <!-- 11 -->
      <g transform="translate(212.279815 476.923125)rotate(-90)scale(0.1 -0.1)">
       <use xlink:href="#DejaVuSans-49"/>
       <use x="63.623047" xlink:href="#DejaVuSans-49"/>
      </g>
     </g>
    </g>
    <g id="xtick_11">
     <g id="line2d_11">
      <g>
       <use style="stroke:#000000;stroke-width:0.8;" x="227.740848" xlink:href="#m7a3c26db63" y="457.198125"/>
      </g>
     </g>
     <g id="text_11">
      <!-- 12 -->
      <g transform="translate(230.500223 476.923125)rotate(-90)scale(0.1 -0.1)">
       <use xlink:href="#DejaVuSans-49"/>
       <use x="63.623047" xlink:href="#DejaVuSans-50"/>
      </g>
     </g>
    </g>
    <g id="xtick_12">
     <g id="line2d_12">
      <g>
       <use style="stroke:#000000;stroke-width:0.8;" x="245.961256" xlink:href="#m7a3c26db63" y="457.198125"/>
      </g>
     </g>
     <g id="text_12">
      <!-- 13 -->
      <g transform="translate(248.720631 476.923125)rotate(-90)scale(0.1 -0.1)">
       <use xlink:href="#DejaVuSans-49"/>
       <use x="63.623047" xlink:href="#DejaVuSans-51"/>
      </g>
     </g>
    </g>
    <g id="xtick_13">
     <g id="line2d_13">
      <g>
       <use style="stroke:#000000;stroke-width:0.8;" x="264.181665" xlink:href="#m7a3c26db63" y="457.198125"/>
      </g>
     </g>
     <g id="text_13">
      <!-- 14 -->
      <g transform="translate(266.94104 476.923125)rotate(-90)scale(0.1 -0.1)">
       <use xlink:href="#DejaVuSans-49"/>
       <use x="63.623047" xlink:href="#DejaVuSans-52"/>
      </g>
     </g>
    </g>
    <g id="xtick_14">
     <g id="line2d_14">
      <g>
       <use style="stroke:#000000;stroke-width:0.8;" x="282.402073" xlink:href="#m7a3c26db63" y="457.198125"/>
      </g>
     </g>
     <g id="text_14">
      <!-- 15 -->
      <g transform="translate(285.161448 476.923125)rotate(-90)scale(0.1 -0.1)">
       <use xlink:href="#DejaVuSans-49"/>
       <use x="63.623047" xlink:href="#DejaVuSans-53"/>
      </g>
     </g>
    </g>
    <g id="xtick_15">
     <g id="line2d_15">
      <g>
       <use style="stroke:#000000;stroke-width:0.8;" x="300.622481" xlink:href="#m7a3c26db63" y="457.198125"/>
      </g>
     </g>
     <g id="text_15">
      <!-- 16 -->
      <g transform="translate(303.381856 476.923125)rotate(-90)scale(0.1 -0.1)">
       <use xlink:href="#DejaVuSans-49"/>
       <use x="63.623047" xlink:href="#DejaVuSans-54"/>
      </g>
     </g>
    </g>
    <g id="xtick_16">
     <g id="line2d_16">
      <g>
       <use style="stroke:#000000;stroke-width:0.8;" x="318.842889" xlink:href="#m7a3c26db63" y="457.198125"/>
      </g>
     </g>
     <g id="text_16">
      <!-- 17 -->
      <g transform="translate(321.602264 476.923125)rotate(-90)scale(0.1 -0.1)">
       <use xlink:href="#DejaVuSans-49"/>
       <use x="63.623047" xlink:href="#DejaVuSans-55"/>
      </g>
     </g>
    </g>
    <g id="xtick_17">
     <g id="line2d_17">
      <g>
       <use style="stroke:#000000;stroke-width:0.8;" x="337.063297" xlink:href="#m7a3c26db63" y="457.198125"/>
      </g>
     </g>
     <g id="text_17">
      <!-- 18 -->
      <g transform="translate(339.822672 476.923125)rotate(-90)scale(0.1 -0.1)">
       <use xlink:href="#DejaVuSans-49"/>
       <use x="63.623047" xlink:href="#DejaVuSans-56"/>
      </g>
     </g>
    </g>
    <g id="xtick_18">
     <g id="line2d_18">
      <g>
       <use style="stroke:#000000;stroke-width:0.8;" x="355.283705" xlink:href="#m7a3c26db63" y="457.198125"/>
      </g>
     </g>
     <g id="text_18">
      <!-- 19 -->
      <g transform="translate(358.04308 476.923125)rotate(-90)scale(0.1 -0.1)">
       <use xlink:href="#DejaVuSans-49"/>
       <use x="63.623047" xlink:href="#DejaVuSans-57"/>
      </g>
     </g>
    </g>
    <g id="xtick_19">
     <g id="line2d_19">
      <g>
       <use style="stroke:#000000;stroke-width:0.8;" x="373.504114" xlink:href="#m7a3c26db63" y="457.198125"/>
      </g>
     </g>
     <g id="text_19">
      <!-- 20 -->
      <g transform="translate(376.263489 476.923125)rotate(-90)scale(0.1 -0.1)">
       <use xlink:href="#DejaVuSans-50"/>
       <use x="63.623047" xlink:href="#DejaVuSans-48"/>
      </g>
     </g>
    </g>
    <g id="xtick_20">
     <g id="line2d_20">
      <g>
       <use style="stroke:#000000;stroke-width:0.8;" x="391.724522" xlink:href="#m7a3c26db63" y="457.198125"/>
      </g>
     </g>
     <g id="text_20">
      <!-- 21 -->
      <g transform="translate(394.483897 476.923125)rotate(-90)scale(0.1 -0.1)">
       <use xlink:href="#DejaVuSans-50"/>
       <use x="63.623047" xlink:href="#DejaVuSans-49"/>
      </g>
     </g>
    </g>
    <g id="xtick_21">
     <g id="line2d_21">
      <g>
       <use style="stroke:#000000;stroke-width:0.8;" x="409.94493" xlink:href="#m7a3c26db63" y="457.198125"/>
      </g>
     </g>
     <g id="text_21">
      <!-- 22 -->
      <g transform="translate(412.704305 476.923125)rotate(-90)scale(0.1 -0.1)">
       <use xlink:href="#DejaVuSans-50"/>
       <use x="63.623047" xlink:href="#DejaVuSans-50"/>
      </g>
     </g>
    </g>
    <g id="xtick_22">
     <g id="line2d_22">
      <g>
       <use style="stroke:#000000;stroke-width:0.8;" x="428.165338" xlink:href="#m7a3c26db63" y="457.198125"/>
      </g>
     </g>
     <g id="text_22">
      <!-- 23 -->
      <g transform="translate(430.924713 476.923125)rotate(-90)scale(0.1 -0.1)">
       <use xlink:href="#DejaVuSans-50"/>
       <use x="63.623047" xlink:href="#DejaVuSans-51"/>
      </g>
     </g>
    </g>
    <g id="xtick_23">
     <g id="line2d_23">
      <g>
       <use style="stroke:#000000;stroke-width:0.8;" x="446.385746" xlink:href="#m7a3c26db63" y="457.198125"/>
      </g>
     </g>
     <g id="text_23">
      <!-- 24 -->
      <g transform="translate(449.145121 476.923125)rotate(-90)scale(0.1 -0.1)">
       <use xlink:href="#DejaVuSans-50"/>
       <use x="63.623047" xlink:href="#DejaVuSans-52"/>
      </g>
     </g>
    </g>
    <g id="xtick_24">
     <g id="line2d_24">
      <g>
       <use style="stroke:#000000;stroke-width:0.8;" x="464.606154" xlink:href="#m7a3c26db63" y="457.198125"/>
      </g>
     </g>
     <g id="text_24">
      <!-- 25 -->
      <g transform="translate(467.365529 476.923125)rotate(-90)scale(0.1 -0.1)">
       <use xlink:href="#DejaVuSans-50"/>
       <use x="63.623047" xlink:href="#DejaVuSans-53"/>
      </g>
     </g>
    </g>
    <g id="xtick_25">
     <g id="line2d_25">
      <g>
       <use style="stroke:#000000;stroke-width:0.8;" x="482.826562" xlink:href="#m7a3c26db63" y="457.198125"/>
      </g>
     </g>
     <g id="text_25">
      <!-- 26 -->
      <g transform="translate(485.585937 476.923125)rotate(-90)scale(0.1 -0.1)">
       <use xlink:href="#DejaVuSans-50"/>
       <use x="63.623047" xlink:href="#DejaVuSans-54"/>
      </g>
     </g>
    </g>
    <g id="xtick_26">
     <g id="line2d_26">
      <g>
       <use style="stroke:#000000;stroke-width:0.8;" x="501.046971" xlink:href="#m7a3c26db63" y="457.198125"/>
      </g>
     </g>
     <g id="text_26">
      <!-- 27 -->
      <g transform="translate(503.806346 476.923125)rotate(-90)scale(0.1 -0.1)">
       <use xlink:href="#DejaVuSans-50"/>
       <use x="63.623047" xlink:href="#DejaVuSans-55"/>
      </g>
     </g>
    </g>
    <g id="xtick_27">
     <g id="line2d_27">
      <g>
       <use style="stroke:#000000;stroke-width:0.8;" x="519.267379" xlink:href="#m7a3c26db63" y="457.198125"/>
      </g>
     </g>
     <g id="text_27">
      <!-- 28 -->
      <g transform="translate(522.026754 476.923125)rotate(-90)scale(0.1 -0.1)">
       <use xlink:href="#DejaVuSans-50"/>
       <use x="63.623047" xlink:href="#DejaVuSans-56"/>
      </g>
     </g>
    </g>
    <g id="xtick_28">
     <g id="line2d_28">
      <g>
       <use style="stroke:#000000;stroke-width:0.8;" x="537.487787" xlink:href="#m7a3c26db63" y="457.198125"/>
      </g>
     </g>
     <g id="text_28">
      <!-- 29 -->
      <g transform="translate(540.247162 476.923125)rotate(-90)scale(0.1 -0.1)">
       <use xlink:href="#DejaVuSans-50"/>
       <use x="63.623047" xlink:href="#DejaVuSans-57"/>
      </g>
     </g>
    </g>
    <g id="xtick_29">
     <g id="line2d_29">
      <g>
       <use style="stroke:#000000;stroke-width:0.8;" x="555.708195" xlink:href="#m7a3c26db63" y="457.198125"/>
      </g>
     </g>
     <g id="text_29">
      <!-- 30 -->
      <g transform="translate(558.46757 476.923125)rotate(-90)scale(0.1 -0.1)">
       <use xlink:href="#DejaVuSans-51"/>
       <use x="63.623047" xlink:href="#DejaVuSans-48"/>
      </g>
     </g>
    </g>
    <g id="xtick_30">
     <g id="line2d_30">
      <g>
       <use style="stroke:#000000;stroke-width:0.8;" x="573.928603" xlink:href="#m7a3c26db63" y="457.198125"/>
      </g>
     </g>
     <g id="text_30">
      <!-- 31 -->
      <g transform="translate(576.687978 476.923125)rotate(-90)scale(0.1 -0.1)">
       <use xlink:href="#DejaVuSans-51"/>
       <use x="63.623047" xlink:href="#DejaVuSans-49"/>
      </g>
     </g>
    </g>
    <g id="xtick_31">
     <g id="line2d_31">
      <g>
       <use style="stroke:#000000;stroke-width:0.8;" x="592.149011" xlink:href="#m7a3c26db63" y="457.198125"/>
      </g>
     </g>
     <g id="text_31">
      <!-- 32 -->
      <g transform="translate(594.908386 476.923125)rotate(-90)scale(0.1 -0.1)">
       <use xlink:href="#DejaVuSans-51"/>
       <use x="63.623047" xlink:href="#DejaVuSans-50"/>
      </g>
     </g>
    </g>
    <g id="xtick_32">
     <g id="line2d_32">
      <g>
       <use style="stroke:#000000;stroke-width:0.8;" x="610.36942" xlink:href="#m7a3c26db63" y="457.198125"/>
      </g>
     </g>
     <g id="text_32">
      <!-- 33 -->
      <g transform="translate(613.128795 476.923125)rotate(-90)scale(0.1 -0.1)">
       <use xlink:href="#DejaVuSans-51"/>
       <use x="63.623047" xlink:href="#DejaVuSans-51"/>
      </g>
     </g>
    </g>
    <g id="xtick_33">
     <g id="line2d_33">
      <g>
       <use style="stroke:#000000;stroke-width:0.8;" x="628.589828" xlink:href="#m7a3c26db63" y="457.198125"/>
      </g>
     </g>
     <g id="text_33">
      <!-- 34 -->
      <g transform="translate(631.349203 476.923125)rotate(-90)scale(0.1 -0.1)">
       <use xlink:href="#DejaVuSans-51"/>
       <use x="63.623047" xlink:href="#DejaVuSans-52"/>
      </g>
     </g>
    </g>
    <g id="xtick_34">
     <g id="line2d_34">
      <g>
       <use style="stroke:#000000;stroke-width:0.8;" x="646.810236" xlink:href="#m7a3c26db63" y="457.198125"/>
      </g>
     </g>
     <g id="text_34">
      <!-- 35 -->
      <g transform="translate(649.569611 476.923125)rotate(-90)scale(0.1 -0.1)">
       <use xlink:href="#DejaVuSans-51"/>
       <use x="63.623047" xlink:href="#DejaVuSans-53"/>
      </g>
     </g>
    </g>
    <g id="xtick_35">
     <g id="line2d_35">
      <g>
       <use style="stroke:#000000;stroke-width:0.8;" x="665.030644" xlink:href="#m7a3c26db63" y="457.198125"/>
      </g>
     </g>
     <g id="text_35">
      <!-- 36 -->
      <g transform="translate(667.790019 476.923125)rotate(-90)scale(0.1 -0.1)">
       <use xlink:href="#DejaVuSans-51"/>
       <use x="63.623047" xlink:href="#DejaVuSans-54"/>
      </g>
     </g>
    </g>
    <g id="xtick_36">
     <g id="line2d_36">
      <g>
       <use style="stroke:#000000;stroke-width:0.8;" x="683.251052" xlink:href="#m7a3c26db63" y="457.198125"/>
      </g>
     </g>
     <g id="text_36">
      <!-- 37 -->
      <g transform="translate(686.010427 476.923125)rotate(-90)scale(0.1 -0.1)">
       <use xlink:href="#DejaVuSans-51"/>
       <use x="63.623047" xlink:href="#DejaVuSans-55"/>
      </g>
     </g>
    </g>
    <g id="xtick_37">
     <g id="line2d_37">
      <g>
       <use style="stroke:#000000;stroke-width:0.8;" x="701.47146" xlink:href="#m7a3c26db63" y="457.198125"/>
      </g>
     </g>
     <g id="text_37">
      <!-- 38 -->
      <g transform="translate(704.230835 476.923125)rotate(-90)scale(0.1 -0.1)">
       <use xlink:href="#DejaVuSans-51"/>
       <use x="63.623047" xlink:href="#DejaVuSans-56"/>
      </g>
     </g>
    </g>
    <g id="xtick_38">
     <g id="line2d_38">
      <g>
       <use style="stroke:#000000;stroke-width:0.8;" x="719.691869" xlink:href="#m7a3c26db63" y="457.198125"/>
      </g>
     </g>
     <g id="text_38">
      <!-- 39 -->
      <g transform="translate(722.451244 476.923125)rotate(-90)scale(0.1 -0.1)">
       <use xlink:href="#DejaVuSans-51"/>
       <use x="63.623047" xlink:href="#DejaVuSans-57"/>
      </g>
     </g>
    </g>
    <g id="xtick_39">
     <g id="line2d_39">
      <g>
       <use style="stroke:#000000;stroke-width:0.8;" x="737.912277" xlink:href="#m7a3c26db63" y="457.198125"/>
      </g>
     </g>
     <g id="text_39">
      <!-- 40 -->
      <g transform="translate(740.671652 476.923125)rotate(-90)scale(0.1 -0.1)">
       <use xlink:href="#DejaVuSans-52"/>
       <use x="63.623047" xlink:href="#DejaVuSans-48"/>
      </g>
     </g>
    </g>
    <g id="xtick_40">
     <g id="line2d_40">
      <g>
       <use style="stroke:#000000;stroke-width:0.8;" x="756.132685" xlink:href="#m7a3c26db63" y="457.198125"/>
      </g>
     </g>
     <g id="text_40">
      <!-- 41 -->
      <g transform="translate(758.89206 476.923125)rotate(-90)scale(0.1 -0.1)">
       <use xlink:href="#DejaVuSans-52"/>
       <use x="63.623047" xlink:href="#DejaVuSans-49"/>
      </g>
     </g>
    </g>
    <g id="xtick_41">
     <g id="line2d_41">
      <g>
       <use style="stroke:#000000;stroke-width:0.8;" x="774.353093" xlink:href="#m7a3c26db63" y="457.198125"/>
      </g>
     </g>
     <g id="text_41">
      <!-- 42 -->
      <g transform="translate(777.112468 476.923125)rotate(-90)scale(0.1 -0.1)">
       <use xlink:href="#DejaVuSans-52"/>
       <use x="63.623047" xlink:href="#DejaVuSans-50"/>
      </g>
     </g>
    </g>
    <g id="xtick_42">
     <g id="line2d_42">
      <g>
       <use style="stroke:#000000;stroke-width:0.8;" x="792.573501" xlink:href="#m7a3c26db63" y="457.198125"/>
      </g>
     </g>
     <g id="text_42">
      <!-- 43 -->
      <g transform="translate(795.332876 476.923125)rotate(-90)scale(0.1 -0.1)">
       <use xlink:href="#DejaVuSans-52"/>
       <use x="63.623047" xlink:href="#DejaVuSans-51"/>
      </g>
     </g>
    </g>
    <g id="xtick_43">
     <g id="line2d_43">
      <g>
       <use style="stroke:#000000;stroke-width:0.8;" x="810.793909" xlink:href="#m7a3c26db63" y="457.198125"/>
      </g>
     </g>
     <g id="text_43">
      <!-- 44 -->
      <g transform="translate(813.553284 476.923125)rotate(-90)scale(0.1 -0.1)">
       <use xlink:href="#DejaVuSans-52"/>
       <use x="63.623047" xlink:href="#DejaVuSans-52"/>
      </g>
     </g>
    </g>
    <g id="xtick_44">
     <g id="line2d_44">
      <g>
       <use style="stroke:#000000;stroke-width:0.8;" x="829.014318" xlink:href="#m7a3c26db63" y="457.198125"/>
      </g>
     </g>
     <g id="text_44">
      <!-- 45 -->
      <g transform="translate(831.773693 476.923125)rotate(-90)scale(0.1 -0.1)">
       <use xlink:href="#DejaVuSans-52"/>
       <use x="63.623047" xlink:href="#DejaVuSans-53"/>
      </g>
     </g>
    </g>
    <g id="xtick_45">
     <g id="line2d_45">
      <g>
       <use style="stroke:#000000;stroke-width:0.8;" x="847.234726" xlink:href="#m7a3c26db63" y="457.198125"/>
      </g>
     </g>
     <g id="text_45">
      <!-- 46 -->
      <g transform="translate(849.994101 476.923125)rotate(-90)scale(0.1 -0.1)">
       <use xlink:href="#DejaVuSans-52"/>
       <use x="63.623047" xlink:href="#DejaVuSans-54"/>
      </g>
     </g>
    </g>
    <g id="xtick_46">
     <g id="line2d_46">
      <g>
       <use style="stroke:#000000;stroke-width:0.8;" x="865.455134" xlink:href="#m7a3c26db63" y="457.198125"/>
      </g>
     </g>
     <g id="text_46">
      <!-- 47 -->
      <g transform="translate(868.214509 476.923125)rotate(-90)scale(0.1 -0.1)">
       <use xlink:href="#DejaVuSans-52"/>
       <use x="63.623047" xlink:href="#DejaVuSans-55"/>
      </g>
     </g>
    </g>
    <g id="xtick_47">
     <g id="line2d_47">
      <g>
       <use style="stroke:#000000;stroke-width:0.8;" x="883.675542" xlink:href="#m7a3c26db63" y="457.198125"/>
      </g>
     </g>
     <g id="text_47">
      <!-- 48 -->
      <g transform="translate(886.434917 476.923125)rotate(-90)scale(0.1 -0.1)">
       <use xlink:href="#DejaVuSans-52"/>
       <use x="63.623047" xlink:href="#DejaVuSans-56"/>
      </g>
     </g>
    </g>
    <g id="xtick_48">
     <g id="line2d_48">
      <g>
       <use style="stroke:#000000;stroke-width:0.8;" x="901.89595" xlink:href="#m7a3c26db63" y="457.198125"/>
      </g>
     </g>
     <g id="text_48">
      <!-- 49 -->
      <g transform="translate(904.655325 476.923125)rotate(-90)scale(0.1 -0.1)">
       <use xlink:href="#DejaVuSans-52"/>
       <use x="63.623047" xlink:href="#DejaVuSans-57"/>
      </g>
     </g>
    </g>
    <g id="xtick_49">
     <g id="line2d_49">
      <g>
       <use style="stroke:#000000;stroke-width:0.8;" x="920.116358" xlink:href="#m7a3c26db63" y="457.198125"/>
      </g>
     </g>
     <g id="text_49">
      <!-- 50 -->
      <g transform="translate(922.875733 476.923125)rotate(-90)scale(0.1 -0.1)">
       <use xlink:href="#DejaVuSans-53"/>
       <use x="63.623047" xlink:href="#DejaVuSans-48"/>
      </g>
     </g>
    </g>
    <g id="text_50">
     <!-- Lag -->
     <g transform="translate(473.802344 488.521562)scale(0.1 -0.1)">
      <defs>
       <path d="M 9.8125 72.90625 
L 19.671875 72.90625 
L 19.671875 8.296875 
L 55.171875 8.296875 
L 55.171875 0 
L 9.8125 0 
z
" id="DejaVuSans-76"/>
       <path d="M 34.28125 27.484375 
Q 23.390625 27.484375 19.1875 25 
Q 14.984375 22.515625 14.984375 16.5 
Q 14.984375 11.71875 18.140625 8.90625 
Q 21.296875 6.109375 26.703125 6.109375 
Q 34.1875 6.109375 38.703125 11.40625 
Q 43.21875 16.703125 43.21875 25.484375 
L 43.21875 27.484375 
z
M 52.203125 31.203125 
L 52.203125 0 
L 43.21875 0 
L 43.21875 8.296875 
Q 40.140625 3.328125 35.546875 0.953125 
Q 30.953125 -1.421875 24.3125 -1.421875 
Q 15.921875 -1.421875 10.953125 3.296875 
Q 6 8.015625 6 15.921875 
Q 6 25.140625 12.171875 29.828125 
Q 18.359375 34.515625 30.609375 34.515625 
L 43.21875 34.515625 
L 43.21875 35.40625 
Q 43.21875 41.609375 39.140625 45 
Q 35.0625 48.390625 27.6875 48.390625 
Q 23 48.390625 18.546875 47.265625 
Q 14.109375 46.140625 10.015625 43.890625 
L 10.015625 52.203125 
Q 14.9375 54.109375 19.578125 55.046875 
Q 24.21875 56 28.609375 56 
Q 40.484375 56 46.34375 49.84375 
Q 52.203125 43.703125 52.203125 31.203125 
z
" id="DejaVuSans-97"/>
       <path d="M 45.40625 27.984375 
Q 45.40625 37.75 41.375 43.109375 
Q 37.359375 48.484375 30.078125 48.484375 
Q 22.859375 48.484375 18.828125 43.109375 
Q 14.796875 37.75 14.796875 27.984375 
Q 14.796875 18.265625 18.828125 12.890625 
Q 22.859375 7.515625 30.078125 7.515625 
Q 37.359375 7.515625 41.375 12.890625 
Q 45.40625 18.265625 45.40625 27.984375 
z
M 54.390625 6.78125 
Q 54.390625 -7.171875 48.1875 -13.984375 
Q 42 -20.796875 29.203125 -20.796875 
Q 24.46875 -20.796875 20.265625 -20.09375 
Q 16.0625 -19.390625 12.109375 -17.921875 
L 12.109375 -9.1875 
Q 16.0625 -11.328125 19.921875 -12.34375 
Q 23.78125 -13.375 27.78125 -13.375 
Q 36.625 -13.375 41.015625 -8.765625 
Q 45.40625 -4.15625 45.40625 5.171875 
L 45.40625 9.625 
Q 42.625 4.78125 38.28125 2.390625 
Q 33.9375 0 27.875 0 
Q 17.828125 0 11.671875 7.65625 
Q 5.515625 15.328125 5.515625 27.984375 
Q 5.515625 40.671875 11.671875 48.328125 
Q 17.828125 56 27.875 56 
Q 33.9375 56 38.28125 53.609375 
Q 42.625 51.21875 45.40625 46.390625 
L 45.40625 54.6875 
L 54.390625 54.6875 
z
" id="DejaVuSans-103"/>
      </defs>
      <use xlink:href="#DejaVuSans-76"/>
      <use x="55.712891" xlink:href="#DejaVuSans-97"/>
      <use x="116.992188" xlink:href="#DejaVuSans-103"/>
     </g>
    </g>
   </g>
   <g id="matplotlib.axis_2">
    <g id="ytick_1">
     <g id="line2d_50">
      <defs>
       <path d="M 0 0 
L -3.5 0 
" id="m922146939e" style="stroke:#000000;stroke-width:0.8;"/>
      </defs>
      <g>
       <use style="stroke:#000000;stroke-width:0.8;" x="36.426563" xlink:href="#m922146939e" y="457.198125"/>
      </g>
     </g>
     <g id="text_51">
      <!-- 0% -->
      <g transform="translate(13.5625 460.997344)scale(0.1 -0.1)">
       <defs>
        <path d="M 72.703125 32.078125 
Q 68.453125 32.078125 66.03125 28.46875 
Q 63.625 24.859375 63.625 18.40625 
Q 63.625 12.0625 66.03125 8.421875 
Q 68.453125 4.78125 72.703125 4.78125 
Q 76.859375 4.78125 79.265625 8.421875 
Q 81.6875 12.0625 81.6875 18.40625 
Q 81.6875 24.8125 79.265625 28.4375 
Q 76.859375 32.078125 72.703125 32.078125 
z
M 72.703125 38.28125 
Q 80.421875 38.28125 84.953125 32.90625 
Q 89.5 27.546875 89.5 18.40625 
Q 89.5 9.28125 84.9375 3.921875 
Q 80.375 -1.421875 72.703125 -1.421875 
Q 64.890625 -1.421875 60.34375 3.921875 
Q 55.8125 9.28125 55.8125 18.40625 
Q 55.8125 27.59375 60.375 32.9375 
Q 64.9375 38.28125 72.703125 38.28125 
z
M 22.3125 68.015625 
Q 18.109375 68.015625 15.6875 64.375 
Q 13.28125 60.75 13.28125 54.390625 
Q 13.28125 47.953125 15.671875 44.328125 
Q 18.0625 40.71875 22.3125 40.71875 
Q 26.5625 40.71875 28.96875 44.328125 
Q 31.390625 47.953125 31.390625 54.390625 
Q 31.390625 60.6875 28.953125 64.34375 
Q 26.515625 68.015625 22.3125 68.015625 
z
M 66.40625 74.21875 
L 74.21875 74.21875 
L 28.609375 -1.421875 
L 20.796875 -1.421875 
z
M 22.3125 74.21875 
Q 30.03125 74.21875 34.609375 68.875 
Q 39.203125 63.53125 39.203125 54.390625 
Q 39.203125 45.171875 34.640625 39.84375 
Q 30.078125 34.515625 22.3125 34.515625 
Q 14.546875 34.515625 10.03125 39.859375 
Q 5.515625 45.21875 5.515625 54.390625 
Q 5.515625 63.484375 10.046875 68.84375 
Q 14.59375 74.21875 22.3125 74.21875 
z
" id="DejaVuSans-37"/>
       </defs>
       <use xlink:href="#DejaVuSans-48"/>
       <use x="63.623047" xlink:href="#DejaVuSans-37"/>
      </g>
     </g>
    </g>
    <g id="ytick_2">
     <g id="line2d_51">
      <g>
       <use style="stroke:#000000;stroke-width:0.8;" x="36.426563" xlink:href="#m922146939e" y="391.528971"/>
      </g>
     </g>
     <g id="text_52">
      <!-- 10% -->
      <g transform="translate(7.2 395.32819)scale(0.1 -0.1)">
       <use xlink:href="#DejaVuSans-49"/>
       <use x="63.623047" xlink:href="#DejaVuSans-48"/>
       <use x="127.246094" xlink:href="#DejaVuSans-37"/>
      </g>
     </g>
    </g>
    <g id="ytick_3">
     <g id="line2d_52">
      <g>
       <use style="stroke:#000000;stroke-width:0.8;" x="36.426563" xlink:href="#m922146939e" y="325.859817"/>
      </g>
     </g>
     <g id="text_53">
      <!-- 20% -->
      <g transform="translate(7.2 329.659036)scale(0.1 -0.1)">
       <use xlink:href="#DejaVuSans-50"/>
       <use x="63.623047" xlink:href="#DejaVuSans-48"/>
       <use x="127.246094" xlink:href="#DejaVuSans-37"/>
      </g>
     </g>
    </g>
    <g id="ytick_4">
     <g id="line2d_53">
      <g>
       <use style="stroke:#000000;stroke-width:0.8;" x="36.426563" xlink:href="#m922146939e" y="260.190663"/>
      </g>
     </g>
     <g id="text_54">
      <!-- 30% -->
      <g transform="translate(7.2 263.989881)scale(0.1 -0.1)">
       <use xlink:href="#DejaVuSans-51"/>
       <use x="63.623047" xlink:href="#DejaVuSans-48"/>
       <use x="127.246094" xlink:href="#DejaVuSans-37"/>
      </g>
     </g>
    </g>
    <g id="ytick_5">
     <g id="line2d_54">
      <g>
       <use style="stroke:#000000;stroke-width:0.8;" x="36.426563" xlink:href="#m922146939e" y="194.521509"/>
      </g>
     </g>
     <g id="text_55">
      <!-- 40% -->
      <g transform="translate(7.2 198.320727)scale(0.1 -0.1)">
       <use xlink:href="#DejaVuSans-52"/>
       <use x="63.623047" xlink:href="#DejaVuSans-48"/>
       <use x="127.246094" xlink:href="#DejaVuSans-37"/>
      </g>
     </g>
    </g>
    <g id="ytick_6">
     <g id="line2d_55">
      <g>
       <use style="stroke:#000000;stroke-width:0.8;" x="36.426563" xlink:href="#m922146939e" y="128.852355"/>
      </g>
     </g>
     <g id="text_56">
      <!-- 50% -->
      <g transform="translate(7.2 132.651573)scale(0.1 -0.1)">
       <use xlink:href="#DejaVuSans-53"/>
       <use x="63.623047" xlink:href="#DejaVuSans-48"/>
       <use x="127.246094" xlink:href="#DejaVuSans-37"/>
      </g>
     </g>
    </g>
    <g id="ytick_7">
     <g id="line2d_56">
      <g>
       <use style="stroke:#000000;stroke-width:0.8;" x="36.426563" xlink:href="#m922146939e" y="63.1832"/>
      </g>
     </g>
     <g id="text_57">
      <!-- 60% -->
      <g transform="translate(7.2 66.982419)scale(0.1 -0.1)">
       <use xlink:href="#DejaVuSans-54"/>
       <use x="63.623047" xlink:href="#DejaVuSans-48"/>
       <use x="127.246094" xlink:href="#DejaVuSans-37"/>
      </g>
     </g>
    </g>
   </g>
   <g id="patch_52">
    <path d="M 36.426563 457.198125 
L 36.426563 22.318125 
" style="fill:none;stroke:#000000;stroke-linecap:square;stroke-linejoin:miter;stroke-width:0.8;"/>
   </g>
   <g id="patch_53">
    <path d="M 929.226562 457.198125 
L 929.226562 22.318125 
" style="fill:none;stroke:#000000;stroke-linecap:square;stroke-linejoin:miter;stroke-width:0.8;"/>
   </g>
   <g id="patch_54">
    <path d="M 36.426563 457.198125 
L 929.226562 457.198125 
" style="fill:none;stroke:#000000;stroke-linecap:square;stroke-linejoin:miter;stroke-width:0.8;"/>
   </g>
   <g id="patch_55">
    <path d="M 36.426563 22.318125 
L 929.226562 22.318125 
" style="fill:none;stroke:#000000;stroke-linecap:square;stroke-linejoin:miter;stroke-width:0.8;"/>
   </g>
   <g id="text_58">
    <!-- Steps Autocorrelation for Lags = 50 -->
    <g transform="translate(375.514688 16.318125)scale(0.12 -0.12)">
     <defs>
      <path d="M 53.515625 70.515625 
L 53.515625 60.890625 
Q 47.90625 63.578125 42.921875 64.890625 
Q 37.9375 66.21875 33.296875 66.21875 
Q 25.25 66.21875 20.875 63.09375 
Q 16.5 59.96875 16.5 54.203125 
Q 16.5 49.359375 19.40625 46.890625 
Q 22.3125 44.4375 30.421875 42.921875 
L 36.375 41.703125 
Q 47.40625 39.59375 52.65625 34.296875 
Q 57.90625 29 57.90625 20.125 
Q 57.90625 9.515625 50.796875 4.046875 
Q 43.703125 -1.421875 29.984375 -1.421875 
Q 24.8125 -1.421875 18.96875 -0.25 
Q 13.140625 0.921875 6.890625 3.21875 
L 6.890625 13.375 
Q 12.890625 10.015625 18.65625 8.296875 
Q 24.421875 6.59375 29.984375 6.59375 
Q 38.421875 6.59375 43.015625 9.90625 
Q 47.609375 13.234375 47.609375 19.390625 
Q 47.609375 24.75 44.3125 27.78125 
Q 41.015625 30.8125 33.5 32.328125 
L 27.484375 33.5 
Q 16.453125 35.6875 11.515625 40.375 
Q 6.59375 45.0625 6.59375 53.421875 
Q 6.59375 63.09375 13.40625 68.65625 
Q 20.21875 74.21875 32.171875 74.21875 
Q 37.3125 74.21875 42.625 73.28125 
Q 47.953125 72.359375 53.515625 70.515625 
z
" id="DejaVuSans-83"/>
      <path d="M 18.3125 70.21875 
L 18.3125 54.6875 
L 36.8125 54.6875 
L 36.8125 47.703125 
L 18.3125 47.703125 
L 18.3125 18.015625 
Q 18.3125 11.328125 20.140625 9.421875 
Q 21.96875 7.515625 27.59375 7.515625 
L 36.8125 7.515625 
L 36.8125 0 
L 27.59375 0 
Q 17.1875 0 13.234375 3.875 
Q 9.28125 7.765625 9.28125 18.015625 
L 9.28125 47.703125 
L 2.6875 47.703125 
L 2.6875 54.6875 
L 9.28125 54.6875 
L 9.28125 70.21875 
z
" id="DejaVuSans-116"/>
      <path d="M 56.203125 29.59375 
L 56.203125 25.203125 
L 14.890625 25.203125 
Q 15.484375 15.921875 20.484375 11.0625 
Q 25.484375 6.203125 34.421875 6.203125 
Q 39.59375 6.203125 44.453125 7.46875 
Q 49.3125 8.734375 54.109375 11.28125 
L 54.109375 2.78125 
Q 49.265625 0.734375 44.1875 -0.34375 
Q 39.109375 -1.421875 33.890625 -1.421875 
Q 20.796875 -1.421875 13.15625 6.1875 
Q 5.515625 13.8125 5.515625 26.8125 
Q 5.515625 40.234375 12.765625 48.109375 
Q 20.015625 56 32.328125 56 
Q 43.359375 56 49.78125 48.890625 
Q 56.203125 41.796875 56.203125 29.59375 
z
M 47.21875 32.234375 
Q 47.125 39.59375 43.09375 43.984375 
Q 39.0625 48.390625 32.421875 48.390625 
Q 24.90625 48.390625 20.390625 44.140625 
Q 15.875 39.890625 15.1875 32.171875 
z
" id="DejaVuSans-101"/>
      <path d="M 18.109375 8.203125 
L 18.109375 -20.796875 
L 9.078125 -20.796875 
L 9.078125 54.6875 
L 18.109375 54.6875 
L 18.109375 46.390625 
Q 20.953125 51.265625 25.265625 53.625 
Q 29.59375 56 35.59375 56 
Q 45.5625 56 51.78125 48.09375 
Q 58.015625 40.1875 58.015625 27.296875 
Q 58.015625 14.40625 51.78125 6.484375 
Q 45.5625 -1.421875 35.59375 -1.421875 
Q 29.59375 -1.421875 25.265625 0.953125 
Q 20.953125 3.328125 18.109375 8.203125 
z
M 48.6875 27.296875 
Q 48.6875 37.203125 44.609375 42.84375 
Q 40.53125 48.484375 33.40625 48.484375 
Q 26.265625 48.484375 22.1875 42.84375 
Q 18.109375 37.203125 18.109375 27.296875 
Q 18.109375 17.390625 22.1875 11.75 
Q 26.265625 6.109375 33.40625 6.109375 
Q 40.53125 6.109375 44.609375 11.75 
Q 48.6875 17.390625 48.6875 27.296875 
z
" id="DejaVuSans-112"/>
      <path d="M 44.28125 53.078125 
L 44.28125 44.578125 
Q 40.484375 46.53125 36.375 47.5 
Q 32.28125 48.484375 27.875 48.484375 
Q 21.1875 48.484375 17.84375 46.4375 
Q 14.5 44.390625 14.5 40.28125 
Q 14.5 37.15625 16.890625 35.375 
Q 19.28125 33.59375 26.515625 31.984375 
L 29.59375 31.296875 
Q 39.15625 29.25 43.1875 25.515625 
Q 47.21875 21.78125 47.21875 15.09375 
Q 47.21875 7.46875 41.1875 3.015625 
Q 35.15625 -1.421875 24.609375 -1.421875 
Q 20.21875 -1.421875 15.453125 -0.5625 
Q 10.6875 0.296875 5.421875 2 
L 5.421875 11.28125 
Q 10.40625 8.6875 15.234375 7.390625 
Q 20.0625 6.109375 24.8125 6.109375 
Q 31.15625 6.109375 34.5625 8.28125 
Q 37.984375 10.453125 37.984375 14.40625 
Q 37.984375 18.0625 35.515625 20.015625 
Q 33.0625 21.96875 24.703125 23.78125 
L 21.578125 24.515625 
Q 13.234375 26.265625 9.515625 29.90625 
Q 5.8125 33.546875 5.8125 39.890625 
Q 5.8125 47.609375 11.28125 51.796875 
Q 16.75 56 26.8125 56 
Q 31.78125 56 36.171875 55.265625 
Q 40.578125 54.546875 44.28125 53.078125 
z
" id="DejaVuSans-115"/>
      <path id="DejaVuSans-32"/>
      <path d="M 34.1875 63.1875 
L 20.796875 26.90625 
L 47.609375 26.90625 
z
M 28.609375 72.90625 
L 39.796875 72.90625 
L 67.578125 0 
L 57.328125 0 
L 50.6875 18.703125 
L 17.828125 18.703125 
L 11.1875 0 
L 0.78125 0 
z
" id="DejaVuSans-65"/>
      <path d="M 8.5 21.578125 
L 8.5 54.6875 
L 17.484375 54.6875 
L 17.484375 21.921875 
Q 17.484375 14.15625 20.5 10.265625 
Q 23.53125 6.390625 29.59375 6.390625 
Q 36.859375 6.390625 41.078125 11.03125 
Q 45.3125 15.671875 45.3125 23.6875 
L 45.3125 54.6875 
L 54.296875 54.6875 
L 54.296875 0 
L 45.3125 0 
L 45.3125 8.40625 
Q 42.046875 3.421875 37.71875 1 
Q 33.40625 -1.421875 27.6875 -1.421875 
Q 18.265625 -1.421875 13.375 4.4375 
Q 8.5 10.296875 8.5 21.578125 
z
M 31.109375 56 
z
" id="DejaVuSans-117"/>
      <path d="M 30.609375 48.390625 
Q 23.390625 48.390625 19.1875 42.75 
Q 14.984375 37.109375 14.984375 27.296875 
Q 14.984375 17.484375 19.15625 11.84375 
Q 23.34375 6.203125 30.609375 6.203125 
Q 37.796875 6.203125 41.984375 11.859375 
Q 46.1875 17.53125 46.1875 27.296875 
Q 46.1875 37.015625 41.984375 42.703125 
Q 37.796875 48.390625 30.609375 48.390625 
z
M 30.609375 56 
Q 42.328125 56 49.015625 48.375 
Q 55.71875 40.765625 55.71875 27.296875 
Q 55.71875 13.875 49.015625 6.21875 
Q 42.328125 -1.421875 30.609375 -1.421875 
Q 18.84375 -1.421875 12.171875 6.21875 
Q 5.515625 13.875 5.515625 27.296875 
Q 5.515625 40.765625 12.171875 48.375 
Q 18.84375 56 30.609375 56 
z
" id="DejaVuSans-111"/>
      <path d="M 48.78125 52.59375 
L 48.78125 44.1875 
Q 44.96875 46.296875 41.140625 47.34375 
Q 37.3125 48.390625 33.40625 48.390625 
Q 24.65625 48.390625 19.8125 42.84375 
Q 14.984375 37.3125 14.984375 27.296875 
Q 14.984375 17.28125 19.8125 11.734375 
Q 24.65625 6.203125 33.40625 6.203125 
Q 37.3125 6.203125 41.140625 7.25 
Q 44.96875 8.296875 48.78125 10.40625 
L 48.78125 2.09375 
Q 45.015625 0.34375 40.984375 -0.53125 
Q 36.96875 -1.421875 32.421875 -1.421875 
Q 20.0625 -1.421875 12.78125 6.34375 
Q 5.515625 14.109375 5.515625 27.296875 
Q 5.515625 40.671875 12.859375 48.328125 
Q 20.21875 56 33.015625 56 
Q 37.15625 56 41.109375 55.140625 
Q 45.0625 54.296875 48.78125 52.59375 
z
" id="DejaVuSans-99"/>
      <path d="M 41.109375 46.296875 
Q 39.59375 47.171875 37.8125 47.578125 
Q 36.03125 48 33.890625 48 
Q 26.265625 48 22.1875 43.046875 
Q 18.109375 38.09375 18.109375 28.8125 
L 18.109375 0 
L 9.078125 0 
L 9.078125 54.6875 
L 18.109375 54.6875 
L 18.109375 46.1875 
Q 20.953125 51.171875 25.484375 53.578125 
Q 30.03125 56 36.53125 56 
Q 37.453125 56 38.578125 55.875 
Q 39.703125 55.765625 41.0625 55.515625 
z
" id="DejaVuSans-114"/>
      <path d="M 9.421875 75.984375 
L 18.40625 75.984375 
L 18.40625 0 
L 9.421875 0 
z
" id="DejaVuSans-108"/>
      <path d="M 9.421875 54.6875 
L 18.40625 54.6875 
L 18.40625 0 
L 9.421875 0 
z
M 9.421875 75.984375 
L 18.40625 75.984375 
L 18.40625 64.59375 
L 9.421875 64.59375 
z
" id="DejaVuSans-105"/>
      <path d="M 54.890625 33.015625 
L 54.890625 0 
L 45.90625 0 
L 45.90625 32.71875 
Q 45.90625 40.484375 42.875 44.328125 
Q 39.84375 48.1875 33.796875 48.1875 
Q 26.515625 48.1875 22.3125 43.546875 
Q 18.109375 38.921875 18.109375 30.90625 
L 18.109375 0 
L 9.078125 0 
L 9.078125 54.6875 
L 18.109375 54.6875 
L 18.109375 46.1875 
Q 21.34375 51.125 25.703125 53.5625 
Q 30.078125 56 35.796875 56 
Q 45.21875 56 50.046875 50.171875 
Q 54.890625 44.34375 54.890625 33.015625 
z
" id="DejaVuSans-110"/>
      <path d="M 37.109375 75.984375 
L 37.109375 68.5 
L 28.515625 68.5 
Q 23.6875 68.5 21.796875 66.546875 
Q 19.921875 64.59375 19.921875 59.515625 
L 19.921875 54.6875 
L 34.71875 54.6875 
L 34.71875 47.703125 
L 19.921875 47.703125 
L 19.921875 0 
L 10.890625 0 
L 10.890625 47.703125 
L 2.296875 47.703125 
L 2.296875 54.6875 
L 10.890625 54.6875 
L 10.890625 58.5 
Q 10.890625 67.625 15.140625 71.796875 
Q 19.390625 75.984375 28.609375 75.984375 
z
" id="DejaVuSans-102"/>
      <path d="M 10.59375 45.40625 
L 73.1875 45.40625 
L 73.1875 37.203125 
L 10.59375 37.203125 
z
M 10.59375 25.484375 
L 73.1875 25.484375 
L 73.1875 17.1875 
L 10.59375 17.1875 
z
" id="DejaVuSans-61"/>
     </defs>
     <use xlink:href="#DejaVuSans-83"/>
     <use x="63.476562" xlink:href="#DejaVuSans-116"/>
     <use x="102.685547" xlink:href="#DejaVuSans-101"/>
     <use x="164.208984" xlink:href="#DejaVuSans-112"/>
     <use x="227.685547" xlink:href="#DejaVuSans-115"/>
     <use x="279.785156" xlink:href="#DejaVuSans-32"/>
     <use x="311.572266" xlink:href="#DejaVuSans-65"/>
     <use x="379.980469" xlink:href="#DejaVuSans-117"/>
     <use x="443.359375" xlink:href="#DejaVuSans-116"/>
     <use x="482.568359" xlink:href="#DejaVuSans-111"/>
     <use x="543.75" xlink:href="#DejaVuSans-99"/>
     <use x="598.730469" xlink:href="#DejaVuSans-111"/>
     <use x="659.912109" xlink:href="#DejaVuSans-114"/>
     <use x="699.275391" xlink:href="#DejaVuSans-114"/>
     <use x="738.138672" xlink:href="#DejaVuSans-101"/>
     <use x="799.662109" xlink:href="#DejaVuSans-108"/>
     <use x="827.445312" xlink:href="#DejaVuSans-97"/>
     <use x="888.724609" xlink:href="#DejaVuSans-116"/>
     <use x="927.933594" xlink:href="#DejaVuSans-105"/>
     <use x="955.716797" xlink:href="#DejaVuSans-111"/>
     <use x="1016.898438" xlink:href="#DejaVuSans-110"/>
     <use x="1080.277344" xlink:href="#DejaVuSans-32"/>
     <use x="1112.064453" xlink:href="#DejaVuSans-102"/>
     <use x="1147.269531" xlink:href="#DejaVuSans-111"/>
     <use x="1208.451172" xlink:href="#DejaVuSans-114"/>
     <use x="1249.564453" xlink:href="#DejaVuSans-32"/>
     <use x="1281.351562" xlink:href="#DejaVuSans-76"/>
     <use x="1337.064453" xlink:href="#DejaVuSans-97"/>
     <use x="1398.34375" xlink:href="#DejaVuSans-103"/>
     <use x="1461.820312" xlink:href="#DejaVuSans-115"/>
     <use x="1513.919922" xlink:href="#DejaVuSans-32"/>
     <use x="1545.707031" xlink:href="#DejaVuSans-61"/>
     <use x="1629.496094" xlink:href="#DejaVuSans-32"/>
     <use x="1661.283203" xlink:href="#DejaVuSans-53"/>
     <use x="1724.90625" xlink:href="#DejaVuSans-48"/>
    </g>
   </g>
  </g>
 </g>
 <defs>
  <clipPath id="p14ba66cd98">
   <rect height="434.88" width="892.8" x="36.426563" y="22.318125"/>
  </clipPath>
 </defs>
</svg>
