<?xml version="1.0" encoding="utf-8" standalone="no"?>
<!DOCTYPE svg PUBLIC "-//W3C//DTD SVG 1.1//EN"
  "http://www.w3.org/Graphics/SVG/1.1/DTD/svg11.dtd">
<!-- Created with matplotlib (https://matplotlib.org/) -->
<svg height="248.518125pt" version="1.1" viewBox="0 0 482.542187 248.518125" width="482.542187pt" xmlns="http://www.w3.org/2000/svg" xmlns:xlink="http://www.w3.org/1999/xlink">
 <metadata>
  <rdf:RDF xmlns:cc="http://creativecommons.org/ns#" xmlns:dc="http://purl.org/dc/elements/1.1/" xmlns:rdf="http://www.w3.org/1999/02/22-rdf-syntax-ns#">
   <cc:Work>
    <dc:type rdf:resource="http://purl.org/dc/dcmitype/StillImage"/>
    <dc:date>2021-03-05T05:33:53.021673</dc:date>
    <dc:format>image/svg+xml</dc:format>
    <dc:creator>
     <cc:Agent>
      <dc:title>Matplotlib v3.3.3, https://matplotlib.org/</dc:title>
     </cc:Agent>
    </dc:creator>
   </cc:Work>
  </rdf:RDF>
 </metadata>
 <defs>
  <style type="text/css">*{stroke-linecap:butt;stroke-linejoin:round;}</style>
 </defs>
 <g id="figure_1">
  <g id="patch_1">
   <path d="M 0 248.518125 
L 482.542187 248.518125 
L 482.542187 0 
L 0 0 
z
" style="fill:none;"/>
  </g>
  <g id="axes_1">
   <g id="patch_2">
    <path d="M 28.942188 224.64 
L 475.342187 224.64 
L 475.342187 7.2 
L 28.942188 7.2 
z
" style="fill:#ffffff;"/>
   </g>
   <g id="matplotlib.axis_1">
    <g id="xtick_1">
     <g id="line2d_1">
      <defs>
       <path d="M 0 0 
L 0 3.5 
" id="mede86bbe7b" style="stroke:#000000;stroke-width:0.8;"/>
      </defs>
      <g>
       <use style="stroke:#000000;stroke-width:0.8;" x="52.160561" xlink:href="#mede86bbe7b" y="224.64"/>
      </g>
     </g>
     <g id="text_1">
      <!-- 0 -->
      <g transform="translate(48.979311 239.238437)scale(0.1 -0.1)">
       <defs>
        <path d="M 31.78125 66.40625 
Q 24.171875 66.40625 20.328125 58.90625 
Q 16.5 51.421875 16.5 36.375 
Q 16.5 21.390625 20.328125 13.890625 
Q 24.171875 6.390625 31.78125 6.390625 
Q 39.453125 6.390625 43.28125 13.890625 
Q 47.125 21.390625 47.125 36.375 
Q 47.125 51.421875 43.28125 58.90625 
Q 39.453125 66.40625 31.78125 66.40625 
z
M 31.78125 74.21875 
Q 44.046875 74.21875 50.515625 64.515625 
Q 56.984375 54.828125 56.984375 36.375 
Q 56.984375 17.96875 50.515625 8.265625 
Q 44.046875 -1.421875 31.78125 -1.421875 
Q 19.53125 -1.421875 13.0625 8.265625 
Q 6.59375 17.96875 6.59375 36.375 
Q 6.59375 54.828125 13.0625 64.515625 
Q 19.53125 74.21875 31.78125 74.21875 
z
" id="DejaVuSans-48"/>
       </defs>
       <use xlink:href="#DejaVuSans-48"/>
      </g>
     </g>
    </g>
    <g id="xtick_2">
     <g id="line2d_2">
      <g>
       <use style="stroke:#000000;stroke-width:0.8;" x="109.166607" xlink:href="#mede86bbe7b" y="224.64"/>
      </g>
     </g>
     <g id="text_2">
      <!-- 200 -->
      <g transform="translate(99.622857 239.238437)scale(0.1 -0.1)">
       <defs>
        <path d="M 19.1875 8.296875 
L 53.609375 8.296875 
L 53.609375 0 
L 7.328125 0 
L 7.328125 8.296875 
Q 12.9375 14.109375 22.625 23.890625 
Q 32.328125 33.6875 34.8125 36.53125 
Q 39.546875 41.84375 41.421875 45.53125 
Q 43.3125 49.21875 43.3125 52.78125 
Q 43.3125 58.59375 39.234375 62.25 
Q 35.15625 65.921875 28.609375 65.921875 
Q 23.96875 65.921875 18.8125 64.3125 
Q 13.671875 62.703125 7.8125 59.421875 
L 7.8125 69.390625 
Q 13.765625 71.78125 18.9375 73 
Q 24.125 74.21875 28.421875 74.21875 
Q 39.75 74.21875 46.484375 68.546875 
Q 53.21875 62.890625 53.21875 53.421875 
Q 53.21875 48.921875 51.53125 44.890625 
Q 49.859375 40.875 45.40625 35.40625 
Q 44.1875 33.984375 37.640625 27.21875 
Q 31.109375 20.453125 19.1875 8.296875 
z
" id="DejaVuSans-50"/>
       </defs>
       <use xlink:href="#DejaVuSans-50"/>
       <use x="63.623047" xlink:href="#DejaVuSans-48"/>
       <use x="127.246094" xlink:href="#DejaVuSans-48"/>
      </g>
     </g>
    </g>
    <g id="xtick_3">
     <g id="line2d_3">
      <g>
       <use style="stroke:#000000;stroke-width:0.8;" x="166.172652" xlink:href="#mede86bbe7b" y="224.64"/>
      </g>
     </g>
     <g id="text_3">
      <!-- 400 -->
      <g transform="translate(156.628902 239.238437)scale(0.1 -0.1)">
       <defs>
        <path d="M 37.796875 64.3125 
L 12.890625 25.390625 
L 37.796875 25.390625 
z
M 35.203125 72.90625 
L 47.609375 72.90625 
L 47.609375 25.390625 
L 58.015625 25.390625 
L 58.015625 17.1875 
L 47.609375 17.1875 
L 47.609375 0 
L 37.796875 0 
L 37.796875 17.1875 
L 4.890625 17.1875 
L 4.890625 26.703125 
z
" id="DejaVuSans-52"/>
       </defs>
       <use xlink:href="#DejaVuSans-52"/>
       <use x="63.623047" xlink:href="#DejaVuSans-48"/>
       <use x="127.246094" xlink:href="#DejaVuSans-48"/>
      </g>
     </g>
    </g>
    <g id="xtick_4">
     <g id="line2d_4">
      <g>
       <use style="stroke:#000000;stroke-width:0.8;" x="223.178697" xlink:href="#mede86bbe7b" y="224.64"/>
      </g>
     </g>
     <g id="text_4">
      <!-- 600 -->
      <g transform="translate(213.634947 239.238437)scale(0.1 -0.1)">
       <defs>
        <path d="M 33.015625 40.375 
Q 26.375 40.375 22.484375 35.828125 
Q 18.609375 31.296875 18.609375 23.390625 
Q 18.609375 15.53125 22.484375 10.953125 
Q 26.375 6.390625 33.015625 6.390625 
Q 39.65625 6.390625 43.53125 10.953125 
Q 47.40625 15.53125 47.40625 23.390625 
Q 47.40625 31.296875 43.53125 35.828125 
Q 39.65625 40.375 33.015625 40.375 
z
M 52.59375 71.296875 
L 52.59375 62.3125 
Q 48.875 64.0625 45.09375 64.984375 
Q 41.3125 65.921875 37.59375 65.921875 
Q 27.828125 65.921875 22.671875 59.328125 
Q 17.53125 52.734375 16.796875 39.40625 
Q 19.671875 43.65625 24.015625 45.921875 
Q 28.375 48.1875 33.59375 48.1875 
Q 44.578125 48.1875 50.953125 41.515625 
Q 57.328125 34.859375 57.328125 23.390625 
Q 57.328125 12.15625 50.6875 5.359375 
Q 44.046875 -1.421875 33.015625 -1.421875 
Q 20.359375 -1.421875 13.671875 8.265625 
Q 6.984375 17.96875 6.984375 36.375 
Q 6.984375 53.65625 15.1875 63.9375 
Q 23.390625 74.21875 37.203125 74.21875 
Q 40.921875 74.21875 44.703125 73.484375 
Q 48.484375 72.75 52.59375 71.296875 
z
" id="DejaVuSans-54"/>
       </defs>
       <use xlink:href="#DejaVuSans-54"/>
       <use x="63.623047" xlink:href="#DejaVuSans-48"/>
       <use x="127.246094" xlink:href="#DejaVuSans-48"/>
      </g>
     </g>
    </g>
    <g id="xtick_5">
     <g id="line2d_5">
      <g>
       <use style="stroke:#000000;stroke-width:0.8;" x="280.184742" xlink:href="#mede86bbe7b" y="224.64"/>
      </g>
     </g>
     <g id="text_5">
      <!-- 800 -->
      <g transform="translate(270.640992 239.238437)scale(0.1 -0.1)">
       <defs>
        <path d="M 31.78125 34.625 
Q 24.75 34.625 20.71875 30.859375 
Q 16.703125 27.09375 16.703125 20.515625 
Q 16.703125 13.921875 20.71875 10.15625 
Q 24.75 6.390625 31.78125 6.390625 
Q 38.8125 6.390625 42.859375 10.171875 
Q 46.921875 13.96875 46.921875 20.515625 
Q 46.921875 27.09375 42.890625 30.859375 
Q 38.875 34.625 31.78125 34.625 
z
M 21.921875 38.8125 
Q 15.578125 40.375 12.03125 44.71875 
Q 8.5 49.078125 8.5 55.328125 
Q 8.5 64.0625 14.71875 69.140625 
Q 20.953125 74.21875 31.78125 74.21875 
Q 42.671875 74.21875 48.875 69.140625 
Q 55.078125 64.0625 55.078125 55.328125 
Q 55.078125 49.078125 51.53125 44.71875 
Q 48 40.375 41.703125 38.8125 
Q 48.828125 37.15625 52.796875 32.3125 
Q 56.78125 27.484375 56.78125 20.515625 
Q 56.78125 9.90625 50.3125 4.234375 
Q 43.84375 -1.421875 31.78125 -1.421875 
Q 19.734375 -1.421875 13.25 4.234375 
Q 6.78125 9.90625 6.78125 20.515625 
Q 6.78125 27.484375 10.78125 32.3125 
Q 14.796875 37.15625 21.921875 38.8125 
z
M 18.3125 54.390625 
Q 18.3125 48.734375 21.84375 45.5625 
Q 25.390625 42.390625 31.78125 42.390625 
Q 38.140625 42.390625 41.71875 45.5625 
Q 45.3125 48.734375 45.3125 54.390625 
Q 45.3125 60.0625 41.71875 63.234375 
Q 38.140625 66.40625 31.78125 66.40625 
Q 25.390625 66.40625 21.84375 63.234375 
Q 18.3125 60.0625 18.3125 54.390625 
z
" id="DejaVuSans-56"/>
       </defs>
       <use xlink:href="#DejaVuSans-56"/>
       <use x="63.623047" xlink:href="#DejaVuSans-48"/>
       <use x="127.246094" xlink:href="#DejaVuSans-48"/>
      </g>
     </g>
    </g>
    <g id="xtick_6">
     <g id="line2d_6">
      <g>
       <use style="stroke:#000000;stroke-width:0.8;" x="337.190788" xlink:href="#mede86bbe7b" y="224.64"/>
      </g>
     </g>
     <g id="text_6">
      <!-- 1000 -->
      <g transform="translate(324.465788 239.238437)scale(0.1 -0.1)">
       <defs>
        <path d="M 12.40625 8.296875 
L 28.515625 8.296875 
L 28.515625 63.921875 
L 10.984375 60.40625 
L 10.984375 69.390625 
L 28.421875 72.90625 
L 38.28125 72.90625 
L 38.28125 8.296875 
L 54.390625 8.296875 
L 54.390625 0 
L 12.40625 0 
z
" id="DejaVuSans-49"/>
       </defs>
       <use xlink:href="#DejaVuSans-49"/>
       <use x="63.623047" xlink:href="#DejaVuSans-48"/>
       <use x="127.246094" xlink:href="#DejaVuSans-48"/>
       <use x="190.869141" xlink:href="#DejaVuSans-48"/>
      </g>
     </g>
    </g>
    <g id="xtick_7">
     <g id="line2d_7">
      <g>
       <use style="stroke:#000000;stroke-width:0.8;" x="394.196833" xlink:href="#mede86bbe7b" y="224.64"/>
      </g>
     </g>
     <g id="text_7">
      <!-- 1200 -->
      <g transform="translate(381.471833 239.238437)scale(0.1 -0.1)">
       <use xlink:href="#DejaVuSans-49"/>
       <use x="63.623047" xlink:href="#DejaVuSans-50"/>
       <use x="127.246094" xlink:href="#DejaVuSans-48"/>
       <use x="190.869141" xlink:href="#DejaVuSans-48"/>
      </g>
     </g>
    </g>
    <g id="xtick_8">
     <g id="line2d_8">
      <g>
       <use style="stroke:#000000;stroke-width:0.8;" x="451.202878" xlink:href="#mede86bbe7b" y="224.64"/>
      </g>
     </g>
     <g id="text_8">
      <!-- 1400 -->
      <g transform="translate(438.477878 239.238437)scale(0.1 -0.1)">
       <use xlink:href="#DejaVuSans-49"/>
       <use x="63.623047" xlink:href="#DejaVuSans-52"/>
       <use x="127.246094" xlink:href="#DejaVuSans-48"/>
       <use x="190.869141" xlink:href="#DejaVuSans-48"/>
      </g>
     </g>
    </g>
   </g>
   <g id="matplotlib.axis_2">
    <g id="ytick_1">
     <g id="line2d_9">
      <defs>
       <path d="M 0 0 
L -3.5 0 
" id="md0f21ef0d3" style="stroke:#000000;stroke-width:0.8;"/>
      </defs>
      <g>
       <use style="stroke:#000000;stroke-width:0.8;" x="28.942188" xlink:href="#md0f21ef0d3" y="210.209663"/>
      </g>
     </g>
     <g id="text_9">
      <!-- −6 -->
      <g transform="translate(7.2 214.008882)scale(0.1 -0.1)">
       <defs>
        <path d="M 10.59375 35.5 
L 73.1875 35.5 
L 73.1875 27.203125 
L 10.59375 27.203125 
z
" id="DejaVuSans-8722"/>
       </defs>
       <use xlink:href="#DejaVuSans-8722"/>
       <use x="83.789062" xlink:href="#DejaVuSans-54"/>
      </g>
     </g>
    </g>
    <g id="ytick_2">
     <g id="line2d_10">
      <g>
       <use style="stroke:#000000;stroke-width:0.8;" x="28.942188" xlink:href="#md0f21ef0d3" y="179.353137"/>
      </g>
     </g>
     <g id="text_10">
      <!-- −4 -->
      <g transform="translate(7.2 183.152355)scale(0.1 -0.1)">
       <use xlink:href="#DejaVuSans-8722"/>
       <use x="83.789062" xlink:href="#DejaVuSans-52"/>
      </g>
     </g>
    </g>
    <g id="ytick_3">
     <g id="line2d_11">
      <g>
       <use style="stroke:#000000;stroke-width:0.8;" x="28.942188" xlink:href="#md0f21ef0d3" y="148.49661"/>
      </g>
     </g>
     <g id="text_11">
      <!-- −2 -->
      <g transform="translate(7.2 152.295829)scale(0.1 -0.1)">
       <use xlink:href="#DejaVuSans-8722"/>
       <use x="83.789062" xlink:href="#DejaVuSans-50"/>
      </g>
     </g>
    </g>
    <g id="ytick_4">
     <g id="line2d_12">
      <g>
       <use style="stroke:#000000;stroke-width:0.8;" x="28.942188" xlink:href="#md0f21ef0d3" y="117.640084"/>
      </g>
     </g>
     <g id="text_12">
      <!-- 0 -->
      <g transform="translate(15.579688 121.439302)scale(0.1 -0.1)">
       <use xlink:href="#DejaVuSans-48"/>
      </g>
     </g>
    </g>
    <g id="ytick_5">
     <g id="line2d_13">
      <g>
       <use style="stroke:#000000;stroke-width:0.8;" x="28.942188" xlink:href="#md0f21ef0d3" y="86.783557"/>
      </g>
     </g>
     <g id="text_13">
      <!-- 2 -->
      <g transform="translate(15.579688 90.582776)scale(0.1 -0.1)">
       <use xlink:href="#DejaVuSans-50"/>
      </g>
     </g>
    </g>
    <g id="ytick_6">
     <g id="line2d_14">
      <g>
       <use style="stroke:#000000;stroke-width:0.8;" x="28.942188" xlink:href="#md0f21ef0d3" y="55.927031"/>
      </g>
     </g>
     <g id="text_14">
      <!-- 4 -->
      <g transform="translate(15.579688 59.72625)scale(0.1 -0.1)">
       <use xlink:href="#DejaVuSans-52"/>
      </g>
     </g>
    </g>
    <g id="ytick_7">
     <g id="line2d_15">
      <g>
       <use style="stroke:#000000;stroke-width:0.8;" x="28.942188" xlink:href="#md0f21ef0d3" y="25.070504"/>
      </g>
     </g>
     <g id="text_15">
      <!-- 6 -->
      <g transform="translate(15.579688 28.869723)scale(0.1 -0.1)">
       <use xlink:href="#DejaVuSans-54"/>
      </g>
     </g>
    </g>
   </g>
   <g id="line2d_16">
    <path clip-path="url(#p83aed08f95)" d="M 49.233097 117.640084 
L 49.233097 117.640084 
L 49.233097 170.350706 
L 49.233097 154.922443 
L 49.37973 154.922443 
L 49.439994 126.227926 
L 49.803657 126.227926 
L 49.803657 114.636156 
L 49.974216 114.636156 
L 49.974216 101.016395 
L 50.42191 101.016395 
L 50.42191 90.335225 
L 51.013265 90.335225 
L 51.013265 81.101916 
L 51.463413 81.101916 
L 51.463413 70.263868 
L 51.883658 70.263868 
L 51.883658 58.975522 
L 52.230032 58.975522 
L 52.230032 77.685255 
L 52.394163 77.685255 
L 52.394163 63.765324 
L 52.860357 63.765324 
L 52.860357 83.297393 
L 52.936757 68.514699 
L 52.987182 68.514699 
L 52.987182 84.364702 
L 53.394579 84.364702 
L 53.394579 103.069705 
L 53.474568 88.256716 
L 53.50905 88.256716 
L 53.50905 103.947301 
L 53.87887 103.947301 
L 53.87887 122.076428 
L 53.902786 106.815628 
L 54.313716 106.815628 
L 54.363641 140.723758 
L 54.433628 140.723758 
L 54.433628 156.585859 
L 54.597858 156.585859 
L 54.597858 142.144512 
L 55.067723 142.144512 
L 55.164551 83.496906 
L 55.808756 83.496906 
L 55.808756 70.901268 
L 56.045662 70.901268 
L 56.045662 56.338029 
L 56.099556 71.949763 
L 56.236144 71.949763 
L 56.236144 56.964362 
L 56.753088 56.964362 
L 56.753088 73.782007 
L 56.89493 73.782007 
L 56.89493 89.512517 
L 57.059704 89.512517 
L 57.059704 74.392973 
L 57.212211 74.392973 
L 57.212211 90.066612 
L 57.221351 74.651828 
L 57.376265 74.651828 
L 57.376265 90.287573 
L 57.733191 90.287573 
L 57.733191 106.044665 
L 57.803345 90.656896 
L 57.986135 90.656896 
L 58.014853 121.588365 
L 58.374028 121.588365 
L 58.374028 136.9852 
L 58.459121 106.0927 
L 58.50018 106.0927 
L 58.50018 121.49978 
L 58.608478 106.003833 
L 58.610934 121.430364 
L 58.720736 121.430364 
L 58.720736 105.915837 
L 58.950188 105.915837 
L 58.950188 90.252637 
L 59.058146 105.54547 
L 59.109385 105.54547 
L 59.109385 90.047498 
L 59.812715 90.047498 
L 59.812715 104.188609 
L 60.137644 104.188609 
L 60.207252 87.796978 
L 60.416551 87.796978 
L 60.416551 71.797719 
L 60.430917 87.185404 
L 60.56371 87.185404 
L 60.56371 71.374141 
L 60.653647 86.535244 
L 60.80853 86.535244 
L 60.80853 70.633302 
L 61.211774 70.633302 
L 61.211774 84.759092 
L 61.51546 84.759092 
L 61.587389 114.334676 
L 62.151688 114.334676 
L 62.151688 96.918784 
L 62.417886 96.918784 
L 62.417886 111.405234 
L 62.431544 95.928835 
L 62.449544 111.293702 
L 62.696793 111.293702 
L 62.803742 140.916111 
L 62.814778 140.916111 
L 62.843952 171.634615 
L 62.853635 156.17319 
L 63.057555 156.17319 
L 63.057555 170.910783 
L 63.126884 155.251379 
L 63.168962 155.251379 
L 63.168962 170.540358 
L 63.879572 170.540358 
L 63.879572 152.896827 
L 64.278786 152.896827 
L 64.278786 167.214554 
L 64.86674 167.214554 
L 64.86674 150.347636 
L 65.122096 150.347636 
L 65.122096 165.22421 
L 65.65554 165.22421 
L 65.65554 148.775768 
L 65.851907 148.775768 
L 65.857081 179.288617 
L 66.063516 179.288617 
L 66.172805 147.932399 
L 66.238819 147.932399 
L 66.288138 116.90355 
L 66.524589 116.90355 
L 66.55419 85.666562 
L 66.657101 85.666562 
L 66.657101 70.09648 
L 67.12449 70.09648 
L 67.12449 54.048789 
L 67.40928 54.048789 
L 67.432012 84.507708 
L 67.869995 84.507708 
L 67.869995 99.361201 
L 68.23477 99.361201 
L 68.23477 114.286573 
L 68.263021 98.81802 
L 68.343758 114.129901 
L 69.075903 114.129901 
L 69.138441 143.7216 
L 69.156874 128.261046 
L 69.33346 128.261046 
L 69.33346 112.51592 
L 69.449178 112.51592 
L 69.449178 96.872476 
L 70.138073 96.872476 
L 70.138073 80.035368 
L 70.229242 95.260737 
L 70.259822 95.260737 
L 70.362493 125.813971 
L 70.448258 125.813971 
L 70.448258 141.042859 
L 71.077019 141.042859 
L 71.16591 92.972293 
L 71.252196 92.972293 
L 71.252196 77.316773 
L 71.444389 77.316773 
L 71.444389 92.230892 
L 71.625797 92.230892 
L 71.625797 76.308498 
L 71.722146 91.471369 
L 72.075085 91.471369 
L 72.075085 75.05816 
L 72.133284 90.322696 
L 72.468793 90.322696 
L 72.468793 104.805315 
L 72.613416 104.805315 
L 72.613416 88.970692 
L 72.796708 88.970692 
L 72.796708 103.887518 
L 72.989317 103.887518 
L 72.989317 87.928572 
L 73.050949 103.188948 
L 73.108534 103.188948 
L 73.108534 118.461331 
L 73.468507 118.461331 
L 73.468507 132.941808 
L 74.212351 132.941808 
L 74.212351 146.624585 
L 74.513434 146.624585 
L 74.513434 130.602648 
L 74.640357 130.602648 
L 74.672558 161.177712 
L 74.87128 161.177712 
L 74.87128 145.43233 
L 74.984529 145.43233 
L 74.984529 160.697975 
L 75.110342 160.697975 
L 75.110342 145.10524 
L 75.156333 160.477758 
L 75.571622 160.477758 
L 75.598687 129.21168 
L 75.653555 144.605846 
L 78.163959 144.605846 
L 78.163959 162.903443 
L 78.291642 162.903443 
L 78.291642 178.708731 
L 78.468832 178.708731 
L 78.468832 163.83699 
L 78.706955 163.83699 
L 78.706955 180.07154 
L 78.896728 180.07154 
L 78.903239 149.927188 
L 79.022198 149.927188 
L 79.022198 134.950251 
L 79.152335 134.950251 
L 79.152335 120.03187 
L 79.789133 120.03187 
L 79.789133 107.312873 
L 79.955855 107.312873 
L 79.955855 123.500326 
L 81.065042 123.500326 
L 81.065042 113.444141 
L 81.319134 113.444141 
L 81.319134 130.140761 
L 81.432292 130.140761 
L 81.498174 100.177402 
L 81.663488 100.177402 
L 81.663488 85.571015 
L 81.859796 85.571015 
L 81.859796 71.112582 
L 82.002637 71.112582 
L 82.002637 87.240753 
L 82.030791 71.949757 
L 82.157531 71.949757 
L 82.157531 87.992791 
L 82.325314 87.992791 
L 82.325314 73.369535 
L 82.354405 88.936244 
L 82.893662 88.936244 
L 82.893662 106.858652 
L 83.027497 106.858652 
L 83.027497 92.025222 
L 83.060254 107.597447 
L 83.172181 107.597447 
L 83.172181 123.512621 
L 83.441853 123.512621 
L 83.441853 109.224278 
L 83.898433 109.224278 
L 83.898433 95.611028 
L 83.94373 111.211068 
L 84.075527 111.211068 
L 84.075527 96.273833 
L 84.282594 96.273833 
L 84.282594 112.446831 
L 84.323163 97.160612 
L 85.280158 97.160612 
L 85.280158 115.56897 
L 85.347507 69.467382 
L 85.488597 69.467382 
L 85.488597 85.268449 
L 85.614269 85.268449 
L 85.614269 70.159882 
L 85.745677 70.159882 
L 85.748314 101.344793 
L 85.804782 86.051026 
L 85.893644 86.051026 
L 85.893644 101.686407 
L 85.934589 86.351729 
L 86.007125 86.351729 
L 86.007125 101.942954 
L 86.44786 101.942954 
L 86.44786 118.286478 
L 86.808907 118.286478 
L 86.808907 103.518221 
L 87.014594 103.518221 
L 87.014594 119.289353 
L 87.035437 103.894565 
L 87.161335 103.894565 
L 87.161335 119.520252 
L 87.514963 119.520252 
L 87.573636 150.969238 
L 87.602189 135.579132 
L 87.75351 135.579132 
L 87.75351 120.34731 
L 87.78092 135.810144 
L 88.177221 135.810144 
L 88.177221 120.849577 
L 88.179541 136.280411 
L 88.870602 136.280411 
L 88.918896 106.160234 
L 89.312371 106.160234 
L 89.312371 121.925053 
L 89.336233 106.516233 
L 89.891991 106.516233 
L 89.891991 91.516575 
L 89.907991 106.956609 
L 90.132343 106.956609 
L 90.132343 91.690978 
L 90.210043 107.174672 
L 90.412041 107.174672 
L 90.412041 91.888964 
L 90.457463 107.349051 
L 90.527195 107.349051 
L 90.527195 91.969529 
L 90.681613 91.969529 
L 90.681613 76.648903 
L 90.796872 76.648903 
L 90.796872 61.300921 
L 90.79933 76.730897 
L 91.02586 76.730897 
L 91.02586 92.317553 
L 91.173873 92.317553 
L 91.199138 123.296437 
L 91.435874 123.296437 
L 91.435874 138.894612 
L 91.616475 138.894612 
L 91.616475 154.45532 
L 91.739157 154.45532 
L 91.739157 139.118695 
L 91.873225 139.118695 
L 91.89824 108.383248 
L 92.127554 108.383248 
L 92.127554 123.990943 
L 92.742293 123.990943 
L 92.742293 139.931074 
L 92.829194 124.578747 
L 93.092467 124.578747 
L 93.092467 140.241803 
L 93.262344 140.241803 
L 93.262344 155.824792 
L 93.512477 155.824792 
L 93.620288 125.299529 
L 93.647174 125.299529 
L 93.734369 156.262211 
L 93.816946 156.262211 
L 93.816946 171.767205 
L 93.845725 156.365637 
L 94.361209 156.365637 
L 94.361209 141.404271 
L 94.438497 156.89942 
L 94.511365 156.89942 
L 94.511365 141.533116 
L 94.846602 141.533116 
L 94.846602 126.372468 
L 94.937628 141.867336 
L 95.008505 141.867336 
L 95.008505 126.488797 
L 95.033572 141.934171 
L 95.136692 141.934171 
L 95.231499 111.203191 
L 95.268914 111.203191 
L 95.268914 95.796605 
L 95.986723 95.796605 
L 95.986723 111.479715 
L 95.994596 96.052253 
L 96.168563 96.052253 
L 96.168563 80.628721 
L 96.557899 80.628721 
L 96.557899 65.112694 
L 96.641451 80.502737 
L 96.819618 80.502737 
L 96.819618 95.824711 
L 96.983014 95.824711 
L 97.031591 64.795437 
L 97.264126 64.795437 
L 97.264126 79.97272 
L 97.375378 79.97272 
L 97.458605 48.854138 
L 97.796771 48.854138 
L 97.895741 109.793884 
L 97.902741 94.351083 
L 97.931728 94.351083 
L 97.986994 125.027159 
L 98.163774 125.027159 
L 98.163774 140.043588 
L 98.412679 140.043588 
L 98.474947 108.350602 
L 98.633238 108.350602 
L 98.721209 61.300992 
L 98.978226 61.300992 
L 98.978226 75.832823 
L 99.123171 75.832823 
L 99.129928 106.112963 
L 99.300555 106.112963 
L 99.300555 89.994536 
L 99.86189 89.994536 
L 99.86189 71.986697 
L 100.023877 71.986697 
L 100.023877 86.584396 
L 100.22568 86.584396 
L 100.22568 100.925821 
L 100.362222 100.925821 
L 100.362222 84.730214 
L 100.609222 84.730214 
L 100.609222 67.850562 
L 100.628449 83.16252 
L 100.753043 83.16252 
L 100.753043 97.825833 
L 100.893575 97.825833 
L 100.893575 81.511867 
L 101.00145 96.244354 
L 101.040219 96.244354 
L 101.040219 111.419293 
L 101.236753 111.419293 
L 101.236753 94.681189 
L 101.307044 109.63097 
L 101.414496 109.63097 
L 101.414496 93.461573 
L 101.548011 93.461573 
L 101.548011 107.953341 
L 101.794975 107.953341 
L 101.794975 90.750808 
L 101.830432 105.920201 
L 102.149635 105.920201 
L 102.149635 88.120406 
L 102.435887 88.120406 
L 102.435887 101.369331 
L 102.515748 85.326091 
L 102.888787 85.326091 
L 102.997222 112.433924 
L 103.058311 112.433924 
L 103.092253 80.832996 
L 103.174494 80.832996 
L 103.231965 110.594989 
L 103.505157 110.594989 
L 103.505157 123.889027 
L 103.876445 123.889027 
L 103.876445 105.594514 
L 103.947343 120.482561 
L 104.22593 120.482561 
L 104.22593 133.818361 
L 104.284032 117.960701 
L 104.429877 117.960701 
L 104.483462 147.364934 
L 104.922705 147.364934 
L 104.922705 159.734577 
L 106.279243 159.734577 
L 106.279243 167.438444 
L 106.455993 167.438444 
L 106.455993 151.243181 
L 106.545041 166.308708 
L 107.011777 166.308708 
L 107.011777 180.104878 
L 108.172155 180.104878 
L 108.172155 162.672028 
L 108.818026 162.672028 
L 108.818026 147.400765 
L 109.021265 147.400765 
L 109.021265 163.057789 
L 109.347323 163.057789 
L 109.347323 148.166073 
L 110.147243 148.166073 
L 110.147243 134.863438 
L 111.051672 134.863438 
L 111.144184 107.983201 
L 111.251366 107.983201 
L 111.251366 93.052047 
L 111.877548 93.052047 
L 111.912595 127.201669 
L 112.173918 127.201669 
L 112.173918 113.162923 
L 112.473178 113.162923 
L 112.473178 99.371883 
L 112.609692 99.371883 
L 112.609692 84.703845 
L 112.764196 84.703845 
L 112.764196 70.144285 
L 112.854365 101.511305 
L 113.282575 101.511305 
L 113.282575 119.389648 
L 113.616944 119.389648 
L 113.616944 136.747365 
L 113.816638 136.747365 
L 113.816638 153.328761 
L 113.906527 138.418846 
L 114.253488 138.418846 
L 114.253488 124.981981 
L 114.456734 124.981981 
L 114.456734 110.709585 
L 114.468389 126.203821 
L 114.73919 126.203821 
L 114.73919 143.153548 
L 114.888022 143.153548 
L 114.968289 113.564341 
L 115.129564 113.564341 
L 115.129564 99.015316 
L 115.745024 99.015316 
L 115.745024 117.679409 
L 115.842304 102.742674 
L 116.186769 102.742674 
L 116.186769 119.861277 
L 116.330474 119.861277 
L 116.397983 74.57152 
L 116.451946 74.57152 
L 116.469589 105.757805 
L 116.717037 105.757805 
L 116.717037 91.438299 
L 117.248531 91.438299 
L 117.248531 109.077535 
L 117.537863 109.077535 
L 117.537863 94.749975 
L 117.687316 94.749975 
L 117.687316 79.86101 
L 117.979866 79.86101 
L 117.979866 96.286658 
L 118.073706 81.161965 
L 118.308384 81.161965 
L 118.308384 97.314828 
L 118.400609 66.729649 
L 118.427219 66.729649 
L 118.427219 82.234811 
L 118.610716 82.234811 
L 118.610716 98.176551 
L 119.050884 98.176551 
L 119.050884 83.863962 
L 119.248285 83.863962 
L 119.248285 99.742037 
L 119.452347 99.742037 
L 119.452347 84.748092 
L 119.832728 84.748092 
L 119.832728 100.909546 
L 119.967558 100.909546 
L 119.967558 116.576032 
L 120.296527 116.576032 
L 120.296527 101.687712 
L 120.376644 117.239539 
L 120.574045 117.239539 
L 120.574045 102.104284 
L 120.680851 117.685001 
L 121.301142 117.685001 
L 121.324877 87.683736 
L 121.746003 87.683736 
L 121.746003 103.642218 
L 122.017619 103.642218 
L 122.098346 134.94606 
L 122.34916 134.94606 
L 122.34916 150.702498 
L 122.854287 150.702498 
L 122.854287 166.833948 
L 122.934941 151.52453 
L 123.041307 151.52453 
L 123.041307 167.112656 
L 123.256227 167.112656 
L 123.256227 152.018821 
L 123.403774 152.018821 
L 123.403774 136.829356 
L 123.431859 152.303941 
L 123.866414 152.303941 
L 123.866414 168.484647 
L 123.974107 137.824827 
L 124.656553 137.824827 
L 124.656553 123.727118 
L 124.930153 123.727118 
L 125.03027 139.931667 
L 125.300188 139.931667 
L 125.300188 125.075402 
L 125.398986 140.713996 
L 125.60699 140.713996 
L 125.60699 125.72811 
L 125.735551 125.72811 
L 125.735551 110.571813 
L 125.821499 126.180777 
L 126.047783 126.180777 
L 126.047783 111.22195 
L 126.450323 111.22195 
L 126.450323 96.593903 
L 126.989354 96.593903 
L 126.989354 112.983283 
L 127.362706 112.983283 
L 127.362706 128.973402 
L 127.505996 128.973402 
L 127.574355 98.389103 
L 127.632518 98.389103 
L 127.632518 83.029226 
L 127.6795 98.510627 
L 127.703916 83.109226 
L 127.858869 83.109226 
L 127.858869 67.839146 
L 128.147901 67.839146 
L 128.147901 52.646629 
L 128.361946 52.646629 
L 128.445535 83.66058 
L 128.596585 83.66058 
L 128.596585 68.277708 
L 129.005581 68.277708 
L 129.027352 99.132565 
L 129.371687 99.132565 
L 129.468146 83.562536 
L 129.468146 98.928997 
L 129.587554 98.928997 
L 129.587554 83.411096 
L 129.961622 83.411096 
L 129.961622 67.611007 
L 130.011005 82.980258 
L 130.139627 82.980258 
L 130.139627 98.244462 
L 130.302628 98.244462 
L 130.359045 67.074941 
L 130.554218 67.074941 
L 130.591796 97.556989 
L 130.83288 97.556989 
L 130.83288 81.699324 
L 130.926358 96.950833 
L 131.148508 96.950833 
L 131.148508 81.082108 
L 131.279231 81.082108 
L 131.279231 96.239175 
L 131.622941 96.239175 
L 131.622941 110.919928 
L 131.645015 95.442235 
L 132.138324 95.442235 
L 132.221989 124.968782 
L 132.526895 124.968782 
L 132.526895 139.680725 
L 132.767063 139.680725 
L 132.767063 123.690522 
L 132.8679 138.88461 
L 132.924317 138.88461 
L 133.007916 169.418436 
L 133.070167 169.418436 
L 133.070167 184.704304 
L 133.398152 184.704304 
L 133.42875 214.756364 
L 133.836495 214.756364 
L 133.836495 198.452319 
L 134.043278 198.452319 
L 134.046157 167.16332 
L 134.656534 167.16332 
L 134.656534 150.543442 
L 134.762275 165.774422 
L 134.891271 165.774422 
L 134.943003 134.585858 
L 135.173102 134.585858 
L 135.173102 118.742746 
L 135.317444 118.742746 
L 135.400571 87.482519 
L 135.759894 87.482519 
L 135.759894 71.423091 
L 136.323519 71.423091 
L 136.401767 101.141982 
L 136.41617 70.259432 
L 136.8881 70.259432 
L 136.8881 53.958519 
L 136.896459 69.370928 
L 137.021484 69.370928 
L 137.021484 53.703684 
L 137.171513 53.703684 
L 137.221806 84.169733 
L 137.882716 84.169733 
L 137.882716 98.239589 
L 138.078335 98.239589 
L 138.078335 113.245443 
L 138.250873 113.245443 
L 138.250873 128.294125 
L 138.374407 128.294125 
L 138.374407 112.590382 
L 138.610196 112.590382 
L 138.610196 127.485271 
L 138.981442 127.485271 
L 138.981442 142.058093 
L 139.074786 126.412653 
L 139.250101 126.412653 
L 139.272178 95.095366 
L 139.586756 95.095366 
L 139.586756 109.788493 
L 139.738402 109.788493 
L 139.738402 124.86366 
L 140.303646 124.86366 
L 140.412299 154.182783 
L 140.935683 154.182783 
L 140.935683 137.621447 
L 140.972895 152.971816 
L 141.131403 152.971816 
L 141.15728 121.735096 
L 141.224709 137.026793 
L 141.245313 137.026793 
L 141.355028 167.623247 
L 142.053995 167.623247 
L 142.053995 150.890385 
L 142.194779 150.890385 
L 142.194779 135.217934 
L 142.399657 135.217934 
L 142.399657 119.445165 
L 142.718046 119.445165 
L 142.718046 103.506079 
L 142.863359 103.506079 
L 142.863359 87.854109 
L 142.867462 103.276138 
L 143.262224 103.276138 
L 143.262224 87.26797 
L 144.049206 87.26797 
L 144.071016 117.042536 
L 144.551766 117.042536 
L 144.551766 131.88145 
L 144.828733 131.88145 
L 144.828733 116.128583 
L 144.970912 116.128583 
L 144.970912 100.537611 
L 144.998288 115.934843 
L 145.385069 115.934843 
L 145.411582 84.621436 
L 145.534989 84.621436 
L 145.534989 99.917515 
L 145.796184 99.917515 
L 145.796184 84.21611 
L 145.998691 84.21611 
L 145.998691 99.439053 
L 146.397557 99.439053 
L 146.397557 114.480649 
L 146.681093 114.480649 
L 146.755263 145.012336 
L 146.81022 145.012336 
L 146.81022 160.392674 
L 147.187126 160.392674 
L 147.187126 144.650975 
L 147.394005 144.650975 
L 147.394005 159.919071 
L 147.564484 159.919071 
L 147.604242 128.908851 
L 147.691824 128.908851 
L 147.691824 144.275861 
L 148.076426 144.275861 
L 148.076426 159.454957 
L 148.143665 143.986499 
L 148.225755 143.986499 
L 148.225755 128.510534 
L 148.419575 128.510534 
L 148.419575 143.832171 
L 148.46356 128.380884 
L 148.593877 128.380884 
L 148.593877 112.886952 
L 149.218072 112.886952 
L 149.218072 97.196084 
L 149.752398 97.196084 
L 149.752398 112.464542 
L 149.829982 97.017715 
L 149.853846 112.440494 
L 150.238064 112.440494 
L 150.238064 96.937899 
L 150.304058 112.355922 
L 150.439029 112.355922 
L 150.439029 96.908875 
L 150.743802 96.908875 
L 150.791027 127.72916 
L 150.928254 127.72916 
L 150.928254 143.147864 
L 151.005222 127.715264 
L 151.024605 143.142546 
L 151.514358 143.142546 
L 151.514358 127.702771 
L 152.14921 127.702771 
L 152.14921 143.14483 
L 152.26931 143.14483 
L 152.289022 112.294109 
L 152.680285 112.294109 
L 152.680285 127.741103 
L 152.894549 127.741103 
L 152.894549 112.323552 
L 153.285464 112.323552 
L 153.285464 127.769643 
L 153.490257 127.769643 
L 153.490257 112.34886 
L 153.607201 112.34886 
L 153.607201 96.924054 
L 153.658427 112.35362 
L 154.426127 112.35362 
L 154.463364 81.496399 
L 154.834582 81.496399 
L 154.934721 112.331108 
L 155.424354 112.331108 
L 155.424354 127.719966 
L 155.552709 127.719966 
L 155.552709 112.278909 
L 155.770499 112.278909 
L 155.770499 127.683569 
L 156.24682 127.683569 
L 156.24682 112.19808 
L 156.458576 112.19808 
L 156.458576 127.600025 
L 156.542112 112.161496 
L 156.599942 112.161496 
L 156.599942 127.582737 
L 156.784914 127.582737 
L 156.784914 112.132707 
L 157.561459 112.132707 
L 157.561459 127.494682 
L 157.868446 127.494682 
L 157.868446 112.059427 
L 157.882654 127.48773 
L 158.394481 127.48773 
L 158.394481 112.086777 
L 158.770073 112.086777 
L 158.770073 96.716369 
L 158.925182 96.716369 
L 158.925182 81.322874 
L 159.065156 81.322874 
L 159.107384 112.229051 
L 159.382153 112.229051 
L 159.382153 127.751219 
L 160.113193 127.751219 
L 160.113193 143.548646 
L 160.433718 143.548646 
L 160.433718 159.194828 
L 160.533659 143.84133 
L 160.772663 143.84133 
L 160.785874 113.187247 
L 160.959753 113.187247 
L 161.050315 144.27585 
L 161.490454 144.27585 
L 161.490454 160.128854 
L 161.534833 144.745641 
L 161.95881 144.745641 
L 161.95881 160.618742 
L 162.398192 160.618742 
L 162.398192 145.665294 
L 162.560476 145.665294 
L 162.560476 130.411536 
L 162.834776 130.411536 
L 162.882211 99.892685 
L 163.136026 99.892685 
L 163.136026 84.717658 
L 163.636176 84.717658 
L 163.700597 100.641305 
L 163.9265 100.641305 
L 163.9265 85.37608 
L 164.276147 85.37608 
L 164.385135 116.484804 
L 164.527062 116.484804 
L 164.541566 85.687164 
L 164.610708 85.708455 
L 164.725224 85.708455 
L 164.725224 70.308876 
L 164.763086 85.744787 
L 165.107493 85.744787 
L 165.107493 70.342885 
L 165.115017 85.770838 
L 165.248494 85.770838 
L 165.248494 101.187179 
L 165.543147 101.187179 
L 165.543147 85.689205 
L 165.771092 85.689205 
L 165.771092 70.16587 
L 166.776802 70.16587 
L 166.792603 100.174587 
L 167.005466 100.174587 
L 167.106838 130.645571 
L 167.377364 130.645571 
L 167.46101 161.009518 
L 167.698125 161.009518 
L 167.698125 145.221863 
L 168.059689 145.221863 
L 168.059689 129.20806 
L 168.281725 129.20806 
L 168.281725 113.402081 
L 168.527856 113.402081 
L 168.527856 128.39939 
L 168.906424 128.39939 
L 168.906424 143.147578 
L 169.189499 143.147578 
L 169.192403 111.770011 
L 169.76987 111.770011 
L 169.76987 126.148657 
L 170.378661 126.148657 
L 170.378661 109.650329 
L 170.388661 125.061533 
L 170.748074 125.061533 
L 170.748074 109.034382 
L 171.118488 109.034382 
L 171.132028 139.286509 
L 171.325482 139.286509 
L 171.325482 123.569702 
L 171.639572 123.569702 
L 171.639572 107.698424 
L 171.803812 107.698424 
L 171.803812 122.908492 
L 172.042373 122.908492 
L 172.042373 107.180885 
L 172.296968 107.180885 
L 172.296968 91.457398 
L 172.327735 122.280008 
L 172.55149 122.280008 
L 172.55149 106.616918 
L 172.779693 106.616918 
L 172.779693 121.827744 
L 173.605724 121.827744 
L 173.605724 136.667809 
L 173.883407 136.667809 
L 173.883407 151.972156 
L 174.16577 151.972156 
L 174.16577 136.457543 
L 175.336921 136.457543 
L 175.383493 105.698503 
L 175.401792 121.134105 
L 175.717331 121.134105 
L 175.717331 136.716311 
L 176.032797 136.716311 
L 176.032797 152.350236 
L 176.3204 152.350236 
L 176.343914 121.747254 
L 176.5497 121.747254 
L 176.64076 91.179762 
L 177.301103 91.179762 
L 177.301103 107.418105 
L 177.460228 107.418105 
L 177.460228 92.220138 
L 178.187223 92.220138 
L 178.187223 108.87982 
L 178.339125 108.87982 
L 178.339125 124.603454 
L 178.518825 124.603454 
L 178.600642 171.42834 
L 178.62941 156.061948 
L 178.867399 156.061948 
L 178.874585 125.752594 
L 179.206032 125.752594 
L 179.206032 141.977272 
L 179.74047 141.977272 
L 179.74047 158.825437 
L 180.571385 158.825437 
L 180.604532 130.592784 
L 181.432671 130.592784 
L 181.479713 164.423205 
L 181.60407 164.423205 
L 181.60407 149.433292 
L 181.928675 149.433292 
L 182.027858 120.081299 
L 182.666823 120.081299 
L 182.718924 91.650791 
L 182.810059 91.650791 
L 182.831658 61.179092 
L 183.019628 61.179092 
L 183.019628 46.381686 
L 183.150039 46.381686 
L 183.169804 77.730928 
L 183.314251 77.730928 
L 183.421687 109.387206 
L 183.453009 109.387206 
L 183.453009 124.912327 
L 184.064706 124.912327 
L 184.064706 111.238468 
L 184.533141 111.238468 
L 184.642408 81.753188 
L 184.829592 81.753188 
L 184.829592 66.700799 
L 185.291004 66.700799 
L 185.394484 36.759038 
L 185.569226 36.759038 
L 185.569226 52.401646 
L 185.590383 36.997115 
L 185.774887 36.997115 
L 185.86993 68.122345 
L 185.919098 68.122345 
L 185.919098 83.589295 
L 186.258559 83.589295 
L 186.258559 68.359519 
L 186.657246 68.359519 
L 186.657246 83.873768 
L 186.800482 83.873768 
L 186.822081 130.150495 
L 187.208081 130.150495 
L 187.208081 114.612385 
L 187.389695 114.612385 
L 187.394864 145.374064 
L 187.576958 145.374064 
L 187.576958 129.830056 
L 188.199085 129.830056 
L 188.199085 113.864398 
L 188.431622 113.864398 
L 188.431622 98.192747 
L 188.643582 98.192747 
L 188.643582 82.529471 
L 188.889372 82.529471 
L 188.889372 66.81842 
L 188.917861 82.213458 
L 189.010746 82.213458 
L 189.010746 97.533032 
L 189.281428 97.533032 
L 189.281428 112.644004 
L 189.428061 112.644004 
L 189.428061 97.045573 
L 189.571743 97.045573 
L 189.57217 127.737534 
L 189.773353 127.737534 
L 189.773353 142.942556 
L 189.963952 142.942556 
L 189.963952 158.168608 
L 190.10611 158.168608 
L 190.10611 142.596765 
L 190.194296 157.939497 
L 190.543102 157.939497 
L 190.60877 142.151535 
L 190.638794 157.556738 
L 191.579255 157.556738 
L 191.579255 141.647851 
L 191.698878 141.647851 
L 191.698878 126.194451 
L 192.350012 126.194451 
L 192.350012 110.774888 
L 192.671382 110.774888 
L 192.671382 126.294001 
L 192.848423 126.294001 
L 192.848423 141.794659 
L 193.108374 141.794659 
L 193.108374 157.355478 
L 193.239094 157.355478 
L 193.239094 142.004705 
L 193.459072 142.004705 
L 193.459072 157.578004 
L 193.551318 142.215526 
L 193.889389 142.215526 
L 193.889389 127.049557 
L 194.53601 127.049557 
L 194.53601 112.186826 
L 194.714588 112.186826 
L 194.714588 127.778916 
L 194.902844 127.778916 
L 194.995137 81.752663 
L 195.134578 81.752663 
L 195.134578 66.452222 
L 195.234305 81.971241 
L 195.404271 81.971241 
L 195.404271 97.55239 
L 195.538893 97.55239 
L 195.538893 82.243217 
L 195.770375 82.243217 
L 195.770375 97.871186 
L 195.976525 97.871186 
L 195.976525 82.614583 
L 196.686651 82.614583 
L 196.686651 98.584686 
L 197.003162 98.584686 
L 197.008893 67.950342 
L 197.275379 67.950342 
L 197.275379 83.553991 
L 197.414819 83.553991 
L 197.414819 99.071928 
L 197.432198 83.65477 
L 197.80462 83.65477 
L 197.879812 114.795534 
L 198.104165 114.795534 
L 198.143283 145.822031 
L 198.256767 145.822031 
L 198.256767 161.325265 
L 198.609831 161.325265 
L 198.705354 130.782281 
L 198.811463 130.782281 
L 198.841872 146.289961 
L 198.841872 130.884899 
L 199.004105 130.884899 
L 199.004105 146.440531 
L 199.178298 146.440531 
L 199.178298 162.01282 
L 199.584544 162.01282 
L 199.584544 146.95342 
L 199.908371 146.95342 
L 199.908371 131.855488 
L 200.320012 131.855488 
L 200.320012 147.752374 
L 200.56753 147.752374 
L 200.56753 163.488112 
L 200.733776 163.488112 
L 200.778804 132.908274 
L 200.985596 132.908274 
L 200.985596 148.618914 
L 201.503421 148.618914 
L 201.546343 118.573953 
L 201.669889 118.573953 
L 201.669889 103.330943 
L 201.977204 103.330943 
L 201.977204 119.224909 
L 202.188613 119.224909 
L 202.188613 134.974499 
L 202.434846 134.974499 
L 202.434846 150.774044 
L 202.519176 135.471486 
L 202.704452 135.471486 
L 202.704452 120.315578 
L 202.884496 120.315578 
L 202.958238 89.820801 
L 203.127195 89.820801 
L 203.127195 74.624077 
L 203.445877 74.624077 
L 203.445877 59.607045 
L 203.582159 59.607045 
L 203.582159 44.342772 
L 203.659297 59.860335 
L 204.128842 59.860335 
L 204.154139 44.913803 
L 204.154139 60.364735 
L 204.396645 60.364735 
L 204.396645 75.991597 
L 204.638754 75.991597 
L 204.699663 122.473872 
L 204.767319 122.473872 
L 204.767319 107.08155 
L 205.054257 107.08155 
L 205.122407 138.074889 
L 205.375282 138.074889 
L 205.449768 168.976171 
L 205.449922 153.54791 
L 205.711875 153.54791 
L 205.711875 138.095798 
L 206.011149 138.095798 
L 206.011149 153.428783 
L 206.241454 153.428783 
L 206.268792 122.429847 
L 206.36732 122.429847 
L 206.36732 106.931946 
L 206.4775 122.272213 
L 206.533662 122.272213 
L 206.533662 106.794944 
L 206.694114 106.794944 
L 206.717491 137.471239 
L 206.989611 137.471239 
L 206.989611 121.71958 
L 207.334078 121.71958 
L 207.334078 105.783201 
L 207.475161 105.783201 
L 207.559643 74.533351 
L 207.978974 74.533351 
L 207.978974 89.102283 
L 208.636712 89.102283 
L 208.693119 56.405326 
L 209.465164 56.405326 
L 209.465164 38.494614 
L 209.61432 38.494614 
L 209.702298 68.499509 
L 209.839885 68.499509 
L 209.946847 98.440638 
L 209.954025 98.440638 
L 209.954025 113.841511 
L 209.978566 98.319386 
L 210.010406 113.625384 
L 210.409974 113.625384 
L 210.409974 127.47729 
L 210.497433 111.694947 
L 210.610494 111.694947 
L 210.610494 126.66152 
L 210.927804 126.66152 
L 210.973361 156.01236 
L 211.002008 140.464045 
L 211.460376 140.464045 
L 211.460376 153.960298 
L 211.772045 153.960298 
L 211.772045 168.075246 
L 211.912251 168.075246 
L 211.912251 152.059873 
L 212.517037 152.059873 
L 212.572876 133.929838 
L 212.824554 133.929838 
L 212.824554 117.512793 
L 213.28225 117.512793 
L 213.28225 131.219899 
L 213.622432 131.219899 
L 213.622432 145.44349 
L 213.711987 129.70969 
L 214.202826 129.70969 
L 214.227218 158.909275 
L 214.289025 143.294254 
L 214.482345 143.294254 
L 214.482345 127.299067 
L 215.674856 127.299067 
L 215.674856 139.832701 
L 215.695289 124.364145 
L 215.993239 124.364145 
L 215.993239 139.241284 
L 216.300303 139.241284 
L 216.354518 107.808625 
L 217.139327 107.808625 
L 217.139327 122.33894 
L 217.564307 122.33894 
L 217.564307 106.630131 
L 217.975531 106.630131 
L 217.98744 137.353464 
L 218.254976 137.353464 
L 218.254976 121.916993 
L 218.34973 152.784808 
L 218.757798 152.784808 
L 218.757798 168.346783 
L 219.25304 168.346783 
L 219.25304 153.266202 
L 219.677979 153.266202 
L 219.760621 122.974945 
L 219.966054 122.974945 
L 219.977886 92.423882 
L 220.53307 92.423882 
L 220.53307 108.800477 
L 220.820248 108.800477 
L 220.820248 124.810739 
L 221.106175 124.810739 
L 221.106175 140.877688 
L 221.2697 140.877688 
L 221.2697 156.69688 
L 221.872672 156.69688 
L 221.969199 127.710435 
L 222.291278 127.710435 
L 222.291278 113.24325 
L 223.049503 113.24325 
L 223.049503 100.295356 
L 223.113218 115.944647 
L 223.118587 100.535088 
L 223.751044 100.535088 
L 223.813524 118.484215 
L 224.001459 118.484215 
L 224.001459 134.624721 
L 224.318709 134.624721 
L 224.318709 120.423765 
L 224.722975 120.423765 
L 224.722975 137.455144 
L 224.987465 137.455144 
L 224.987465 123.095294 
L 225.044715 138.75653 
L 225.104532 138.75653 
L 225.104532 154.428802 
L 225.117208 123.624061 
L 225.968889 123.624061 
L 225.968889 142.574209 
L 226.538403 142.574209 
L 226.538403 129.519925 
L 226.611423 160.680286 
L 226.61695 145.275011 
L 226.682146 145.275011 
L 226.697647 145.610416 
L 226.701824 114.77124 
L 226.795722 114.77124 
L 226.795722 99.732682 
L 227.010768 99.732682 
L 227.010768 85.194174 
L 228.105206 85.194174 
L 228.105206 74.198976 
L 228.125027 89.705616 
L 228.252541 89.705616 
L 228.252541 105.636209 
L 228.374114 105.636209 
L 228.374114 90.683738 
L 228.534201 90.683738 
L 228.534201 106.733705 
L 228.897192 106.733705 
L 228.897192 123.55062 
L 229.247418 123.55062 
L 229.267096 155.791147 
L 229.278306 140.404328 
L 229.379924 140.404328 
L 229.379924 125.350403 
L 229.777401 125.350403 
L 229.777401 111.363042 
L 229.958766 111.363042 
L 229.958766 127.436467 
L 230.19402 127.436467 
L 230.19402 112.833672 
L 230.216085 128.338701 
L 230.419277 128.338701 
L 230.419277 113.612121 
L 230.993173 113.612121 
L 230.993173 100.115247 
L 231.001191 115.569975 
L 231.202552 115.569975 
L 231.240538 131.781634 
L 231.279562 116.479899 
L 231.486527 116.479899 
L 231.486527 101.717076 
L 231.558548 132.802954 
L 231.809668 132.802954 
L 231.848623 102.85856 
L 232.382797 102.85856 
L 232.382797 89.060489 
L 232.414489 104.583401 
L 233.370347 104.583401 
L 233.370347 122.74804 
L 233.487298 122.74804 
L 233.487298 107.637469 
L 233.50428 123.111523 
L 234.129865 123.111523 
L 234.129865 140.160995 
L 234.398884 140.160995 
L 234.398884 125.386175 
L 234.469473 140.981003 
L 234.583092 140.981003 
L 234.666224 110.577224 
L 234.698566 110.577224 
L 234.698566 126.078225 
L 234.778327 110.827227 
L 235.230031 110.827227 
L 235.268985 142.702325 
L 235.330629 127.392526 
L 235.39192 127.392526 
L 235.39192 112.07977 
L 235.844395 112.07977 
L 235.940394 82.146587 
L 236.03066 82.146587 
L 236.03066 66.849523 
L 236.08819 82.358075 
L 236.332041 82.358075 
L 236.376405 98.147508 
L 236.47075 98.147508 
L 236.488509 129.125035 
L 236.6005 129.125035 
L 236.6005 113.806131 
L 236.863333 113.806131 
L 236.907661 144.900141 
L 236.964961 129.505561 
L 237.102101 129.505561 
L 237.126438 145.000227 
L 237.126438 129.581612 
L 237.572064 129.581612 
L 237.572064 114.210267 
L 237.819247 114.210267 
L 237.819247 129.566774 
L 237.954501 129.566774 
L 237.978894 98.622477 
L 238.409667 98.622477 
L 238.409667 113.644619 
L 238.503645 98.094039 
L 238.505666 113.519537 
L 238.534647 113.519537 
L 238.537283 82.61901 
L 238.751939 82.61901 
L 238.776237 51.384683 
L 238.836619 66.704775 
L 238.92307 66.704775 
L 238.92307 81.969227 
L 238.969507 66.448626 
L 239.433261 66.448626 
L 239.433261 49.932844 
L 239.735832 49.932844 
L 239.736053 79.920879 
L 239.80029 48.864631 
L 239.852306 48.864631 
L 239.852306 64.127314 
L 239.946492 48.39059 
L 239.974112 48.39059 
L 240.078452 17.083636 
L 240.100294 17.083636 
L 240.100294 32.43534 
L 240.259136 32.43534 
L 240.259136 47.290277 
L 240.804803 47.290277 
L 240.804803 60.548502 
L 240.955379 60.548502 
L 240.955379 44.474521 
L 241.056478 59.459833 
L 241.38495 59.459833 
L 241.387585 88.821781 
L 241.638978 88.821781 
L 241.638978 103.081827 
L 241.819809 103.081827 
L 241.819809 117.659015 
L 241.998533 117.659015 
L 242.074932 147.308866 
L 242.533543 147.308866 
L 242.533543 129.729817 
L 242.643724 144.65105 
L 242.742362 144.65105 
L 242.796795 174.812749 
L 243.161253 174.812749 
L 243.161253 157.787442 
L 243.220653 172.964507 
L 243.394475 172.964507 
L 243.394475 187.674501 
L 243.520651 187.674501 
L 243.520651 202.598172 
L 243.908803 202.598172 
L 243.908803 185.715749 
L 245.021434 185.715749 
L 245.021434 167.048521 
L 245.156465 167.048521 
L 245.156465 182.180301 
L 245.441102 182.180301 
L 245.441102 166.191704 
L 245.668876 166.191704 
L 245.668876 181.231191 
L 245.860462 181.231191 
L 245.860462 165.513746 
L 246.02671 165.513746 
L 246.048708 118.975615 
L 247.01574 118.975615 
L 247.0927 87.127568 
L 247.168821 87.127568 
L 247.168821 71.645319 
L 247.503627 71.645319 
L 247.503627 55.99296 
L 247.71152 55.99296 
L 247.71152 40.431264 
L 247.736892 55.843304 
L 247.868353 55.843304 
L 247.868353 40.3307 
L 247.871736 55.756781 
L 248.006374 55.756781 
L 248.006374 71.097488 
L 248.618053 71.097488 
L 248.618053 55.235075 
L 248.710764 70.589877 
L 248.961997 70.589877 
L 248.983869 39.501901 
L 249.039347 54.880216 
L 249.164033 54.880216 
L 249.18404 101.029818 
L 249.421702 101.029818 
L 249.421702 116.220104 
L 249.676065 116.220104 
L 249.676065 100.514656 
L 249.783869 115.818404 
L 249.943002 115.818404 
L 249.943002 131.0553 
L 250.147465 131.0553 
L 250.147465 115.368218 
L 250.436103 115.368218 
L 250.436103 130.407499 
L 250.613264 130.407499 
L 250.718655 160.858519 
L 251.018431 160.858519 
L 251.083263 114.018638 
L 251.242239 114.018638 
L 251.242239 129.19509 
L 251.671277 129.19509 
L 251.671277 143.919473 
L 251.834171 143.919473 
L 251.834171 159.072787 
L 252.107974 159.072787 
L 252.107974 143.174985 
L 252.288415 143.174985 
L 252.330399 111.931622 
L 252.793444 111.931622 
L 252.793444 126.544411 
L 252.894761 110.936608 
L 252.906273 110.936608 
L 252.906273 95.48793 
L 253.298673 95.48793 
L 253.298673 110.219693 
L 253.412008 110.219693 
L 253.412008 94.590406 
L 254.034881 94.590406 
L 254.137888 124.16982 
L 254.16641 124.16982 
L 254.16641 139.548481 
L 254.379397 139.548481 
L 254.379397 123.751775 
L 254.610641 123.751775 
L 254.610641 138.784504 
L 254.774777 138.784504 
L 254.774777 123.078827 
L 254.90507 123.078827 
L 254.90507 107.43259 
L 255.166082 107.43259 
L 255.166082 91.574447 
L 255.243307 122.305707 
L 255.407219 122.305707 
L 255.407219 137.471317 
L 255.708778 137.471317 
L 255.708778 152.429174 
L 255.96724 152.429174 
L 256.055183 121.056258 
L 256.360551 121.056258 
L 256.388491 89.731748 
L 256.900281 89.731748 
L 256.900281 104.508598 
L 258.016119 104.508598 
L 258.016119 88.03141 
L 258.19514 88.03141 
L 258.301414 118.719885 
L 258.532512 118.719885 
L 258.640793 164.865094 
L 258.953763 164.865094 
L 258.953763 180.225019 
L 259.509941 180.225019 
L 259.509941 195.677085 
L 259.523126 180.251618 
L 259.704833 180.251618 
L 259.724378 149.450248 
L 260.99962 149.450248 
L 260.99962 134.846744 
L 261.159509 134.846744 
L 261.189781 104.16724 
L 261.233307 119.637313 
L 261.386105 119.637313 
L 261.386105 104.359038 
L 261.71064 104.359038 
L 261.71064 89.261664 
L 262.006542 89.261664 
L 262.006542 104.998516 
L 262.109033 89.677052 
L 262.2807 89.677052 
L 262.2807 105.282634 
L 262.555135 105.282634 
L 262.555135 120.986721 
L 262.679637 120.986721 
L 262.679637 105.67902 
L 262.86969 105.67902 
L 262.86969 121.284081 
L 262.873428 105.859196 
L 263.14474 105.859196 
L 263.14474 121.520971 
L 263.245744 90.744873 
L 263.541086 90.744873 
L 263.622556 60.152105 
L 263.755053 60.152105 
L 263.755053 75.658128 
L 264.385864 75.658128 
L 264.419983 106.770974 
L 264.521437 106.770974 
L 264.521437 122.21743 
L 264.757181 122.21743 
L 264.757181 106.809135 
L 264.86864 106.809135 
L 264.86864 122.23589 
L 265.237528 122.23589 
L 265.237528 106.752368 
L 265.244909 122.178741 
L 265.493766 122.178741 
L 265.493766 106.668966 
L 265.700174 106.668966 
L 265.733758 75.701635 
L 265.821328 75.701635 
L 265.821328 91.081776 
L 265.877855 75.620305 
L 266.331247 75.620305 
L 266.384486 106.106818 
L 266.472858 106.106818 
L 266.472858 121.457743 
L 266.752393 121.457743 
L 266.752393 136.617856 
L 267.04644 136.617856 
L 267.04644 120.870869 
L 267.51777 120.870869 
L 267.588036 151.050399 
L 268.155747 151.050399 
L 268.155747 134.800486 
L 268.265446 150.057921 
L 268.277613 150.057921 
L 268.277613 134.610481 
L 268.582453 134.610481 
L 268.582453 118.687188 
L 268.869091 118.687188 
L 268.957371 133.62529 
L 268.957371 118.04142 
L 269.20781 118.04142 
L 269.20781 102.160184 
L 269.437543 102.160184 
L 269.437543 117.158326 
L 269.637515 117.158326 
L 269.637515 101.344659 
L 269.843295 101.344659 
L 269.843295 85.509432 
L 270.072929 85.509432 
L 270.079702 54.17283 
L 270.150959 69.453837 
L 270.33928 69.453837 
L 270.33928 84.487402 
L 270.842885 84.487402 
L 270.842885 98.822937 
L 270.913876 83.236548 
L 271.062666 83.236548 
L 271.062666 98.330342 
L 271.237613 98.330342 
L 271.321893 128.59479 
L 272.058112 128.59479 
L 272.058112 142.286128 
L 272.333139 142.286128 
L 272.333139 126.192297 
L 272.408568 141.436808 
L 272.638201 141.436808 
L 272.638201 156.303008 
L 273.020454 156.303008 
L 273.020454 139.932626 
L 273.194118 139.932626 
L 273.194118 154.931363 
L 273.471824 154.931363 
L 273.476798 107.947224 
L 273.500065 123.317977 
L 273.762506 123.317977 
L 273.762506 107.242403 
L 274.361832 107.242403 
L 274.361832 90.355715 
L 275.049418 90.355715 
L 275.049418 73.32551 
L 275.183441 73.32551 
L 275.183441 88.455545 
L 275.249329 72.882791 
L 275.752514 72.882791 
L 275.786983 118.05113 
L 275.828195 102.542585 
L 276.189539 102.542585 
L 276.189539 117.3057 
L 276.322127 117.3057 
L 276.322127 132.509053 
L 276.440817 132.509053 
L 276.440817 147.745594 
L 276.70481 147.745594 
L 276.70481 131.925974 
L 277.244541 131.925974 
L 277.244541 146.723062 
L 277.752929 146.723062 
L 277.752929 161.792294 
L 278.678497 161.792294 
L 278.678497 177.218698 
L 279.71441 177.218698 
L 279.71441 162.767834 
L 279.840143 162.767834 
L 279.840143 178.375649 
L 279.885139 163.014362 
L 280.386045 163.014362 
L 280.45978 133.121793 
L 281.012509 133.121793 
L 281.012509 118.758823 
L 281.173598 118.758823 
L 281.173598 103.655654 
L 281.533208 103.655654 
L 281.612154 73.696264 
L 281.955538 73.696264 
L 281.955538 58.966974 
L 282.185761 58.966974 
L 282.185761 43.998567 
L 282.838468 43.998567 
L 282.838468 29.810669 
L 283.419803 29.810669 
L 283.419803 46.250334 
L 283.577782 46.250334 
L 283.577782 61.939249 
L 283.806408 61.939249 
L 283.875562 93.274155 
L 284.177426 93.274155 
L 284.177426 109.175309 
L 284.30893 109.175309 
L 284.38351 140.3515 
L 284.450204 140.3515 
L 284.466003 171.335959 
L 284.799833 171.335959 
L 284.799833 156.429853 
L 285.660931 156.429853 
L 285.688771 188.786892 
L 286.275591 188.786892 
L 286.30614 159.146531 
L 286.735189 159.146531 
L 286.735189 144.675308 
L 287.175346 144.675308 
L 287.175346 130.330593 
L 287.321783 130.330593 
L 287.321783 115.285299 
L 287.650135 115.285299 
L 287.650135 131.6108 
L 288.315467 131.6108 
L 288.315467 148.99942 
L 288.541286 148.99942 
L 288.559143 118.898733 
L 288.871412 118.898733 
L 288.871412 135.316433 
L 288.994075 135.316433 
L 289.053295 105.04407 
L 289.214378 105.04407 
L 289.214378 90.136401 
L 289.39242 90.136401 
L 289.39242 75.285733 
L 289.695954 75.285733 
L 289.695954 91.700161 
L 289.749103 76.444376 
L 290.155552 76.444376 
L 290.155552 93.184763 
L 290.196183 77.886722 
L 290.269325 77.886722 
L 290.269325 93.548856 
L 291.274316 93.548856 
L 291.274316 112.097379 
L 291.391588 112.097379 
L 291.494619 143.611517 
L 291.505197 143.611517 
L 291.505197 128.21459 
L 291.6396 128.21459 
L 291.6396 113.182613 
L 291.903597 113.182613 
L 291.903597 129.379754 
L 292.165697 129.379754 
L 292.241007 99.489886 
L 292.757744 99.489886 
L 292.762241 70.102087 
L 292.812783 85.671857 
L 293.022388 85.671857 
L 293.022388 101.686493 
L 293.331515 101.686493 
L 293.331515 117.980937 
L 293.739526 117.980937 
L 293.739526 134.563496 
L 293.774428 119.23492 
L 293.875878 119.23492 
L 293.951189 150.599299 
L 294.64053 150.599299 
L 294.64053 168.070701 
L 295.011685 168.070701 
L 295.011685 153.795331 
L 295.165172 153.795331 
L 295.165172 138.856454 
L 295.302652 138.856454 
L 295.302652 123.873141 
L 295.661928 123.873141 
L 295.661928 109.637997 
L 296.011044 109.637997 
L 296.09285 80.270954 
L 296.200083 80.270954 
L 296.200083 96.079571 
L 296.467634 96.079571 
L 296.467634 112.472839 
L 296.732989 112.472839 
L 296.732989 98.022728 
L 297.006897 98.022728 
L 297.033198 130.008075 
L 297.194791 130.008075 
L 297.194791 146.052206 
L 297.37211 146.052206 
L 297.37211 162.161674 
L 297.508176 162.161674 
L 297.508176 147.259228 
L 297.58808 178.42552 
L 297.984922 178.42552 
L 297.984922 164.541477 
L 298.088061 180.371268 
L 298.131428 180.371268 
L 298.237717 150.096274 
L 298.30165 150.096274 
L 298.30165 134.915821 
L 298.488823 134.915821 
L 298.575376 105.113649 
L 298.585535 120.58078 
L 298.666905 120.58078 
L 298.672313 90.055312 
L 299.244039 90.055312 
L 299.244039 76.750809 
L 299.397148 76.750809 
L 299.397148 61.868885 
L 299.527403 61.868885 
L 299.527403 77.752525 
L 299.716437 77.752525 
L 299.716437 93.824489 
L 300.011831 93.824489 
L 300.011831 110.212471 
L 300.232929 110.212471 
L 300.265163 141.840953 
L 300.282008 126.462191 
L 300.387537 126.462191 
L 300.387537 111.338588 
L 300.41167 126.835174 
L 300.628154 126.835174 
L 300.628154 111.996302 
L 300.643508 127.464715 
L 300.816721 127.464715 
L 300.816721 112.473497 
L 301.169774 112.473497 
L 301.169774 97.840757 
L 301.232177 113.395625 
L 301.801883 113.395625 
L 301.889228 83.596665 
L 301.913501 83.596665 
L 301.913695 52.769394 
L 302.038148 52.769394 
L 302.038148 37.478279 
L 302.379372 37.478279 
L 302.479246 68.661206 
L 302.553056 68.661206 
L 302.630936 37.858509 
L 302.850829 37.858509 
L 302.850829 53.311294 
L 303.053622 53.311294 
L 303.102541 99.546499 
L 303.107398 84.116468 
L 303.168745 84.116468 
L 303.168745 68.663231 
L 303.193426 84.080073 
L 303.522869 84.080073 
L 303.522869 99.281038 
L 303.797095 99.281038 
L 303.797095 114.415852 
L 303.798589 98.985736 
L 303.88444 114.302998 
L 303.987401 114.302998 
L 303.987401 129.586452 
L 304.247519 129.586452 
L 304.247519 144.593424 
L 304.440781 144.593424 
L 304.440781 128.802367 
L 304.635025 128.802367 
L 304.668209 97.466979 
L 304.763998 97.466979 
L 304.763998 112.677389 
L 304.911177 112.677389 
L 304.911177 127.75296 
L 304.973782 112.168254 
L 305.039076 112.168254 
L 305.130502 80.903858 
L 305.160197 80.903858 
L 305.160197 96.252284 
L 305.743541 96.252284 
L 305.743541 109.960177 
L 305.847837 94.196302 
L 306.304078 94.196302 
L 306.329745 108.070727 
L 306.329745 92.551253 
L 306.435993 92.551253 
L 306.435993 107.598077 
L 306.555653 107.598077 
L 306.630236 137.741951 
L 307.018225 137.741951 
L 307.018225 120.83847 
L 307.11354 135.895252 
L 307.527592 135.895252 
L 307.527592 118.820504 
L 307.789012 118.820504 
L 307.889379 163.6341 
L 307.962509 163.6341 
L 307.969905 132.447335 
L 308.234532 132.447335 
L 308.234532 115.929479 
L 308.462794 115.929479 
L 308.462794 99.558707 
L 308.640256 99.558707 
L 308.640256 83.397993 
L 308.69814 98.587662 
L 308.813331 98.587662 
L 308.813331 82.685318 
L 308.895018 97.77815 
L 309.228692 97.77815 
L 309.228692 111.84558 
L 310.092864 111.84558 
L 310.092864 123.867719 
L 310.228623 123.867719 
L 310.228623 107.926027 
L 310.229743 123.35008 
L 310.535177 123.35008 
L 310.535177 137.650167 
L 310.723618 137.650167 
L 310.723618 152.402422 
L 310.81932 136.637062 
L 310.920498 136.637062 
L 310.920498 151.71366 
L 311.008866 135.982307 
L 311.097841 135.982307 
L 311.097841 151.109289 
L 311.330473 151.109289 
L 311.330473 134.912194 
L 312.233694 134.912194 
L 312.233694 147.623487 
L 312.371089 147.623487 
L 312.371089 131.819188 
L 312.508864 131.819188 
L 312.508864 146.879848 
L 312.741698 146.879848 
L 312.741698 130.851131 
L 313.308308 130.851131 
L 313.308308 144.916944 
L 314.144199 144.916944 
L 314.144199 158.526553 
L 314.367748 158.526553 
L 314.367748 142.634758 
L 314.742093 142.634758 
L 314.82601 126.264928 
L 314.936361 126.264928 
L 314.936361 141.465958 
L 315.039571 125.824356 
L 315.055159 125.824356 
L 315.137028 94.765413 
L 315.247378 94.765413 
L 315.247378 79.106548 
L 315.30697 94.409556 
L 315.693757 94.409556 
L 315.693757 78.152862 
L 315.887933 78.152862 
L 315.887933 62.296587 
L 316.737305 62.296587 
L 316.737305 75.737259 
L 317.788111 75.737259 
L 317.889873 103.638304 
L 317.98733 103.638304 
L 317.98733 118.810705 
L 318.50417 118.810705 
L 318.50417 132.895411 
L 318.618721 132.895411 
L 318.618721 117.175686 
L 318.66774 132.480279 
L 318.738235 132.480279 
L 318.816433 162.966146 
L 319.099385 162.966146 
L 319.099385 146.855069 
L 319.337555 146.855069 
L 319.337555 130.880465 
L 319.615643 130.880465 
L 319.615643 145.711077 
L 319.642492 130.227679 
L 319.907616 130.227679 
L 319.96921 160.453744 
L 321.01976 160.453744 
L 321.01976 143.597336 
L 321.469023 143.597336 
L 321.469023 158.729957 
L 321.949687 158.729957 
L 321.949687 174.056811 
L 322.125898 174.056811 
L 322.125898 158.645083 
L 322.284677 158.645083 
L 322.284677 143.25523 
L 322.729942 143.25523 
L 322.729942 158.902223 
L 322.949525 158.902223 
L 322.949525 143.636748 
L 323.062855 143.636748 
L 323.062855 159.16176 
L 323.386744 159.16176 
L 323.479801 128.72668 
L 323.759444 128.72668 
L 323.867368 82.909587 
L 325.073963 82.909587 
L 325.073963 69.188929 
L 325.096925 84.651108 
L 325.42001 84.651108 
L 325.42001 100.555363 
L 325.52568 85.281716 
L 325.704412 85.281716 
L 325.704412 70.113064 
L 325.83129 70.113064 
L 325.83129 85.723887 
L 326.045073 85.723887 
L 326.045073 101.45603 
L 326.324716 101.45603 
L 326.43264 117.422424 
L 326.524094 117.422424 
L 326.524094 102.118783 
L 326.939948 102.118783 
L 326.939948 118.104184 
L 327.069175 118.104184 
L 327.069175 133.703154 
L 327.254978 133.703154 
L 327.254978 118.519278 
L 327.699624 118.519278 
L 327.699624 134.533555 
L 327.993987 134.533555 
L 327.993987 119.501121 
L 328.111181 119.501121 
L 328.111181 135.090343 
L 328.679034 135.090343 
L 328.679034 120.485979 
L 328.956056 120.485979 
L 328.956056 105.496777 
L 329.231073 105.496777 
L 329.231073 121.393414 
L 329.272739 106.039331 
L 329.832174 106.039331 
L 329.832174 122.560609 
L 329.944457 122.560609 
L 329.944457 138.232713 
L 330.238373 138.232713 
L 330.238373 123.487128 
L 330.274228 139.003317 
L 330.39031 139.003317 
L 330.39031 154.72353 
L 330.703675 154.72353 
L 330.814069 125.033107 
L 331.521328 125.033107 
L 331.521328 142.797512 
L 331.764832 142.797512 
L 331.764832 128.296752 
L 331.814366 143.921773 
L 331.829168 128.55284 
L 332.233584 128.55284 
L 332.233584 145.698627 
L 333.263162 145.698627 
L 333.263162 166.343537 
L 333.553978 166.343537 
L 333.553978 183.45617 
L 333.582612 168.198416 
L 334.015914 168.198416 
L 334.028836 140.099526 
L 334.234432 140.099526 
L 334.330104 157.486511 
L 334.517526 157.486511 
L 334.517526 143.310585 
L 334.812401 143.310585 
L 334.812401 129.896601 
L 334.964501 129.896601 
L 334.964501 146.381232 
L 335.264047 146.381232 
L 335.264047 133.058737 
L 335.435337 133.058737 
L 335.435337 118.844836 
L 335.779142 118.844836 
L 335.793954 90.538549 
L 336.309078 90.538549 
L 336.309078 109.59725 
L 336.432914 109.59725 
L 336.432914 125.883633 
L 336.51496 111.019394 
L 336.774565 111.019394 
L 336.797768 97.347337 
L 336.797768 112.930193 
L 336.838335 97.771176 
L 337.28786 97.771176 
L 337.28786 85.226029 
L 337.377673 101.205178 
L 337.438481 101.205178 
L 337.438481 117.001079 
L 337.48166 101.831166 
L 337.671055 101.831166 
L 337.671055 87.508222 
L 337.715578 103.189456 
L 337.985115 103.189456 
L 338.059383 89.232712 
L 338.059383 105.047474 
L 338.384452 105.047474 
L 338.396169 75.832861 
L 338.568753 75.832861 
L 338.576397 61.171762 
L 338.576397 76.63279 
L 338.607531 61.336904 
L 339.061398 61.336904 
L 339.069212 32.233526 
L 339.229193 32.233526 
L 339.229193 17.317899 
L 339.239542 32.777601 
L 339.317255 17.57864 
L 339.410266 17.57864 
L 339.410266 33.265599 
L 339.5395 33.265599 
L 339.650293 64.709736 
L 339.666266 64.709736 
L 339.666266 80.17299 
L 339.853132 80.17299 
L 339.853132 95.972318 
L 339.944763 65.271963 
L 340.032683 65.271963 
L 340.032683 80.834145 
L 340.278935 80.834145 
L 340.278935 96.554857 
L 340.451232 96.554857 
L 340.503013 65.859752 
L 340.766015 65.859752 
L 340.766015 50.496447 
L 340.924498 50.496447 
L 340.924498 65.90063 
L 340.94311 50.466486 
L 340.961442 65.888337 
L 341.183309 65.888337 
L 341.183309 50.334391 
L 341.444383 50.334391 
L 341.444383 34.648217 
L 342.042144 34.648217 
L 342.119259 64.335523 
L 342.19673 64.335523 
L 342.225004 110.377666 
L 342.364525 110.377666 
L 342.364525 125.463514 
L 342.538939 125.463514 
L 342.538939 140.429846 
L 342.711982 140.429846 
L 342.761227 170.646636 
L 342.969295 170.646636 
L 342.969295 154.571719 
L 343.022648 185.255455 
L 343.180651 185.255455 
L 343.180651 169.29973 
L 343.315275 169.29973 
L 343.315275 153.404361 
L 343.353315 168.69782 
L 343.748581 168.69782 
L 343.748581 182.657632 
L 343.749396 167.226221 
L 344.173381 167.226221 
L 344.173381 150.100378 
L 344.383189 150.100378 
L 344.383189 133.791223 
L 344.648503 133.791223 
L 344.648503 148.070674 
L 344.755987 132.166556 
L 344.863341 132.166556 
L 344.863341 116.25726 
L 344.983793 116.25726 
L 344.983793 100.282613 
L 345.175863 100.282613 
L 345.175863 114.825502 
L 345.33123 114.825502 
L 345.33123 98.668742 
L 345.534567 98.668742 
L 345.595516 128.261678 
L 345.600976 112.806999 
L 346.018329 112.806999 
L 346.018329 95.322718 
L 346.314668 95.322718 
L 346.314668 109.249339 
L 346.399886 93.383191 
L 346.674439 93.383191 
L 346.674439 76.526874 
L 346.803161 76.526874 
L 346.803161 60.420528 
L 346.859958 75.547971 
L 346.925177 75.547971 
L 347.014038 59.298925 
L 347.537786 59.298925 
L 347.537786 41.037534 
L 347.713644 41.037534 
L 347.713644 55.503528 
L 347.834096 55.503528 
L 347.89132 100.812911 
L 347.939057 85.122246 
L 348.298571 85.122246 
L 348.384621 113.530921 
L 348.466562 113.530921 
L 348.466562 128.510719 
L 348.736308 128.510719 
L 348.794148 157.586826 
L 348.965158 157.586826 
L 348.965158 172.09684 
L 349.087617 172.09684 
L 349.087617 156.01725 
L 349.19961 156.01725 
L 349.19961 139.998605 
L 349.509486 139.998605 
L 349.509486 122.968026 
L 349.653463 122.968026 
L 349.653463 137.669972 
L 349.86434 137.669972 
L 349.86434 152.058623 
L 350.06051 152.058623 
L 350.103058 181.777213 
L 350.40725 181.777213 
L 350.40725 164.966711 
L 350.854615 164.966711 
L 350.957891 131.83115 
L 352.334942 131.83115 
L 352.383042 158.402644 
L 352.611717 158.402644 
L 352.611717 142.525959 
L 353.214879 142.525959 
L 353.257552 172.482396 
L 353.353181 172.482396 
L 353.405306 156.923124 
L 353.591913 156.923124 
L 353.591913 141.3682 
L 353.704917 141.3682 
L 353.704917 156.740447 
L 353.713206 141.308681 
L 353.998987 141.308681 
L 353.998987 125.809265 
L 354.321898 125.809265 
L 354.321898 141.269007 
L 354.381872 125.859079 
L 354.493302 125.859079 
L 354.493302 141.3314 
L 354.583024 125.947843 
L 355.400517 125.947843 
L 355.400517 142.125777 
L 355.587124 142.125777 
L 355.587124 157.800747 
L 355.875665 157.800747 
L 355.875665 142.799171 
L 355.994199 142.799171 
L 355.994199 158.416934 
L 356.220695 158.416934 
L 356.309933 128.099639 
L 356.578235 128.099639 
L 356.662114 159.6058 
L 356.802497 159.6058 
L 356.876069 129.162554 
L 356.984216 129.162554 
L 357.031126 98.612049 
L 357.418599 98.612049 
L 357.418599 114.820732 
L 357.64806 114.820732 
L 357.64806 99.860039 
L 357.805149 99.860039 
L 357.805149 84.752183 
L 357.953376 84.752183 
L 358.032689 54.35821 
L 358.409367 54.35821 
L 358.409367 70.542729 
L 358.630457 70.542729 
L 358.630457 55.550067 
L 358.797708 55.550067 
L 358.87128 86.872299 
L 359.135762 86.872299 
L 359.135762 71.943648 
L 359.160235 87.417477 
L 359.356028 87.417477 
L 359.356028 103.206097 
L 359.385111 87.830717 
L 359.80036 87.830717 
L 359.80036 103.995501 
L 360.027901 103.995501 
L 360.027901 119.812462 
L 360.213333 119.812462 
L 360.213333 135.54962 
L 360.503268 135.54962 
L 360.503268 120.589988 
L 360.803678 120.589988 
L 360.803678 136.484823 
L 361.006209 136.484823 
L 361.095292 167.774668 
L 361.130974 167.774668 
L 361.130974 183.254546 
L 361.490856 183.254546 
L 361.490856 168.328204 
L 361.59161 183.890447 
L 361.76579 183.890447 
L 361.76579 199.542875 
L 361.99479 199.542875 
L 361.99479 184.393664 
L 362.35234 184.393664 
L 362.440835 138.593036 
L 362.638668 138.593036 
L 362.638668 123.350312 
L 362.95484 123.350312 
L 362.95484 108.175014 
L 363.071815 108.175014 
L 363.1303 62.004963 
L 363.271708 62.004963 
L 363.271708 46.65464 
L 363.771098 46.65464 
L 363.771098 62.243564 
L 363.830353 46.821604 
L 364.347551 46.821604 
L 364.347551 62.179046 
L 364.436471 46.71486 
L 364.499418 46.71486 
L 364.555451 77.512014 
L 364.858638 77.512014 
L 364.858638 61.87295 
L 365.063752 61.87295 
L 365.063752 77.109489 
L 365.20386 77.109489 
L 365.20386 61.527362 
L 365.291137 76.850404 
L 365.48897 76.850404 
L 365.576592 107.312956 
L 365.700183 107.312956 
L 365.700183 122.5473 
L 366.37651 122.5473 
L 366.37651 136.677626 
L 366.467296 121.046563 
L 366.660233 121.046563 
L 366.660233 136.023371 
L 366.759663 120.352071 
L 366.931689 120.352071 
L 366.931689 104.487681 
L 367.0885 104.487681 
L 367.0885 88.645692 
L 367.250716 88.645692 
L 367.347268 134.217404 
L 367.461724 134.217404 
L 367.461724 118.462954 
L 367.993971 118.462954 
L 367.993971 132.306114 
L 368.064059 101.234383 
L 368.747538 101.234383 
L 368.747538 114.528715 
L 368.909253 114.528715 
L 368.9269 144.824503 
L 369.041297 144.824503 
L 369.041297 129.040728 
L 369.245844 129.040728 
L 369.245844 112.983202 
L 369.894996 112.983202 
L 369.895237 126.506695 
L 369.895237 111.077761 
L 370.026996 111.077761 
L 370.026996 126.143653 
L 370.344301 126.143653 
L 370.344301 140.743544 
L 370.508863 140.743544 
L 370.508863 155.77008 
L 370.562352 140.215748 
L 370.961754 140.215748 
L 370.961754 123.922986 
L 371.526086 123.922986 
L 371.526086 138.392812 
L 371.987503 138.392812 
L 371.987503 153.30053 
L 372.271386 153.30053 
L 372.271386 168.53739 
L 372.621439 168.53739 
L 372.621439 153.015211 
L 372.987132 153.015211 
L 372.987132 137.660716 
L 373.315599 137.660716 
L 373.315599 153.305912 
L 373.429696 153.305912 
L 373.429696 137.986067 
L 373.812056 137.986067 
L 373.812056 153.89888 
L 374.171841 153.89888 
L 374.171841 169.946283 
L 375.188136 169.946283 
L 375.188136 156.997115 
L 375.326199 156.997115 
L 375.326199 141.97248 
L 375.552404 141.97248 
L 375.552404 158.087395 
L 375.68122 158.087395 
L 375.688009 127.655394 
L 375.758196 143.306606 
L 376.185996 143.306606 
L 376.243253 114.03334 
L 376.399378 114.03334 
L 376.399378 99.123664 
L 376.568238 99.123664 
L 376.568238 84.256965 
L 376.896892 84.256965 
L 376.896892 100.770199 
L 376.973169 85.590607 
L 377.044396 85.590607 
L 377.044396 70.393043 
L 377.457053 70.393043 
L 377.457053 56.263136 
L 377.664744 56.263136 
L 377.664744 41.456564 
L 377.676431 56.919056 
L 378.27521 56.919056 
L 378.27521 73.973643 
L 378.277845 58.551927 
L 378.461532 58.551927 
L 378.466238 89.861136 
L 378.823341 89.861136 
L 378.823341 106.059587 
L 379.244165 106.059587 
L 379.244165 91.379862 
L 379.426735 91.379862 
L 379.426735 76.219952 
L 379.534711 91.790438 
L 379.538441 91.790438 
L 379.538441 107.223393 
L 379.595525 91.865097 
L 379.988601 91.865097 
L 379.988601 107.680386 
L 380.233676 107.680386 
L 380.307355 138.728621 
L 380.749789 138.728621 
L 380.749789 154.242887 
L 380.800077 154.2396 
L 381.195736 154.2396 
L 381.195736 138.694854 
L 381.45414 138.694854 
L 381.45414 123.106175 
L 381.656761 123.106175 
L 381.750053 76.559799 
L 382.069398 76.559799 
L 382.069398 60.761364 
L 382.277037 60.761364 
L 382.277037 75.903328 
L 382.352428 60.36275 
L 382.664528 60.36275 
L 382.664528 75.281971 
L 383.105277 75.281971 
L 383.105277 59.02787 
L 383.408389 59.02787 
L 383.408389 73.828853 
L 383.779579 73.828853 
L 383.870979 103.661307 
L 383.914034 103.661307 
L 383.914034 118.991305 
L 384.587044 118.991305 
L 384.587044 102.000131 
L 384.792094 102.000131 
L 384.901129 162.987847 
L 385.109876 162.987847 
L 385.109876 147.087298 
L 385.170416 162.38062 
L 385.487761 162.38062 
L 385.487761 177.120265 
L 385.883529 177.120265 
L 385.936525 145.357148 
L 386.535027 145.357148 
L 386.582256 175.082562 
L 387.267968 175.082562 
L 387.293073 143.244256 
L 387.584092 143.244256 
L 387.584092 127.490993 
L 387.802511 127.490993 
L 387.802511 111.844946 
L 388.145163 111.844946 
L 388.178626 96.086652 
L 388.718224 96.086652 
L 388.805882 126.48145 
L 388.858539 126.48145 
L 388.858539 111.017301 
L 389.294273 111.017301 
L 389.294273 126.150417 
L 389.770468 126.150417 
L 389.770468 110.37435 
L 389.797722 125.781002 
L 390.211978 125.781002 
L 390.211978 140.846278 
L 390.243851 125.386939 
L 390.663383 125.386939 
L 390.663383 109.496853 
L 390.743898 140.252181 
L 390.847604 140.252181 
L 390.932237 109.141061 
L 391.222407 109.141061 
L 391.305641 77.698594 
L 391.828451 77.698594 
L 391.828451 92.102466 
L 391.890148 76.536396 
L 392.032541 76.536396 
L 392.032541 60.775912 
L 392.166715 60.775912 
L 392.166715 45.016302 
L 392.495384 45.016302 
L 392.495384 28.700428 
L 392.563932 43.929933 
L 392.842816 43.929933 
L 392.932589 73.637636 
L 393.190831 73.637636 
L 393.228655 118.904909 
L 393.466578 118.904909 
L 393.466578 102.600976 
L 393.585883 102.600976 
L 393.585883 117.571786 
L 393.94633 117.571786 
L 393.94633 100.693086 
L 394.519304 100.693086 
L 394.519304 113.638426 
L 394.5667 97.99703 
L 395.167873 97.99703 
L 395.167873 110.656844 
L 395.31051 110.656844 
L 395.31051 125.417707 
L 395.458608 125.417707 
L 395.458608 109.295585 
L 395.74682 109.295585 
L 395.74682 123.377382 
L 396.181355 123.377382 
L 396.181355 105.952899 
L 396.442168 105.952899 
L 396.511602 135.342328 
L 396.598729 135.342328 
L 396.598729 150.393265 
L 396.770837 150.393265 
L 396.770837 165.090107 
L 397.131972 165.090107 
L 397.131972 179.052125 
L 397.399256 179.052125 
L 397.399256 162.606877 
L 398.810428 162.606877 
L 398.810428 142.977815 
L 399.394468 142.977815 
L 399.394468 157.285805 
L 399.454368 141.762573 
L 399.53804 141.762573 
L 399.53804 126.207629 
L 399.601718 141.544084 
L 400.437659 141.544084 
L 400.437659 125.249856 
L 401.211711 125.249856 
L 401.211711 109.479558 
L 401.510836 109.479558 
L 401.510836 94.003646 
L 401.533251 109.429781 
L 401.996016 109.429781 
L 401.996016 93.99261 
L 402.01964 109.421895 
L 402.23079 109.421895 
L 402.23079 124.863869 
L 402.651345 124.863869 
L 402.651345 109.479198 
L 402.8934 109.479198 
L 402.8934 94.079835 
L 403.155625 94.079835 
L 403.155625 78.681521 
L 403.221017 94.116656 
L 403.366511 94.116656 
L 403.398645 63.27702 
L 403.572991 63.27702 
L 403.572991 78.718781 
L 403.991228 78.718781 
L 404.076496 125.020822 
L 404.458979 125.020822 
L 404.458979 109.581348 
L 404.603581 109.581348 
L 404.603581 124.999906 
L 405.126149 124.999906 
L 405.185109 94.078508 
L 405.435867 94.078508 
L 405.435867 109.46939 
L 406.248947 109.46939 
L 406.248947 124.771257 
L 406.501843 124.771257 
L 406.501843 140.16895 
L 406.577769 109.304952 
L 407.024251 109.304952 
L 407.024251 124.711069 
L 407.406391 124.711069 
L 407.406391 140.158984 
L 408.218482 140.158984 
L 408.218482 155.792981 
L 408.643287 155.792981 
L 408.643287 140.581306 
L 409.040044 140.581306 
L 409.040044 125.432245 
L 409.420752 125.432245 
L 409.420752 110.345615 
L 409.460563 125.813868 
L 410.661256 125.813868 
L 410.661256 111.974852 
L 410.949108 111.974852 
L 410.949108 97.036106 
L 411.708313 97.036106 
L 411.778619 114.096794 
L 411.890346 114.096794 
L 411.986024 145.410581 
L 412.476076 145.410581 
L 412.476076 131.136097 
L 413.226528 131.136097 
L 413.226528 148.518717 
L 413.418452 148.518717 
L 413.477571 118.36324 
L 414.899355 118.36324 
L 414.899355 107.306897 
L 415.13174 107.306897 
L 415.13174 92.653427 
L 415.224561 123.82389 
L 415.467842 123.82389 
L 415.551819 94.094197 
L 416.181469 94.094197 
L 416.181469 111.77593 
L 416.572368 111.77593 
L 416.572368 97.801159 
L 416.612904 113.382446 
L 416.838815 113.382446 
L 416.894566 145.313728 
L 416.986053 145.313728 
L 416.986053 130.238753 
L 417.177645 130.238753 
L 417.177645 115.556699 
L 417.178024 130.986446 
L 417.817926 130.986446 
L 417.817926 118.105967 
L 417.982043 118.105967 
L 417.982043 134.199033 
L 418.317766 134.199033 
L 418.317766 150.997162 
L 418.687151 150.997162 
L 418.687151 167.941083 
L 418.748109 152.763083 
L 419.167821 152.763083 
L 419.167821 139.052114 
L 419.551325 139.052114 
L 419.551325 156.028407 
L 419.710892 156.028407 
L 419.716538 125.828217 
L 419.828096 125.828217 
L 419.828096 110.838471 
L 420.182091 110.838471 
L 420.182091 96.771153 
L 420.277761 112.557909 
L 420.307988 112.557909 
L 420.349083 81.965717 
L 420.383198 97.519496 
L 420.58785 97.519496 
L 420.58785 82.830808 
L 421.02835 82.830808 
L 421.02835 99.762788 
L 421.32806 99.762788 
L 421.32806 85.277988 
L 421.483566 85.277988 
L 421.483566 70.310795 
L 421.773678 70.310795 
L 421.773678 55.686624 
L 421.991134 55.686624 
L 421.99678 87.108958 
L 422.108337 87.108958 
L 422.108337 102.80223 
L 422.303154 102.80223 
L 422.303154 118.663759 
L 422.322022 103.275431 
L 422.589566 103.275431 
L 422.637763 73.032919 
L 422.7084 73.032919 
L 422.7084 57.727822 
L 422.913799 57.727822 
L 422.913799 73.484311 
L 423.032393 73.484311 
L 423.032393 89.081695 
L 423.478778 89.081695 
L 423.478778 105.012241 
L 423.506895 89.608534 
L 424.01338 89.608534 
L 424.054476 105.350836 
L 424.293243 105.350836 
L 424.361985 136.250696 
L 424.778162 136.250696 
L 424.778162 120.737633 
L 425.233186 120.737633 
L 425.289913 89.568683 
L 425.318484 104.973256 
L 425.457354 104.973256 
L 425.457354 120.277563 
L 425.654048 120.277563 
L 425.711629 89.157934 
L 426.058125 89.157934 
L 426.058125 104.158955 
L 426.557726 104.158955 
L 426.557726 87.995912 
L 426.698823 87.995912 
L 426.698823 103.195412 
L 426.85175 103.195412 
L 426.85175 118.366867 
L 427.001053 118.366867 
L 427.029403 87.201774 
L 427.15005 87.201774 
L 427.15005 102.415005 
L 427.472465 102.415005 
L 427.472465 117.251193 
L 427.913495 117.251193 
L 427.913495 131.84296 
L 428.03683 131.84296 
L 428.03683 116.178231 
L 428.140216 131.408156 
L 428.740273 131.408156 
L 428.740273 114.842216 
L 428.996264 114.842216 
L 428.996264 129.801023 
L 429.122998 129.801023 
L 429.223609 160.253214 
L 429.373819 160.253214 
L 429.475239 113.537708 
L 429.644471 113.537708 
L 429.644471 128.68762 
L 429.756417 128.68762 
L 429.756417 113.080674 
L 430.165424 113.080674 
L 430.22115 127.896108 
L 430.22115 112.389464 
L 430.317071 112.389464 
L 430.317071 127.685789 
L 430.734796 127.685789 
L 430.734796 142.584203 
L 431.532984 142.584203 
L 431.532984 126.341625 
L 431.739879 126.341625 
L 431.739879 141.596966 
L 432.216361 141.596966 
L 432.216361 156.672846 
L 432.958135 156.672846 
L 432.958135 171.622562 
L 432.997747 140.740801 
L 433.090834 140.740801 
L 433.090834 125.252716 
L 433.226861 125.252716 
L 433.226861 109.735181 
L 433.364242 109.735181 
L 433.364242 125.070148 
L 433.591387 125.070148 
L 433.679019 93.982394 
L 433.74684 93.982394 
L 433.750693 124.781893 
L 433.767493 109.339986 
L 434.58419 109.339986 
L 434.58419 93.081398 
L 434.722126 93.081398 
L 434.722126 77.472439 
L 434.936053 77.472439 
L 434.936053 61.735647 
L 435.268436 61.735647 
L 435.268436 76.610147 
L 435.337119 61.055425 
L 435.563019 61.055425 
L 435.563019 76.037151 
L 435.584328 60.564292 
L 435.762705 60.564292 
L 435.871629 90.776719 
L 436.009341 90.776719 
L 436.009341 105.867495 
L 436.362193 105.867495 
L 436.362193 120.344713 
L 436.378582 104.869258 
L 436.511196 104.869258 
L 436.511196 119.905838 
L 436.603665 88.765942 
L 436.849627 88.765942 
L 436.849627 72.543597 
L 437.265014 72.543597 
L 437.265014 55.646918 
L 437.954472 55.646918 
L 438.028816 83.441006 
L 438.187421 83.441006 
L 438.187421 98.18566 
L 438.373793 98.18566 
L 438.373793 112.794549 
L 438.556819 112.794549 
L 438.641446 142.449621 
L 438.666815 126.90625 
L 438.844838 126.90625 
L 438.844838 141.522115 
L 438.997579 141.522115 
L 438.997673 156.248378 
L 438.997673 140.819682 
L 439.289721 140.819682 
L 439.289721 154.899603 
L 440.098834 154.899603 
L 440.098834 135.78645 
L 440.115316 151.14165 
L 441.170723 151.14165 
L 441.170723 131.357503 
L 441.283144 131.357503 
L 441.283144 115.512681 
L 441.517117 115.512681 
L 441.517117 130.109702 
L 442.140855 130.109702 
L 442.140855 112.724336 
L 442.310844 112.724336 
L 442.310844 127.689734 
L 443.234167 127.689734 
L 443.278356 171.963298 
L 443.296415 156.507837 
L 443.361356 156.507837 
L 443.361356 140.984923 
L 444.421097 140.984923 
L 444.421097 155.549566 
L 445.576656 155.549566 
L 445.576656 171.310873 
L 445.955514 171.310873 
L 445.955514 156.196308 
L 446.073637 156.196308 
L 446.073637 140.878657 
L 446.221565 140.878657 
L 446.221565 125.595069 
L 446.496688 125.595069 
L 446.496688 141.30416 
L 446.836324 141.30416 
L 446.836324 126.226538 
L 447.251847 126.226538 
L 447.251847 111.196674 
L 447.594864 111.196674 
L 447.614412 80.623377 
L 448.261475 80.623377 
L 448.261475 96.298734 
L 448.288251 80.871429 
L 448.638909 80.871429 
L 448.638909 96.229715 
L 448.669728 80.787492 
L 448.805817 80.787492 
L 448.805817 96.137906 
L 449.251324 96.137906 
L 449.355831 64.674589 
L 449.411155 64.674589 
L 449.411155 49.157478 
L 449.532089 49.157478 
L 449.532089 64.372813 
L 449.633113 48.746653 
L 449.641928 64.156772 
L 449.914354 64.156772 
L 449.914354 48.09719 
L 450.464714 48.09719 
L 450.464714 61.8218 
L 450.853523 61.8218 
L 450.853523 75.69646 
L 451.015227 75.69646 
L 451.015227 90.394312 
L 451.122281 43.599281 
L 451.636073 43.599281 
L 451.636073 56.294611 
L 452.101626 56.294611 
L 452.101626 68.872095 
L 452.261457 68.872095 
L 452.261457 83.248569 
L 452.375121 83.248569 
L 452.375121 97.908263 
L 452.768445 97.908263 
L 452.768445 110.558443 
L 453.099428 110.558443 
L 453.099428 123.528356 
L 453.619747 123.528356 
L 453.687553 149.826141 
L 455.051278 149.826141 
L 455.051278 154.443236 
L 455.051278 154.443236 
" style="fill:none;stroke:#9c00ff;stroke-linecap:square;stroke-width:1.5;"/>
   </g>
   <g id="patch_3">
    <path d="M 28.942188 224.64 
L 28.942188 7.2 
" style="fill:none;stroke:#000000;stroke-linecap:square;stroke-linejoin:miter;stroke-width:0.8;"/>
   </g>
   <g id="patch_4">
    <path d="M 475.342187 224.64 
L 475.342187 7.2 
" style="fill:none;stroke:#000000;stroke-linecap:square;stroke-linejoin:miter;stroke-width:0.8;"/>
   </g>
   <g id="patch_5">
    <path d="M 28.942187 224.64 
L 475.342188 224.64 
" style="fill:none;stroke:#000000;stroke-linecap:square;stroke-linejoin:miter;stroke-width:0.8;"/>
   </g>
   <g id="patch_6">
    <path d="M 28.942187 7.2 
L 475.342188 7.2 
" style="fill:none;stroke:#000000;stroke-linecap:square;stroke-linejoin:miter;stroke-width:0.8;"/>
   </g>
  </g>
 </g>
 <defs>
  <clipPath id="p83aed08f95">
   <rect height="217.44" width="446.4" x="28.942188" y="7.2"/>
  </clipPath>
 </defs>
</svg>
