<?xml version="1.0" encoding="utf-8" standalone="no"?>
<!DOCTYPE svg PUBLIC "-//W3C//DTD SVG 1.1//EN"
  "http://www.w3.org/Graphics/SVG/1.1/DTD/svg11.dtd">
<!-- Created with matplotlib (https://matplotlib.org/) -->
<svg height="465.958125pt" version="1.1" viewBox="0 0 926.925 465.958125" width="926.925pt" xmlns="http://www.w3.org/2000/svg" xmlns:xlink="http://www.w3.org/1999/xlink">
 <metadata>
  <rdf:RDF xmlns:cc="http://creativecommons.org/ns#" xmlns:dc="http://purl.org/dc/elements/1.1/" xmlns:rdf="http://www.w3.org/1999/02/22-rdf-syntax-ns#">
   <cc:Work>
    <dc:type rdf:resource="http://purl.org/dc/dcmitype/StillImage"/>
    <dc:date>2021-03-04T16:56:10.584509</dc:date>
    <dc:format>image/svg+xml</dc:format>
    <dc:creator>
     <cc:Agent>
      <dc:title>Matplotlib v3.3.4, https://matplotlib.org/</dc:title>
     </cc:Agent>
    </dc:creator>
   </cc:Work>
  </rdf:RDF>
 </metadata>
 <defs>
  <style type="text/css">*{stroke-linecap:butt;stroke-linejoin:round;}</style>
 </defs>
 <g id="figure_1">
  <g id="patch_1">
   <path d="M 0 465.958125 
L 926.925 465.958125 
L 926.925 0 
L 0 0 
z
" style="fill:none;"/>
  </g>
  <g id="axes_1">
   <g id="patch_2">
    <path d="M 26.925 442.08 
L 919.725 442.08 
L 919.725 7.2 
L 26.925 7.2 
z
" style="fill:#ffffff;"/>
   </g>
   <g id="matplotlib.axis_1">
    <g id="xtick_1">
     <g id="line2d_1">
      <defs>
       <path d="M 0 0 
L 0 3.5 
" id="m6cbe5870ad" style="stroke:#000000;stroke-width:0.8;"/>
      </defs>
      <g>
       <use style="stroke:#000000;stroke-width:0.8;" x="73.361747" xlink:href="#m6cbe5870ad" y="442.08"/>
      </g>
     </g>
     <g id="text_1">
      <!-- 0 -->
      <g transform="translate(70.180497 456.678437)scale(0.1 -0.1)">
       <defs>
        <path d="M 31.78125 66.40625 
Q 24.171875 66.40625 20.328125 58.90625 
Q 16.5 51.421875 16.5 36.375 
Q 16.5 21.390625 20.328125 13.890625 
Q 24.171875 6.390625 31.78125 6.390625 
Q 39.453125 6.390625 43.28125 13.890625 
Q 47.125 21.390625 47.125 36.375 
Q 47.125 51.421875 43.28125 58.90625 
Q 39.453125 66.40625 31.78125 66.40625 
z
M 31.78125 74.21875 
Q 44.046875 74.21875 50.515625 64.515625 
Q 56.984375 54.828125 56.984375 36.375 
Q 56.984375 17.96875 50.515625 8.265625 
Q 44.046875 -1.421875 31.78125 -1.421875 
Q 19.53125 -1.421875 13.0625 8.265625 
Q 6.59375 17.96875 6.59375 36.375 
Q 6.59375 54.828125 13.0625 64.515625 
Q 19.53125 74.21875 31.78125 74.21875 
z
" id="DejaVuSans-48"/>
       </defs>
       <use xlink:href="#DejaVuSans-48"/>
      </g>
     </g>
    </g>
    <g id="xtick_2">
     <g id="line2d_2">
      <g>
       <use style="stroke:#000000;stroke-width:0.8;" x="187.373838" xlink:href="#m6cbe5870ad" y="442.08"/>
      </g>
     </g>
     <g id="text_2">
      <!-- 200 -->
      <g transform="translate(177.830088 456.678437)scale(0.1 -0.1)">
       <defs>
        <path d="M 19.1875 8.296875 
L 53.609375 8.296875 
L 53.609375 0 
L 7.328125 0 
L 7.328125 8.296875 
Q 12.9375 14.109375 22.625 23.890625 
Q 32.328125 33.6875 34.8125 36.53125 
Q 39.546875 41.84375 41.421875 45.53125 
Q 43.3125 49.21875 43.3125 52.78125 
Q 43.3125 58.59375 39.234375 62.25 
Q 35.15625 65.921875 28.609375 65.921875 
Q 23.96875 65.921875 18.8125 64.3125 
Q 13.671875 62.703125 7.8125 59.421875 
L 7.8125 69.390625 
Q 13.765625 71.78125 18.9375 73 
Q 24.125 74.21875 28.421875 74.21875 
Q 39.75 74.21875 46.484375 68.546875 
Q 53.21875 62.890625 53.21875 53.421875 
Q 53.21875 48.921875 51.53125 44.890625 
Q 49.859375 40.875 45.40625 35.40625 
Q 44.1875 33.984375 37.640625 27.21875 
Q 31.109375 20.453125 19.1875 8.296875 
z
" id="DejaVuSans-50"/>
       </defs>
       <use xlink:href="#DejaVuSans-50"/>
       <use x="63.623047" xlink:href="#DejaVuSans-48"/>
       <use x="127.246094" xlink:href="#DejaVuSans-48"/>
      </g>
     </g>
    </g>
    <g id="xtick_3">
     <g id="line2d_3">
      <g>
       <use style="stroke:#000000;stroke-width:0.8;" x="301.385929" xlink:href="#m6cbe5870ad" y="442.08"/>
      </g>
     </g>
     <g id="text_3">
      <!-- 400 -->
      <g transform="translate(291.842179 456.678437)scale(0.1 -0.1)">
       <defs>
        <path d="M 37.796875 64.3125 
L 12.890625 25.390625 
L 37.796875 25.390625 
z
M 35.203125 72.90625 
L 47.609375 72.90625 
L 47.609375 25.390625 
L 58.015625 25.390625 
L 58.015625 17.1875 
L 47.609375 17.1875 
L 47.609375 0 
L 37.796875 0 
L 37.796875 17.1875 
L 4.890625 17.1875 
L 4.890625 26.703125 
z
" id="DejaVuSans-52"/>
       </defs>
       <use xlink:href="#DejaVuSans-52"/>
       <use x="63.623047" xlink:href="#DejaVuSans-48"/>
       <use x="127.246094" xlink:href="#DejaVuSans-48"/>
      </g>
     </g>
    </g>
    <g id="xtick_4">
     <g id="line2d_4">
      <g>
       <use style="stroke:#000000;stroke-width:0.8;" x="415.398019" xlink:href="#m6cbe5870ad" y="442.08"/>
      </g>
     </g>
     <g id="text_4">
      <!-- 600 -->
      <g transform="translate(405.854269 456.678437)scale(0.1 -0.1)">
       <defs>
        <path d="M 33.015625 40.375 
Q 26.375 40.375 22.484375 35.828125 
Q 18.609375 31.296875 18.609375 23.390625 
Q 18.609375 15.53125 22.484375 10.953125 
Q 26.375 6.390625 33.015625 6.390625 
Q 39.65625 6.390625 43.53125 10.953125 
Q 47.40625 15.53125 47.40625 23.390625 
Q 47.40625 31.296875 43.53125 35.828125 
Q 39.65625 40.375 33.015625 40.375 
z
M 52.59375 71.296875 
L 52.59375 62.3125 
Q 48.875 64.0625 45.09375 64.984375 
Q 41.3125 65.921875 37.59375 65.921875 
Q 27.828125 65.921875 22.671875 59.328125 
Q 17.53125 52.734375 16.796875 39.40625 
Q 19.671875 43.65625 24.015625 45.921875 
Q 28.375 48.1875 33.59375 48.1875 
Q 44.578125 48.1875 50.953125 41.515625 
Q 57.328125 34.859375 57.328125 23.390625 
Q 57.328125 12.15625 50.6875 5.359375 
Q 44.046875 -1.421875 33.015625 -1.421875 
Q 20.359375 -1.421875 13.671875 8.265625 
Q 6.984375 17.96875 6.984375 36.375 
Q 6.984375 53.65625 15.1875 63.9375 
Q 23.390625 74.21875 37.203125 74.21875 
Q 40.921875 74.21875 44.703125 73.484375 
Q 48.484375 72.75 52.59375 71.296875 
z
" id="DejaVuSans-54"/>
       </defs>
       <use xlink:href="#DejaVuSans-54"/>
       <use x="63.623047" xlink:href="#DejaVuSans-48"/>
       <use x="127.246094" xlink:href="#DejaVuSans-48"/>
      </g>
     </g>
    </g>
    <g id="xtick_5">
     <g id="line2d_5">
      <g>
       <use style="stroke:#000000;stroke-width:0.8;" x="529.41011" xlink:href="#m6cbe5870ad" y="442.08"/>
      </g>
     </g>
     <g id="text_5">
      <!-- 800 -->
      <g transform="translate(519.86636 456.678437)scale(0.1 -0.1)">
       <defs>
        <path d="M 31.78125 34.625 
Q 24.75 34.625 20.71875 30.859375 
Q 16.703125 27.09375 16.703125 20.515625 
Q 16.703125 13.921875 20.71875 10.15625 
Q 24.75 6.390625 31.78125 6.390625 
Q 38.8125 6.390625 42.859375 10.171875 
Q 46.921875 13.96875 46.921875 20.515625 
Q 46.921875 27.09375 42.890625 30.859375 
Q 38.875 34.625 31.78125 34.625 
z
M 21.921875 38.8125 
Q 15.578125 40.375 12.03125 44.71875 
Q 8.5 49.078125 8.5 55.328125 
Q 8.5 64.0625 14.71875 69.140625 
Q 20.953125 74.21875 31.78125 74.21875 
Q 42.671875 74.21875 48.875 69.140625 
Q 55.078125 64.0625 55.078125 55.328125 
Q 55.078125 49.078125 51.53125 44.71875 
Q 48 40.375 41.703125 38.8125 
Q 48.828125 37.15625 52.796875 32.3125 
Q 56.78125 27.484375 56.78125 20.515625 
Q 56.78125 9.90625 50.3125 4.234375 
Q 43.84375 -1.421875 31.78125 -1.421875 
Q 19.734375 -1.421875 13.25 4.234375 
Q 6.78125 9.90625 6.78125 20.515625 
Q 6.78125 27.484375 10.78125 32.3125 
Q 14.796875 37.15625 21.921875 38.8125 
z
M 18.3125 54.390625 
Q 18.3125 48.734375 21.84375 45.5625 
Q 25.390625 42.390625 31.78125 42.390625 
Q 38.140625 42.390625 41.71875 45.5625 
Q 45.3125 48.734375 45.3125 54.390625 
Q 45.3125 60.0625 41.71875 63.234375 
Q 38.140625 66.40625 31.78125 66.40625 
Q 25.390625 66.40625 21.84375 63.234375 
Q 18.3125 60.0625 18.3125 54.390625 
z
" id="DejaVuSans-56"/>
       </defs>
       <use xlink:href="#DejaVuSans-56"/>
       <use x="63.623047" xlink:href="#DejaVuSans-48"/>
       <use x="127.246094" xlink:href="#DejaVuSans-48"/>
      </g>
     </g>
    </g>
    <g id="xtick_6">
     <g id="line2d_6">
      <g>
       <use style="stroke:#000000;stroke-width:0.8;" x="643.422201" xlink:href="#m6cbe5870ad" y="442.08"/>
      </g>
     </g>
     <g id="text_6">
      <!-- 1000 -->
      <g transform="translate(630.697201 456.678437)scale(0.1 -0.1)">
       <defs>
        <path d="M 12.40625 8.296875 
L 28.515625 8.296875 
L 28.515625 63.921875 
L 10.984375 60.40625 
L 10.984375 69.390625 
L 28.421875 72.90625 
L 38.28125 72.90625 
L 38.28125 8.296875 
L 54.390625 8.296875 
L 54.390625 0 
L 12.40625 0 
z
" id="DejaVuSans-49"/>
       </defs>
       <use xlink:href="#DejaVuSans-49"/>
       <use x="63.623047" xlink:href="#DejaVuSans-48"/>
       <use x="127.246094" xlink:href="#DejaVuSans-48"/>
       <use x="190.869141" xlink:href="#DejaVuSans-48"/>
      </g>
     </g>
    </g>
    <g id="xtick_7">
     <g id="line2d_7">
      <g>
       <use style="stroke:#000000;stroke-width:0.8;" x="757.434291" xlink:href="#m6cbe5870ad" y="442.08"/>
      </g>
     </g>
     <g id="text_7">
      <!-- 1200 -->
      <g transform="translate(744.709291 456.678437)scale(0.1 -0.1)">
       <use xlink:href="#DejaVuSans-49"/>
       <use x="63.623047" xlink:href="#DejaVuSans-50"/>
       <use x="127.246094" xlink:href="#DejaVuSans-48"/>
       <use x="190.869141" xlink:href="#DejaVuSans-48"/>
      </g>
     </g>
    </g>
    <g id="xtick_8">
     <g id="line2d_8">
      <g>
       <use style="stroke:#000000;stroke-width:0.8;" x="871.446382" xlink:href="#m6cbe5870ad" y="442.08"/>
      </g>
     </g>
     <g id="text_8">
      <!-- 1400 -->
      <g transform="translate(858.721382 456.678437)scale(0.1 -0.1)">
       <use xlink:href="#DejaVuSans-49"/>
       <use x="63.623047" xlink:href="#DejaVuSans-52"/>
       <use x="127.246094" xlink:href="#DejaVuSans-48"/>
       <use x="190.869141" xlink:href="#DejaVuSans-48"/>
      </g>
     </g>
    </g>
   </g>
   <g id="matplotlib.axis_2">
    <g id="ytick_1">
     <g id="line2d_9">
      <defs>
       <path d="M 0 0 
L -3.5 0 
" id="m5c9f00bd18" style="stroke:#000000;stroke-width:0.8;"/>
      </defs>
      <g>
       <use style="stroke:#000000;stroke-width:0.8;" x="26.925" xlink:href="#m5c9f00bd18" y="397.603636"/>
      </g>
     </g>
     <g id="text_9">
      <!-- 2 -->
      <g transform="translate(13.5625 401.402855)scale(0.1 -0.1)">
       <use xlink:href="#DejaVuSans-50"/>
      </g>
     </g>
    </g>
    <g id="ytick_2">
     <g id="line2d_10">
      <g>
       <use style="stroke:#000000;stroke-width:0.8;" x="26.925" xlink:href="#m5c9f00bd18" y="348.185455"/>
      </g>
     </g>
     <g id="text_10">
      <!-- 4 -->
      <g transform="translate(13.5625 351.984673)scale(0.1 -0.1)">
       <use xlink:href="#DejaVuSans-52"/>
      </g>
     </g>
    </g>
    <g id="ytick_3">
     <g id="line2d_11">
      <g>
       <use style="stroke:#000000;stroke-width:0.8;" x="26.925" xlink:href="#m5c9f00bd18" y="298.767273"/>
      </g>
     </g>
     <g id="text_11">
      <!-- 6 -->
      <g transform="translate(13.5625 302.566491)scale(0.1 -0.1)">
       <use xlink:href="#DejaVuSans-54"/>
      </g>
     </g>
    </g>
    <g id="ytick_4">
     <g id="line2d_12">
      <g>
       <use style="stroke:#000000;stroke-width:0.8;" x="26.925" xlink:href="#m5c9f00bd18" y="249.349091"/>
      </g>
     </g>
     <g id="text_12">
      <!-- 8 -->
      <g transform="translate(13.5625 253.14831)scale(0.1 -0.1)">
       <use xlink:href="#DejaVuSans-56"/>
      </g>
     </g>
    </g>
    <g id="ytick_5">
     <g id="line2d_13">
      <g>
       <use style="stroke:#000000;stroke-width:0.8;" x="26.925" xlink:href="#m5c9f00bd18" y="199.930909"/>
      </g>
     </g>
     <g id="text_13">
      <!-- 10 -->
      <g transform="translate(7.2 203.730128)scale(0.1 -0.1)">
       <use xlink:href="#DejaVuSans-49"/>
       <use x="63.623047" xlink:href="#DejaVuSans-48"/>
      </g>
     </g>
    </g>
    <g id="ytick_6">
     <g id="line2d_14">
      <g>
       <use style="stroke:#000000;stroke-width:0.8;" x="26.925" xlink:href="#m5c9f00bd18" y="150.512727"/>
      </g>
     </g>
     <g id="text_14">
      <!-- 12 -->
      <g transform="translate(7.2 154.311946)scale(0.1 -0.1)">
       <use xlink:href="#DejaVuSans-49"/>
       <use x="63.623047" xlink:href="#DejaVuSans-50"/>
      </g>
     </g>
    </g>
    <g id="ytick_7">
     <g id="line2d_15">
      <g>
       <use style="stroke:#000000;stroke-width:0.8;" x="26.925" xlink:href="#m5c9f00bd18" y="101.094545"/>
      </g>
     </g>
     <g id="text_15">
      <!-- 14 -->
      <g transform="translate(7.2 104.893764)scale(0.1 -0.1)">
       <use xlink:href="#DejaVuSans-49"/>
       <use x="63.623047" xlink:href="#DejaVuSans-52"/>
      </g>
     </g>
    </g>
    <g id="ytick_8">
     <g id="line2d_16">
      <g>
       <use style="stroke:#000000;stroke-width:0.8;" x="26.925" xlink:href="#m5c9f00bd18" y="51.676364"/>
      </g>
     </g>
     <g id="text_16">
      <!-- 16 -->
      <g transform="translate(7.2 55.475582)scale(0.1 -0.1)">
       <use xlink:href="#DejaVuSans-49"/>
       <use x="63.623047" xlink:href="#DejaVuSans-54"/>
      </g>
     </g>
    </g>
   </g>
   <g id="line2d_17">
    <path clip-path="url(#p40b70a57dd)" d="M 67.506818 422.312727 
L 67.506818 422.312727 
L 67.506818 397.603636 
L 67.800085 397.603636 
L 67.800085 372.894545 
L 67.920613 372.894545 
L 67.920613 348.185455 
L 68.647938 348.185455 
L 68.647938 323.476364 
L 68.989058 323.476364 
L 68.989058 298.767273 
L 69.884446 298.767273 
L 69.884446 274.058182 
L 71.067155 274.058182 
L 71.067155 249.349091 
L 71.967452 249.349091 
L 71.967452 224.64 
L 72.807941 224.64 
L 72.807941 199.930909 
L 73.500689 199.930909 
L 73.500689 224.64 
L 73.828952 224.64 
L 73.828952 199.930909 
L 74.761339 199.930909 
L 74.761339 224.64 
L 74.91414 224.64 
L 74.91414 199.930909 
L 75.01499 224.64 
L 75.829783 224.64 
L 75.829783 249.349091 
L 75.98976 249.349091 
L 75.98976 224.64 
L 76.058724 249.349091 
L 76.798364 249.349091 
L 76.798364 274.058182 
L 76.846196 249.349091 
L 77.668056 249.349091 
L 77.767906 298.767273 
L 77.90788 298.767273 
L 77.90788 323.476364 
L 78.236342 323.476364 
L 78.236342 298.767273 
L 79.17607 298.767273 
L 79.20026 249.349091 
L 79.312289 249.349091 
L 79.369726 199.930909 
L 80.658137 199.930909 
L 80.658137 175.221818 
L 81.131949 175.221818 
L 81.131949 150.512727 
L 81.239738 175.221818 
L 81.512912 175.221818 
L 81.512912 150.512727 
L 82.546801 150.512727 
L 82.546801 175.221818 
L 82.830486 175.221818 
L 82.830486 199.930909 
L 83.160033 199.930909 
L 83.160033 175.221818 
L 83.465047 175.221818 
L 83.465047 199.930909 
L 83.483327 175.221818 
L 83.793154 175.221818 
L 83.793154 199.930909 
L 84.507007 199.930909 
L 84.507007 224.64 
L 84.647315 224.64 
L 84.647315 199.930909 
L 85.012894 199.930909 
L 85.070331 249.349091 
L 85.788681 249.349091 
L 85.788681 274.058182 
L 85.944738 274.058182 
L 85.958867 224.64 
L 86.040986 249.349091 
L 86.257581 249.349091 
L 86.257581 224.64 
L 86.262493 249.349091 
L 86.482097 249.349091 
L 86.482097 224.64 
L 86.941001 224.64 
L 86.941001 199.930909 
L 87.156917 199.930909 
L 87.156917 224.64 
L 87.259394 199.930909 
L 88.666055 199.930909 
L 88.666055 224.64 
L 89.315913 224.64 
L 89.315913 199.930909 
L 89.430698 199.930909 
L 89.430698 224.64 
L 89.45513 199.930909 
L 89.873727 199.930909 
L 89.873727 175.221818 
L 89.90246 199.930909 
L 90.168045 199.930909 
L 90.168045 175.221818 
L 90.34792 175.221818 
L 90.34792 199.930909 
L 90.657685 199.930909 
L 90.657685 175.221818 
L 91.464174 175.221818 
L 91.464174 199.930909 
L 92.071545 199.930909 
L 92.071545 224.64 
L 92.215403 224.64 
L 92.215403 249.349091 
L 93.344001 249.349091 
L 93.344001 224.64 
L 93.876397 224.64 
L 93.876397 249.349091 
L 93.939714 249.349091 
L 94.434211 249.349091 
L 94.434211 274.058182 
L 94.648108 274.058182 
L 94.728528 348.185455 
L 94.747895 323.476364 
L 95.155734 323.476364 
L 95.155734 348.185455 
L 95.294393 348.185455 
L 95.294393 323.476364 
L 95.378548 348.185455 
L 96.799769 348.185455 
L 96.799769 323.476364 
L 97.598197 323.476364 
L 97.598197 348.185455 
L 98.774105 348.185455 
L 98.774105 323.476364 
L 99.284816 323.476364 
L 99.284816 348.185455 
L 100.351706 348.185455 
L 100.351706 323.476364 
L 100.744439 323.476364 
L 100.754787 372.894545 
L 101.167658 372.894545 
L 101.167658 348.185455 
L 101.386234 348.185455 
L 101.386234 323.476364 
L 101.518264 323.476364 
L 101.616902 274.058182 
L 102.089802 274.058182 
L 102.149004 224.64 
L 102.354826 224.64 
L 102.354826 199.930909 
L 103.289605 199.930909 
L 103.289605 175.221818 
L 103.859186 175.221818 
L 103.90465 224.64 
L 104.780615 224.64 
L 104.780615 249.349091 
L 105.510165 249.349091 
L 105.510165 274.058182 
L 105.566666 249.349091 
L 105.728141 249.349091 
L 105.728141 274.058182 
L 107.192431 274.058182 
L 107.192431 298.767273 
L 107.317507 298.767273 
L 107.317507 323.476364 
L 107.354372 298.767273 
L 107.707545 298.767273 
L 107.707545 274.058182 
L 107.93898 274.058182 
L 107.93898 249.349091 
L 109.316771 249.349091 
L 109.316771 224.64 
L 109.49911 224.64 
L 109.56027 274.058182 
L 109.765612 274.058182 
L 109.765612 298.767273 
L 109.937141 298.767273 
L 109.937141 323.476364 
L 111.194663 323.476364 
L 111.213677 274.058182 
L 111.372444 274.058182 
L 111.372444 249.349091 
L 111.545017 249.349091 
L 111.545017 224.64 
L 111.929404 224.64 
L 111.929404 249.349091 
L 112.29222 249.349091 
L 112.29222 224.64 
L 112.484917 224.64 
L 112.484917 249.349091 
L 113.190794 249.349091 
L 113.190794 224.64 
L 113.307194 224.64 
L 113.307194 249.349091 
L 113.97821 249.349091 
L 113.97821 274.058182 
L 114.267457 274.058182 
L 114.267457 249.349091 
L 114.63404 249.349091 
L 114.63404 274.058182 
L 115.01926 274.058182 
L 115.01926 249.349091 
L 115.142522 249.349091 
L 115.142522 274.058182 
L 115.257694 274.058182 
L 115.257694 298.767273 
L 115.977639 298.767273 
L 115.977639 323.476364 
L 117.465328 323.476364 
L 117.465328 348.185455 
L 118.067494 348.185455 
L 118.067494 323.476364 
L 118.321338 323.476364 
L 118.385742 372.894545 
L 118.783184 372.894545 
L 118.783184 348.185455 
L 119.009683 348.185455 
L 119.009683 372.894545 
L 119.261308 372.894545 
L 119.261308 348.185455 
L 119.353291 372.894545 
L 120.183869 372.894545 
L 120.237999 323.476364 
L 120.347735 323.476364 
L 120.347735 348.185455 
L 125.368543 348.185455 
L 125.368543 372.894545 
L 125.62391 372.894545 
L 125.62391 397.603636 
L 125.978289 397.603636 
L 125.978289 372.894545 
L 126.454534 372.894545 
L 126.454534 397.603636 
L 126.834081 397.603636 
L 126.847104 348.185455 
L 127.085021 348.185455 
L 127.085021 323.476364 
L 127.345295 323.476364 
L 127.345295 298.767273 
L 128.618892 298.767273 
L 128.618892 274.058182 
L 128.952336 274.058182 
L 128.952336 298.767273 
L 131.170709 298.767273 
L 131.170709 274.058182 
L 131.678893 274.058182 
L 131.678893 298.767273 
L 131.905209 298.767273 
L 131.905209 274.058182 
L 132.036972 274.058182 
L 132.036972 249.349091 
L 132.367601 249.349091 
L 132.367601 224.64 
L 132.760216 224.64 
L 132.760216 199.930909 
L 133.045899 199.930909 
L 133.045899 224.64 
L 133.102208 199.930909 
L 133.355686 199.930909 
L 133.355686 224.64 
L 133.691253 224.64 
L 133.691253 199.930909 
L 133.749436 224.64 
L 134.82795 224.64 
L 134.82795 249.349091 
L 135.095619 249.349091 
L 135.095619 224.64 
L 135.161132 249.349091 
L 135.384988 249.349091 
L 135.384988 274.058182 
L 135.924331 274.058182 
L 135.924331 249.349091 
L 136.83749 249.349091 
L 136.83749 224.64 
L 136.928085 249.349091 
L 137.191679 249.349091 
L 137.191679 224.64 
L 137.605813 224.64 
L 137.605813 249.349091 
L 137.686951 224.64 
L 139.600942 224.64 
L 139.600942 249.349091 
L 139.649451 199.930909 
L 139.735639 199.930909 
L 139.735639 175.221818 
L 140.017819 175.221818 
L 140.017819 199.930909 
L 140.269162 199.930909 
L 140.269162 175.221818 
L 140.531978 175.221818 
L 140.537253 224.64 
L 140.650189 224.64 
L 140.650189 199.930909 
L 140.827913 199.930909 
L 140.827913 224.64 
L 140.909804 199.930909 
L 141.054875 199.930909 
L 141.054875 224.64 
L 141.936344 224.64 
L 141.936344 249.349091 
L 142.658439 249.349091 
L 142.658439 224.64 
L 143.069814 224.64 
L 143.069814 249.349091 
L 143.111498 224.64 
L 143.363296 224.64 
L 143.363296 249.349091 
L 144.070551 249.349091 
L 144.070551 274.058182 
L 144.187897 274.058182 
L 144.187897 298.767273 
L 144.245004 274.058182 
L 144.547645 274.058182 
L 144.547645 249.349091 
L 144.602465 274.058182 
L 145.395067 274.058182 
L 145.395067 249.349091 
L 145.399706 274.058182 
L 146.781829 274.058182 
L 146.878417 224.64 
L 147.665367 224.64 
L 147.665367 249.349091 
L 147.713092 224.64 
L 148.824607 224.64 
L 148.824607 199.930909 
L 148.856606 224.64 
L 149.30531 224.64 
L 149.30531 199.930909 
L 149.460711 199.930909 
L 149.460711 224.64 
L 149.864708 224.64 
L 149.864708 199.930909 
L 149.955551 224.64 
L 150.095015 224.64 
L 150.095015 199.930909 
L 150.403851 199.930909 
L 150.403851 175.221818 
L 150.634369 175.221818 
L 150.634369 150.512727 
L 150.639286 175.221818 
L 151.092345 175.221818 
L 151.092345 199.930909 
L 151.388371 199.930909 
L 151.438901 249.349091 
L 151.912373 249.349091 
L 151.912373 274.058182 
L 152.273575 274.058182 
L 152.273575 298.767273 
L 152.51894 298.767273 
L 152.51894 274.058182 
L 152.787074 274.058182 
L 152.837104 224.64 
L 153.295733 224.64 
L 153.295733 249.349091 
L 154.525211 249.349091 
L 154.525211 274.058182 
L 154.699014 274.058182 
L 154.699014 249.349091 
L 155.225559 249.349091 
L 155.225559 274.058182 
L 155.565313 274.058182 
L 155.565313 298.767273 
L 156.06558 298.767273 
L 156.06558 274.058182 
L 156.281201 274.058182 
L 156.281201 249.349091 
L 156.334973 274.058182 
L 156.509363 274.058182 
L 156.509363 298.767273 
L 156.674516 298.767273 
L 156.674516 323.476364 
L 156.732075 298.767273 
L 157.763043 298.767273 
L 157.763043 274.058182 
L 157.917618 274.058182 
L 157.917618 298.767273 
L 158.063355 298.767273 
L 158.063355 274.058182 
L 158.733829 274.058182 
L 158.733829 249.349091 
L 158.915882 249.349091 
L 158.915882 274.058182 
L 159.057635 274.058182 
L 159.057635 249.349091 
L 159.107769 274.058182 
L 159.314009 274.058182 
L 159.314009 249.349091 
L 159.503624 249.349091 
L 159.578454 199.930909 
L 161.014071 199.930909 
L 161.014071 224.64 
L 161.029817 199.930909 
L 161.377751 199.930909 
L 161.377751 175.221818 
L 162.156424 175.221818 
L 162.156424 150.512727 
L 162.323526 150.512727 
L 162.323526 175.221818 
L 162.67986 175.221818 
L 162.67986 199.930909 
L 163.006653 199.930909 
L 163.103807 150.512727 
L 163.568877 150.512727 
L 163.568877 175.221818 
L 163.791381 175.221818 
L 163.791381 150.512727 
L 163.957836 150.512727 
L 163.957836 125.803636 
L 164.634168 125.803636 
L 164.712921 175.221818 
L 164.758239 175.221818 
L 164.832107 224.64 
L 164.846107 199.930909 
L 164.904081 199.930909 
L 165.014613 249.349091 
L 165.368174 249.349091 
L 165.368174 274.058182 
L 165.865982 274.058182 
L 165.865982 249.349091 
L 165.990518 249.349091 
L 165.990518 224.64 
L 166.3071 224.64 
L 166.3071 199.930909 
L 166.430824 199.930909 
L 166.483042 150.512727 
L 166.997076 150.512727 
L 166.997076 175.221818 
L 167.286968 175.221818 
L 167.300482 224.64 
L 167.641734 224.64 
L 167.641734 199.930909 
L 168.764404 199.930909 
L 168.764404 175.221818 
L 169.08838 175.221818 
L 169.08838 199.930909 
L 169.491985 199.930909 
L 169.491985 224.64 
L 169.765068 224.64 
L 169.765068 199.930909 
L 170.259069 199.930909 
L 170.259069 175.221818 
L 170.297524 199.930909 
L 170.546711 199.930909 
L 170.546711 224.64 
L 170.827776 224.64 
L 170.827776 199.930909 
L 171.043526 199.930909 
L 171.121062 249.349091 
L 171.514131 249.349091 
L 171.514131 224.64 
L 171.654714 224.64 
L 171.654714 249.349091 
L 171.869618 249.349091 
L 171.869618 224.64 
L 172.136647 224.64 
L 172.136647 249.349091 
L 172.630576 249.349091 
L 172.630576 224.64 
L 172.701489 249.349091 
L 173.339895 249.349091 
L 173.339895 224.64 
L 173.912399 224.64 
L 173.912399 249.349091 
L 174.072122 249.349091 
L 174.072122 224.64 
L 174.818199 224.64 
L 174.818199 249.349091 
L 175.035069 249.349091 
L 175.035069 274.058182 
L 175.157247 274.058182 
L 175.22513 224.64 
L 175.389613 224.64 
L 175.389613 249.349091 
L 175.504554 249.349091 
L 175.504554 274.058182 
L 176.050939 274.058182 
L 176.050939 298.767273 
L 176.793515 298.767273 
L 176.793515 274.058182 
L 176.935312 274.058182 
L 176.935312 298.767273 
L 177.492485 298.767273 
L 177.492485 323.476364 
L 177.608688 323.476364 
L 177.608688 298.767273 
L 177.900379 298.767273 
L 178.007549 348.185455 
L 178.886036 348.185455 
L 178.886036 372.894545 
L 181.599111 372.894545 
L 181.599111 397.603636 
L 181.952612 397.603636 
L 181.952612 372.894545 
L 182.130706 372.894545 
L 182.130706 397.603636 
L 183.06418 397.603636 
L 183.06418 422.312727 
L 185.384935 422.312727 
L 185.384935 397.603636 
L 186.676677 397.603636 
L 186.676677 372.894545 
L 187.083156 372.894545 
L 187.083156 397.603636 
L 187.73527 397.603636 
L 187.73527 372.894545 
L 189.335111 372.894545 
L 189.335111 348.185455 
L 191.143969 348.185455 
L 191.143969 323.476364 
L 191.328993 323.476364 
L 191.328993 298.767273 
L 191.543357 298.767273 
L 191.543357 274.058182 
L 192.795721 274.058182 
L 192.865814 323.476364 
L 193.38846 323.476364 
L 193.38846 298.767273 
L 193.98698 298.767273 
L 193.98698 274.058182 
L 194.260008 274.058182 
L 194.260008 249.349091 
L 194.569016 249.349091 
L 194.569016 224.64 
L 194.657523 249.349091 
L 194.749356 249.349091 
L 194.749356 274.058182 
L 195.605776 274.058182 
L 195.605776 298.767273 
L 196.274513 298.767273 
L 196.274513 323.476364 
L 196.673901 323.476364 
L 196.673901 348.185455 
L 196.853679 348.185455 
L 196.853679 323.476364 
L 197.547601 323.476364 
L 197.547601 298.767273 
L 197.954093 298.767273 
L 197.954093 274.058182 
L 197.977404 298.767273 
L 198.519004 298.767273 
L 198.519004 323.476364 
L 198.816668 323.476364 
L 198.816668 298.767273 
L 198.977204 298.767273 
L 198.977204 274.058182 
L 199.299753 274.058182 
L 199.299753 249.349091 
L 200.530673 249.349091 
L 200.530673 274.058182 
L 200.725234 274.058182 
L 200.725234 249.349091 
L 201.414162 249.349091 
L 201.414162 274.058182 
L 201.701573 274.058182 
L 201.701573 249.349091 
L 201.813067 249.349091 
L 201.836591 199.930909 
L 201.944516 199.930909 
L 201.979802 249.349091 
L 202.4747 249.349091 
L 202.4747 224.64 
L 203.537687 224.64 
L 203.537687 249.349091 
L 204.116351 249.349091 
L 204.116351 224.64 
L 204.415257 224.64 
L 204.415257 199.930909 
L 205.000357 199.930909 
L 205.000357 224.64 
L 205.188037 224.64 
L 205.188037 199.930909 
L 205.657394 199.930909 
L 205.657394 224.64 
L 205.691906 199.930909 
L 205.841843 199.930909 
L 205.841843 175.221818 
L 205.895063 199.930909 
L 206.262056 199.930909 
L 206.262056 224.64 
L 207.142392 224.64 
L 207.142392 199.930909 
L 207.537196 199.930909 
L 207.537196 224.64 
L 207.94532 224.64 
L 207.94532 199.930909 
L 208.70608 199.930909 
L 208.70608 224.64 
L 208.975741 224.64 
L 208.975741 249.349091 
L 209.633678 249.349091 
L 209.633678 224.64 
L 209.793913 224.64 
L 209.793913 249.349091 
L 210.188715 249.349091 
L 210.188715 224.64 
L 210.402327 224.64 
L 210.402327 249.349091 
L 211.642909 249.349091 
L 211.690379 199.930909 
L 212.532632 199.930909 
L 212.532632 224.64 
L 213.075864 224.64 
L 213.075864 249.349091 
L 213.237318 249.349091 
L 213.237318 274.058182 
L 213.738944 274.058182 
L 213.738944 298.767273 
L 214.749199 298.767273 
L 214.749199 323.476364 
L 214.910507 323.476364 
L 214.910507 298.767273 
L 215.123239 298.767273 
L 215.123239 323.476364 
L 215.553078 323.476364 
L 215.553078 298.767273 
L 215.848173 298.767273 
L 215.848173 274.058182 
L 215.904343 298.767273 
L 216.773453 298.767273 
L 216.773453 323.476364 
L 216.925311 323.476364 
L 216.988839 274.058182 
L 218.353731 274.058182 
L 218.353731 249.349091 
L 218.900931 249.349091 
L 218.900931 274.058182 
L 219.028909 274.058182 
L 219.028909 249.349091 
L 219.101165 274.058182 
L 219.641001 274.058182 
L 219.641001 249.349091 
L 219.838597 249.349091 
L 219.838597 274.058182 
L 220.254604 274.058182 
L 220.254604 249.349091 
L 220.511728 249.349091 
L 220.511728 224.64 
L 220.683622 224.64 
L 220.683622 249.349091 
L 221.136191 249.349091 
L 221.136191 224.64 
L 221.941271 224.64 
L 221.941271 199.930909 
L 223.019332 199.930909 
L 223.019332 224.64 
L 223.766036 224.64 
L 223.766036 249.349091 
L 224.052616 249.349091 
L 224.052616 224.64 
L 224.189334 224.64 
L 224.189334 199.930909 
L 224.305661 199.930909 
L 224.305661 175.221818 
L 224.399625 199.930909 
L 224.448457 199.930909 
L 224.448457 175.221818 
L 224.758362 175.221818 
L 224.758362 150.512727 
L 225.336427 150.512727 
L 225.336427 125.803636 
L 225.764517 125.803636 
L 225.764517 150.512727 
L 225.931694 150.512727 
L 225.931694 175.221818 
L 226.233794 175.221818 
L 226.233794 150.512727 
L 227.051787 150.512727 
L 227.09533 199.930909 
L 227.783999 199.930909 
L 227.783999 175.221818 
L 227.976916 175.221818 
L 227.976916 199.930909 
L 228.215732 199.930909 
L 228.215732 175.221818 
L 228.96387 175.221818 
L 228.96387 150.512727 
L 229.062635 175.221818 
L 229.319878 175.221818 
L 229.319878 199.930909 
L 229.64588 199.930909 
L 229.64588 175.221818 
L 229.758716 175.221818 
L 229.758716 150.512727 
L 230.149061 150.512727 
L 230.224217 199.930909 
L 230.706384 199.930909 
L 230.706384 175.221818 
L 230.893342 175.221818 
L 230.893342 199.930909 
L 231.337642 199.930909 
L 231.337642 175.221818 
L 231.599088 175.221818 
L 231.599088 199.930909 
L 232.286507 199.930909 
L 232.286507 224.64 
L 232.330656 199.930909 
L 233.317273 199.930909 
L 233.317273 224.64 
L 233.484604 224.64 
L 233.484604 249.349091 
L 234.094414 249.349091 
L 234.094414 274.058182 
L 234.574752 274.058182 
L 234.574752 249.349091 
L 234.776424 249.349091 
L 234.776424 274.058182 
L 234.88926 274.058182 
L 234.88926 298.767273 
L 235.056458 298.767273 
L 235.056458 323.476364 
L 235.180958 323.476364 
L 235.180958 348.185455 
L 235.836928 348.185455 
L 235.898125 397.603636 
L 236.713615 397.603636 
L 236.713615 372.894545 
L 237.12718 372.894545 
L 237.132939 323.476364 
L 238.353694 323.476364 
L 238.353694 298.767273 
L 238.565175 298.767273 
L 238.565175 323.476364 
L 238.823167 323.476364 
L 238.92663 274.058182 
L 239.386828 274.058182 
L 239.386828 249.349091 
L 239.675513 249.349091 
L 239.675513 224.64 
L 239.841767 224.64 
L 239.841767 199.930909 
L 240.560413 199.930909 
L 240.560413 175.221818 
L 241.687664 175.221818 
L 241.687664 199.930909 
L 241.844159 199.930909 
L 241.844159 224.64 
L 241.872965 175.221818 
L 242.816825 175.221818 
L 242.816825 150.512727 
L 242.833543 175.221818 
L 243.083593 175.221818 
L 243.083593 150.512727 
L 243.383651 150.512727 
L 243.484238 199.930909 
L 244.806057 199.930909 
L 244.806057 224.64 
L 245.197295 224.64 
L 245.197295 249.349091 
L 245.542371 249.349091 
L 245.542371 274.058182 
L 245.789439 274.058182 
L 245.789439 249.349091 
L 246.261018 249.349091 
L 246.261018 274.058182 
L 247.003509 274.058182 
L 247.003509 298.767273 
L 247.190198 298.767273 
L 247.190198 274.058182 
L 247.540827 274.058182 
L 247.584981 224.64 
L 248.214137 224.64 
L 248.214137 249.349091 
L 248.51743 249.349091 
L 248.51743 274.058182 
L 249.647916 274.058182 
L 249.647916 298.767273 
L 249.865222 298.767273 
L 249.865222 323.476364 
L 250.911991 323.476364 
L 250.911991 298.767273 
L 250.986415 323.476364 
L 251.303432 323.476364 
L 251.355186 274.058182 
L 251.490043 274.058182 
L 251.53125 323.476364 
L 251.750681 323.476364 
L 251.750681 348.185455 
L 253.148614 348.185455 
L 253.148614 323.476364 
L 253.430183 323.476364 
L 253.430183 298.767273 
L 253.839938 298.767273 
L 253.839938 274.058182 
L 254.476717 274.058182 
L 254.476717 249.349091 
L 254.767342 249.349091 
L 254.767342 224.64 
L 254.775548 249.349091 
L 255.565073 249.349091 
L 255.565073 224.64 
L 257.139037 224.64 
L 257.182656 274.058182 
L 258.144157 274.058182 
L 258.144157 298.767273 
L 258.698091 298.767273 
L 258.698091 274.058182 
L 258.982448 274.058182 
L 258.982448 249.349091 
L 259.037201 274.058182 
L 259.810762 274.058182 
L 259.863789 224.64 
L 260.110603 224.64 
L 260.110603 249.349091 
L 260.632993 249.349091 
L 260.632993 224.64 
L 261.038007 224.64 
L 261.038007 249.349091 
L 261.835738 249.349091 
L 261.835738 274.058182 
L 262.402811 274.058182 
L 262.402811 298.767273 
L 262.55115 298.767273 
L 262.661065 348.185455 
L 263.414878 348.185455 
L 263.414878 323.476364 
L 263.828635 323.476364 
L 263.828635 348.185455 
L 264.169593 348.185455 
L 264.249109 298.767273 
L 264.424273 298.767273 
L 264.424273 323.476364 
L 265.193477 323.476364 
L 265.193477 348.185455 
L 265.327955 348.185455 
L 265.327955 323.476364 
L 265.492135 323.476364 
L 265.492135 298.767273 
L 265.879775 298.767273 
L 265.879775 323.476364 
L 265.967745 298.767273 
L 266.228378 298.767273 
L 266.228378 274.058182 
L 267.476769 274.058182 
L 267.476769 249.349091 
L 268.545422 249.349091 
L 268.545422 274.058182 
L 268.70059 274.058182 
L 268.70059 249.349091 
L 268.748318 274.058182 
L 269.516753 274.058182 
L 269.516753 249.349091 
L 269.648741 249.349091 
L 269.648741 274.058182 
L 269.918682 274.058182 
L 269.918682 249.349091 
L 270.528229 249.349091 
L 270.622679 298.767273 
L 270.897132 298.767273 
L 270.897132 323.476364 
L 271.05107 323.476364 
L 271.05107 298.767273 
L 271.089835 323.476364 
L 272.069342 323.476364 
L 272.069342 298.767273 
L 273.339045 298.767273 
L 273.339045 323.476364 
L 273.579246 323.476364 
L 273.618668 274.058182 
L 274.401194 274.058182 
L 274.401194 298.767273 
L 274.829723 298.767273 
L 274.829723 274.058182 
L 275.611553 274.058182 
L 275.611553 298.767273 
L 276.021139 298.767273 
L 276.021139 274.058182 
L 276.255026 274.058182 
L 276.255026 249.349091 
L 276.357478 274.058182 
L 277.892879 274.058182 
L 277.967353 224.64 
L 278.70979 224.64 
L 278.70979 249.349091 
L 278.910067 249.349091 
L 278.910067 274.058182 
L 279.889333 274.058182 
L 279.889333 298.767273 
L 280.146044 298.767273 
L 280.146044 274.058182 
L 280.581623 274.058182 
L 280.581623 298.767273 
L 281.534265 298.767273 
L 281.534265 274.058182 
L 281.957776 274.058182 
L 281.957776 298.767273 
L 282.124848 298.767273 
L 282.124848 274.058182 
L 282.240509 274.058182 
L 282.240509 298.767273 
L 282.610454 298.767273 
L 282.610454 274.058182 
L 284.163544 274.058182 
L 284.163544 298.767273 
L 284.777517 298.767273 
L 284.777517 274.058182 
L 284.805933 298.767273 
L 285.829586 298.767273 
L 285.829586 274.058182 
L 286.580771 274.058182 
L 286.580771 249.349091 
L 286.890988 249.349091 
L 286.890988 224.64 
L 287.170937 224.64 
L 287.255393 274.058182 
L 287.80493 274.058182 
L 287.80493 298.767273 
L 289.267011 298.767273 
L 289.267011 323.476364 
L 289.908061 323.476364 
L 289.908061 348.185455 
L 290.107943 348.185455 
L 290.107943 323.476364 
L 290.58595 323.476364 
L 290.612373 274.058182 
L 290.960131 274.058182 
L 290.960131 298.767273 
L 291.141254 298.767273 
L 291.141254 323.476364 
L 292.021532 323.476364 
L 292.021532 348.185455 
L 292.110291 323.476364 
L 292.958245 323.476364 
L 292.958245 348.185455 
L 293.837009 348.185455 
L 293.837009 323.476364 
L 294.161576 323.476364 
L 294.161576 298.767273 
L 294.710176 298.767273 
L 294.805047 249.349091 
L 295.312678 249.349091 
L 295.312678 224.64 
L 296.312978 224.64 
L 296.312978 249.349091 
L 296.355166 224.64 
L 296.441818 224.64 
L 296.441818 249.349091 
L 296.893625 249.349091 
L 296.893625 224.64 
L 297.59292 224.64 
L 297.59292 249.349091 
L 297.810895 249.349091 
L 297.810895 274.058182 
L 298.094749 274.058182 
L 298.123757 224.64 
L 298.22541 224.64 
L 298.22541 249.349091 
L 298.262041 224.64 
L 298.491073 224.64 
L 298.491073 199.930909 
L 298.566797 224.64 
L 299.255611 224.64 
L 299.255611 199.930909 
L 299.27066 224.64 
L 299.537613 224.64 
L 299.537613 249.349091 
L 300.126919 249.349091 
L 300.126919 224.64 
L 300.582809 224.64 
L 300.582809 199.930909 
L 302.594229 199.930909 
L 302.625831 249.349091 
L 303.051556 249.349091 
L 303.051556 274.058182 
L 303.254301 274.058182 
L 303.254301 298.767273 
L 303.795353 298.767273 
L 303.795353 323.476364 
L 303.962645 323.476364 
L 303.962645 348.185455 
L 304.436875 348.185455 
L 304.436875 323.476364 
L 305.160003 323.476364 
L 305.160003 298.767273 
L 305.604076 298.767273 
L 305.604076 274.058182 
L 306.096336 274.058182 
L 306.096336 298.767273 
L 306.853474 298.767273 
L 306.853474 323.476364 
L 307.419622 323.476364 
L 307.425431 274.058182 
L 308.580366 274.058182 
L 308.580366 298.767273 
L 309.797947 298.767273 
L 309.797947 274.058182 
L 309.817947 298.767273 
L 310.536774 298.767273 
L 310.536774 274.058182 
L 311.2776 274.058182 
L 311.30468 323.476364 
L 311.69159 323.476364 
L 311.69159 298.767273 
L 312.319768 298.767273 
L 312.319768 274.058182 
L 312.648249 274.058182 
L 312.648249 298.767273 
L 313.125372 298.767273 
L 313.125372 274.058182 
L 313.634561 274.058182 
L 313.634561 249.349091 
L 313.696096 298.767273 
L 314.143605 298.767273 
L 314.143605 274.058182 
L 314.60001 274.058182 
L 314.60001 298.767273 
L 316.252073 298.767273 
L 316.252073 323.476364 
L 316.807439 323.476364 
L 316.807439 348.185455 
L 317.372165 348.185455 
L 317.372165 323.476364 
L 319.714466 323.476364 
L 319.807611 274.058182 
L 319.84421 274.058182 
L 319.84421 298.767273 
L 320.475287 298.767273 
L 320.475287 323.476364 
L 321.106218 323.476364 
L 321.106218 348.185455 
L 321.681425 348.185455 
L 321.728453 298.767273 
L 322.140025 298.767273 
L 322.140025 274.058182 
L 322.322145 274.058182 
L 322.322145 249.349091 
L 323.64283 249.349091 
L 323.64283 274.058182 
L 323.961081 274.058182 
L 323.961081 249.349091 
L 325.415071 249.349091 
L 325.415071 274.058182 
L 325.718876 274.058182 
L 325.718876 298.767273 
L 326.078276 298.767273 
L 326.130448 348.185455 
L 326.241909 348.185455 
L 326.241909 372.894545 
L 326.299446 348.185455 
L 326.775422 348.185455 
L 326.789796 298.767273 
L 327.452689 298.767273 
L 327.452689 323.476364 
L 328.521565 323.476364 
L 328.521565 348.185455 
L 330.183395 348.185455 
L 330.24969 298.767273 
L 331.905966 298.767273 
L 332.00005 348.185455 
L 332.248764 348.185455 
L 332.248764 323.476364 
L 332.897975 323.476364 
L 332.897975 298.767273 
L 333.096341 298.767273 
L 333.096341 274.058182 
L 334.374271 274.058182 
L 334.478472 224.64 
L 334.660743 224.64 
L 334.703942 175.221818 
L 335.079881 175.221818 
L 335.079881 150.512727 
L 335.340703 150.512727 
L 335.380234 199.930909 
L 335.669127 199.930909 
L 335.669127 224.64 
L 335.883999 224.64 
L 335.946643 274.058182 
L 337.170037 274.058182 
L 337.170037 249.349091 
L 338.106907 249.349091 
L 338.106907 224.64 
L 338.325441 224.64 
L 338.325441 199.930909 
L 338.699809 199.930909 
L 338.699809 175.221818 
L 339.622634 175.221818 
L 339.622634 150.512727 
L 339.829592 150.512727 
L 339.829592 125.803636 
L 340.179077 125.803636 
L 340.179077 150.512727 
L 340.221391 125.803636 
L 340.5904 125.803636 
L 340.5904 150.512727 
L 340.780485 150.512727 
L 340.878821 199.930909 
L 341.557742 199.930909 
L 341.557742 175.221818 
L 342.355118 175.221818 
L 342.355118 199.930909 
L 342.64159 199.930909 
L 342.684788 274.058182 
L 343.456787 274.058182 
L 343.456787 249.349091 
L 343.820015 249.349091 
L 343.830353 298.767273 
L 344.194541 298.767273 
L 344.194541 274.058182 
L 345.438795 274.058182 
L 345.438795 249.349091 
L 345.903869 249.349091 
L 345.903869 224.64 
L 346.327789 224.64 
L 346.327789 199.930909 
L 346.819368 199.930909 
L 346.819368 175.221818 
L 346.876347 199.930909 
L 347.062117 199.930909 
L 347.062117 224.64 
L 347.60348 224.64 
L 347.60348 249.349091 
L 347.896746 249.349091 
L 347.896746 224.64 
L 348.184111 224.64 
L 348.184964 274.058182 
L 348.587331 274.058182 
L 348.587331 298.767273 
L 348.968528 298.767273 
L 348.968528 323.476364 
L 349.252845 323.476364 
L 349.252845 298.767273 
L 349.429218 298.767273 
L 349.429218 323.476364 
L 350.12683 323.476364 
L 350.12683 298.767273 
L 350.239731 298.767273 
L 350.239731 323.476364 
L 350.318212 323.476364 
L 352.199136 323.476364 
L 352.199136 298.767273 
L 352.43838 298.767273 
L 352.43838 274.058182 
L 353.740649 274.058182 
L 353.740649 249.349091 
L 354.383389 249.349091 
L 354.383389 274.058182 
L 354.737472 274.058182 
L 354.737472 298.767273 
L 355.257374 298.767273 
L 355.257374 323.476364 
L 355.518813 323.476364 
L 355.518813 298.767273 
L 355.958769 298.767273 
L 355.958769 323.476364 
L 356.143262 323.476364 
L 356.143262 298.767273 
L 356.819403 298.767273 
L 356.819403 274.058182 
L 358.112644 274.058182 
L 358.112644 249.349091 
L 358.469801 249.349091 
L 358.469801 274.058182 
L 358.846314 274.058182 
L 358.949261 224.64 
L 359.030899 224.64 
L 359.030899 199.930909 
L 359.30978 199.930909 
L 359.30978 175.221818 
L 359.509236 175.221818 
L 359.509236 199.930909 
L 359.849166 199.930909 
L 359.849166 224.64 
L 360.118411 224.64 
L 360.118411 199.930909 
L 360.581375 199.930909 
L 360.581375 224.64 
L 360.993675 224.64 
L 360.993675 199.930909 
L 362.413927 199.930909 
L 362.413927 224.64 
L 363.046949 224.64 
L 363.058411 175.221818 
L 363.591382 175.221818 
L 363.591382 199.930909 
L 363.870264 199.930909 
L 363.870264 224.64 
L 363.90502 199.930909 
L 364.649866 199.930909 
L 364.649866 224.64 
L 364.80025 224.64 
L 364.80025 249.349091 
L 365.248955 249.349091 
L 365.327191 298.767273 
L 365.554159 298.767273 
L 365.554159 323.476364 
L 366.260287 323.476364 
L 366.260287 298.767273 
L 366.451333 298.767273 
L 366.451333 274.058182 
L 366.663551 274.058182 
L 366.663551 298.767273 
L 366.724368 274.058182 
L 367.048834 274.058182 
L 367.048834 298.767273 
L 367.397221 298.767273 
L 367.397221 323.476364 
L 368.209713 323.476364 
L 368.209713 298.767273 
L 368.857367 298.767273 
L 368.857367 274.058182 
L 369.68065 274.058182 
L 369.68065 298.767273 
L 370.175685 298.767273 
L 370.175685 323.476364 
L 370.508177 323.476364 
L 370.598233 274.058182 
L 371.011816 274.058182 
L 371.011816 298.767273 
L 372.047468 298.767273 
L 372.133311 249.349091 
L 372.380403 249.349091 
L 372.380403 224.64 
L 372.995033 224.64 
L 372.995033 249.349091 
L 373.417851 249.349091 
L 373.417851 274.058182 
L 373.910317 274.058182 
L 373.910317 298.767273 
L 374.078976 298.767273 
L 374.078976 274.058182 
L 374.449529 274.058182 
L 374.449529 249.349091 
L 374.809618 249.349091 
L 374.809618 224.64 
L 374.957102 224.64 
L 374.957102 199.930909 
L 375.295016 199.930909 
L 375.295016 175.221818 
L 375.932379 175.221818 
L 375.932379 150.512727 
L 376.204942 150.512727 
L 376.204942 125.803636 
L 376.359218 125.803636 
L 376.359218 150.512727 
L 377.298309 150.512727 
L 377.298309 125.803636 
L 377.348903 150.512727 
L 377.833916 150.512727 
L 377.833916 175.221818 
L 378.318133 175.221818 
L 378.377464 224.64 
L 378.439952 224.64 
L 378.439952 249.349091 
L 378.575263 249.349091 
L 378.575263 224.64 
L 379.14914 224.64 
L 379.14914 249.349091 
L 379.285439 249.349091 
L 379.285439 274.058182 
L 379.791189 274.058182 
L 379.791189 298.767273 
L 379.940162 298.767273 
L 379.940162 323.476364 
L 379.940469 298.767273 
L 380.464375 298.767273 
L 380.464375 274.058182 
L 381.062923 274.058182 
L 381.062923 298.767273 
L 381.523534 298.767273 
L 381.57821 249.349091 
L 381.775265 249.349091 
L 381.775265 224.64 
L 381.995625 224.64 
L 381.995625 249.349091 
L 382.107949 249.349091 
L 382.107949 224.64 
L 382.428853 224.64 
L 382.475607 274.058182 
L 383.019848 274.058182 
L 383.019848 249.349091 
L 383.708781 249.349091 
L 383.708781 224.64 
L 383.990947 224.64 
L 383.990947 199.930909 
L 384.159912 199.930909 
L 384.159912 175.221818 
L 384.998572 175.221818 
L 384.998572 199.930909 
L 386.31405 199.930909 
L 386.31405 175.221818 
L 386.426863 175.221818 
L 386.426863 150.512727 
L 387.970954 150.512727 
L 387.970954 125.803636 
L 388.269264 125.803636 
L 388.269264 150.512727 
L 388.445221 150.512727 
L 388.445221 175.221818 
L 388.720395 175.221818 
L 388.720395 199.930909 
L 388.93432 199.930909 
L 388.948675 249.349091 
L 388.997756 224.64 
L 389.061436 224.64 
L 389.061436 249.349091 
L 389.860573 249.349091 
L 389.860573 274.058182 
L 390.035491 274.058182 
L 390.035491 249.349091 
L 390.261612 249.349091 
L 390.261612 274.058182 
L 390.896233 274.058182 
L 390.987347 323.476364 
L 391.044641 323.476364 
L 391.044641 298.767273 
L 391.961377 298.767273 
L 391.961377 323.476364 
L 392.584715 323.476364 
L 392.584715 348.185455 
L 392.865126 348.185455 
L 392.865126 323.476364 
L 394.074699 323.476364 
L 394.074699 298.767273 
L 394.1283 323.476364 
L 394.186377 323.476364 
L 394.186377 298.767273 
L 394.689732 298.767273 
L 394.689732 274.058182 
L 395.605124 274.058182 
L 395.605124 298.767273 
L 396.285489 298.767273 
L 396.285489 323.476364 
L 396.464599 323.476364 
L 396.464599 298.767273 
L 397.446277 298.767273 
L 397.495061 348.185455 
L 397.618674 348.185455 
L 397.618674 323.476364 
L 398.005314 323.476364 
L 398.005314 298.767273 
L 400.390337 298.767273 
L 400.390337 323.476364 
L 400.431203 298.767273 
L 401.027102 298.767273 
L 401.027102 323.476364 
L 401.641232 323.476364 
L 401.749662 274.058182 
L 403.319279 274.058182 
L 403.319279 298.767273 
L 404.16924 298.767273 
L 404.16924 274.058182 
L 404.991686 274.058182 
L 405.015506 323.476364 
L 405.550577 323.476364 
L 405.550577 298.767273 
L 405.631655 323.476364 
L 405.740085 323.476364 
L 405.740085 348.185455 
L 406.556221 348.185455 
L 406.556221 372.894545 
L 407.546706 372.894545 
L 407.546706 348.185455 
L 408.396583 348.185455 
L 408.396583 323.476364 
L 408.561867 323.476364 
L 408.561867 298.767273 
L 408.972733 298.767273 
L 408.996397 249.349091 
L 410.106765 249.349091 
L 410.106765 274.058182 
L 410.681121 274.058182 
L 410.681121 298.767273 
L 411.252975 298.767273 
L 411.252975 323.476364 
L 411.580026 323.476364 
L 411.580026 348.185455 
L 412.78597 348.185455 
L 412.78597 323.476364 
L 412.979023 323.476364 
L 412.979023 298.767273 
L 413.623181 298.767273 
L 413.623181 274.058182 
L 415.139631 274.058182 
L 415.139631 249.349091 
L 415.267062 249.349091 
L 415.267062 274.058182 
L 415.277798 249.349091 
L 416.542714 249.349091 
L 416.542714 274.058182 
L 416.562867 249.349091 
L 416.667673 249.349091 
L 416.667673 274.058182 
L 417.043543 274.058182 
L 417.043543 298.767273 
L 417.678043 298.767273 
L 417.678043 274.058182 
L 418.486574 274.058182 
L 418.486574 298.767273 
L 419.015556 298.767273 
L 419.015556 274.058182 
L 419.130054 274.058182 
L 419.130054 298.767273 
L 419.249688 298.767273 
L 419.249688 323.476364 
L 419.275042 274.058182 
L 420.978403 274.058182 
L 420.978403 298.767273 
L 422.117431 298.767273 
L 422.117431 274.058182 
L 422.238527 274.058182 
L 422.263471 323.476364 
L 422.274526 298.767273 
L 422.404917 298.767273 
L 422.444273 249.349091 
L 422.632069 249.349091 
L 422.632069 224.64 
L 423.062161 224.64 
L 423.062161 199.930909 
L 425.251037 199.930909 
L 425.251037 175.221818 
L 425.290678 199.930909 
L 425.545707 199.930909 
L 425.545707 224.64 
L 425.788854 224.64 
L 425.788854 199.930909 
L 426.109027 199.930909 
L 426.109027 224.64 
L 426.83501 224.64 
L 426.83501 249.349091 
L 427.535461 249.349091 
L 427.574817 298.767273 
L 427.597237 274.058182 
L 427.800473 274.058182 
L 427.800473 249.349091 
L 428.595428 249.349091 
L 428.595428 224.64 
L 428.958157 224.64 
L 428.958157 249.349091 
L 429.428665 249.349091 
L 429.428665 224.64 
L 429.472794 249.349091 
L 429.87918 249.349091 
L 429.87918 224.64 
L 431.02697 224.64 
L 431.02697 199.930909 
L 431.043007 224.64 
L 431.44573 224.64 
L 431.44573 249.349091 
L 431.521702 249.349091 
L 431.59975 249.349091 
L 431.59975 224.64 
L 432.013679 224.64 
L 432.013679 199.930909 
L 432.059519 224.64 
L 432.157721 224.64 
L 432.157721 249.349091 
L 432.659961 249.349091 
L 432.737871 199.930909 
L 433.806219 199.930909 
L 433.806219 175.221818 
L 433.869603 199.930909 
L 435.781319 199.930909 
L 435.781319 224.64 
L 436.015221 224.64 
L 436.015221 199.930909 
L 436.049186 224.64 
L 437.300354 224.64 
L 437.300354 249.349091 
L 437.838393 249.349091 
L 437.838393 224.64 
L 437.979571 224.64 
L 437.979571 249.349091 
L 438.206808 249.349091 
L 438.206808 224.64 
L 438.373072 224.64 
L 438.373072 199.930909 
L 438.437756 224.64 
L 438.59728 224.64 
L 438.59728 199.930909 
L 439.500686 199.930909 
L 439.578596 249.349091 
L 439.701884 249.349091 
L 439.701884 224.64 
L 439.824464 224.64 
L 439.824464 199.930909 
L 440.729416 199.930909 
L 440.729416 175.221818 
L 440.921413 175.221818 
L 440.921413 150.512727 
L 441.101946 150.512727 
L 441.101946 125.803636 
L 441.217005 125.803636 
L 441.217005 150.512727 
L 441.704706 150.512727 
L 441.704706 175.221818 
L 441.793435 175.221818 
L 441.982126 175.221818 
L 442.017642 224.64 
L 442.241625 224.64 
L 442.241625 199.930909 
L 442.767292 199.930909 
L 442.855946 249.349091 
L 442.970548 249.349091 
L 442.970548 224.64 
L 443.244827 224.64 
L 443.244827 249.349091 
L 443.2935 224.64 
L 444.184753 224.64 
L 444.184753 199.930909 
L 444.679118 199.930909 
L 444.679118 224.64 
L 444.949627 224.64 
L 444.998413 175.221818 
L 445.85996 175.221818 
L 445.85996 199.930909 
L 446.047916 199.930909 
L 446.115191 150.512727 
L 446.544503 150.512727 
L 446.593098 101.094545 
L 446.713863 101.094545 
L 446.713863 125.803636 
L 446.886764 125.803636 
L 446.886764 150.512727 
L 446.979639 125.803636 
L 447.907147 125.803636 
L 447.907147 101.094545 
L 448.51229 101.094545 
L 448.512732 150.512727 
L 448.630006 150.512727 
L 448.641206 101.094545 
L 448.745237 101.094545 
L 448.745237 125.803636 
L 448.93361 125.803636 
L 448.98885 76.385455 
L 449.197529 76.385455 
L 449.197529 51.676364 
L 449.241213 76.385455 
L 449.558897 76.385455 
L 449.558897 101.094545 
L 450.650232 101.094545 
L 450.650232 125.803636 
L 450.951383 125.803636 
L 450.951383 101.094545 
L 451.153582 101.094545 
L 451.153582 125.803636 
L 451.810524 125.803636 
L 451.815795 175.221818 
L 452.318581 175.221818 
L 452.318581 199.930909 
L 452.680244 199.930909 
L 452.680244 224.64 
L 453.037691 224.64 
L 453.037691 249.349091 
L 453.19049 249.349091 
L 453.19049 274.058182 
L 454.107711 274.058182 
L 454.107711 249.349091 
L 454.328074 249.349091 
L 454.328074 274.058182 
L 454.525349 274.058182 
L 454.634214 323.476364 
L 455.363132 323.476364 
L 455.363132 298.767273 
L 455.481931 298.767273 
L 455.481931 323.476364 
L 455.829575 323.476364 
L 455.829575 348.185455 
L 456.081928 348.185455 
L 456.081928 372.894545 
L 456.858231 372.894545 
L 456.858231 348.185455 
L 459.083493 348.185455 
L 459.083493 323.476364 
L 459.353555 323.476364 
L 459.353555 348.185455 
L 459.922829 348.185455 
L 459.922829 323.476364 
L 460.378376 323.476364 
L 460.378376 348.185455 
L 460.761549 348.185455 
L 460.761549 323.476364 
L 461.094046 323.476364 
L 461.13804 249.349091 
L 463.072106 249.349091 
L 463.072106 224.64 
L 463.226024 224.64 
L 463.226024 199.930909 
L 463.378267 199.930909 
L 463.378267 175.221818 
L 464.047879 175.221818 
L 464.047879 150.512727 
L 464.463666 150.512727 
L 464.463666 125.803636 
L 464.514409 150.512727 
L 464.77733 150.512727 
L 464.77733 125.803636 
L 464.784098 150.512727 
L 465.053373 150.512727 
L 465.053373 175.221818 
L 466.27673 175.221818 
L 466.27673 150.512727 
L 466.462154 150.512727 
L 466.462154 175.221818 
L 466.964619 175.221818 
L 467.008362 125.803636 
L 467.119319 125.803636 
L 467.119319 150.512727 
L 467.36869 150.512727 
L 467.408705 224.64 
L 467.884029 224.64 
L 467.884029 249.349091 
L 468.392755 249.349091 
L 468.392755 224.64 
L 468.608363 224.64 
L 468.608363 249.349091 
L 468.926629 249.349091 
L 468.926629 274.058182 
L 469.335555 274.058182 
L 469.335555 249.349091 
L 469.912831 249.349091 
L 469.912831 274.058182 
L 470.267154 274.058182 
L 470.267154 298.767273 
L 470.477935 298.767273 
L 470.477935 323.476364 
L 471.077488 323.476364 
L 471.10278 274.058182 
L 471.20715 274.058182 
L 471.20715 249.349091 
L 471.525103 249.349091 
L 471.525103 274.058182 
L 472.383178 274.058182 
L 472.383178 298.767273 
L 472.708967 298.767273 
L 472.708967 323.476364 
L 473.256573 323.476364 
L 473.256573 298.767273 
L 473.617455 298.767273 
L 473.701423 249.349091 
L 474.627513 249.349091 
L 474.627513 274.058182 
L 474.830146 274.058182 
L 474.85317 224.64 
L 475.637971 224.64 
L 475.637971 249.349091 
L 475.86464 249.349091 
L 475.86464 224.64 
L 477.110388 224.64 
L 477.110388 249.349091 
L 477.316401 249.349091 
L 477.373445 298.767273 
L 477.799419 298.767273 
L 477.799419 274.058182 
L 478.261907 274.058182 
L 478.261907 298.767273 
L 478.590179 298.767273 
L 478.590179 274.058182 
L 478.850765 274.058182 
L 478.850765 249.349091 
L 479.372788 249.349091 
L 479.372788 224.64 
L 479.413654 249.349091 
L 479.527238 249.349091 
L 479.527238 274.058182 
L 479.855064 274.058182 
L 479.855064 298.767273 
L 480.458181 298.767273 
L 480.458181 323.476364 
L 480.975104 323.476364 
L 480.975104 298.767273 
L 481.15099 298.767273 
L 481.15099 274.058182 
L 481.761727 274.058182 
L 481.817608 224.64 
L 482.841188 224.64 
L 482.841188 249.349091 
L 485.072863 249.349091 
L 485.072863 224.64 
L 485.430904 224.64 
L 485.430904 249.349091 
L 485.643453 249.349091 
L 485.643453 274.058182 
L 486.105648 274.058182 
L 486.105648 298.767273 
L 486.281534 298.767273 
L 486.322211 348.185455 
L 486.948152 348.185455 
L 486.948152 372.894545 
L 488.060507 372.894545 
L 488.060507 397.603636 
L 488.086877 372.894545 
L 488.450291 372.894545 
L 488.48938 323.476364 
L 491.039865 323.476364 
L 491.039865 298.767273 
L 491.359642 298.767273 
L 491.420188 249.349091 
L 491.50724 249.349091 
L 491.50724 274.058182 
L 491.812835 274.058182 
L 491.812835 249.349091 
L 492.461905 249.349091 
L 492.461905 224.64 
L 493.053709 224.64 
L 493.053709 249.349091 
L 493.258691 249.349091 
L 493.258691 224.64 
L 493.602026 224.64 
L 493.602026 249.349091 
L 494.150896 249.349091 
L 494.150896 274.058182 
L 494.399899 274.058182 
L 494.399899 249.349091 
L 494.780005 249.349091 
L 494.780005 274.058182 
L 494.787482 249.349091 
L 495.330106 249.349091 
L 495.330106 274.058182 
L 495.432454 249.349091 
L 495.532112 249.349091 
L 495.532112 224.64 
L 496.122797 224.64 
L 496.122797 199.930909 
L 496.285737 199.930909 
L 496.285737 175.221818 
L 496.550732 175.221818 
L 496.550732 199.930909 
L 497.812354 199.930909 
L 497.880591 249.349091 
L 498.0835 249.349091 
L 498.0835 274.058182 
L 498.554987 274.058182 
L 498.554987 249.349091 
L 498.777905 249.349091 
L 498.777905 274.058182 
L 499.515682 274.058182 
L 499.515682 249.349091 
L 499.530444 274.058182 
L 500.028157 274.058182 
L 500.028157 249.349091 
L 500.440973 249.349091 
L 500.508142 199.930909 
L 500.683281 199.930909 
L 500.683281 224.64 
L 500.796335 224.64 
L 500.796335 199.930909 
L 501.703119 199.930909 
L 501.809597 249.349091 
L 501.986341 249.349091 
L 501.986341 274.058182 
L 502.54541 274.058182 
L 502.54541 298.767273 
L 503.133505 298.767273 
L 503.133505 274.058182 
L 504.076165 274.058182 
L 504.076165 298.767273 
L 504.216698 298.767273 
L 504.216698 323.476364 
L 505.352119 323.476364 
L 505.352119 298.767273 
L 505.571517 298.767273 
L 505.571517 323.476364 
L 505.595851 298.767273 
L 506.205531 298.767273 
L 506.205531 274.058182 
L 506.778807 274.058182 
L 506.778807 298.767273 
L 506.955367 298.767273 
L 506.955367 274.058182 
L 507.456244 274.058182 
L 507.456244 249.349091 
L 507.915712 249.349091 
L 507.915712 274.058182 
L 508.315655 274.058182 
L 508.315655 249.349091 
L 508.727216 249.349091 
L 508.727216 224.64 
L 509.186484 224.64 
L 509.20003 175.221818 
L 509.342543 175.221818 
L 509.342543 199.930909 
L 509.719185 199.930909 
L 509.719185 224.64 
L 510.726395 224.64 
L 510.726395 249.349091 
L 510.868377 249.349091 
L 510.868377 224.64 
L 511.165958 224.64 
L 511.165958 249.349091 
L 511.51585 249.349091 
L 511.51585 274.058182 
L 511.684412 274.058182 
L 511.684412 298.767273 
L 513.156849 298.767273 
L 513.156849 323.476364 
L 513.706902 323.476364 
L 513.706902 298.767273 
L 513.85776 298.767273 
L 513.85776 323.476364 
L 514.317028 323.476364 
L 514.317028 348.185455 
L 515.081534 348.185455 
L 515.081534 323.476364 
L 515.428861 323.476364 
L 515.428861 348.185455 
L 515.984274 348.185455 
L 515.994221 274.058182 
L 516.040755 298.767273 
L 516.565637 298.767273 
L 516.565637 274.058182 
L 517.764288 274.058182 
L 517.764288 249.349091 
L 519.13946 249.349091 
L 519.13946 224.64 
L 519.407507 224.64 
L 519.407507 249.349091 
L 519.539284 249.349091 
L 519.539284 224.64 
L 520.545652 224.64 
L 520.61459 298.767273 
L 520.697015 298.767273 
L 520.697015 274.058182 
L 521.419702 274.058182 
L 521.419702 298.767273 
L 521.684878 298.767273 
L 521.684878 323.476364 
L 521.922259 323.476364 
L 521.922259 348.185455 
L 522.450246 348.185455 
L 522.450246 323.476364 
L 523.529707 323.476364 
L 523.529707 348.185455 
L 524.546484 348.185455 
L 524.546484 372.894545 
L 526.39762 372.894545 
L 526.39762 397.603636 
L 528.469446 397.603636 
L 528.469446 372.894545 
L 528.720911 372.894545 
L 528.720911 397.603636 
L 528.810902 372.894545 
L 529.812715 372.894545 
L 529.812715 348.185455 
L 529.960186 348.185455 
L 529.960186 323.476364 
L 531.065644 323.476364 
L 531.065644 298.767273 
L 531.387821 298.767273 
L 531.387821 274.058182 
L 532.107041 274.058182 
L 532.107041 249.349091 
L 532.264932 249.349091 
L 532.264932 224.64 
L 532.9517 224.64 
L 532.9517 199.930909 
L 533.412147 199.930909 
L 533.412147 175.221818 
L 534.717562 175.221818 
L 534.717562 150.512727 
L 535.880232 150.512727 
L 535.880232 175.221818 
L 536.196188 175.221818 
L 536.196188 199.930909 
L 536.653441 199.930909 
L 536.653441 224.64 
L 536.791748 224.64 
L 536.791748 249.349091 
L 537.395476 249.349091 
L 537.395476 274.058182 
L 537.658486 274.058182 
L 537.658486 298.767273 
L 537.807646 298.767273 
L 537.807646 323.476364 
L 537.941032 323.476364 
L 537.97263 372.894545 
L 538.640291 372.894545 
L 538.640291 348.185455 
L 540.362486 348.185455 
L 540.418166 397.603636 
L 541.591807 397.603636 
L 541.652905 348.185455 
L 542.511003 348.185455 
L 542.511003 323.476364 
L 543.391318 323.476364 
L 543.391318 298.767273 
L 543.684191 298.767273 
L 543.684191 274.058182 
L 544.340895 274.058182 
L 544.340895 298.767273 
L 545.67156 298.767273 
L 545.67156 323.476364 
L 546.123197 323.476364 
L 546.158911 274.058182 
L 546.783449 274.058182 
L 546.783449 298.767273 
L 547.028774 298.767273 
L 547.028774 274.058182 
L 547.147215 274.058182 
L 547.147215 249.349091 
L 547.46938 249.349091 
L 547.46938 224.64 
L 547.825465 224.64 
L 547.825465 199.930909 
L 548.432532 199.930909 
L 548.432532 224.64 
L 548.53883 199.930909 
L 549.351728 199.930909 
L 549.351728 224.64 
L 549.43299 199.930909 
L 549.579274 199.930909 
L 549.579274 224.64 
L 551.589258 224.64 
L 551.589258 249.349091 
L 551.823802 249.349091 
L 551.823802 274.058182 
L 552.029864 274.058182 
L 552.029864 298.767273 
L 552.05102 274.058182 
L 552.319824 274.058182 
L 552.319824 249.349091 
L 552.847819 249.349091 
L 552.847819 274.058182 
L 553.372019 274.058182 
L 553.372019 249.349091 
L 553.52264 249.349091 
L 553.52264 224.64 
L 554.556113 224.64 
L 554.565108 175.221818 
L 554.666191 199.930909 
L 555.0854 199.930909 
L 555.0854 224.64 
L 555.703655 224.64 
L 555.703655 249.349091 
L 556.519676 249.349091 
L 556.519676 274.058182 
L 556.589481 249.349091 
L 556.792381 249.349091 
L 556.792381 274.058182 
L 556.943002 274.058182 
L 556.943002 298.767273 
L 558.321685 298.767273 
L 558.321685 323.476364 
L 559.063996 323.476364 
L 559.063996 298.767273 
L 559.37097 298.767273 
L 559.37097 274.058182 
L 559.64593 274.058182 
L 559.64593 249.349091 
L 560.364482 249.349091 
L 560.364482 224.64 
L 561.062713 224.64 
L 561.062713 199.930909 
L 561.226325 199.930909 
L 561.226325 175.221818 
L 561.440791 175.221818 
L 561.440791 199.930909 
L 561.975894 199.930909 
L 561.975894 224.64 
L 562.506603 224.64 
L 562.506603 199.930909 
L 563.054419 199.930909 
L 563.10702 249.349091 
L 563.430206 249.349091 
L 563.430206 274.058182 
L 563.784844 274.058182 
L 563.784844 298.767273 
L 564.056977 298.767273 
L 564.056977 274.058182 
L 564.206413 274.058182 
L 564.216785 323.476364 
L 565.010468 323.476364 
L 565.010468 298.767273 
L 565.216748 298.767273 
L 565.216748 323.476364 
L 565.303481 298.767273 
L 565.51606 298.767273 
L 565.51606 274.058182 
L 565.643925 274.058182 
L 565.643925 249.349091 
L 566.018271 249.349091 
L 566.018271 224.64 
L 566.191377 224.64 
L 566.191377 199.930909 
L 566.211695 224.64 
L 566.374434 224.64 
L 566.385251 175.221818 
L 567.528703 175.221818 
L 567.528703 150.512727 
L 567.834922 150.512727 
L 567.834922 125.803636 
L 568.095432 125.803636 
L 568.095432 150.512727 
L 568.473499 150.512727 
L 568.473499 175.221818 
L 569.064288 175.221818 
L 569.064288 199.930909 
L 569.506483 199.930909 
L 569.570952 249.349091 
L 569.60464 224.64 
L 569.815698 224.64 
L 569.815698 199.930909 
L 569.863965 224.64 
L 570.296932 224.64 
L 570.296932 199.930909 
L 570.327642 224.64 
L 570.674067 224.64 
L 570.674067 199.930909 
L 571.380173 199.930909 
L 571.380173 175.221818 
L 571.504978 175.221818 
L 571.504978 199.930909 
L 572.644392 199.930909 
L 572.644392 175.221818 
L 572.819082 175.221818 
L 572.868016 101.094545 
L 573.116922 101.094545 
L 573.116922 76.385455 
L 573.799368 76.385455 
L 573.799368 101.094545 
L 573.999118 101.094545 
L 573.999118 125.803636 
L 574.146737 125.803636 
L 574.146737 101.094545 
L 574.302496 101.094545 
L 574.302496 76.385455 
L 574.742284 76.385455 
L 574.742284 101.094545 
L 575.147869 101.094545 
L 575.245708 175.221818 
L 575.255421 150.512727 
L 575.378115 150.512727 
L 575.378115 125.803636 
L 575.427476 150.512727 
L 576.086363 150.512727 
L 576.086363 175.221818 
L 576.634815 175.221818 
L 576.634815 199.930909 
L 576.637803 175.221818 
L 576.809505 175.221818 
L 576.809505 199.930909 
L 577.015426 199.930909 
L 577.015426 224.64 
L 577.535663 224.64 
L 577.535663 249.349091 
L 577.922187 249.349091 
L 577.922187 224.64 
L 578.310674 224.64 
L 578.377042 175.221818 
L 578.56862 175.221818 
L 578.56862 199.930909 
L 578.86298 199.930909 
L 578.86298 224.64 
L 578.988189 224.64 
L 578.988189 199.930909 
L 579.118778 199.930909 
L 579.118778 175.221818 
L 579.301629 175.221818 
L 579.301629 150.512727 
L 579.361019 175.221818 
L 580.527707 175.221818 
L 580.527707 199.930909 
L 580.7363 199.930909 
L 580.7363 175.221818 
L 581.64878 175.221818 
L 581.64878 199.930909 
L 581.700116 175.221818 
L 581.91261 175.221818 
L 581.91261 199.930909 
L 582.151931 199.930909 
L 582.151931 224.64 
L 582.301097 224.64 
L 582.301097 249.349091 
L 583.077075 249.349091 
L 583.077075 224.64 
L 583.267705 224.64 
L 583.267705 249.349091 
L 584.09581 249.349091 
L 584.09581 224.64 
L 584.618649 224.64 
L 584.688794 274.058182 
L 584.819382 274.058182 
L 584.819382 298.767273 
L 584.965643 298.767273 
L 584.980434 249.349091 
L 585.509689 249.349091 
L 585.509689 224.64 
L 585.966213 224.64 
L 585.966213 199.930909 
L 586.321137 199.930909 
L 586.321137 175.221818 
L 586.436904 175.221818 
L 586.436904 199.930909 
L 586.667288 199.930909 
L 586.667288 175.221818 
L 586.83066 175.221818 
L 586.83066 199.930909 
L 587.498009 199.930909 
L 587.498009 224.64 
L 589.226354 224.64 
L 589.226354 249.349091 
L 589.49787 249.349091 
L 589.49787 224.64 
L 589.500112 249.349091 
L 590.110978 249.349091 
L 590.110978 274.058182 
L 590.48786 274.058182 
L 590.48786 298.767273 
L 590.679266 298.767273 
L 590.679266 274.058182 
L 590.881621 274.058182 
L 590.881621 298.767273 
L 591.058357 298.767273 
L 591.058357 274.058182 
L 591.236308 274.058182 
L 591.236308 298.767273 
L 591.701572 298.767273 
L 591.701572 274.058182 
L 593.508013 274.058182 
L 593.508013 298.767273 
L 593.782804 298.767273 
L 593.782804 274.058182 
L 594.058354 274.058182 
L 594.058354 298.767273 
L 594.524022 298.767273 
L 594.524022 274.058182 
L 595.657241 274.058182 
L 595.657241 298.767273 
L 597.329022 298.767273 
L 597.329022 323.476364 
L 597.776121 323.476364 
L 597.776121 298.767273 
L 598.524812 298.767273 
L 598.524812 274.058182 
L 598.542297 298.767273 
L 598.63818 298.767273 
L 598.63818 274.058182 
L 598.692645 274.058182 
L 598.913348 274.058182 
L 598.913348 298.767273 
L 599.119766 298.767273 
L 599.150943 249.349091 
L 599.314681 249.349091 
L 599.314681 224.64 
L 599.53538 224.64 
L 599.53538 199.930909 
L 599.654566 199.930909 
L 599.654566 224.64 
L 600.428139 224.64 
L 600.428139 199.930909 
L 600.81649 199.930909 
L 600.81649 175.221818 
L 602.515235 175.221818 
L 602.515235 199.930909 
L 604.616846 199.930909 
L 604.616846 224.64 
L 604.820371 224.64 
L 604.820371 249.349091 
L 605.015286 249.349091 
L 605.015286 274.058182 
L 606.048966 274.058182 
L 606.048966 298.767273 
L 606.278066 298.767273 
L 606.278066 274.058182 
L 606.376106 298.767273 
L 606.517095 298.767273 
L 606.517095 323.476364 
L 606.673491 323.476364 
L 606.673491 348.185455 
L 607.239395 348.185455 
L 607.239395 323.476364 
L 607.715736 323.476364 
L 607.715736 298.767273 
L 608.27191 298.767273 
L 608.27191 323.476364 
L 608.32561 298.767273 
L 608.855857 298.767273 
L 608.855857 323.476364 
L 608.979045 323.476364 
L 608.979045 348.185455 
L 611.080146 348.185455 
L 611.080146 323.476364 
L 611.978671 323.476364 
L 611.978671 348.185455 
L 612.939999 348.185455 
L 612.939999 372.894545 
L 613.29242 372.894545 
L 613.29242 348.185455 
L 613.60998 348.185455 
L 613.60998 323.476364 
L 614.500508 323.476364 
L 614.500508 348.185455 
L 614.939674 348.185455 
L 614.939674 323.476364 
L 615.166335 323.476364 
L 615.166335 348.185455 
L 615.814113 348.185455 
L 615.814113 323.476364 
L 616.000227 323.476364 
L 616.000227 298.767273 
L 616.559513 298.767273 
L 616.559513 274.058182 
L 616.71208 274.058182 
L 616.775361 224.64 
L 619.188551 224.64 
L 619.188551 199.930909 
L 619.234475 224.64 
L 619.880645 224.64 
L 619.880645 249.349091 
L 620.091985 249.349091 
L 620.091985 224.64 
L 620.449449 224.64 
L 620.449449 199.930909 
L 620.703206 199.930909 
L 620.703206 224.64 
L 621.130771 224.64 
L 621.130771 249.349091 
L 621.690057 249.349091 
L 621.690057 274.058182 
L 621.864247 274.058182 
L 621.864247 249.349091 
L 621.905905 274.058182 
L 622.088813 274.058182 
L 622.088813 249.349091 
L 622.920521 249.349091 
L 622.920521 274.058182 
L 623.178974 274.058182 
L 623.178974 298.767273 
L 623.55058 298.767273 
L 623.55058 274.058182 
L 624.439872 274.058182 
L 624.439872 298.767273 
L 625.028598 298.767273 
L 625.028598 274.058182 
L 625.262987 274.058182 
L 625.262987 298.767273 
L 626.398693 298.767273 
L 626.398693 274.058182 
L 626.952736 274.058182 
L 626.952736 249.349091 
L 627.50277 249.349091 
L 627.50277 274.058182 
L 627.586102 249.349091 
L 628.704973 249.349091 
L 628.704973 274.058182 
L 628.929538 274.058182 
L 628.929538 298.767273 
L 629.51737 298.767273 
L 629.51737 274.058182 
L 629.589082 298.767273 
L 629.821245 298.767273 
L 629.821245 323.476364 
L 630.447976 323.476364 
L 630.447976 298.767273 
L 630.668764 298.767273 
L 630.668764 274.058182 
L 632.08328 274.058182 
L 632.08328 298.767273 
L 632.57029 298.767273 
L 632.57029 274.058182 
L 632.669358 298.767273 
L 632.698961 298.767273 
L 632.698961 274.058182 
L 633.507793 274.058182 
L 633.507793 298.767273 
L 635.566948 298.767273 
L 635.566948 323.476364 
L 636.14858 323.476364 
L 636.14858 348.185455 
L 636.205849 323.476364 
L 637.072452 323.476364 
L 637.098298 274.058182 
L 637.509489 274.058182 
L 637.509489 298.767273 
L 637.646921 298.767273 
L 637.646921 274.058182 
L 637.700834 298.767273 
L 638.075677 298.767273 
L 638.075677 274.058182 
L 638.665426 274.058182 
L 638.665426 249.349091 
L 638.969626 249.349091 
L 638.969626 274.058182 
L 639.568718 274.058182 
L 639.568718 249.349091 
L 639.911298 249.349091 
L 639.911298 224.64 
L 640.598908 224.64 
L 640.628533 175.221818 
L 641.658782 175.221818 
L 641.658782 199.930909 
L 641.906453 199.930909 
L 641.906453 224.64 
L 642.070546 224.64 
L 642.070546 199.930909 
L 642.589754 199.930909 
L 642.589754 175.221818 
L 642.636161 199.930909 
L 642.717294 199.930909 
L 642.717294 175.221818 
L 643.616345 175.221818 
L 643.616345 150.512727 
L 643.79597 150.512727 
L 643.79597 175.221818 
L 643.917586 175.221818 
L 643.917586 199.930909 
L 644.003945 175.221818 
L 644.382734 175.221818 
L 644.382734 150.512727 
L 644.471782 175.221818 
L 645.010855 175.221818 
L 645.010855 150.512727 
L 645.159392 150.512727 
L 645.159392 175.221818 
L 645.809529 175.221818 
L 645.832964 125.803636 
L 646.178132 125.803636 
L 646.178132 101.094545 
L 646.255688 101.094545 
L 647.163421 101.094545 
L 647.179049 51.676364 
L 647.49901 51.676364 
L 647.49901 26.967273 
L 647.51971 51.676364 
L 647.675135 51.676364 
L 647.675135 26.967273 
L 647.861157 26.967273 
L 647.861157 51.676364 
L 648.119625 51.676364 
L 648.119625 76.385455 
L 648.148599 51.676364 
L 648.290359 51.676364 
L 648.373157 125.803636 
L 648.746889 125.803636 
L 648.746889 150.512727 
L 648.763985 125.803636 
L 648.93015 125.803636 
L 648.93015 101.094545 
L 649.10599 101.094545 
L 649.10599 125.803636 
L 649.598495 125.803636 
L 649.598495 150.512727 
L 649.94309 150.512727 
L 650.046651 101.094545 
L 650.572655 101.094545 
L 650.572655 76.385455 
L 650.889621 76.385455 
L 650.889621 101.094545 
L 650.963508 101.094545 
L 651.407243 101.094545 
L 651.407243 76.385455 
L 651.929392 76.385455 
L 651.929392 51.676364 
L 653.124912 51.676364 
L 653.124912 76.385455 
L 653.279143 76.385455 
L 653.279143 101.094545 
L 653.434086 101.094545 
L 653.490634 175.221818 
L 653.769675 175.221818 
L 653.769675 199.930909 
L 654.118504 199.930909 
L 654.118504 224.64 
L 654.46459 224.64 
L 654.563078 274.058182 
L 654.979215 274.058182 
L 654.979215 249.349091 
L 655.085921 298.767273 
L 655.401928 298.767273 
L 655.401928 274.058182 
L 655.671174 274.058182 
L 655.671174 249.349091 
L 655.747255 274.058182 
L 656.537787 274.058182 
L 656.537787 298.767273 
L 656.539417 274.058182 
L 657.387387 274.058182 
L 657.387387 249.349091 
L 657.807002 249.349091 
L 657.807002 224.64 
L 658.33763 224.64 
L 658.33763 249.349091 
L 658.552599 249.349091 
L 658.552599 224.64 
L 658.767308 224.64 
L 658.767308 199.930909 
L 659.008212 199.930909 
L 659.008212 175.221818 
L 659.392351 175.221818 
L 659.392351 199.930909 
L 659.703084 199.930909 
L 659.703084 175.221818 
L 660.109759 175.221818 
L 660.109759 199.930909 
L 660.231658 199.930909 
L 660.231658 224.64 
L 660.242576 199.930909 
L 661.077283 199.930909 
L 661.077283 175.221818 
L 661.669961 175.221818 
L 661.669961 199.930909 
L 661.840396 199.930909 
L 661.840396 175.221818 
L 662.389504 175.221818 
L 662.389504 150.512727 
L 662.646946 150.512727 
L 662.646946 125.803636 
L 662.76054 125.803636 
L 662.76054 150.512727 
L 662.89098 150.512727 
L 662.89098 125.803636 
L 662.937546 150.512727 
L 663.068701 150.512727 
L 663.068701 125.803636 
L 664.116198 125.803636 
L 664.116198 101.094545 
L 664.467912 101.094545 
L 664.467912 125.803636 
L 664.708816 125.803636 
L 664.798173 175.221818 
L 664.823264 175.221818 
L 664.823264 199.930909 
L 664.91874 175.221818 
L 665.637767 175.221818 
L 665.637767 199.930909 
L 665.809866 199.930909 
L 665.809866 224.64 
L 665.973749 224.64 
L 665.973749 249.349091 
L 666.513241 249.349091 
L 666.513241 274.058182 
L 666.628921 274.058182 
L 666.628921 298.767273 
L 666.970941 298.767273 
L 666.970941 323.476364 
L 667.215858 323.476364 
L 667.215858 298.767273 
L 667.439844 298.767273 
L 667.439844 274.058182 
L 668.059597 274.058182 
L 668.059597 249.349091 
L 668.347551 249.349091 
L 668.347551 274.058182 
L 668.769306 274.058182 
L 668.769306 298.767273 
L 669.161645 298.767273 
L 669.246742 348.185455 
L 669.855125 348.185455 
L 669.855125 323.476364 
L 670.749854 323.476364 
L 670.749854 298.767273 
L 670.956407 298.767273 
L 670.956407 274.058182 
L 673.710509 274.058182 
L 673.806709 323.476364 
L 674.264058 323.476364 
L 674.264058 298.767273 
L 675.470382 298.767273 
L 675.55573 348.185455 
L 675.746987 348.185455 
L 675.746987 323.476364 
L 675.851236 323.476364 
L 676.22445 323.476364 
L 676.22445 298.767273 
L 676.450459 298.767273 
L 676.450459 323.476364 
L 676.467036 298.767273 
L 677.038599 298.767273 
L 677.038599 274.058182 
L 677.684421 274.058182 
L 677.684421 298.767273 
L 677.804369 298.767273 
L 677.804369 274.058182 
L 678.027229 274.058182 
L 678.027229 298.767273 
L 678.206672 298.767273 
L 678.206672 274.058182 
L 679.841659 274.058182 
L 679.841659 298.767273 
L 680.214873 298.767273 
L 680.214873 323.476364 
L 680.791954 323.476364 
L 680.791954 298.767273 
L 681.029022 298.767273 
L 681.029022 323.476364 
L 681.482016 323.476364 
L 681.482016 298.767273 
L 681.66049 298.767273 
L 681.66049 274.058182 
L 682.197096 274.058182 
L 682.197096 298.767273 
L 682.364852 298.767273 
L 682.364852 323.476364 
L 682.645619 323.476364 
L 682.645619 298.767273 
L 682.792762 298.767273 
L 682.792762 274.058182 
L 683.009056 274.058182 
L 683.102878 224.64 
L 683.877822 224.64 
L 683.877822 249.349091 
L 684.336746 249.349091 
L 684.336746 224.64 
L 684.650923 224.64 
L 684.650923 199.930909 
L 684.947377 199.930909 
L 684.947377 175.221818 
L 685.106003 175.221818 
L 685.106003 150.512727 
L 685.859359 150.512727 
L 685.859359 175.221818 
L 686.301539 175.221818 
L 686.301539 150.512727 
L 686.636042 150.512727 
L 686.636042 175.221818 
L 686.783185 175.221818 
L 686.783185 199.930909 
L 687.31215 199.930909 
L 687.31215 175.221818 
L 687.361095 199.930909 
L 687.752681 199.930909 
L 687.752681 224.64 
L 687.810846 199.930909 
L 688.641346 199.930909 
L 688.641346 224.64 
L 689.096426 224.64 
L 689.096426 249.349091 
L 689.46729 249.349091 
L 689.46729 274.058182 
L 690.047161 274.058182 
L 690.047161 249.349091 
L 690.647982 249.349091 
L 690.647982 274.058182 
L 691.053042 274.058182 
L 691.053042 298.767273 
L 691.231209 298.767273 
L 691.302573 348.185455 
L 692.022337 348.185455 
L 692.022337 323.476364 
L 692.223845 323.476364 
L 692.223845 348.185455 
L 692.572204 348.185455 
L 692.572204 372.894545 
L 693.030206 372.894545 
L 693.030206 348.185455 
L 693.745304 348.185455 
L 693.812799 298.767273 
L 693.922294 298.767273 
L 693.922294 274.058182 
L 694.317961 274.058182 
L 694.317961 249.349091 
L 694.950305 249.349091 
L 694.950305 224.64 
L 695.184255 224.64 
L 695.189159 175.221818 
L 695.301224 175.221818 
L 695.301224 150.512727 
L 695.584041 150.512727 
L 695.584041 125.803636 
L 696.582821 125.803636 
L 696.582821 150.512727 
L 696.701331 150.512727 
L 696.701331 125.803636 
L 697.735728 125.803636 
L 697.735728 150.512727 
L 697.913567 150.512727 
L 697.913567 125.803636 
L 698.039461 125.803636 
L 698.039461 150.512727 
L 698.151526 150.512727 
L 698.151526 175.221818 
L 698.757902 175.221818 
L 698.757902 150.512727 
L 699.168128 150.512727 
L 699.168128 175.221818 
L 699.448346 175.221818 
L 699.448346 150.512727 
L 699.622899 150.512727 
L 699.622899 175.221818 
L 700.018565 175.221818 
L 700.018565 199.930909 
L 700.193809 199.930909 
L 700.193809 224.64 
L 700.440992 224.64 
L 700.440992 249.349091 
L 701.793645 249.349091 
L 701.793645 274.058182 
L 701.975217 274.058182 
L 701.975217 249.349091 
L 702.361091 249.349091 
L 702.361091 274.058182 
L 702.559952 274.058182 
L 702.559952 249.349091 
L 702.904003 249.349091 
L 702.904003 224.64 
L 703.217625 224.64 
L 703.217625 199.930909 
L 703.542056 199.930909 
L 703.564888 249.349091 
L 703.735162 249.349091 
L 703.735162 274.058182 
L 703.964073 274.058182 
L 703.964073 249.349091 
L 705.028567 249.349091 
L 705.028567 274.058182 
L 705.03249 249.349091 
L 705.168742 249.349091 
L 705.168742 224.64 
L 706.5357 224.64 
L 706.5357 249.349091 
L 706.859132 249.349091 
L 706.894426 298.767273 
L 707.123219 298.767273 
L 707.123219 274.058182 
L 707.532313 274.058182 
L 707.532313 249.349091 
L 708.830617 249.349091 
L 708.830617 274.058182 
L 708.831098 249.349091 
L 709.094617 249.349091 
L 709.094617 274.058182 
L 709.729226 274.058182 
L 709.729226 298.767273 
L 710.058351 298.767273 
L 710.058351 323.476364 
L 710.165328 298.767273 
L 710.964133 298.767273 
L 710.964133 274.058182 
L 712.092797 274.058182 
L 712.092797 298.767273 
L 713.015631 298.767273 
L 713.015631 323.476364 
L 713.583397 323.476364 
L 713.583397 348.185455 
L 714.283503 348.185455 
L 714.283503 323.476364 
L 715.014888 323.476364 
L 715.014888 298.767273 
L 715.671824 298.767273 
L 715.671824 323.476364 
L 715.900017 323.476364 
L 715.900017 298.767273 
L 716.664737 298.767273 
L 716.664737 323.476364 
L 717.384307 323.476364 
L 717.384307 348.185455 
L 719.416896 348.185455 
L 719.416896 323.476364 
L 719.693024 323.476364 
L 719.693024 298.767273 
L 720.145432 298.767273 
L 720.145432 323.476364 
L 720.403064 323.476364 
L 720.416642 274.058182 
L 720.557017 274.058182 
L 720.557017 298.767273 
L 721.412616 298.767273 
L 721.412616 274.058182 
L 721.527131 274.058182 
L 721.527131 249.349091 
L 721.839382 249.349091 
L 721.839382 224.64 
L 722.177102 224.64 
L 722.177102 199.930909 
L 722.83441 199.930909 
L 722.83441 224.64 
L 722.986962 224.64 
L 722.986962 199.930909 
L 723.129417 199.930909 
L 723.129417 175.221818 
L 723.95473 175.221818 
L 723.95473 150.512727 
L 724.370113 150.512727 
L 724.370113 125.803636 
L 724.393488 150.512727 
L 725.591045 150.512727 
L 725.591045 175.221818 
L 725.596316 150.512727 
L 725.963689 150.512727 
L 725.9731 199.930909 
L 726.687307 199.930909 
L 726.687307 224.64 
L 727.528955 224.64 
L 727.528955 199.930909 
L 727.894094 199.930909 
L 727.894094 175.221818 
L 728.110046 175.221818 
L 728.117506 224.64 
L 728.231676 224.64 
L 728.231676 199.930909 
L 729.017827 199.930909 
L 729.017827 224.64 
L 729.507978 224.64 
L 729.507978 249.349091 
L 729.655335 249.349091 
L 729.655335 274.058182 
L 730.540203 274.058182 
L 730.540203 298.767273 
L 730.640778 298.767273 
L 731.432097 298.767273 
L 731.432097 274.058182 
L 731.948904 274.058182 
L 731.948904 249.349091 
L 732.354147 249.349091 
L 732.359676 199.930909 
L 732.540731 199.930909 
L 732.540731 175.221818 
L 733.179421 175.221818 
L 733.179421 150.512727 
L 733.594699 150.512727 
L 733.594699 175.221818 
L 733.745481 175.221818 
L 733.745481 150.512727 
L 734.369681 150.512727 
L 734.369681 175.221818 
L 735.251179 175.221818 
L 735.251179 150.512727 
L 735.857404 150.512727 
L 735.857404 175.221818 
L 736.599784 175.221818 
L 736.599784 199.930909 
L 736.782582 199.930909 
L 736.868694 249.349091 
L 738.214713 249.349091 
L 738.214713 224.64 
L 738.624812 224.64 
L 738.630341 274.058182 
L 738.789629 274.058182 
L 738.842883 323.476364 
L 739.260377 323.476364 
L 739.260377 298.767273 
L 739.381457 298.767273 
L 739.381457 323.476364 
L 740.016146 323.476364 
L 740.016146 348.185455 
L 740.807683 348.185455 
L 740.913674 298.767273 
L 742.11068 298.767273 
L 742.205137 348.185455 
L 743.57656 348.185455 
L 743.62677 298.767273 
L 744.208809 298.767273 
L 744.208809 274.058182 
L 744.645647 274.058182 
L 744.645647 249.349091 
L 745.330952 249.349091 
L 745.330952 224.64 
L 745.397877 224.64 
L 746.477073 224.64 
L 746.477073 249.349091 
L 746.652388 249.349091 
L 746.652388 274.058182 
L 746.757702 249.349091 
L 747.629172 249.349091 
L 747.629172 274.058182 
L 748.581561 274.058182 
L 748.581561 249.349091 
L 748.63607 274.058182 
L 749.464581 274.058182 
L 749.464581 298.767273 
L 749.528327 274.058182 
L 750.367391 274.058182 
L 750.367391 249.349091 
L 750.461496 274.058182 
L 750.528421 274.058182 
L 750.528421 298.767273 
L 750.735834 298.767273 
L 750.735834 274.058182 
L 750.905099 274.058182 
L 750.905099 249.349091 
L 751.48544 249.349091 
L 751.48544 224.64 
L 751.651907 224.64 
L 751.651907 199.930909 
L 752.697528 199.930909 
L 752.697528 224.64 
L 752.820921 224.64 
L 752.820921 199.930909 
L 753.105707 199.930909 
L 753.105707 175.221818 
L 753.374054 175.221818 
L 753.374054 150.512727 
L 754.031392 150.512727 
L 754.031392 125.803636 
L 754.168488 125.803636 
L 754.168488 150.512727 
L 754.726257 150.512727 
L 754.726257 175.221818 
L 754.905802 175.221818 
L 754.905802 199.930909 
L 755.422287 199.930909 
L 755.497935 274.058182 
L 755.973782 274.058182 
L 755.973782 249.349091 
L 756.212391 249.349091 
L 756.212391 274.058182 
L 756.933286 274.058182 
L 756.933286 249.349091 
L 758.079234 249.349091 
L 758.079234 274.058182 
L 758.174025 249.349091 
L 759.376372 249.349091 
L 759.376372 274.058182 
L 759.661646 274.058182 
L 759.661646 298.767273 
L 759.957841 298.767273 
L 759.957841 274.058182 
L 760.534265 274.058182 
L 760.534265 298.767273 
L 761.403335 298.767273 
L 761.403335 274.058182 
L 761.924961 274.058182 
L 761.924961 298.767273 
L 762.06383 298.767273 
L 762.06383 323.476364 
L 762.238083 323.476364 
L 762.238083 348.185455 
L 762.582299 348.185455 
L 762.582299 372.894545 
L 763.304569 372.894545 
L 763.304569 397.603636 
L 763.839137 397.603636 
L 763.839137 372.894545 
L 766.66148 372.894545 
L 766.66148 348.185455 
L 767.82956 348.185455 
L 767.82956 372.894545 
L 767.949362 372.894545 
L 767.949362 348.185455 
L 768.116704 348.185455 
L 768.116704 323.476364 
L 768.24406 323.476364 
L 768.24406 348.185455 
L 769.915943 348.185455 
L 769.915943 323.476364 
L 771.464047 323.476364 
L 771.464047 298.767273 
L 772.062297 298.767273 
L 772.062297 274.058182 
L 772.107128 298.767273 
L 773.032658 298.767273 
L 773.032658 274.058182 
L 773.079906 298.767273 
L 773.502206 298.767273 
L 773.502206 323.476364 
L 774.343315 323.476364 
L 774.343315 298.767273 
L 774.827425 298.767273 
L 774.827425 274.058182 
L 775.351876 274.058182 
L 775.351876 249.349091 
L 775.48266 249.349091 
L 775.48266 274.058182 
L 775.773647 274.058182 
L 775.837915 224.64 
L 776.186608 224.64 
L 776.186608 249.349091 
L 777.023081 249.349091 
L 777.023081 274.058182 
L 777.164651 274.058182 
L 777.193618 323.476364 
L 777.958583 323.476364 
L 777.958583 298.767273 
L 778.247788 298.767273 
L 778.247788 323.476364 
L 779.292923 323.476364 
L 779.292923 298.767273 
L 779.410843 298.767273 
L 779.410843 274.058182 
L 779.912359 274.058182 
L 779.912359 298.767273 
L 781.538519 298.767273 
L 781.538519 323.476364 
L 782.044312 323.476364 
L 782.044312 348.185455 
L 782.057226 323.476364 
L 782.196163 323.476364 
L 782.196163 298.767273 
L 783.089127 298.767273 
L 783.089127 323.476364 
L 783.853407 323.476364 
L 783.853407 348.185455 
L 785.477588 348.185455 
L 785.477588 372.894545 
L 786.327198 372.894545 
L 786.327198 348.185455 
L 787.120712 348.185455 
L 787.120712 323.476364 
L 787.882128 323.476364 
L 787.882128 298.767273 
L 787.96175 323.476364 
L 790.363138 323.476364 
L 790.363138 298.767273 
L 790.938841 298.767273 
L 790.938841 274.058182 
L 792.457251 274.058182 
L 792.457251 298.767273 
L 792.514348 274.058182 
L 792.597863 274.058182 
L 792.597863 298.767273 
L 792.821317 298.767273 
L 792.821317 323.476364 
L 793.012673 323.476364 
L 793.012673 348.185455 
L 793.992776 348.185455 
L 793.992776 323.476364 
L 795.493682 323.476364 
L 795.493682 348.185455 
L 795.877529 348.185455 
L 795.877529 323.476364 
L 795.995768 323.476364 
L 795.995768 298.767273 
L 798.839334 298.767273 
L 798.839334 274.058182 
L 799.304106 274.058182 
L 799.304106 249.349091 
L 799.355073 274.058182 
L 799.489748 274.058182 
L 799.489748 298.767273 
L 799.97631 298.767273 
L 799.97631 274.058182 
L 800.144263 274.058182 
L 800.144263 249.349091 
L 801.403562 249.349091 
L 801.403562 274.058182 
L 802.185361 274.058182 
L 802.185361 249.349091 
L 802.266433 274.058182 
L 802.718255 274.058182 
L 802.718255 298.767273 
L 802.829757 298.767273 
L 802.829757 323.476364 
L 803.012731 323.476364 
L 803.012731 298.767273 
L 803.395914 298.767273 
L 803.395914 274.058182 
L 803.396672 298.767273 
L 804.676477 298.767273 
L 804.676477 274.058182 
L 805.00471 274.058182 
L 805.00471 298.767273 
L 805.676156 298.767273 
L 805.676156 323.476364 
L 806.414928 323.476364 
L 806.414928 348.185455 
L 806.536842 348.185455 
L 806.536842 323.476364 
L 807.376267 323.476364 
L 807.376267 298.767273 
L 808.143276 298.767273 
L 808.143276 323.476364 
L 808.462409 323.476364 
L 808.473701 274.058182 
L 808.696816 274.058182 
L 808.696816 249.349091 
L 809.404807 249.349091 
L 809.404807 224.64 
L 809.596147 224.64 
L 809.596147 249.349091 
L 809.6566 224.64 
L 809.738791 224.64 
L 809.738791 199.930909 
L 809.807022 224.64 
L 810.216325 224.64 
L 810.216325 199.930909 
L 811.097326 199.930909 
L 811.097326 224.64 
L 811.696746 224.64 
L 811.696746 199.930909 
L 812.007757 199.930909 
L 812.007757 175.221818 
L 812.587981 175.221818 
L 812.587981 150.512727 
L 813.022893 150.512727 
L 813.034185 199.930909 
L 813.2573 199.930909 
L 813.2573 224.64 
L 813.646932 224.64 
L 813.646932 249.349091 
L 813.684669 224.64 
L 814.219757 224.64 
L 814.31615 175.221818 
L 814.457425 175.221818 
L 814.457425 150.512727 
L 814.868223 150.512727 
L 814.868223 175.221818 
L 815.105412 175.221818 
L 815.105412 199.930909 
L 815.998181 199.930909 
L 815.998181 224.64 
L 816.054414 199.930909 
L 817.067386 199.930909 
L 817.067386 224.64 
L 817.149577 224.64 
L 817.627111 224.64 
L 817.627111 249.349091 
L 817.764596 249.349091 
L 817.764596 274.058182 
L 818.596949 274.058182 
L 818.596949 249.349091 
L 819.506996 249.349091 
L 819.506996 224.64 
L 819.620452 224.64 
L 819.620452 199.930909 
L 819.677592 224.64 
L 819.955334 224.64 
L 819.955334 249.349091 
L 820.34872 249.349091 
L 820.34872 224.64 
L 820.463883 224.64 
L 820.463883 199.930909 
L 821.156876 199.930909 
L 821.156876 224.64 
L 822.156077 224.64 
L 822.156077 199.930909 
L 822.438271 199.930909 
L 822.438271 224.64 
L 822.744125 224.64 
L 822.744125 249.349091 
L 823.042731 249.349091 
L 823.099431 199.930909 
L 823.340724 199.930909 
L 823.340724 224.64 
L 823.985554 224.64 
L 823.985554 249.349091 
L 824.867614 249.349091 
L 824.867614 274.058182 
L 825.114284 274.058182 
L 825.114284 249.349091 
L 825.321056 249.349091 
L 825.321056 274.058182 
L 826.52117 274.058182 
L 826.52117 249.349091 
L 827.033154 249.349091 
L 827.033154 274.058182 
L 827.286621 274.058182 
L 827.286621 298.767273 
L 827.487842 298.767273 
L 827.487842 323.476364 
L 827.788262 323.476364 
L 827.788262 298.767273 
L 827.959899 298.767273 
L 827.991104 249.349091 
L 828.329567 249.349091 
L 828.329567 274.058182 
L 828.553459 274.058182 
L 828.553459 249.349091 
L 829.371473 249.349091 
L 829.371473 274.058182 
L 829.482925 274.058182 
L 829.482925 249.349091 
L 829.674768 249.349091 
L 829.674768 274.058182 
L 830.510217 274.058182 
L 830.510217 298.767273 
L 832.106592 298.767273 
L 832.106592 274.058182 
L 832.520383 274.058182 
L 832.520383 298.767273 
L 833.473348 298.767273 
L 833.473348 323.476364 
L 834.956894 323.476364 
L 834.956894 348.185455 
L 835.036118 298.767273 
L 835.222292 298.767273 
L 835.222292 274.058182 
L 835.494347 274.058182 
L 835.494347 249.349091 
L 835.769108 249.349091 
L 835.769108 274.058182 
L 836.223399 274.058182 
L 836.223399 249.349091 
L 836.398662 249.349091 
L 836.398662 224.64 
L 836.534306 224.64 
L 836.54201 274.058182 
L 836.575612 249.349091 
L 838.209005 249.349091 
L 838.209005 224.64 
L 838.484876 224.64 
L 838.484876 199.930909 
L 838.912732 199.930909 
L 838.912732 175.221818 
L 839.577498 175.221818 
L 839.577498 199.930909 
L 839.714862 199.930909 
L 839.714862 175.221818 
L 840.166663 175.221818 
L 840.166663 199.930909 
L 840.209281 175.221818 
L 840.566035 175.221818 
L 840.566035 199.930909 
L 840.783883 199.930909 
L 840.783883 224.64 
L 841.059308 224.64 
L 841.059308 249.349091 
L 841.765012 249.349091 
L 841.765012 274.058182 
L 841.797788 249.349091 
L 842.063018 249.349091 
L 842.063018 274.058182 
L 842.16384 249.349091 
L 842.247954 249.349091 
L 842.247954 224.64 
L 842.739878 224.64 
L 842.739878 199.930909 
L 843.570653 199.930909 
L 843.570653 175.221818 
L 844.949569 175.221818 
L 844.949569 199.930909 
L 845.098257 199.930909 
L 845.098257 224.64 
L 845.415467 224.64 
L 845.415467 249.349091 
L 845.788212 249.349091 
L 845.788212 274.058182 
L 846.154263 274.058182 
L 846.154263 298.767273 
L 846.323518 298.767273 
L 846.323518 323.476364 
L 846.374254 298.767273 
L 846.730301 298.767273 
L 846.730301 323.476364 
L 847.035783 323.476364 
L 847.035783 348.185455 
L 847.035971 323.476364 
L 847.620067 323.476364 
L 847.620067 348.185455 
L 849.238293 348.185455 
L 849.238293 323.476364 
L 849.271258 348.185455 
L 851.382071 348.185455 
L 851.382071 323.476364 
L 851.606914 323.476364 
L 851.606914 298.767273 
L 852.074859 298.767273 
L 852.074859 323.476364 
L 853.322335 323.476364 
L 853.322335 298.767273 
L 853.662313 298.767273 
L 853.662313 323.476364 
L 855.508958 323.476364 
L 855.597337 397.603636 
L 855.633454 397.603636 
L 855.633454 372.894545 
L 855.763336 372.894545 
L 855.763336 348.185455 
L 857.882818 348.185455 
L 857.882818 372.894545 
L 860.193938 372.894545 
L 860.193938 397.603636 
L 860.951653 397.603636 
L 860.951653 372.894545 
L 861.1879 372.894545 
L 861.1879 348.185455 
L 861.483755 348.185455 
L 861.483755 323.476364 
L 862.034001 323.476364 
L 862.034001 348.185455 
L 862.713273 348.185455 
L 862.713273 323.476364 
L 863.54432 323.476364 
L 863.54432 298.767273 
L 864.230353 298.767273 
L 864.269449 249.349091 
L 865.563576 249.349091 
L 865.563576 274.058182 
L 865.617127 249.349091 
L 866.318444 249.349091 
L 866.318444 274.058182 
L 866.380081 249.349091 
L 866.652258 249.349091 
L 866.652258 274.058182 
L 867.543272 274.058182 
L 867.543272 249.349091 
L 867.752287 249.349091 
L 867.862935 199.930909 
L 868.104803 199.930909 
L 868.104803 224.64 
L 868.30685 224.64 
L 868.30685 199.930909 
L 868.32448 224.64 
L 868.869333 224.64 
L 868.869333 199.930909 
L 869.970054 199.930909 
L 869.970054 224.64 
L 870.747671 224.64 
L 870.747671 249.349091 
L 871.071078 249.349091 
L 871.071078 274.058182 
L 871.162335 249.349091 
L 871.249059 249.349091 
L 871.285187 199.930909 
L 872.312771 199.930909 
L 872.312771 224.64 
L 873.243877 224.64 
L 873.243877 249.349091 
L 873.56354 249.349091 
L 873.56354 274.058182 
L 873.790867 274.058182 
L 873.790867 298.767273 
L 874.577515 298.767273 
L 874.577515 323.476364 
L 875.239482 323.476364 
L 875.239482 348.185455 
L 876.280119 348.185455 
L 876.280119 372.894545 
L 876.415731 372.894545 
L 876.415731 397.603636 
L 879.143182 397.603636 
L 879.143182 422.312727 
L 879.143182 422.312727 
" style="fill:none;stroke:#0000ff;stroke-linecap:square;stroke-width:1.5;"/>
   </g>
   <g id="patch_3">
    <path d="M 26.925 442.08 
L 26.925 7.2 
" style="fill:none;stroke:#000000;stroke-linecap:square;stroke-linejoin:miter;stroke-width:0.8;"/>
   </g>
   <g id="patch_4">
    <path d="M 919.725 442.08 
L 919.725 7.2 
" style="fill:none;stroke:#000000;stroke-linecap:square;stroke-linejoin:miter;stroke-width:0.8;"/>
   </g>
   <g id="patch_5">
    <path d="M 26.925 442.08 
L 919.725 442.08 
" style="fill:none;stroke:#000000;stroke-linecap:square;stroke-linejoin:miter;stroke-width:0.8;"/>
   </g>
   <g id="patch_6">
    <path d="M 26.925 7.2 
L 919.725 7.2 
" style="fill:none;stroke:#000000;stroke-linecap:square;stroke-linejoin:miter;stroke-width:0.8;"/>
   </g>
  </g>
 </g>
 <defs>
  <clipPath id="p40b70a57dd">
   <rect height="434.88" width="892.8" x="26.925" y="7.2"/>
  </clipPath>
 </defs>
</svg>
