<?xml version="1.0" encoding="utf-8" standalone="no"?>
<!DOCTYPE svg PUBLIC "-//W3C//DTD SVG 1.1//EN"
  "http://www.w3.org/Graphics/SVG/1.1/DTD/svg11.dtd">
<!-- Created with matplotlib (https://matplotlib.org/) -->
<svg height="465.958125pt" version="1.1" viewBox="0 0 928.942187 465.958125" width="928.942187pt" xmlns="http://www.w3.org/2000/svg" xmlns:xlink="http://www.w3.org/1999/xlink">
 <metadata>
  <rdf:RDF xmlns:cc="http://creativecommons.org/ns#" xmlns:dc="http://purl.org/dc/elements/1.1/" xmlns:rdf="http://www.w3.org/1999/02/22-rdf-syntax-ns#">
   <cc:Work>
    <dc:type rdf:resource="http://purl.org/dc/dcmitype/StillImage"/>
    <dc:date>2021-03-05T05:47:13.742870</dc:date>
    <dc:format>image/svg+xml</dc:format>
    <dc:creator>
     <cc:Agent>
      <dc:title>Matplotlib v3.3.3, https://matplotlib.org/</dc:title>
     </cc:Agent>
    </dc:creator>
   </cc:Work>
  </rdf:RDF>
 </metadata>
 <defs>
  <style type="text/css">*{stroke-linecap:butt;stroke-linejoin:round;}</style>
 </defs>
 <g id="figure_1">
  <g id="patch_1">
   <path d="M 0 465.958125 
L 928.942187 465.958125 
L 928.942187 0 
L 0 0 
z
" style="fill:none;"/>
  </g>
  <g id="axes_1">
   <g id="patch_2">
    <path d="M 28.942188 442.08 
L 921.742188 442.08 
L 921.742188 7.2 
L 28.942188 7.2 
z
" style="fill:#ffffff;"/>
   </g>
   <g id="matplotlib.axis_1">
    <g id="xtick_1">
     <g id="line2d_1">
      <defs>
       <path d="M 0 0 
L 0 3.5 
" id="m227f1af9f4" style="stroke:#000000;stroke-width:0.8;"/>
      </defs>
      <g>
       <use style="stroke:#000000;stroke-width:0.8;" x="75.378935" xlink:href="#m227f1af9f4" y="442.08"/>
      </g>
     </g>
     <g id="text_1">
      <!-- 0 -->
      <g transform="translate(72.197685 456.678437)scale(0.1 -0.1)">
       <defs>
        <path d="M 31.78125 66.40625 
Q 24.171875 66.40625 20.328125 58.90625 
Q 16.5 51.421875 16.5 36.375 
Q 16.5 21.390625 20.328125 13.890625 
Q 24.171875 6.390625 31.78125 6.390625 
Q 39.453125 6.390625 43.28125 13.890625 
Q 47.125 21.390625 47.125 36.375 
Q 47.125 51.421875 43.28125 58.90625 
Q 39.453125 66.40625 31.78125 66.40625 
z
M 31.78125 74.21875 
Q 44.046875 74.21875 50.515625 64.515625 
Q 56.984375 54.828125 56.984375 36.375 
Q 56.984375 17.96875 50.515625 8.265625 
Q 44.046875 -1.421875 31.78125 -1.421875 
Q 19.53125 -1.421875 13.0625 8.265625 
Q 6.59375 17.96875 6.59375 36.375 
Q 6.59375 54.828125 13.0625 64.515625 
Q 19.53125 74.21875 31.78125 74.21875 
z
" id="DejaVuSans-48"/>
       </defs>
       <use xlink:href="#DejaVuSans-48"/>
      </g>
     </g>
    </g>
    <g id="xtick_2">
     <g id="line2d_2">
      <g>
       <use style="stroke:#000000;stroke-width:0.8;" x="189.391026" xlink:href="#m227f1af9f4" y="442.08"/>
      </g>
     </g>
     <g id="text_2">
      <!-- 200 -->
      <g transform="translate(179.847276 456.678437)scale(0.1 -0.1)">
       <defs>
        <path d="M 19.1875 8.296875 
L 53.609375 8.296875 
L 53.609375 0 
L 7.328125 0 
L 7.328125 8.296875 
Q 12.9375 14.109375 22.625 23.890625 
Q 32.328125 33.6875 34.8125 36.53125 
Q 39.546875 41.84375 41.421875 45.53125 
Q 43.3125 49.21875 43.3125 52.78125 
Q 43.3125 58.59375 39.234375 62.25 
Q 35.15625 65.921875 28.609375 65.921875 
Q 23.96875 65.921875 18.8125 64.3125 
Q 13.671875 62.703125 7.8125 59.421875 
L 7.8125 69.390625 
Q 13.765625 71.78125 18.9375 73 
Q 24.125 74.21875 28.421875 74.21875 
Q 39.75 74.21875 46.484375 68.546875 
Q 53.21875 62.890625 53.21875 53.421875 
Q 53.21875 48.921875 51.53125 44.890625 
Q 49.859375 40.875 45.40625 35.40625 
Q 44.1875 33.984375 37.640625 27.21875 
Q 31.109375 20.453125 19.1875 8.296875 
z
" id="DejaVuSans-50"/>
       </defs>
       <use xlink:href="#DejaVuSans-50"/>
       <use x="63.623047" xlink:href="#DejaVuSans-48"/>
       <use x="127.246094" xlink:href="#DejaVuSans-48"/>
      </g>
     </g>
    </g>
    <g id="xtick_3">
     <g id="line2d_3">
      <g>
       <use style="stroke:#000000;stroke-width:0.8;" x="303.403116" xlink:href="#m227f1af9f4" y="442.08"/>
      </g>
     </g>
     <g id="text_3">
      <!-- 400 -->
      <g transform="translate(293.859366 456.678437)scale(0.1 -0.1)">
       <defs>
        <path d="M 37.796875 64.3125 
L 12.890625 25.390625 
L 37.796875 25.390625 
z
M 35.203125 72.90625 
L 47.609375 72.90625 
L 47.609375 25.390625 
L 58.015625 25.390625 
L 58.015625 17.1875 
L 47.609375 17.1875 
L 47.609375 0 
L 37.796875 0 
L 37.796875 17.1875 
L 4.890625 17.1875 
L 4.890625 26.703125 
z
" id="DejaVuSans-52"/>
       </defs>
       <use xlink:href="#DejaVuSans-52"/>
       <use x="63.623047" xlink:href="#DejaVuSans-48"/>
       <use x="127.246094" xlink:href="#DejaVuSans-48"/>
      </g>
     </g>
    </g>
    <g id="xtick_4">
     <g id="line2d_4">
      <g>
       <use style="stroke:#000000;stroke-width:0.8;" x="417.415207" xlink:href="#m227f1af9f4" y="442.08"/>
      </g>
     </g>
     <g id="text_4">
      <!-- 600 -->
      <g transform="translate(407.871457 456.678437)scale(0.1 -0.1)">
       <defs>
        <path d="M 33.015625 40.375 
Q 26.375 40.375 22.484375 35.828125 
Q 18.609375 31.296875 18.609375 23.390625 
Q 18.609375 15.53125 22.484375 10.953125 
Q 26.375 6.390625 33.015625 6.390625 
Q 39.65625 6.390625 43.53125 10.953125 
Q 47.40625 15.53125 47.40625 23.390625 
Q 47.40625 31.296875 43.53125 35.828125 
Q 39.65625 40.375 33.015625 40.375 
z
M 52.59375 71.296875 
L 52.59375 62.3125 
Q 48.875 64.0625 45.09375 64.984375 
Q 41.3125 65.921875 37.59375 65.921875 
Q 27.828125 65.921875 22.671875 59.328125 
Q 17.53125 52.734375 16.796875 39.40625 
Q 19.671875 43.65625 24.015625 45.921875 
Q 28.375 48.1875 33.59375 48.1875 
Q 44.578125 48.1875 50.953125 41.515625 
Q 57.328125 34.859375 57.328125 23.390625 
Q 57.328125 12.15625 50.6875 5.359375 
Q 44.046875 -1.421875 33.015625 -1.421875 
Q 20.359375 -1.421875 13.671875 8.265625 
Q 6.984375 17.96875 6.984375 36.375 
Q 6.984375 53.65625 15.1875 63.9375 
Q 23.390625 74.21875 37.203125 74.21875 
Q 40.921875 74.21875 44.703125 73.484375 
Q 48.484375 72.75 52.59375 71.296875 
z
" id="DejaVuSans-54"/>
       </defs>
       <use xlink:href="#DejaVuSans-54"/>
       <use x="63.623047" xlink:href="#DejaVuSans-48"/>
       <use x="127.246094" xlink:href="#DejaVuSans-48"/>
      </g>
     </g>
    </g>
    <g id="xtick_5">
     <g id="line2d_5">
      <g>
       <use style="stroke:#000000;stroke-width:0.8;" x="531.427297" xlink:href="#m227f1af9f4" y="442.08"/>
      </g>
     </g>
     <g id="text_5">
      <!-- 800 -->
      <g transform="translate(521.883547 456.678437)scale(0.1 -0.1)">
       <defs>
        <path d="M 31.78125 34.625 
Q 24.75 34.625 20.71875 30.859375 
Q 16.703125 27.09375 16.703125 20.515625 
Q 16.703125 13.921875 20.71875 10.15625 
Q 24.75 6.390625 31.78125 6.390625 
Q 38.8125 6.390625 42.859375 10.171875 
Q 46.921875 13.96875 46.921875 20.515625 
Q 46.921875 27.09375 42.890625 30.859375 
Q 38.875 34.625 31.78125 34.625 
z
M 21.921875 38.8125 
Q 15.578125 40.375 12.03125 44.71875 
Q 8.5 49.078125 8.5 55.328125 
Q 8.5 64.0625 14.71875 69.140625 
Q 20.953125 74.21875 31.78125 74.21875 
Q 42.671875 74.21875 48.875 69.140625 
Q 55.078125 64.0625 55.078125 55.328125 
Q 55.078125 49.078125 51.53125 44.71875 
Q 48 40.375 41.703125 38.8125 
Q 48.828125 37.15625 52.796875 32.3125 
Q 56.78125 27.484375 56.78125 20.515625 
Q 56.78125 9.90625 50.3125 4.234375 
Q 43.84375 -1.421875 31.78125 -1.421875 
Q 19.734375 -1.421875 13.25 4.234375 
Q 6.78125 9.90625 6.78125 20.515625 
Q 6.78125 27.484375 10.78125 32.3125 
Q 14.796875 37.15625 21.921875 38.8125 
z
M 18.3125 54.390625 
Q 18.3125 48.734375 21.84375 45.5625 
Q 25.390625 42.390625 31.78125 42.390625 
Q 38.140625 42.390625 41.71875 45.5625 
Q 45.3125 48.734375 45.3125 54.390625 
Q 45.3125 60.0625 41.71875 63.234375 
Q 38.140625 66.40625 31.78125 66.40625 
Q 25.390625 66.40625 21.84375 63.234375 
Q 18.3125 60.0625 18.3125 54.390625 
z
" id="DejaVuSans-56"/>
       </defs>
       <use xlink:href="#DejaVuSans-56"/>
       <use x="63.623047" xlink:href="#DejaVuSans-48"/>
       <use x="127.246094" xlink:href="#DejaVuSans-48"/>
      </g>
     </g>
    </g>
    <g id="xtick_6">
     <g id="line2d_6">
      <g>
       <use style="stroke:#000000;stroke-width:0.8;" x="645.439388" xlink:href="#m227f1af9f4" y="442.08"/>
      </g>
     </g>
     <g id="text_6">
      <!-- 1000 -->
      <g transform="translate(632.714388 456.678437)scale(0.1 -0.1)">
       <defs>
        <path d="M 12.40625 8.296875 
L 28.515625 8.296875 
L 28.515625 63.921875 
L 10.984375 60.40625 
L 10.984375 69.390625 
L 28.421875 72.90625 
L 38.28125 72.90625 
L 38.28125 8.296875 
L 54.390625 8.296875 
L 54.390625 0 
L 12.40625 0 
z
" id="DejaVuSans-49"/>
       </defs>
       <use xlink:href="#DejaVuSans-49"/>
       <use x="63.623047" xlink:href="#DejaVuSans-48"/>
       <use x="127.246094" xlink:href="#DejaVuSans-48"/>
       <use x="190.869141" xlink:href="#DejaVuSans-48"/>
      </g>
     </g>
    </g>
    <g id="xtick_7">
     <g id="line2d_7">
      <g>
       <use style="stroke:#000000;stroke-width:0.8;" x="759.451479" xlink:href="#m227f1af9f4" y="442.08"/>
      </g>
     </g>
     <g id="text_7">
      <!-- 1200 -->
      <g transform="translate(746.726479 456.678437)scale(0.1 -0.1)">
       <use xlink:href="#DejaVuSans-49"/>
       <use x="63.623047" xlink:href="#DejaVuSans-50"/>
       <use x="127.246094" xlink:href="#DejaVuSans-48"/>
       <use x="190.869141" xlink:href="#DejaVuSans-48"/>
      </g>
     </g>
    </g>
    <g id="xtick_8">
     <g id="line2d_8">
      <g>
       <use style="stroke:#000000;stroke-width:0.8;" x="873.463569" xlink:href="#m227f1af9f4" y="442.08"/>
      </g>
     </g>
     <g id="text_8">
      <!-- 1400 -->
      <g transform="translate(860.738569 456.678437)scale(0.1 -0.1)">
       <use xlink:href="#DejaVuSans-49"/>
       <use x="63.623047" xlink:href="#DejaVuSans-52"/>
       <use x="127.246094" xlink:href="#DejaVuSans-48"/>
       <use x="190.869141" xlink:href="#DejaVuSans-48"/>
      </g>
     </g>
    </g>
   </g>
   <g id="matplotlib.axis_2">
    <g id="ytick_1">
     <g id="line2d_9">
      <defs>
       <path d="M 0 0 
L -3.5 0 
" id="m55b4a92896" style="stroke:#000000;stroke-width:0.8;"/>
      </defs>
      <g>
       <use style="stroke:#000000;stroke-width:0.8;" x="28.942188" xlink:href="#m55b4a92896" y="404.022519"/>
      </g>
     </g>
     <g id="text_9">
      <!-- −2 -->
      <g transform="translate(7.2 407.821738)scale(0.1 -0.1)">
       <defs>
        <path d="M 10.59375 35.5 
L 73.1875 35.5 
L 73.1875 27.203125 
L 10.59375 27.203125 
z
" id="DejaVuSans-8722"/>
       </defs>
       <use xlink:href="#DejaVuSans-8722"/>
       <use x="83.789062" xlink:href="#DejaVuSans-50"/>
      </g>
     </g>
    </g>
    <g id="ytick_2">
     <g id="line2d_10">
      <g>
       <use style="stroke:#000000;stroke-width:0.8;" x="28.942188" xlink:href="#m55b4a92896" y="314.713171"/>
      </g>
     </g>
     <g id="text_10">
      <!-- −1 -->
      <g transform="translate(7.2 318.512389)scale(0.1 -0.1)">
       <use xlink:href="#DejaVuSans-8722"/>
       <use x="83.789062" xlink:href="#DejaVuSans-49"/>
      </g>
     </g>
    </g>
    <g id="ytick_3">
     <g id="line2d_11">
      <g>
       <use style="stroke:#000000;stroke-width:0.8;" x="28.942188" xlink:href="#m55b4a92896" y="225.403822"/>
      </g>
     </g>
     <g id="text_11">
      <!-- 0 -->
      <g transform="translate(15.579688 229.203041)scale(0.1 -0.1)">
       <use xlink:href="#DejaVuSans-48"/>
      </g>
     </g>
    </g>
    <g id="ytick_4">
     <g id="line2d_12">
      <g>
       <use style="stroke:#000000;stroke-width:0.8;" x="28.942188" xlink:href="#m55b4a92896" y="136.094473"/>
      </g>
     </g>
     <g id="text_12">
      <!-- 1 -->
      <g transform="translate(15.579688 139.893692)scale(0.1 -0.1)">
       <use xlink:href="#DejaVuSans-49"/>
      </g>
     </g>
    </g>
    <g id="ytick_5">
     <g id="line2d_13">
      <g>
       <use style="stroke:#000000;stroke-width:0.8;" x="28.942188" xlink:href="#m55b4a92896" y="46.785124"/>
      </g>
     </g>
     <g id="text_13">
      <!-- 2 -->
      <g transform="translate(15.579688 50.584343)scale(0.1 -0.1)">
       <use xlink:href="#DejaVuSans-50"/>
      </g>
     </g>
    </g>
   </g>
   <g id="line2d_14">
    <path clip-path="url(#pa26d448de0)" d="M 69.524006 182.588544 
L 71.901633 158.172696 
L 73.084342 149.175313 
L 73.984639 145.484388 
L 74.825129 145.016857 
L 75.517877 146.799786 
L 75.846139 148.265085 
L 77.032177 156.044119 
L 78.863384 170.132089 
L 79.925068 175.784488 
L 80.253529 176.89548 
L 81.329477 178.464637 
L 81.386914 178.471041 
L 82.675325 177.43159 
L 83.5301 176.468725 
L 84.563988 176.224495 
L 84.847673 176.411721 
L 85.500515 177.25711 
L 85.810342 177.835125 
L 87.087518 180.926658 
L 89.276582 186.427678 
L 90.683242 190.778798 
L 91.472317 194.651559 
L 92.365107 201.106657 
L 92.674872 203.954073 
L 93.481361 212.912624 
L 94.23259 223.133495 
L 97.395736 272.130566 
L 98.816956 285.159579 
L 99.615385 287.168674 
L 100.791293 282.443713 
L 101.302004 277.712331 
L 102.771974 257.348827 
L 105.306792 217.262363 
L 105.921837 210.067252 
L 106.797803 202.599974 
L 107.745329 198.047519 
L 109.209619 196.310714 
L 109.724733 196.605878 
L 109.956168 196.819542 
L 111.954329 199.484684 
L 113.389632 202.338725 
L 113.946591 204.064869 
L 114.502104 206.352337 
L 115.324381 211.030706 
L 116.284645 218.666363 
L 117.274881 228.787689 
L 120.800372 268.635905 
L 121.370478 273.409298 
L 122.364923 279.737298 
L 127.385731 272.806244 
L 127.995476 267.604425 
L 129.102209 256.066328 
L 130.636079 237.142574 
L 130.969523 232.857699 
L 133.696081 201.462077 
L 134.384788 195.644718 
L 135.372874 189.315673 
L 135.766623 187.461762 
L 136.845137 184.180094 
L 137.402175 183.39076 
L 137.941518 183.119986 
L 138.945272 183.724059 
L 139.623001 184.875952 
L 139.704138 185.053709 
L 141.752826 192.573709 
L 142.845101 198.934451 
L 146.087739 219.198082 
L 146.619652 221.238166 
L 147.416894 223.137292 
L 148.895605 223.480764 
L 149.730279 222.743482 
L 150.873794 222.273535 
L 151.477898 222.809502 
L 152.112203 224.201626 
L 152.656473 226.126478 
L 153.456088 230.097713 
L 154.854292 239.152636 
L 155.312921 242.233234 
L 156.716201 249.817232 
L 157.242747 251.33059 
L 157.5825 251.772917 
L 158.082767 251.56684 
L 158.52655 250.468876 
L 158.749262 249.582958 
L 159.934806 241.183189 
L 160.751016 232.264666 
L 161.595641 221.269676 
L 163.394938 197.033156 
L 164.697048 183.297024 
L 165.586064 176.982044 
L 165.975023 175.019698 
L 166.921268 172.055547 
L 167.385361 171.397322 
L 168.007706 171.158502 
L 168.50023 171.391024 
L 169.317669 172.413975 
L 169.658922 173.037912 
L 171.105567 176.830533 
L 171.782256 179.272598 
L 172.844963 184.135418 
L 173.671901 188.970765 
L 174.647763 196.156193 
L 175.357083 202.579978 
L 176.089309 210.414067 
L 177.521742 229.40565 
L 178.952499 252.317054 
L 180.903223 284.852103 
L 183.616299 316.829649 
L 184.147894 319.853071 
L 185.081367 322.117874 
L 187.402122 311.051044 
L 189.100343 290.514419 
L 193.346181 228.97291 
L 193.560545 226.664599 
L 194.883002 215.798105 
L 195.405648 213.131346 
L 196.277196 210.509784 
L 196.766543 209.847963 
L 197.622963 209.572375 
L 198.691089 209.674572 
L 198.870866 209.638789 
L 199.564789 209.154848 
L 199.994591 208.506211 
L 200.833856 206.347233 
L 201.31694 204.575442 
L 202.742421 197.63487 
L 204.491887 188.146277 
L 205.554875 183.588497 
L 206.432445 181.276915 
L 207.017545 180.667795 
L 207.205225 180.647162 
L 207.709094 181.03311 
L 207.91225 181.374804 
L 208.279244 182.26727 
L 209.15958 185.848111 
L 209.962507 190.81781 
L 210.992928 199.323597 
L 212.419514 214.217129 
L 215.756132 252.646427 
L 217.140426 262.972092 
L 217.865361 265.482674 
L 217.921531 265.582683 
L 218.79064 265.337622 
L 219.006026 264.756748 
L 220.370918 256.576417 
L 221.118353 249.218638 
L 222.528915 231.426226 
L 226.206522 181.244861 
L 226.77555 175.590434 
L 227.781704 168.384601 
L 228.250982 166.41178 
L 229.112517 165.305008 
L 229.801187 166.854355 
L 230.23292 168.943777 
L 231.079822 175.520795 
L 231.775903 183.300774 
L 232.723572 197.019224 
L 233.616275 212.600136 
L 236.111602 258.717273 
L 237.073645 271.137956 
L 237.198146 272.300187 
L 237.915313 276.620043 
L 238.730803 276.207727 
L 239.150126 273.751095 
L 240.582363 255.510739 
L 241.858954 231.732963 
L 242.577601 218.292695 
L 243.890153 198.781007 
L 244.850731 191.114471 
L 245.100781 190.170991 
L 245.501425 189.562235 
L 246.823244 194.722242 
L 247.559559 201.409796 
L 248.278205 209.632925 
L 250.534617 238.029872 
L 251.88241 250.649101 
L 253.003603 255.686227 
L 253.372373 256.068262 
L 253.548438 256.024024 
L 253.767869 255.766955 
L 255.165802 249.407318 
L 255.857126 243.985061 
L 257.582261 228.779245 
L 259.199844 218.667538 
L 260.161344 216.352092 
L 260.715278 216.343759 
L 261.054389 216.785788 
L 261.880976 219.109287 
L 262.650181 222.506695 
L 264.678252 233.074929 
L 265.432065 235.99035 
L 266.186781 237.696417 
L 266.44146 237.969141 
L 267.210664 237.896747 
L 267.509323 237.54411 
L 268.245566 236.097508 
L 269.493957 232.805991 
L 270.765505 230.080758 
L 271.665928 229.077144 
L 271.93587 228.914157 
L 274.086529 228.183264 
L 275.596433 226.115825 
L 276.418382 224.140414 
L 278.374666 218.606584 
L 279.984541 215.768687 
L 280.726977 215.524677 
L 280.927255 215.580846 
L 281.906521 216.526816 
L 282.598811 217.745353 
L 284.257696 221.724787 
L 284.627641 222.727635 
L 286.82312 229.52317 
L 288.597958 236.917235 
L 291.284199 249.444056 
L 292.12513 251.622176 
L 292.629561 252.024145 
L 292.977318 251.824408 
L 293.158442 251.553393 
L 294.127478 248.027112 
L 294.975433 242.04379 
L 296.178764 229.632528 
L 298.910812 196.855327 
L 299.828083 188.971391 
L 300.50826 185.169497 
L 300.583984 184.866423 
L 301.287847 183.261811 
L 301.554801 183.234891 
L 302.144106 184.300833 
L 302.599996 186.148146 
L 304.643019 202.897389 
L 306.454063 221.575889 
L 307.621263 230.928542 
L 308.113524 233.806165 
L 308.870661 236.944031 
L 309.442618 238.357271 
L 310.597553 239.229076 
L 311.835134 238.396046 
L 313.321868 236.999031 
L 313.708777 236.798193 
L 314.336956 236.726487 
L 314.665437 236.829976 
L 315.142559 237.15946 
L 315.713283 237.817962 
L 316.617198 239.31458 
L 318.269261 242.190436 
L 318.824626 242.726749 
L 319.389353 242.845587 
L 321.861397 237.25866 
L 323.74564 229.635484 
L 324.339332 227.958966 
L 325.660018 227.358808 
L 325.978269 227.988467 
L 327.432259 234.506825 
L 329.469876 248.278427 
L 330.538752 253.42766 
L 332.200582 253.6154 
L 332.266877 253.390548 
L 334.017238 241.274253 
L 335.113529 228.837452 
L 337.963831 191.44065 
L 339.187224 177.978969 
L 340.342628 169.05897 
L 340.716997 167.21086 
L 341.639821 165.219511 
L 341.84678 165.302032 
L 342.238579 165.998364 
L 342.797673 168.188915 
L 342.896009 168.713769 
L 343.57493 173.374422 
L 344.701975 184.314026 
L 347.455982 217.331732 
L 349.620668 242.037476 
L 350.985716 255.190066 
L 351.446405 258.804816 
L 352.3354 264.132018 
L 354.216323 266.804815 
L 354.455568 266.279332 
L 355.757837 260.314738 
L 356.754659 252.628111 
L 357.975957 240.267909 
L 358.836591 230.189901 
L 361.048086 204.472083 
L 361.866354 197.478266 
L 362.135598 195.732041 
L 362.598562 193.488694 
L 363.010863 192.370454 
L 364.431114 195.381493 
L 365.075599 200.170452 
L 365.922208 209.121922 
L 369.066022 249.461455 
L 369.414408 252.70616 
L 370.2269 258.188403 
L 370.874555 260.247261 
L 371.697837 259.788898 
L 372.192873 257.910938 
L 372.61542 255.429022 
L 373.029004 252.290065 
L 374.397591 238.079196 
L 376.466716 213.416465 
L 377.312203 205.658352 
L 378.22213 200.434095 
L 378.376406 199.909884 
L 379.36609 198.980196 
L 379.851103 199.863319 
L 380.59245 202.33424 
L 381.957656 207.511979 
L 382.481562 208.706469 
L 383.080111 209.041324 
L 383.595397 208.314266 
L 384.125137 206.574604 
L 384.492795 204.825499 
L 385.037035 201.574225 
L 387.01576 188.046395 
L 388.331237 184.07884 
L 388.44405 184.110021 
L 389.988141 191.445365 
L 390.737583 199.334768 
L 391.877761 214.876905 
L 393.061828 232.20083 
L 393.978564 244.023076 
L 394.882314 252.954603 
L 396.203564 260.203999 
L 396.70692 261.236224 
L 397.622312 261.110962 
L 398.481786 259.203569 
L 400.022502 253.371638 
L 402.44839 243.934257 
L 403.04429 242.451209 
L 403.766849 241.381031 
L 405.336466 241.997532 
L 406.186427 243.684588 
L 407.757272 247.318282 
L 408.573409 248.479469 
L 409.563893 248.589944 
L 410.579055 247.190475 
L 411.013584 246.212302 
L 412.698309 241.204849 
L 415.640368 231.382937 
L 417.294986 227.237006 
L 418.684861 225.411189 
L 420.503762 223.832033 
L 421.292229 222.53949 
L 422.99559 217.211645 
L 425.079348 208.266095 
L 427.268224 204.475454 
L 427.307866 204.500609 
L 427.806041 205.08989 
L 428.126214 205.713053 
L 428.852197 207.679323 
L 431.489982 216.249254 
L 431.896367 217.212901 
L 433.060194 219.165952 
L 434.076706 220.157063 
L 435.886791 221.650642 
L 438.066373 224.179574 
L 439.317542 224.986982 
L 439.996759 224.805968 
L 440.454944 224.361896 
L 440.614467 224.14115 
L 441.719071 221.609231 
L 441.841652 221.215331 
L 443.119133 215.640346 
L 443.810622 211.382393 
L 444.258812 208.095879 
L 445.310688 198.641283 
L 447.015601 178.869551 
L 448.731051 159.001849 
L 448.996827 156.631596 
L 449.924334 151.232519 
L 450.529477 150.764384 
L 450.529919 150.76506 
L 450.762424 151.337914 
L 451.006037 152.415122 
L 451.2584 154.060367 
L 451.576084 156.911777 
L 452.667419 173.271084 
L 453.170769 183.986377 
L 454.335768 214.543253 
L 456.651402 280.848691 
L 457.846763 305.941586 
L 458.099115 309.738875 
L 458.875418 317.579961 
L 461.100681 306.430434 
L 461.940017 290.832003 
L 463.155228 261.506595 
L 465.395454 206.141178 
L 466.531596 187.266817 
L 467.070561 181.810458 
L 468.293918 178.23755 
L 468.479341 178.699788 
L 469.136506 182.150939 
L 469.425893 184.448291 
L 470.409942 194.738238 
L 472.495122 219.190721 
L 473.54229 227.804284 
L 474.400366 231.868635 
L 474.726155 232.717784 
L 475.273761 233.384474 
L 475.718611 233.32938 
L 476.870358 231.548907 
L 477.881828 229.237312 
L 479.390633 226.48956 
L 480.279095 225.605243 
L 480.867952 225.296392 
L 481.544426 225.195008 
L 481.872251 225.251542 
L 482.475368 225.579981 
L 483.168178 226.437402 
L 483.834795 227.933984 
L 484.858375 231.931495 
L 487.660641 252.64302 
L 488.339398 257.80309 
L 488.965339 261.548473 
L 490.104065 264.414872 
L 490.506568 263.943009 
L 493.057053 243.562342 
L 496.417087 202.250803 
L 497.347293 195.190913 
L 497.5493 194.066804 
L 498.302924 191.210294 
L 498.567919 190.704078 
L 499.829541 191.609459 
L 500.100687 192.449867 
L 500.795093 195.465124 
L 502.045345 203.261596 
L 504.562598 221.414671 
L 505.150692 224.698644 
L 506.233885 228.518949 
L 507.369307 228.906893 
L 507.613039 228.528999 
L 508.222718 227.009632 
L 510.744403 218.500306 
L 511.35973 217.69001 
L 511.736372 217.659419 
L 512.885564 219.687113 
L 513.701599 222.522219 
L 515.174036 227.653638 
L 515.874948 228.895951 
L 516.334215 229.033349 
L 517.098721 228.007108 
L 517.446048 227.070757 
L 519.781476 218.497604 
L 521.156648 218.560212 
L 521.556471 220.110479 
L 522.714203 228.876222 
L 523.939447 243.9378 
L 525.546894 267.062647 
L 526.563671 279.480225 
L 528.414807 288.643748 
L 530.486633 269.787983 
L 530.82809 263.749339 
L 531.977373 239.042802 
L 534.28212 185.591257 
L 534.968888 174.062023 
L 535.429334 168.538363 
L 536.734749 164.471099 
L 537.897419 175.673264 
L 538.670628 189.481576 
L 539.824833 215.388501 
L 540.657478 234.638184 
L 542.435354 265.760888 
L 543.670092 273.876554 
L 544.52819 272.544359 
L 545.408505 266.148903 
L 545.701379 263.110321 
L 546.358083 255.05155 
L 549.486568 210.324629 
L 550.44972 200.284015 
L 550.556018 199.393817 
L 551.596462 193.214502 
L 553.606445 193.951706 
L 554.068207 196.107576 
L 554.865007 201.117298 
L 555.539827 206.356312 
L 558.96019 236.36161 
L 560.338872 244.279453 
L 561.388157 247.33414 
L 561.663117 247.75296 
L 562.381669 248.248482 
L 563.243512 247.959241 
L 563.457979 247.768619 
L 563.993081 247.103552 
L 564.523791 246.158056 
L 565.447394 243.652196 
L 566.233972 240.386826 
L 567.320669 233.832971 
L 568.402438 225.154103 
L 572.691254 186.144502 
L 573.522166 179.995459 
L 574.885203 172.919994 
L 575.134109 172.193629 
L 575.816556 171.301143 
L 576.163925 171.500027 
L 576.319684 171.734772 
L 576.759471 172.875657 
L 577.444664 175.966863 
L 578.65499 184.432904 
L 582.544895 215.527707 
L 583.717303 222.295028 
L 584.318285 225.116053 
L 585.284892 228.690711 
L 586.112997 230.879794 
L 586.997622 232.599757 
L 588.338325 235.07526 
L 588.847848 236.317534 
L 589.515197 238.399372 
L 591.517299 247.875967 
L 593.253495 257.280981 
L 593.718759 259.326155 
L 595.525201 262.891507 
L 595.799991 262.648595 
L 596.075541 262.161559 
L 596.541209 260.758071 
L 597.674429 254.124288 
L 599.34621 236.206822 
L 602.445326 194.035944 
L 602.833678 190.398978 
L 604.532422 185.147254 
L 606.634034 204.55189 
L 607.032473 210.733346 
L 610.342797 266.388713 
L 610.996233 274.419879 
L 613.097333 286.304309 
L 613.995859 284.19781 
L 614.957187 277.230442 
L 615.627167 269.756678 
L 617.183523 246.222379 
L 618.792549 218.811696 
L 621.251663 190.671119 
L 621.897832 188.244365 
L 622.109172 187.925405 
L 622.466636 187.891213 
L 622.720393 188.231721 
L 623.147958 189.430637 
L 623.923093 193.283747 
L 624.106 194.445966 
L 625.567768 205.684822 
L 627.280174 219.506313 
L 629.519958 234.718052 
L 634.716149 266.546629 
L 635.524981 270.403912 
L 637.584136 273.998692 
L 638.223036 272.464764 
L 639.115485 267.788343 
L 639.718021 262.9546 
L 640.682614 252.6581 
L 641.928486 235.751782 
L 647.176579 156.939703 
L 648.272875 144.985733 
L 649.196237 138.096402 
L 649.692322 135.919551 
L 650.136813 135.00121 
L 650.358398 134.93134 
L 650.390345 134.943231 
L 650.781173 135.547553 
L 651.123178 136.788273 
L 651.615682 139.771157 
L 652.063838 143.722282 
L 652.980696 155.373786 
L 653.946579 172.206666 
L 656.996402 233.404236 
L 657.688362 242.68645 
L 657.764443 243.499204 
L 658.556605 249.270544 
L 659.404575 249.896253 
L 659.82419 248.206096 
L 660.569787 242.457523 
L 661.409539 232.941642 
L 663.094471 211.396014 
L 663.857584 203.760707 
L 664.664134 198.890889 
L 664.954734 198.110089 
L 665.085889 197.93863 
L 666.133385 200.679093 
L 666.840452 206.437523 
L 666.935927 207.426706 
L 667.990937 220.92178 
L 670.786493 261.488244 
L 671.263929 266.680074 
L 671.872313 272.068107 
L 672.973595 278.344022 
L 675.727697 279.503114 
L 676.281246 278.203517 
L 677.868424 272.764601 
L 679.055787 267.196181 
L 680.22386 260.342406 
L 682.232061 244.194035 
L 683.677678 228.571231 
L 685.120065 211.632121 
L 686.353933 199.798589 
L 686.964565 196.110118 
L 687.123191 195.460941 
L 687.876546 194.331837 
L 688.318727 195.246596 
L 688.800373 197.566042 
L 689.378282 202.032275 
L 689.828034 206.588694 
L 692.665169 240.036101 
L 693.31976 243.939211 
L 694.039525 244.712517 
L 694.241032 244.213593 
L 694.589392 242.607658 
L 695.047393 239.113951 
L 695.939482 228.423276 
L 697.318412 206.217338 
L 697.601229 201.575441 
L 698.718518 185.654837 
L 699.930755 175.875712 
L 700.168714 175.062263 
L 700.775089 174.602153 
L 701.185316 175.505338 
L 701.640086 177.493854 
L 702.458179 183.080913 
L 705.98126 213.680245 
L 707.18593 221.846565 
L 709.549501 236.629152 
L 711.746414 252.510012 
L 714.109984 270.932997 
L 715.600585 280.513535 
L 716.30069 283.696478 
L 717.032076 285.74675 
L 717.689011 286.235057 
L 717.917204 286.063107 
L 718.681925 284.04804 
L 719.401495 279.931164 
L 721.710211 251.27242 
L 723.429804 219.112172 
L 724.851597 193.675255 
L 725.146605 189.248364 
L 725.971918 179.201262 
L 726.410675 175.440997 
L 727.613503 171.035317 
L 727.990288 171.311891 
L 728.704495 173.58116 
L 730.134694 182.207156 
L 731.035015 187.932499 
L 731.672522 191.140654 
L 732.657966 193.979488 
L 733.449284 194.406724 
L 733.966092 194.067065 
L 734.557919 193.472243 
L 735.196609 193.117787 
L 735.611886 193.336441 
L 735.762669 193.542214 
L 736.386868 195.293982 
L 737.268367 200.717053 
L 737.874591 206.612684 
L 738.885881 219.929263 
L 741.398644 259.306345 
L 742.033334 267.140049 
L 742.930862 274.811931 
L 744.127867 277.859117 
L 744.222324 277.748208 
L 745.643958 270.73084 
L 746.662834 261.107533 
L 748.77489 236.618086 
L 752.922286 188.183432 
L 753.669095 180.690658 
L 754.838108 172.108163 
L 755.391242 169.913984 
L 756.04858 169.162587 
L 756.185676 169.271019 
L 756.743444 170.659419 
L 756.92299 171.424656 
L 757.515123 174.993494 
L 758.229579 181.249341 
L 758.950473 189.385379 
L 760.191212 206.583498 
L 764.599486 275.049665 
L 765.321756 282.848659 
L 765.856324 287.203163 
L 768.678668 287.170042 
L 770.133892 273.945004 
L 770.261248 272.501018 
L 774.124315 223.359455 
L 775.519393 209.560817 
L 776.360503 203.651206 
L 776.844612 201.197898 
L 777.499847 199.035644 
L 777.855102 198.423891 
L 778.203795 198.20016 
L 779.040269 199.107503 
L 779.210805 199.525851 
L 780.264975 203.616428 
L 781.428031 210.48024 
L 781.929547 213.961682 
L 785.106315 237.461841 
L 785.870594 241.902929 
L 787.494776 247.184706 
L 788.344386 247.310169 
L 789.1379 245.907286 
L 789.978938 243.206016 
L 792.380325 233.723107 
L 792.956029 232.004654 
L 794.615051 229.113696 
L 795.02986 228.739076 
L 796.009964 227.976878 
L 797.510869 226.152201 
L 798.012955 225.246119 
L 800.856522 220.444693 
L 801.506935 220.534568 
L 802.16145 221.435443 
L 803.42075 225.509756 
L 805.41386 235.559655 
L 806.693665 240.382567 
L 807.021898 240.952541 
L 807.693344 240.963146 
L 808.55403 238.41318 
L 809.393455 233.065646 
L 810.714004 219.915932 
L 813.114513 191.887353 
L 814.024945 183.988327 
L 814.605169 180.464478 
L 815.274487 178.017203 
L 815.701856 177.366502 
L 816.333338 177.637005 
L 816.474612 177.884519 
L 817.122599 179.788182 
L 818.071602 184.363722 
L 820.614137 199.839138 
L 822.365908 208.462602 
L 824.761312 219.369548 
L 826.002742 226.305638 
L 830.008291 250.553339 
L 830.570647 253.32904 
L 831.691955 257.847153 
L 832.527405 259.996155 
L 834.12378 259.616903 
L 834.53757 258.25776 
L 835.490535 252.780814 
L 837.23948 234.24678 
L 838.592799 214.551231 
L 840.502064 186.875789 
L 841.594685 175.148462 
L 842.226469 170.598726 
L 842.80107 168.096539 
L 843.076495 167.479879 
L 843.814976 167.751538 
L 844.265142 169.309674 
L 844.757066 172.211271 
L 845.587841 179.843366 
L 847.432654 206.693853 
L 849.637255 243.989942 
L 851.288445 263.784368 
L 853.399258 273.749737 
L 853.624101 274.065955 
L 854.092046 274.473765 
L 855.6795 274.972031 
L 857.780524 277.296647 
L 859.900006 278.630224 
L 862.211125 266.794058 
L 863.205087 255.113108 
L 864.051189 242.191045 
L 865.561507 214.423787 
L 867.634315 174.856936 
L 868.669446 158.281953 
L 869.880123 144.152045 
L 870.341668 140.646786 
L 870.886521 138.047694 
L 871.987241 138.397827 
L 872.764859 143.488717 
L 873.302375 149.40449 
L 874.329959 165.932321 
L 875.808054 199.697133 
L 878.432919 271.446825 
L 881.160369 330.879022 
L 881.160369 330.879022 
" style="fill:none;stroke:#9c00ff;stroke-linecap:square;stroke-width:1.5;"/>
   </g>
   <g id="line2d_15">
    <path clip-path="url(#pa26d448de0)" d="M 69.524006 167.621178 
L 70.665126 149.012464 
L 73.084342 108.993404 
L 73.984639 97.564432 
L 74.825129 89.956229 
L 75.517877 86.107449 
L 75.846139 85.023385 
L 76.778526 84.177298 
L 77.032177 84.410453 
L 78.075912 86.553692 
L 78.863384 88.477002 
L 79.925068 89.994916 
L 80.253529 90.065125 
L 81.329477 88.981239 
L 81.386914 88.878006 
L 83.149136 85.460706 
L 83.5301 85.09497 
L 84.563988 85.66701 
L 85.177221 87.251626 
L 85.810342 89.846894 
L 87.087518 97.510499 
L 88.499284 108.596827 
L 89.276582 115.728672 
L 90.683242 131.512393 
L 91.919647 150.230422 
L 92.674872 164.573709 
L 94.23259 201.075684 
L 97.172922 277.335752 
L 97.395736 282.107074 
L 98.816956 304.496769 
L 99.615385 309.710331 
L 100.791293 306.804365 
L 101.302004 301.806582 
L 102.771974 277.5217 
L 105.921837 212.516577 
L 106.797803 199.823159 
L 107.745329 190.268429 
L 109.37156 182.52852 
L 109.956168 181.763757 
L 111.333958 182.929462 
L 111.954329 184.66042 
L 113.389632 191.936038 
L 113.946591 196.289931 
L 114.502104 201.668346 
L 115.324381 211.708162 
L 116.651228 233.140722 
L 117.994826 259.86225 
L 120.402929 308.753429 
L 121.370478 324.657188 
L 122.364923 337.246934 
L 127.385731 334.084672 
L 127.995476 325.969229 
L 129.102209 307.473669 
L 129.362482 302.516252 
L 130.969523 268.486843 
L 134.05416 202.521475 
L 135.119395 184.568904 
L 135.766623 175.544285 
L 137.17832 160.989119 
L 137.941518 155.907508 
L 138.945272 151.955094 
L 139.208866 151.41079 
L 139.704138 150.934914 
L 141.666638 156.031237 
L 142.28635 159.850426 
L 143.072062 165.942135 
L 146.619652 197.359257 
L 147.416894 202.14151 
L 148.895605 207.782085 
L 150.873794 213.11295 
L 151.477898 215.432779 
L 152.421039 220.326114 
L 153.456088 227.394224 
L 155.312921 241.280264 
L 156.716201 247.57999 
L 157.242747 247.89881 
L 157.5825 247.348128 
L 158.298388 244.043002 
L 158.749262 240.391048 
L 160.080543 222.653977 
L 161.520811 194.232327 
L 164.340714 134.476924 
L 165.120994 121.857257 
L 165.975023 111.154398 
L 167.031801 102.447044 
L 167.385361 100.588011 
L 168.007706 98.494443 
L 168.50023 97.836745 
L 169.014264 98.034721 
L 169.317669 98.559647 
L 169.658922 99.503897 
L 170.781592 105.219731 
L 171.509173 111.072859 
L 172.314711 119.573566 
L 173.13825 130.528788 
L 174.153835 147.324092 
L 175.357083 172.141652 
L 176.835386 210.001066 
L 178.068126 246.950599 
L 180.903223 337.954895 
L 183.616299 404.592121 
L 184.147894 412.748232 
L 185.081367 422.312727 
L 187.402122 418.670307 
L 188.693864 401.018398 
L 189.752458 380.199742 
L 193.560545 288.885183 
L 195.405648 253.56616 
L 196.766543 234.771103 
L 198.691089 214.639515 
L 200.536192 195.722525 
L 204.491887 151.751848 
L 205.554875 143.728181 
L 206.432445 139.85203 
L 207.017545 138.894759 
L 207.205225 138.883226 
L 207.709094 139.585982 
L 207.91225 140.175823 
L 208.279244 141.69058 
L 209.15958 147.653717 
L 209.962507 155.821015 
L 210.992928 169.659486 
L 212.419514 193.555502 
L 215.254505 245.353714 
L 215.756132 253.111829 
L 217.140426 268.771003 
L 217.865361 272.666533 
L 217.921531 272.829035 
L 218.79064 272.695903 
L 219.006026 271.891466 
L 220.370918 260.020681 
L 221.118353 249.102353 
L 222.271792 227.624924 
L 223.958459 190.706412 
L 225.783224 152.272138 
L 226.77555 135.784525 
L 227.781704 124.235329 
L 228.250982 120.960384 
L 229.112517 118.783743 
L 229.801187 120.749999 
L 230.23292 123.674578 
L 231.079822 133.11301 
L 231.775903 144.346413 
L 232.723572 164.067506 
L 233.616275 186.259669 
L 236.111602 251.411288 
L 237.073645 269.672934 
L 237.198146 271.4818 
L 237.915313 278.96786 
L 238.730803 280.92309 
L 239.150126 279.16088 
L 240.582363 260.810178 
L 241.6927 238.072467 
L 242.577601 218.967743 
L 243.890153 195.677518 
L 244.850731 185.842437 
L 245.100781 184.480316 
L 245.501425 183.35142 
L 246.823244 188.25445 
L 247.559559 195.7917 
L 248.278205 205.462683 
L 250.534617 240.965044 
L 251.88241 258.179627 
L 253.003603 266.365136 
L 253.548438 267.88512 
L 253.767869 268.031242 
L 255.165802 263.224552 
L 255.857126 257.956456 
L 257.582261 241.835184 
L 259.199844 230.122503 
L 260.161344 226.964291 
L 260.715278 226.588727 
L 261.054389 226.858891 
L 261.880976 228.943937 
L 262.650181 232.34298 
L 265.432065 246.905936 
L 266.186781 248.914512 
L 266.44146 249.266833 
L 267.210664 249.340896 
L 267.509323 249.001323 
L 268.245566 247.46959 
L 270.765505 239.867979 
L 271.93587 237.384466 
L 274.086529 233.657388 
L 275.635856 229.189296 
L 278.374666 218.361715 
L 279.984541 214.593206 
L 280.726977 214.309662 
L 280.927255 214.401552 
L 281.906521 215.814079 
L 282.598811 217.653198 
L 284.142036 223.499446 
L 284.627641 225.68269 
L 286.82312 237.003861 
L 289.822118 255.196138 
L 291.284199 261.709061 
L 291.925248 262.816839 
L 292.12513 262.860312 
L 292.629561 262.240185 
L 293.158442 260.362745 
L 294.127478 253.388509 
L 294.975433 243.545828 
L 296.178764 224.626491 
L 298.910812 176.08276 
L 300.111936 160.929055 
L 300.583984 156.996474 
L 301.287847 153.561159 
L 301.554801 153.047807 
L 302.144106 153.461587 
L 302.599996 155.207196 
L 304.643019 175.578877 
L 307.621263 217.129032 
L 308.113524 222.628918 
L 309.442618 234.196886 
L 310.597553 240.799981 
L 311.835134 245.51262 
L 315.142559 255.764568 
L 318.269261 267.573336 
L 318.824626 268.921705 
L 319.389353 269.749947 
L 321.731654 266.528313 
L 322.492474 263.727757 
L 323.74564 259.128421 
L 324.339332 257.615309 
L 325.660018 257.341531 
L 325.978269 258.033468 
L 327.736063 266.455808 
L 328.806983 273.209804 
L 329.469876 276.709754 
L 330.538752 279.507553 
L 332.266877 272.582598 
L 334.017238 249.283342 
L 335.113529 228.030124 
L 337.963831 165.568132 
L 339.187224 142.758115 
L 340.342628 127.084042 
L 340.716997 123.594806 
L 341.639821 118.857503 
L 341.84678 118.590593 
L 342.238579 118.900715 
L 342.797673 121.168635 
L 342.896009 121.783406 
L 343.57493 127.677716 
L 344.701975 142.908284 
L 346.211728 170.232908 
L 350.202152 249.568771 
L 351.446405 269.384684 
L 352.3354 279.841619 
L 354.216323 288.893369 
L 354.455568 288.715966 
L 355.757837 282.861423 
L 356.754659 273.41229 
L 357.975957 257.212381 
L 358.836591 243.714365 
L 361.048086 208.960232 
L 361.866354 199.329603 
L 362.598562 193.592425 
L 363.010863 191.784686 
L 364.431114 194.159003 
L 365.075599 199.515155 
L 365.922208 209.887814 
L 369.414408 261.871314 
L 370.2269 268.376346 
L 370.874555 270.662711 
L 371.697837 269.631275 
L 372.192873 266.920091 
L 372.61542 263.436584 
L 373.029004 259.065754 
L 374.397591 239.189374 
L 377.312203 189.892166 
L 378.376406 177.783606 
L 379.36609 171.356952 
L 379.851103 169.747343 
L 380.457139 168.794964 
L 380.59245 168.69883 
L 381.957656 168.376898 
L 382.481562 167.811839 
L 383.080111 166.385217 
L 383.792453 163.394538 
L 384.492795 159.158717 
L 386.177099 146.767277 
L 387.01576 142.110668 
L 388.331237 141.396502 
L 388.44405 141.829785 
L 389.988141 156.62611 
L 390.737583 169.362125 
L 391.877761 193.497939 
L 393.978564 240.522863 
L 394.882314 257.128736 
L 396.203564 274.739635 
L 396.70692 279.330383 
L 397.622312 285.018382 
L 398.481786 287.752714 
L 399.512249 288.588359 
L 399.635862 288.55545 
L 400.022502 288.314915 
L 402.44839 284.911892 
L 403.04429 284.383253 
L 403.766849 284.28159 
L 405.336466 286.452972 
L 407.757272 292.858742 
L 408.573409 293.944974 
L 409.563893 293.584469 
L 410.579055 291.221593 
L 411.013584 289.675267 
L 412.698309 281.594153 
L 413.597213 276.403863 
L 417.294986 253.861537 
L 419.695231 242.477255 
L 421.292229 234.397655 
L 422.99559 222.799395 
L 425.079348 206.885493 
L 427.307866 197.35246 
L 427.806041 196.953877 
L 428.126214 197.001798 
L 428.852197 197.830401 
L 429.81766 199.922519 
L 431.489982 203.797003 
L 431.896367 204.486889 
L 433.060194 205.671362 
L 433.616937 205.860115 
L 434.174908 205.865215 
L 434.755058 205.733171 
L 435.886791 205.241587 
L 437.798507 203.544354 
L 438.066373 203.110671 
L 439.317542 199.857336 
L 440.223996 195.850969 
L 440.614467 193.625918 
L 441.841652 184.580418 
L 443.234192 170.557903 
L 444.258812 157.731417 
L 445.310688 142.520763 
L 448.069144 100.731569 
L 448.731051 93.750704 
L 448.996827 91.709168 
L 449.924334 89.014621 
L 450.647194 92.654027 
L 451.006037 96.576794 
L 451.576084 105.838053 
L 452.968571 143.701916 
L 453.832983 176.376037 
L 457.499119 326.850083 
L 458.099115 343.193652 
L 458.875418 357.667931 
L 461.100681 353.776233 
L 461.370743 348.992046 
L 462.395564 324.22682 
L 463.155228 300.873968 
L 465.395454 227.289894 
L 466.531596 198.544344 
L 467.070561 188.770446 
L 468.293918 176.929115 
L 468.479341 176.35978 
L 469.02555 176.378459 
L 469.136506 176.669963 
L 469.425893 177.842622 
L 469.901216 180.915308 
L 470.943816 191.200633 
L 473.224338 216.589702 
L 473.54229 219.307298 
L 474.726155 226.524231 
L 475.273761 228.375185 
L 475.718611 229.302906 
L 476.847334 230.069261 
L 476.870358 230.070013 
L 477.881828 229.949772 
L 479.333589 230.391647 
L 479.816606 230.882986 
L 480.607366 232.082998 
L 481.430841 233.842782 
L 481.872251 235.016217 
L 482.992292 238.937336 
L 483.834795 243.128322 
L 484.858375 250.149847 
L 488.339398 283.926724 
L 488.965339 288.028924 
L 490.077694 290.217752 
L 490.104065 290.177082 
L 490.506568 288.986017 
L 493.057053 258.392915 
L 495.070897 218.998427 
L 496.417087 195.090312 
L 497.449641 181.193466 
L 498.139985 174.632977 
L 498.567919 171.729331 
L 499.897778 168.240381 
L 500.100687 168.39393 
L 500.572175 169.372978 
L 500.795093 170.11762 
L 501.547631 173.78979 
L 502.700468 182.011224 
L 505.150692 201.682742 
L 506.233885 207.378197 
L 507.369307 209.718092 
L 507.613039 209.74467 
L 508.222718 209.209368 
L 508.972554 207.735106 
L 509.932899 205.573958 
L 510.332843 204.912312 
L 510.744403 204.528446 
L 511.217217 204.561752 
L 511.35973 204.683455 
L 511.736372 205.268313 
L 512.885564 209.331977 
L 513.701599 213.7887 
L 515.174036 222.277463 
L 515.874948 225.333445 
L 516.334215 226.743336 
L 517.098721 228.000083 
L 517.446048 228.176171 
L 518.057943 228.088575 
L 518.582825 227.869282 
L 519.781476 228.596938 
L 521.156648 235.361704 
L 521.556471 239.042389 
L 522.714203 254.282439 
L 523.939447 276.260044 
L 525.546894 307.226998 
L 526.563671 323.010607 
L 528.414807 333.348736 
L 530.486633 307.002524 
L 530.82809 298.92187 
L 531.977373 266.187282 
L 534.28212 195.304912 
L 534.968888 179.451943 
L 535.429334 171.483658 
L 536.734749 162.923842 
L 537.897419 173.428272 
L 538.670628 188.398741 
L 539.675673 213.862402 
L 540.657478 240.72768 
L 542.435354 279.74181 
L 543.670092 291.916195 
L 544.52819 292.104111 
L 545.408505 285.967286 
L 545.701379 282.718598 
L 546.358083 273.67823 
L 550.44972 203.726761 
L 550.556018 202.425559 
L 551.596462 192.702364 
L 553.606445 189.970274 
L 554.068207 192.047398 
L 554.337012 193.646133 
L 554.865007 197.53055 
L 555.539827 203.715828 
L 557.720843 228.848989 
L 558.96019 242.665956 
L 560.338872 253.859926 
L 561.388157 258.378092 
L 561.663117 258.985933 
L 562.381669 259.53988 
L 563.079901 258.773407 
L 563.457979 257.864156 
L 563.993081 255.998261 
L 564.523791 253.456727 
L 565.447394 247.225279 
L 566.233972 239.88362 
L 567.533247 223.446745 
L 568.402438 209.86853 
L 572.691254 137.052716 
L 573.522166 125.683029 
L 574.885203 112.143157 
L 575.134109 110.558835 
L 575.816556 107.866452 
L 576.163925 107.467504 
L 576.319684 107.504775 
L 576.759471 108.324318 
L 577.395303 111.290853 
L 577.444664 111.603592 
L 578.103551 116.785886 
L 579.032614 126.672133 
L 580.880167 150.898812 
L 583.717303 188.275368 
L 585.284892 205.790502 
L 586.997622 221.536274 
L 589.515197 242.944525 
L 592.898808 274.709067 
L 593.718759 280.339495 
L 595.525201 284.784782 
L 595.799991 284.275707 
L 596.075541 283.41583 
L 596.541209 281.146344 
L 597.674429 271.261133 
L 599.793308 238.168166 
L 601.671753 203.144217 
L 602.833678 187.022604 
L 604.532422 181.147575 
L 606.634034 207.729618 
L 607.032473 216.149388 
L 610.342797 294.744056 
L 610.996233 306.922499 
L 613.097333 327.789528 
L 613.995859 326.934734 
L 614.957187 319.457302 
L 615.627167 310.557864 
L 616.956862 285.8057 
L 618.792549 244.661419 
L 621.251663 203.372818 
L 622.109172 197.375277 
L 622.466636 196.298073 
L 622.720393 196.020418 
L 623.147958 196.417701 
L 623.923093 199.614583 
L 624.106 200.774227 
L 625.196162 210.126138 
L 626.45706 224.236604 
L 632.685951 299.537898 
L 634.587477 317.124291 
L 634.716149 318.022143 
L 635.524981 322.462387 
L 637.584136 321.084451 
L 638.223036 315.943557 
L 639.115485 304.553259 
L 640.092865 286.561278 
L 640.986814 265.620366 
L 642.645721 218.642308 
L 646.488969 102.228169 
L 647.850151 69.295097 
L 648.272875 60.970832 
L 649.536897 43.152409 
L 649.878345 40.412829 
L 650.390345 38.128393 
L 650.781173 37.912922 
L 650.947338 38.231055 
L 651.123178 38.836335 
L 651.615682 42.006343 
L 652.063838 46.766741 
L 652.980696 61.830112 
L 653.946579 84.44999 
L 657.419115 181.573546 
L 657.764443 188.595202 
L 658.556605 200.847972 
L 659.404575 207.706174 
L 659.82419 208.810294 
L 660.354818 208.304449 
L 660.784495 206.587265 
L 661.409539 202.553688 
L 663.094471 189.051044 
L 663.857584 185.110329 
L 664.406691 184.222659 
L 664.777728 184.757424 
L 665.085889 185.961696 
L 666.133385 195.452089 
L 666.935927 208.111447 
L 667.990937 230.252293 
L 671.178832 303.355765 
L 671.872313 315.169292 
L 672.973595 329.164939 
L 675.727697 341.568724 
L 675.823897 341.525043 
L 676.281246 340.942707 
L 677.572917 336.12639 
L 678.241638 331.882862 
L 679.055787 325.165747 
L 680.22386 312.599862 
L 682.232061 282.900532 
L 683.677678 255.977502 
L 685.89501 214.454624 
L 686.66811 203.563284 
L 687.123191 198.740082 
L 687.876546 193.796908 
L 688.318727 192.764174 
L 688.653229 192.895922 
L 688.800373 193.194311 
L 689.378282 195.681929 
L 689.828034 198.883903 
L 692.665169 225.260106 
L 693.248397 227.238169 
L 693.31976 227.311023 
L 694.039525 225.751399 
L 694.241032 224.538215 
L 694.589392 221.633925 
L 695.047393 216.315691 
L 695.939482 201.74984 
L 698.718518 146.770194 
L 699.930755 133.480639 
L 700.168714 132.220524 
L 700.775089 131.042668 
L 701.185316 131.824774 
L 701.640086 134.040379 
L 702.210996 138.556493 
L 702.458179 141.017546 
L 704.378279 166.476798 
L 707.18593 209.387575 
L 709.549501 247.152783 
L 712.98132 305.086705 
L 714.109984 321.971683 
L 715.032818 333.444252 
L 715.600585 339.074087 
L 716.30069 344.175884 
L 717.032076 346.975502 
L 717.689011 346.973966 
L 717.917204 346.366268 
L 718.681925 341.879735 
L 719.401495 334.026804 
L 721.710211 285.165014 
L 723.429804 232.472259 
L 725.146605 181.273047 
L 726.410675 153.253953 
L 727.613503 137.585123 
L 727.990288 134.881437 
L 728.704495 132.273466 
L 729.546143 132.57114 
L 730.248863 134.640737 
L 731.672522 140.44872 
L 732.657966 143.781748 
L 734.557919 148.652101 
L 735.196609 151.306589 
L 735.762669 154.859184 
L 736.386868 160.525365 
L 737.268367 172.205019 
L 737.874591 182.805665 
L 738.885881 204.438968 
L 741.398644 263.89059 
L 742.033334 275.864734 
L 742.930862 288.242972 
L 744.222324 295.054242 
L 745.643958 287.847844 
L 746.662834 275.227578 
L 747.415064 263.230006 
L 749.646359 221.092803 
L 752.922286 156.898934 
L 753.669095 144.894857 
L 754.838108 131.38433 
L 755.391242 127.924743 
L 756.04858 126.652033 
L 756.185676 126.790802 
L 756.743444 128.806449 
L 756.92299 129.946313 
L 757.515123 135.343164 
L 758.229579 144.984591 
L 758.950473 157.762702 
L 760.191212 185.423767 
L 764.599486 300.576602 
L 765.856324 323.310626 
L 768.678668 334.927124 
L 769.966549 322.754442 
L 770.261248 318.788336 
L 771.93313 290.721704 
L 774.124315 248.986699 
L 775.519393 225.923539 
L 776.844612 209.981456 
L 777.790834 203.126027 
L 778.203795 201.395783 
L 779.040269 200.200047 
L 779.210805 200.320515 
L 779.97577 202.258154 
L 780.264975 203.541948 
L 781.428031 211.263929 
L 781.929547 215.630178 
L 785.870594 256.450151 
L 787.494776 267.201953 
L 788.344386 269.655698 
L 789.1379 270.002093 
L 789.978938 268.676377 
L 792.956029 258.699226 
L 794.838504 254.280767 
L 796.009964 252.112002 
L 797.894717 247.29102 
L 798.012955 246.913802 
L 800.856522 238.340738 
L 801.506935 237.516697 
L 802.16145 237.448495 
L 803.42075 239.404763 
L 805.41386 244.74902 
L 806.693665 245.104524 
L 807.021898 244.298111 
L 807.693344 241.179695 
L 808.55403 234.00551 
L 809.393455 223.535944 
L 810.714004 201.409416 
L 813.114513 156.583135 
L 814.024945 143.134595 
L 815.051372 132.64182 
L 815.701856 128.865489 
L 816.333338 127.329165 
L 816.474612 127.260271 
L 816.88541 127.595782 
L 817.122599 128.13273 
L 818.071602 132.44419 
L 819.644298 144.79694 
L 821.69478 164.460262 
L 823.174063 179.440853 
L 825.357912 204.41736 
L 829.303808 252.620642 
L 830.346754 262.382696 
L 830.570647 264.172247 
L 831.691955 271.151797 
L 832.527405 273.783333 
L 834.12378 270.84766 
L 834.53757 268.075811 
L 835.490535 258.241554 
L 837.23948 228.389627 
L 838.592799 198.215545 
L 840.929919 148.435989 
L 841.73205 136.380997 
L 842.583223 128.061016 
L 843.076495 125.607826 
L 843.782199 125.314082 
L 843.814976 125.39429 
L 844.265142 127.344472 
L 844.757066 131.274701 
L 845.587841 142.033285 
L 847.432654 181.323214 
L 849.637255 239.978132 
L 851.288445 277.008474 
L 853.624101 308.715287 
L 854.092046 312.621071 
L 855.6795 322.299066 
L 857.650642 328.966443 
L 857.780524 329.164312 
L 859.900006 324.704914 
L 862.211125 293.724562 
L 863.500942 261.851973 
L 864.730461 223.4837 
L 868.397268 100.812808 
L 868.669446 93.374716 
L 869.880123 66.3217 
L 870.341668 59.035009 
L 870.886521 52.89151 
L 871.987241 49.332193 
L 872.764859 54.373024 
L 873.302375 61.554941 
L 874.329959 83.298397 
L 875.808054 130.111375 
L 878.297307 229.499143 
L 878.432919 234.953432 
L 881.160369 330.34622 
L 881.160369 330.34622 
" style="fill:none;stroke:#2931b3;stroke-linecap:square;stroke-width:1.5;"/>
   </g>
   <g id="line2d_16">
    <path clip-path="url(#pa26d448de0)" d="M 69.524006 161.963494 
L 71.006245 136.392938 
L 73.084342 100.879421 
L 73.984639 88.770994 
L 74.825129 80.391647 
L 75.846139 74.288119 
L 76.931327 72.023176 
L 77.032177 71.977665 
L 78.075912 72.38317 
L 78.863384 72.906252 
L 79.785094 72.669033 
L 80.253529 71.997627 
L 81.386914 68.88336 
L 83.256925 62.536973 
L 83.5301 61.930819 
L 84.563988 61.17213 
L 84.847673 61.436634 
L 85.177221 62.003964 
L 85.810342 63.835451 
L 86.664503 67.626524 
L 87.805869 74.388511 
L 88.958188 82.640149 
L 89.276582 85.192224 
L 90.683242 98.66747 
L 91.919647 115.029069 
L 92.674872 127.796001 
L 94.23259 160.884466 
L 97.395736 236.58625 
L 98.816956 258.69325 
L 99.615385 264.604425 
L 100.791293 263.92819 
L 101.302004 260.331809 
L 102.368893 247.556477 
L 103.634089 226.675916 
L 105.306792 199.05382 
L 105.921837 190.961051 
L 106.797803 182.279085 
L 107.745329 176.71974 
L 109.209619 174.563534 
L 109.37156 174.685852 
L 109.956168 175.561808 
L 111.577457 180.64642 
L 111.954329 182.30008 
L 113.562204 191.902075 
L 114.502104 200.212539 
L 115.324381 209.636012 
L 116.651228 229.263083 
L 117.994826 253.349432 
L 120.402929 296.592611 
L 121.370478 310.317907 
L 122.364923 320.939136 
L 127.385731 314.740165 
L 127.995476 307.112408 
L 129.102209 289.915322 
L 129.362482 285.332265 
L 130.969523 254.051985 
L 134.05416 193.897251 
L 135.119395 177.492687 
L 135.766623 169.176282 
L 137.17832 155.426296 
L 137.941518 150.320242 
L 138.945272 145.833408 
L 139.623001 144.168563 
L 139.704138 144.042579 
L 141.666638 145.86121 
L 142.28635 148.332586 
L 143.072062 152.562243 
L 146.262191 173.155936 
L 146.619652 174.833891 
L 147.416894 177.664548 
L 148.895605 179.945557 
L 149.730279 180.330401 
L 150.873794 181.319005 
L 151.477898 182.548124 
L 152.112203 184.579989 
L 152.656473 186.961355 
L 153.456088 191.407343 
L 155.312921 203.422995 
L 156.716201 209.42687 
L 157.242747 209.960957 
L 157.5825 209.654897 
L 158.082767 208.180586 
L 158.52655 205.794725 
L 158.749262 204.206524 
L 160.080543 189.474692 
L 161.520811 165.691611 
L 163.394938 131.857964 
L 164.697048 112.934801 
L 165.586064 103.878926 
L 165.975023 100.987079 
L 166.921268 96.570919 
L 167.385361 95.663822 
L 167.88317 95.521554 
L 168.007706 95.612232 
L 168.50023 96.436663 
L 169.317669 99.342902 
L 169.658922 101.092911 
L 171.105567 111.90284 
L 171.782256 118.8562 
L 172.844963 132.308065 
L 173.886805 148.646677 
L 174.718676 164.067946 
L 176.089309 194.312629 
L 177.521742 232.098785 
L 180.903223 332.256898 
L 183.616299 393.540457 
L 184.147894 401.021612 
L 185.081367 409.819839 
L 187.402122 406.901671 
L 188.693864 391.254034 
L 189.752458 372.76065 
L 193.560545 291.723564 
L 195.405648 260.472145 
L 196.766543 243.742031 
L 198.870866 223.494081 
L 200.536192 206.607271 
L 201.31694 197.687431 
L 204.491887 160.623324 
L 205.554875 151.270125 
L 206.432445 145.942587 
L 207.205225 143.398381 
L 207.709094 142.915352 
L 207.91225 142.991013 
L 208.279244 143.524297 
L 209.15958 146.861682 
L 209.962507 152.319521 
L 210.992928 162.306369 
L 212.419514 180.405945 
L 215.254505 220.958145 
L 215.756132 227.039302 
L 216.927695 237.698563 
L 217.140426 238.975003 
L 217.570266 240.84547 
L 217.921531 241.636366 
L 218.79064 240.622806 
L 219.006026 239.713361 
L 220.370918 228.208817 
L 221.118353 218.198653 
L 222.528915 194.189462 
L 226.206522 126.58441 
L 226.77555 118.945203 
L 227.781704 109.168711 
L 228.250982 106.462885 
L 229.068974 104.825893 
L 229.112517 104.851741 
L 229.801187 106.80381 
L 230.23292 109.508097 
L 231.079822 118.063699 
L 231.775903 128.168156 
L 232.723572 145.887356 
L 233.616275 165.876188 
L 236.111602 225.11379 
L 237.073645 241.948948 
L 237.198146 243.629541 
L 237.915313 250.659552 
L 238.730803 252.713471 
L 239.150126 251.261096 
L 240.582363 235.180667 
L 241.6927 215.196495 
L 242.577601 198.609461 
L 243.890153 179.051837 
L 244.850731 171.601708 
L 245.100781 170.78206 
L 245.501425 170.443311 
L 246.823244 177.202532 
L 247.559559 185.272204 
L 248.278205 195.155564 
L 250.534617 230.073459 
L 251.88241 246.767912 
L 253.003603 254.83509 
L 253.548438 256.456582 
L 253.767869 256.676375 
L 255.165802 252.782442 
L 255.857126 248.221632 
L 257.582261 234.327516 
L 259.199844 224.797008 
L 260.161344 222.750625 
L 260.715278 222.914269 
L 261.054389 223.473655 
L 261.880976 226.130617 
L 262.650181 229.900261 
L 264.678252 241.619149 
L 265.432065 244.948087 
L 266.186781 247.012627 
L 266.44146 247.388756 
L 267.210664 247.561713 
L 267.509323 247.274003 
L 268.245566 245.90719 
L 270.765505 239.254149 
L 271.93587 237.357383 
L 274.086529 234.811619 
L 275.635856 231.199853 
L 276.84691 227.029793 
L 278.374666 221.572098 
L 279.984541 218.05057 
L 280.726977 217.708687 
L 280.927255 217.764021 
L 281.906521 218.865314 
L 282.598811 220.350758 
L 284.142036 225.033009 
L 284.627641 226.755204 
L 286.82312 235.623359 
L 288.908176 245.937445 
L 289.822118 250.620428 
L 291.284199 256.367235 
L 291.925248 257.425296 
L 292.12513 257.494625 
L 292.629561 257.032277 
L 293.158442 255.467361 
L 294.127478 249.46234 
L 294.975433 240.869584 
L 296.178764 224.257027 
L 298.910812 181.856298 
L 300.111936 168.989043 
L 300.583984 165.778295 
L 301.287847 163.191793 
L 301.554801 162.923822 
L 302.144106 163.723955 
L 302.599996 165.620754 
L 304.643019 185.221039 
L 307.621263 223.143867 
L 308.113524 228.000284 
L 308.870661 234.239751 
L 309.442618 238.004801 
L 310.597553 243.537414 
L 311.835134 247.422728 
L 314.336956 253.972907 
L 315.142559 256.615509 
L 318.269261 268.034632 
L 318.824626 269.335824 
L 319.389353 270.119864 
L 321.824798 266.331043 
L 322.492474 263.709884 
L 323.74564 258.674739 
L 324.339332 256.851076 
L 325.660018 255.611265 
L 325.978269 256.01528 
L 327.432259 261.055346 
L 329.469876 271.020816 
L 330.538752 273.048301 
L 332.266877 265.955843 
L 334.017238 244.17615 
L 335.113529 224.689777 
L 337.963831 168.259759 
L 339.187224 147.787789 
L 340.342628 133.677497 
L 340.716997 130.515084 
L 341.639821 126.145725 
L 341.84678 125.870889 
L 342.238579 126.072162 
L 342.797673 127.970508 
L 342.896009 128.494301 
L 343.57493 133.55283 
L 344.701975 146.644904 
L 346.211728 169.910673 
L 350.202152 236.421926 
L 351.446405 253.070075 
L 352.3354 261.82476 
L 354.216323 269.115334 
L 354.455568 268.900693 
L 355.757837 263.546947 
L 356.754659 255.193179 
L 357.975957 240.949258 
L 358.836591 229.059277 
L 361.048086 198.21384 
L 361.866354 189.589283 
L 362.598562 184.419439 
L 363.010863 182.774273 
L 364.431114 184.791833 
L 365.075599 189.534095 
L 365.922208 198.738113 
L 369.066022 240.960149 
L 369.414408 244.273711 
L 370.2269 249.641804 
L 370.874555 251.283436 
L 371.697837 249.820868 
L 372.192873 247.071797 
L 372.61542 243.687869 
L 373.029004 239.528935 
L 374.397591 221.078081 
L 376.974289 181.25827 
L 377.949567 170.423187 
L 378.376406 167.027556 
L 379.36609 162.429356 
L 379.851103 161.667681 
L 380.457139 161.73199 
L 380.59245 161.856962 
L 381.957656 163.676318 
L 382.481562 163.904349 
L 383.080111 163.373339 
L 383.792453 161.435427 
L 384.492795 158.212696 
L 386.177099 148.029103 
L 387.01576 144.236292 
L 388.331237 144.361322 
L 388.44405 144.831744 
L 389.988141 159.530484 
L 390.965862 176.104572 
L 392.052678 198.70591 
L 393.978564 239.422232 
L 394.882314 255.055301 
L 396.203564 271.661689 
L 396.70692 276.036807 
L 397.622312 281.58979 
L 398.481786 284.49126 
L 399.635862 285.906754 
L 400.022502 285.951877 
L 402.44839 284.805373 
L 403.04429 284.847502 
L 403.766849 285.392168 
L 405.336466 288.692886 
L 407.757272 295.982928 
L 408.573409 297.176812 
L 409.563893 296.866548 
L 410.579055 294.495269 
L 411.013584 292.932399 
L 412.698309 284.72399 
L 413.597213 279.415147 
L 417.294986 255.706513 
L 421.292229 233.469133 
L 422.99559 220.302362 
L 425.079348 202.051981 
L 427.307866 189.223327 
L 427.806041 187.957624 
L 428.126214 187.424513 
L 428.852197 186.873575 
L 429.81766 187.024143 
L 430.975344 187.422412 
L 431.489982 187.401025 
L 431.896367 187.244973 
L 433.060194 186.083446 
L 434.174908 184.208006 
L 438.066373 176.69825 
L 439.317542 173.095284 
L 440.39026 168.469113 
L 440.614467 167.28693 
L 441.841652 159.424752 
L 443.234192 147.622912 
L 444.258812 136.915719 
L 445.310688 124.139033 
L 448.132378 87.503959 
L 448.996827 80.236625 
L 449.924334 77.852978 
L 450.647194 81.109235 
L 451.006037 84.625036 
L 451.576084 92.941051 
L 452.968571 127.046445 
L 453.832983 156.539087 
L 457.499119 292.524935 
L 458.099115 307.320215 
L 458.875418 320.47567 
L 461.100681 317.698446 
L 461.370743 313.542255 
L 462.395564 291.997771 
L 463.155228 271.743714 
L 465.395454 209.040545 
L 466.531596 185.681223 
L 467.070561 178.207825 
L 468.293918 170.719133 
L 468.479341 170.691914 
L 469.02555 172.120296 
L 469.425893 174.441879 
L 469.901216 178.346631 
L 470.943816 189.818168 
L 472.495122 208.41879 
L 473.54229 218.327017 
L 474.726155 225.234171 
L 475.273761 226.939958 
L 475.718611 227.761814 
L 476.847334 228.328151 
L 477.655159 228.152742 
L 477.881828 228.10533 
L 479.333589 228.442212 
L 479.816606 228.881242 
L 480.607366 229.947669 
L 481.544426 231.723171 
L 482.475368 234.106618 
L 483.168178 236.454569 
L 483.834795 239.37043 
L 484.858375 245.462851 
L 488.339398 275.886486 
L 488.965339 279.665865 
L 490.077694 281.750623 
L 490.104065 281.715801 
L 490.506568 280.665416 
L 493.057053 253.20151 
L 496.804669 192.487727 
L 497.5493 184.692057 
L 498.302924 179.226385 
L 498.567919 177.898534 
L 499.829541 175.655099 
L 499.897778 175.714249 
L 500.100687 175.990461 
L 500.795093 177.991519 
L 501.547631 181.740947 
L 502.700468 189.737398 
L 505.150692 208.41836 
L 506.233885 213.829323 
L 507.369307 216.131351 
L 507.613039 216.188266 
L 508.222718 215.786931 
L 508.972554 214.581555 
L 509.932899 212.89859 
L 510.332843 212.468016 
L 510.744403 212.334887 
L 511.35973 212.879793 
L 511.736372 213.707274 
L 512.885564 218.50269 
L 513.701599 223.453777 
L 515.174036 232.754711 
L 515.874948 236.152788 
L 516.334215 237.76639 
L 517.098721 239.314596 
L 517.446048 239.598008 
L 518.057943 239.650143 
L 518.582825 239.489272 
L 519.781476 240.073705 
L 521.156648 246.081857 
L 521.556471 249.412774 
L 522.714203 263.337214 
L 523.939447 283.576744 
L 525.546894 312.268883 
L 526.563671 327.014045 
L 528.414807 337.139271 
L 530.486633 313.862196 
L 530.82809 306.599684 
L 531.977373 277.049172 
L 534.28212 212.741047 
L 534.968888 198.337747 
L 535.429334 191.103114 
L 536.734749 183.372845 
L 537.897419 192.946226 
L 538.670628 206.484837 
L 539.675673 229.317344 
L 540.657478 253.067773 
L 542.435354 286.219697 
L 543.670092 294.994711 
L 544.52819 293.423125 
L 545.408505 286.072277 
L 545.701379 282.551995 
L 546.358083 273.12639 
L 549.842653 212.559502 
L 550.556018 203.070763 
L 551.596462 193.295912 
L 553.606445 188.718676 
L 554.068207 190.013516 
L 554.337012 191.097146 
L 554.865007 193.848621 
L 555.539827 198.372798 
L 558.96019 226.817386 
L 560.338872 233.801555 
L 561.081183 235.330762 
L 561.388157 235.508284 
L 561.663117 235.45517 
L 562.381669 234.453332 
L 563.243512 231.826544 
L 563.993081 228.433145 
L 565.071606 221.676496 
L 565.802032 215.621456 
L 566.233972 211.397176 
L 567.661112 193.957068 
L 568.402438 183.104838 
L 572.344829 122.217563 
L 573.522166 107.529064 
L 574.885203 95.667245 
L 575.134109 94.309956 
L 575.816556 92.099771 
L 576.163925 91.865015 
L 576.319684 91.957909 
L 576.759471 92.874624 
L 577.444664 96.133364 
L 578.103551 101.111019 
L 579.032614 110.442367 
L 581.005377 134.519109 
L 583.665968 166.77569 
L 585.094262 181.811667 
L 586.635836 195.622842 
L 589.515197 219.793727 
L 593.253495 256.432242 
L 593.718759 260.01806 
L 595.525201 267.811572 
L 595.799991 267.96203 
L 596.075541 267.804494 
L 596.541209 266.814194 
L 597.674429 260.496581 
L 599.34621 241.735831 
L 602.445326 197.986226 
L 602.833678 194.517297 
L 604.532422 191.702886 
L 606.634034 218.247891 
L 607.032473 226.227221 
L 610.342797 298.607653 
L 610.996233 309.584632 
L 613.097333 328.162563 
L 613.995859 327.300136 
L 614.957187 320.508762 
L 615.627167 312.482136 
L 616.956862 290.232493 
L 618.792549 253.421812 
L 621.251663 217.067567 
L 622.109172 212.008741 
L 622.466636 211.160013 
L 622.720393 210.982533 
L 623.147958 211.428707 
L 623.923093 214.322526 
L 624.106 215.336759 
L 625.196162 223.252233 
L 627.045786 240.057151 
L 628.969924 257.238479 
L 631.606269 278.650083 
L 632.685951 286.477302 
L 634.100468 294.814946 
L 634.716149 297.354646 
L 635.524981 299.234318 
L 637.584136 293.171707 
L 638.223036 287.219312 
L 639.115485 275.261092 
L 640.092865 257.415056 
L 640.986814 237.284449 
L 642.645721 193.277205 
L 646.399922 89.162069 
L 647.176579 70.852322 
L 648.272875 49.190189 
L 649.536897 32.479585 
L 649.878345 29.805327 
L 650.390345 27.422653 
L 650.781173 26.972943 
L 650.947338 27.150051 
L 651.123178 27.579528 
L 651.615682 30.115311 
L 652.063838 34.125489 
L 652.980696 47.200959 
L 653.946579 67.223773 
L 657.419115 154.905872 
L 657.764443 161.306283 
L 658.556605 172.51063 
L 659.404575 178.863782 
L 659.82419 179.953147 
L 660.354818 179.637633 
L 660.784495 178.230309 
L 661.409539 174.859104 
L 663.094471 163.907947 
L 663.857584 161.20529 
L 664.406691 161.137443 
L 664.777728 162.169415 
L 665.085889 163.743284 
L 666.133385 174.137404 
L 666.935927 187.080465 
L 667.990937 209.064793 
L 670.786493 272.243041 
L 671.872313 290.722018 
L 672.973595 303.990409 
L 675.823897 316.634932 
L 676.281246 316.428676 
L 677.572917 313.151938 
L 678.241638 309.96345 
L 679.055787 304.742042 
L 680.22386 294.664873 
L 682.232061 269.836333 
L 683.677678 246.436785 
L 685.89501 209.210595 
L 686.66811 199.262961 
L 687.123191 194.831752 
L 687.876546 190.265312 
L 688.318727 189.300499 
L 688.653229 189.413565 
L 688.800373 189.685904 
L 689.378282 191.976884 
L 689.828034 194.938095 
L 692.665169 219.410995 
L 693.248397 221.224964 
L 693.31976 221.288628 
L 694.039525 219.784807 
L 694.241032 218.638036 
L 694.589392 215.90249 
L 695.047393 210.909217 
L 695.939482 197.288636 
L 698.718518 146.681744 
L 699.930755 135.060783 
L 700.168714 134.05692 
L 700.775089 133.39836 
L 701.185316 134.413213 
L 701.640086 136.767659 
L 702.458179 143.669955 
L 704.577139 170.075918 
L 714.109984 298.67595 
L 715.032818 308.265518 
L 715.600585 312.953818 
L 716.30069 317.166747 
L 717.032076 319.402485 
L 717.689011 319.245741 
L 717.917204 318.6664 
L 718.681925 314.594867 
L 719.401495 307.586652 
L 721.710211 264.133806 
L 723.429804 217.227235 
L 725.00415 175.22978 
L 725.971918 154.778469 
L 726.410675 147.4722 
L 727.613503 134.318032 
L 727.990288 132.193569 
L 728.704495 130.406633 
L 729.546143 131.223561 
L 730.248863 133.384739 
L 731.672522 138.563828 
L 732.657966 140.930352 
L 733.449284 141.874051 
L 734.376863 142.676441 
L 734.557919 142.914331 
L 735.196609 144.308874 
L 735.762669 146.622414 
L 736.386868 150.790757 
L 737.268367 160.135452 
L 737.874591 169.002954 
L 738.885881 187.595397 
L 741.398644 239.868375 
L 742.033334 250.443278 
L 742.930862 261.345205 
L 744.222324 267.293193 
L 745.643958 261.060627 
L 746.662834 250.363584 
L 747.415064 240.375056 
L 749.646359 206.392815 
L 752.922286 156.008824 
L 753.669095 146.724061 
L 754.838108 136.730084 
L 755.391242 134.553085 
L 756.04858 134.445863 
L 756.185676 134.776466 
L 756.92299 138.652008 
L 757.515123 144.244383 
L 758.229579 153.677379 
L 758.950473 165.781095 
L 760.191212 191.339707 
L 764.599486 295.29016 
L 765.856324 315.82705 
L 768.678668 327.056833 
L 769.966549 316.947143 
L 770.261248 313.628418 
L 771.93313 290.197354 
L 774.124315 255.802785 
L 775.519393 237.159318 
L 776.844612 224.623098 
L 777.499847 220.738555 
L 777.855102 219.313671 
L 778.203795 218.381741 
L 779.040269 217.975527 
L 779.210805 218.194837 
L 779.97577 220.322742 
L 780.264975 221.573915 
L 781.428031 228.634079 
L 781.929547 232.480554 
L 785.870594 266.461347 
L 787.494776 274.188821 
L 788.344386 275.236034 
L 789.1379 274.406024 
L 789.978938 271.979164 
L 792.956029 258.986543 
L 795.02986 252.344225 
L 796.009964 249.550134 
L 798.012955 242.023748 
L 800.856522 229.160817 
L 801.506935 227.191627 
L 802.16145 225.925376 
L 803.42075 225.514599 
L 805.41386 227.354974 
L 806.693665 225.986299 
L 807.021898 224.839078 
L 807.693344 221.172905 
L 808.55403 213.606881 
L 809.393455 203.090767 
L 810.714004 181.475411 
L 813.114513 138.506744 
L 814.024945 125.680448 
L 815.051372 115.60412 
L 815.701856 111.880852 
L 816.333338 110.216586 
L 816.474612 110.093833 
L 816.88541 110.219626 
L 817.122599 110.599551 
L 818.071602 114.026305 
L 819.644298 124.102008 
L 822.48107 145.770517 
L 824.455458 162.414862 
L 826.002742 177.736169 
L 829.050341 209.154717 
L 830.346754 219.989676 
L 830.570647 221.584697 
L 831.691955 228.025907 
L 832.527405 230.781265 
L 834.12378 229.477251 
L 834.53757 227.438679 
L 835.490535 219.767987 
L 837.23948 195.394259 
L 838.592799 170.351497 
L 840.502064 135.750179 
L 840.929919 129.42127 
L 841.73205 119.893563 
L 842.226469 115.784482 
L 842.80107 112.89036 
L 843.076495 112.257277 
L 843.814976 113.060517 
L 844.265142 115.363728 
L 844.757066 119.445607 
L 845.587841 129.916575 
L 847.432654 166.416686 
L 849.637255 219.231714 
L 851.288445 251.434689 
L 853.624101 277.314919 
L 854.092046 280.298728 
L 855.6795 287.604489 
L 857.780524 293.376682 
L 859.900006 290.709543 
L 862.211125 265.758049 
L 863.500942 239.17315 
L 864.730461 206.917032 
L 867.634315 123.473151 
L 868.669446 98.543765 
L 869.880123 76.914618 
L 870.341668 71.337582 
L 870.886521 66.915354 
L 871.987241 65.761322 
L 872.764859 71.591793 
L 873.302375 78.878009 
L 874.329959 99.865374 
L 875.808054 143.68842 
L 878.432919 239.836768 
L 881.160369 325.610609 
L 881.160369 325.610609 
" style="fill:none;stroke:#800080;stroke-linecap:square;stroke-width:1.5;"/>
   </g>
   <g id="patch_3">
    <path d="M 28.942188 442.08 
L 28.942188 7.2 
" style="fill:none;stroke:#000000;stroke-linecap:square;stroke-linejoin:miter;stroke-width:0.8;"/>
   </g>
   <g id="patch_4">
    <path d="M 921.742188 442.08 
L 921.742188 7.2 
" style="fill:none;stroke:#000000;stroke-linecap:square;stroke-linejoin:miter;stroke-width:0.8;"/>
   </g>
   <g id="patch_5">
    <path d="M 28.942188 442.08 
L 921.742187 442.08 
" style="fill:none;stroke:#000000;stroke-linecap:square;stroke-linejoin:miter;stroke-width:0.8;"/>
   </g>
   <g id="patch_6">
    <path d="M 28.942188 7.2 
L 921.742187 7.2 
" style="fill:none;stroke:#000000;stroke-linecap:square;stroke-linejoin:miter;stroke-width:0.8;"/>
   </g>
   <g id="legend_1">
    <g id="patch_7">
     <path d="M 35.942188 59.234375 
L 108.403125 59.234375 
Q 110.403125 59.234375 110.403125 57.234375 
L 110.403125 14.2 
Q 110.403125 12.2 108.403125 12.2 
L 35.942188 12.2 
Q 33.942188 12.2 33.942188 14.2 
L 33.942188 57.234375 
Q 33.942188 59.234375 35.942188 59.234375 
z
" style="fill:#ffffff;opacity:0.8;stroke:#cccccc;stroke-linejoin:miter;"/>
    </g>
    <g id="line2d_17">
     <path d="M 37.942188 20.298437 
L 57.942188 20.298437 
" style="fill:none;stroke:#9c00ff;stroke-linecap:square;stroke-width:1.5;"/>
    </g>
    <g id="line2d_18"/>
    <g id="text_14">
     <!-- Logit -->
     <g transform="translate(65.942188 23.798437)scale(0.1 -0.1)">
      <defs>
       <path d="M 9.8125 72.90625 
L 19.671875 72.90625 
L 19.671875 8.296875 
L 55.171875 8.296875 
L 55.171875 0 
L 9.8125 0 
z
" id="DejaVuSans-76"/>
       <path d="M 30.609375 48.390625 
Q 23.390625 48.390625 19.1875 42.75 
Q 14.984375 37.109375 14.984375 27.296875 
Q 14.984375 17.484375 19.15625 11.84375 
Q 23.34375 6.203125 30.609375 6.203125 
Q 37.796875 6.203125 41.984375 11.859375 
Q 46.1875 17.53125 46.1875 27.296875 
Q 46.1875 37.015625 41.984375 42.703125 
Q 37.796875 48.390625 30.609375 48.390625 
z
M 30.609375 56 
Q 42.328125 56 49.015625 48.375 
Q 55.71875 40.765625 55.71875 27.296875 
Q 55.71875 13.875 49.015625 6.21875 
Q 42.328125 -1.421875 30.609375 -1.421875 
Q 18.84375 -1.421875 12.171875 6.21875 
Q 5.515625 13.875 5.515625 27.296875 
Q 5.515625 40.765625 12.171875 48.375 
Q 18.84375 56 30.609375 56 
z
" id="DejaVuSans-111"/>
       <path d="M 45.40625 27.984375 
Q 45.40625 37.75 41.375 43.109375 
Q 37.359375 48.484375 30.078125 48.484375 
Q 22.859375 48.484375 18.828125 43.109375 
Q 14.796875 37.75 14.796875 27.984375 
Q 14.796875 18.265625 18.828125 12.890625 
Q 22.859375 7.515625 30.078125 7.515625 
Q 37.359375 7.515625 41.375 12.890625 
Q 45.40625 18.265625 45.40625 27.984375 
z
M 54.390625 6.78125 
Q 54.390625 -7.171875 48.1875 -13.984375 
Q 42 -20.796875 29.203125 -20.796875 
Q 24.46875 -20.796875 20.265625 -20.09375 
Q 16.0625 -19.390625 12.109375 -17.921875 
L 12.109375 -9.1875 
Q 16.0625 -11.328125 19.921875 -12.34375 
Q 23.78125 -13.375 27.78125 -13.375 
Q 36.625 -13.375 41.015625 -8.765625 
Q 45.40625 -4.15625 45.40625 5.171875 
L 45.40625 9.625 
Q 42.625 4.78125 38.28125 2.390625 
Q 33.9375 0 27.875 0 
Q 17.828125 0 11.671875 7.65625 
Q 5.515625 15.328125 5.515625 27.984375 
Q 5.515625 40.671875 11.671875 48.328125 
Q 17.828125 56 27.875 56 
Q 33.9375 56 38.28125 53.609375 
Q 42.625 51.21875 45.40625 46.390625 
L 45.40625 54.6875 
L 54.390625 54.6875 
z
" id="DejaVuSans-103"/>
       <path d="M 9.421875 54.6875 
L 18.40625 54.6875 
L 18.40625 0 
L 9.421875 0 
z
M 9.421875 75.984375 
L 18.40625 75.984375 
L 18.40625 64.59375 
L 9.421875 64.59375 
z
" id="DejaVuSans-105"/>
       <path d="M 18.3125 70.21875 
L 18.3125 54.6875 
L 36.8125 54.6875 
L 36.8125 47.703125 
L 18.3125 47.703125 
L 18.3125 18.015625 
Q 18.3125 11.328125 20.140625 9.421875 
Q 21.96875 7.515625 27.59375 7.515625 
L 36.8125 7.515625 
L 36.8125 0 
L 27.59375 0 
Q 17.1875 0 13.234375 3.875 
Q 9.28125 7.765625 9.28125 18.015625 
L 9.28125 47.703125 
L 2.6875 47.703125 
L 2.6875 54.6875 
L 9.28125 54.6875 
L 9.28125 70.21875 
z
" id="DejaVuSans-116"/>
      </defs>
      <use xlink:href="#DejaVuSans-76"/>
      <use x="53.962891" xlink:href="#DejaVuSans-111"/>
      <use x="115.144531" xlink:href="#DejaVuSans-103"/>
      <use x="178.621094" xlink:href="#DejaVuSans-105"/>
      <use x="206.404297" xlink:href="#DejaVuSans-116"/>
     </g>
    </g>
    <g id="line2d_19">
     <path d="M 37.942188 34.976562 
L 57.942188 34.976562 
" style="fill:none;stroke:#2931b3;stroke-linecap:square;stroke-width:1.5;"/>
    </g>
    <g id="line2d_20"/>
    <g id="text_15">
     <!-- Sigmoid -->
     <g transform="translate(65.942188 38.476562)scale(0.1 -0.1)">
      <defs>
       <path d="M 53.515625 70.515625 
L 53.515625 60.890625 
Q 47.90625 63.578125 42.921875 64.890625 
Q 37.9375 66.21875 33.296875 66.21875 
Q 25.25 66.21875 20.875 63.09375 
Q 16.5 59.96875 16.5 54.203125 
Q 16.5 49.359375 19.40625 46.890625 
Q 22.3125 44.4375 30.421875 42.921875 
L 36.375 41.703125 
Q 47.40625 39.59375 52.65625 34.296875 
Q 57.90625 29 57.90625 20.125 
Q 57.90625 9.515625 50.796875 4.046875 
Q 43.703125 -1.421875 29.984375 -1.421875 
Q 24.8125 -1.421875 18.96875 -0.25 
Q 13.140625 0.921875 6.890625 3.21875 
L 6.890625 13.375 
Q 12.890625 10.015625 18.65625 8.296875 
Q 24.421875 6.59375 29.984375 6.59375 
Q 38.421875 6.59375 43.015625 9.90625 
Q 47.609375 13.234375 47.609375 19.390625 
Q 47.609375 24.75 44.3125 27.78125 
Q 41.015625 30.8125 33.5 32.328125 
L 27.484375 33.5 
Q 16.453125 35.6875 11.515625 40.375 
Q 6.59375 45.0625 6.59375 53.421875 
Q 6.59375 63.09375 13.40625 68.65625 
Q 20.21875 74.21875 32.171875 74.21875 
Q 37.3125 74.21875 42.625 73.28125 
Q 47.953125 72.359375 53.515625 70.515625 
z
" id="DejaVuSans-83"/>
       <path d="M 52 44.1875 
Q 55.375 50.25 60.0625 53.125 
Q 64.75 56 71.09375 56 
Q 79.640625 56 84.28125 50.015625 
Q 88.921875 44.046875 88.921875 33.015625 
L 88.921875 0 
L 79.890625 0 
L 79.890625 32.71875 
Q 79.890625 40.578125 77.09375 44.375 
Q 74.3125 48.1875 68.609375 48.1875 
Q 61.625 48.1875 57.5625 43.546875 
Q 53.515625 38.921875 53.515625 30.90625 
L 53.515625 0 
L 44.484375 0 
L 44.484375 32.71875 
Q 44.484375 40.625 41.703125 44.40625 
Q 38.921875 48.1875 33.109375 48.1875 
Q 26.21875 48.1875 22.15625 43.53125 
Q 18.109375 38.875 18.109375 30.90625 
L 18.109375 0 
L 9.078125 0 
L 9.078125 54.6875 
L 18.109375 54.6875 
L 18.109375 46.1875 
Q 21.1875 51.21875 25.484375 53.609375 
Q 29.78125 56 35.6875 56 
Q 41.65625 56 45.828125 52.96875 
Q 50 49.953125 52 44.1875 
z
" id="DejaVuSans-109"/>
       <path d="M 45.40625 46.390625 
L 45.40625 75.984375 
L 54.390625 75.984375 
L 54.390625 0 
L 45.40625 0 
L 45.40625 8.203125 
Q 42.578125 3.328125 38.25 0.953125 
Q 33.9375 -1.421875 27.875 -1.421875 
Q 17.96875 -1.421875 11.734375 6.484375 
Q 5.515625 14.40625 5.515625 27.296875 
Q 5.515625 40.1875 11.734375 48.09375 
Q 17.96875 56 27.875 56 
Q 33.9375 56 38.25 53.625 
Q 42.578125 51.265625 45.40625 46.390625 
z
M 14.796875 27.296875 
Q 14.796875 17.390625 18.875 11.75 
Q 22.953125 6.109375 30.078125 6.109375 
Q 37.203125 6.109375 41.296875 11.75 
Q 45.40625 17.390625 45.40625 27.296875 
Q 45.40625 37.203125 41.296875 42.84375 
Q 37.203125 48.484375 30.078125 48.484375 
Q 22.953125 48.484375 18.875 42.84375 
Q 14.796875 37.203125 14.796875 27.296875 
z
" id="DejaVuSans-100"/>
      </defs>
      <use xlink:href="#DejaVuSans-83"/>
      <use x="63.476562" xlink:href="#DejaVuSans-105"/>
      <use x="91.259766" xlink:href="#DejaVuSans-103"/>
      <use x="154.736328" xlink:href="#DejaVuSans-109"/>
      <use x="252.148438" xlink:href="#DejaVuSans-111"/>
      <use x="313.330078" xlink:href="#DejaVuSans-105"/>
      <use x="341.113281" xlink:href="#DejaVuSans-100"/>
     </g>
    </g>
    <g id="line2d_21">
     <path d="M 37.942188 49.654687 
L 57.942188 49.654687 
" style="fill:none;stroke:#800080;stroke-linecap:square;stroke-width:1.5;"/>
    </g>
    <g id="line2d_22"/>
    <g id="text_16">
     <!-- ArcTan -->
     <g transform="translate(65.942188 53.154687)scale(0.1 -0.1)">
      <defs>
       <path d="M 34.1875 63.1875 
L 20.796875 26.90625 
L 47.609375 26.90625 
z
M 28.609375 72.90625 
L 39.796875 72.90625 
L 67.578125 0 
L 57.328125 0 
L 50.6875 18.703125 
L 17.828125 18.703125 
L 11.1875 0 
L 0.78125 0 
z
" id="DejaVuSans-65"/>
       <path d="M 41.109375 46.296875 
Q 39.59375 47.171875 37.8125 47.578125 
Q 36.03125 48 33.890625 48 
Q 26.265625 48 22.1875 43.046875 
Q 18.109375 38.09375 18.109375 28.8125 
L 18.109375 0 
L 9.078125 0 
L 9.078125 54.6875 
L 18.109375 54.6875 
L 18.109375 46.1875 
Q 20.953125 51.171875 25.484375 53.578125 
Q 30.03125 56 36.53125 56 
Q 37.453125 56 38.578125 55.875 
Q 39.703125 55.765625 41.0625 55.515625 
z
" id="DejaVuSans-114"/>
       <path d="M 48.78125 52.59375 
L 48.78125 44.1875 
Q 44.96875 46.296875 41.140625 47.34375 
Q 37.3125 48.390625 33.40625 48.390625 
Q 24.65625 48.390625 19.8125 42.84375 
Q 14.984375 37.3125 14.984375 27.296875 
Q 14.984375 17.28125 19.8125 11.734375 
Q 24.65625 6.203125 33.40625 6.203125 
Q 37.3125 6.203125 41.140625 7.25 
Q 44.96875 8.296875 48.78125 10.40625 
L 48.78125 2.09375 
Q 45.015625 0.34375 40.984375 -0.53125 
Q 36.96875 -1.421875 32.421875 -1.421875 
Q 20.0625 -1.421875 12.78125 6.34375 
Q 5.515625 14.109375 5.515625 27.296875 
Q 5.515625 40.671875 12.859375 48.328125 
Q 20.21875 56 33.015625 56 
Q 37.15625 56 41.109375 55.140625 
Q 45.0625 54.296875 48.78125 52.59375 
z
" id="DejaVuSans-99"/>
       <path d="M -0.296875 72.90625 
L 61.375 72.90625 
L 61.375 64.59375 
L 35.5 64.59375 
L 35.5 0 
L 25.59375 0 
L 25.59375 64.59375 
L -0.296875 64.59375 
z
" id="DejaVuSans-84"/>
       <path d="M 34.28125 27.484375 
Q 23.390625 27.484375 19.1875 25 
Q 14.984375 22.515625 14.984375 16.5 
Q 14.984375 11.71875 18.140625 8.90625 
Q 21.296875 6.109375 26.703125 6.109375 
Q 34.1875 6.109375 38.703125 11.40625 
Q 43.21875 16.703125 43.21875 25.484375 
L 43.21875 27.484375 
z
M 52.203125 31.203125 
L 52.203125 0 
L 43.21875 0 
L 43.21875 8.296875 
Q 40.140625 3.328125 35.546875 0.953125 
Q 30.953125 -1.421875 24.3125 -1.421875 
Q 15.921875 -1.421875 10.953125 3.296875 
Q 6 8.015625 6 15.921875 
Q 6 25.140625 12.171875 29.828125 
Q 18.359375 34.515625 30.609375 34.515625 
L 43.21875 34.515625 
L 43.21875 35.40625 
Q 43.21875 41.609375 39.140625 45 
Q 35.0625 48.390625 27.6875 48.390625 
Q 23 48.390625 18.546875 47.265625 
Q 14.109375 46.140625 10.015625 43.890625 
L 10.015625 52.203125 
Q 14.9375 54.109375 19.578125 55.046875 
Q 24.21875 56 28.609375 56 
Q 40.484375 56 46.34375 49.84375 
Q 52.203125 43.703125 52.203125 31.203125 
z
" id="DejaVuSans-97"/>
       <path d="M 54.890625 33.015625 
L 54.890625 0 
L 45.90625 0 
L 45.90625 32.71875 
Q 45.90625 40.484375 42.875 44.328125 
Q 39.84375 48.1875 33.796875 48.1875 
Q 26.515625 48.1875 22.3125 43.546875 
Q 18.109375 38.921875 18.109375 30.90625 
L 18.109375 0 
L 9.078125 0 
L 9.078125 54.6875 
L 18.109375 54.6875 
L 18.109375 46.1875 
Q 21.34375 51.125 25.703125 53.5625 
Q 30.078125 56 35.796875 56 
Q 45.21875 56 50.046875 50.171875 
Q 54.890625 44.34375 54.890625 33.015625 
z
" id="DejaVuSans-110"/>
      </defs>
      <use xlink:href="#DejaVuSans-65"/>
      <use x="68.408203" xlink:href="#DejaVuSans-114"/>
      <use x="107.271484" xlink:href="#DejaVuSans-99"/>
      <use x="162.251953" xlink:href="#DejaVuSans-84"/>
      <use x="206.835938" xlink:href="#DejaVuSans-97"/>
      <use x="268.115234" xlink:href="#DejaVuSans-110"/>
     </g>
    </g>
   </g>
  </g>
 </g>
 <defs>
  <clipPath id="pa26d448de0">
   <rect height="434.88" width="892.8" x="28.942188" y="7.2"/>
  </clipPath>
 </defs>
</svg>
