<?xml version="1.0" encoding="utf-8" standalone="no"?>
<!DOCTYPE svg PUBLIC "-//W3C//DTD SVG 1.1//EN"
  "http://www.w3.org/Graphics/SVG/1.1/DTD/svg11.dtd">
<!-- Created with matplotlib (https://matplotlib.org/) -->
<svg height="238.346502pt" version="1.1" viewBox="0 0 368.925 238.346502" width="368.925pt" xmlns="http://www.w3.org/2000/svg" xmlns:xlink="http://www.w3.org/1999/xlink">
 <metadata>
  <rdf:RDF xmlns:cc="http://creativecommons.org/ns#" xmlns:dc="http://purl.org/dc/elements/1.1/" xmlns:rdf="http://www.w3.org/1999/02/22-rdf-syntax-ns#">
   <cc:Work>
    <dc:type rdf:resource="http://purl.org/dc/dcmitype/StillImage"/>
    <dc:date>2021-03-04T16:53:15.952317</dc:date>
    <dc:format>image/svg+xml</dc:format>
    <dc:creator>
     <cc:Agent>
      <dc:title>Matplotlib v3.3.4, https://matplotlib.org/</dc:title>
     </cc:Agent>
    </dc:creator>
   </cc:Work>
  </rdf:RDF>
 </metadata>
 <defs>
  <style type="text/css">*{stroke-linecap:butt;stroke-linejoin:round;}</style>
 </defs>
 <g id="figure_1">
  <g id="patch_1">
   <path d="M -0 238.346502 
L 368.925 238.346502 
L 368.925 0 
L -0 0 
z
" style="fill:none;"/>
  </g>
  <g id="axes_1">
   <g id="patch_2">
    <path d="M 26.925 203.04 
L 361.725 203.04 
L 361.725 7.2 
L 26.925 7.2 
z
" style="fill:#ffffff;"/>
   </g>
   <g id="matplotlib.axis_1">
    <g id="xtick_1">
     <g id="line2d_1">
      <defs>
       <path d="M 0 0 
L 0 3.5 
" id="m724ed6bdb7" style="stroke:#000000;stroke-width:0.8;"/>
      </defs>
      <g>
       <use style="stroke:#000000;stroke-width:0.8;" x="42.143182" xlink:href="#m724ed6bdb7" y="203.04"/>
      </g>
     </g>
     <g id="text_1">
      <!-- 1981 -->
      <g transform="translate(19.062992 229.34544)rotate(-30)scale(0.1 -0.1)">
       <defs>
        <path d="M 12.40625 8.296875 
L 28.515625 8.296875 
L 28.515625 63.921875 
L 10.984375 60.40625 
L 10.984375 69.390625 
L 28.421875 72.90625 
L 38.28125 72.90625 
L 38.28125 8.296875 
L 54.390625 8.296875 
L 54.390625 0 
L 12.40625 0 
z
" id="DejaVuSans-49"/>
        <path d="M 10.984375 1.515625 
L 10.984375 10.5 
Q 14.703125 8.734375 18.5 7.8125 
Q 22.3125 6.890625 25.984375 6.890625 
Q 35.75 6.890625 40.890625 13.453125 
Q 46.046875 20.015625 46.78125 33.40625 
Q 43.953125 29.203125 39.59375 26.953125 
Q 35.25 24.703125 29.984375 24.703125 
Q 19.046875 24.703125 12.671875 31.3125 
Q 6.296875 37.9375 6.296875 49.421875 
Q 6.296875 60.640625 12.9375 67.421875 
Q 19.578125 74.21875 30.609375 74.21875 
Q 43.265625 74.21875 49.921875 64.515625 
Q 56.59375 54.828125 56.59375 36.375 
Q 56.59375 19.140625 48.40625 8.859375 
Q 40.234375 -1.421875 26.421875 -1.421875 
Q 22.703125 -1.421875 18.890625 -0.6875 
Q 15.09375 0.046875 10.984375 1.515625 
z
M 30.609375 32.421875 
Q 37.25 32.421875 41.125 36.953125 
Q 45.015625 41.5 45.015625 49.421875 
Q 45.015625 57.28125 41.125 61.84375 
Q 37.25 66.40625 30.609375 66.40625 
Q 23.96875 66.40625 20.09375 61.84375 
Q 16.21875 57.28125 16.21875 49.421875 
Q 16.21875 41.5 20.09375 36.953125 
Q 23.96875 32.421875 30.609375 32.421875 
z
" id="DejaVuSans-57"/>
        <path d="M 31.78125 34.625 
Q 24.75 34.625 20.71875 30.859375 
Q 16.703125 27.09375 16.703125 20.515625 
Q 16.703125 13.921875 20.71875 10.15625 
Q 24.75 6.390625 31.78125 6.390625 
Q 38.8125 6.390625 42.859375 10.171875 
Q 46.921875 13.96875 46.921875 20.515625 
Q 46.921875 27.09375 42.890625 30.859375 
Q 38.875 34.625 31.78125 34.625 
z
M 21.921875 38.8125 
Q 15.578125 40.375 12.03125 44.71875 
Q 8.5 49.078125 8.5 55.328125 
Q 8.5 64.0625 14.71875 69.140625 
Q 20.953125 74.21875 31.78125 74.21875 
Q 42.671875 74.21875 48.875 69.140625 
Q 55.078125 64.0625 55.078125 55.328125 
Q 55.078125 49.078125 51.53125 44.71875 
Q 48 40.375 41.703125 38.8125 
Q 48.828125 37.15625 52.796875 32.3125 
Q 56.78125 27.484375 56.78125 20.515625 
Q 56.78125 9.90625 50.3125 4.234375 
Q 43.84375 -1.421875 31.78125 -1.421875 
Q 19.734375 -1.421875 13.25 4.234375 
Q 6.78125 9.90625 6.78125 20.515625 
Q 6.78125 27.484375 10.78125 32.3125 
Q 14.796875 37.15625 21.921875 38.8125 
z
M 18.3125 54.390625 
Q 18.3125 48.734375 21.84375 45.5625 
Q 25.390625 42.390625 31.78125 42.390625 
Q 38.140625 42.390625 41.71875 45.5625 
Q 45.3125 48.734375 45.3125 54.390625 
Q 45.3125 60.0625 41.71875 63.234375 
Q 38.140625 66.40625 31.78125 66.40625 
Q 25.390625 66.40625 21.84375 63.234375 
Q 18.3125 60.0625 18.3125 54.390625 
z
" id="DejaVuSans-56"/>
       </defs>
       <use xlink:href="#DejaVuSans-49"/>
       <use x="63.623047" xlink:href="#DejaVuSans-57"/>
       <use x="127.246094" xlink:href="#DejaVuSans-56"/>
       <use x="190.869141" xlink:href="#DejaVuSans-49"/>
      </g>
     </g>
    </g>
    <g id="xtick_2">
     <g id="line2d_2">
      <g>
       <use style="stroke:#000000;stroke-width:0.8;" x="72.579545" xlink:href="#m724ed6bdb7" y="203.04"/>
      </g>
     </g>
     <g id="text_2">
      <!-- 1982 -->
      <g transform="translate(49.499355 229.34544)rotate(-30)scale(0.1 -0.1)">
       <defs>
        <path d="M 19.1875 8.296875 
L 53.609375 8.296875 
L 53.609375 0 
L 7.328125 0 
L 7.328125 8.296875 
Q 12.9375 14.109375 22.625 23.890625 
Q 32.328125 33.6875 34.8125 36.53125 
Q 39.546875 41.84375 41.421875 45.53125 
Q 43.3125 49.21875 43.3125 52.78125 
Q 43.3125 58.59375 39.234375 62.25 
Q 35.15625 65.921875 28.609375 65.921875 
Q 23.96875 65.921875 18.8125 64.3125 
Q 13.671875 62.703125 7.8125 59.421875 
L 7.8125 69.390625 
Q 13.765625 71.78125 18.9375 73 
Q 24.125 74.21875 28.421875 74.21875 
Q 39.75 74.21875 46.484375 68.546875 
Q 53.21875 62.890625 53.21875 53.421875 
Q 53.21875 48.921875 51.53125 44.890625 
Q 49.859375 40.875 45.40625 35.40625 
Q 44.1875 33.984375 37.640625 27.21875 
Q 31.109375 20.453125 19.1875 8.296875 
z
" id="DejaVuSans-50"/>
       </defs>
       <use xlink:href="#DejaVuSans-49"/>
       <use x="63.623047" xlink:href="#DejaVuSans-57"/>
       <use x="127.246094" xlink:href="#DejaVuSans-56"/>
       <use x="190.869141" xlink:href="#DejaVuSans-50"/>
      </g>
     </g>
    </g>
    <g id="xtick_3">
     <g id="line2d_3">
      <g>
       <use style="stroke:#000000;stroke-width:0.8;" x="103.015909" xlink:href="#m724ed6bdb7" y="203.04"/>
      </g>
     </g>
     <g id="text_3">
      <!-- 1983 -->
      <g transform="translate(79.935719 229.34544)rotate(-30)scale(0.1 -0.1)">
       <defs>
        <path d="M 40.578125 39.3125 
Q 47.65625 37.796875 51.625 33 
Q 55.609375 28.21875 55.609375 21.1875 
Q 55.609375 10.40625 48.1875 4.484375 
Q 40.765625 -1.421875 27.09375 -1.421875 
Q 22.515625 -1.421875 17.65625 -0.515625 
Q 12.796875 0.390625 7.625 2.203125 
L 7.625 11.71875 
Q 11.71875 9.328125 16.59375 8.109375 
Q 21.484375 6.890625 26.8125 6.890625 
Q 36.078125 6.890625 40.9375 10.546875 
Q 45.796875 14.203125 45.796875 21.1875 
Q 45.796875 27.640625 41.28125 31.265625 
Q 36.765625 34.90625 28.71875 34.90625 
L 20.21875 34.90625 
L 20.21875 43.015625 
L 29.109375 43.015625 
Q 36.375 43.015625 40.234375 45.921875 
Q 44.09375 48.828125 44.09375 54.296875 
Q 44.09375 59.90625 40.109375 62.90625 
Q 36.140625 65.921875 28.71875 65.921875 
Q 24.65625 65.921875 20.015625 65.03125 
Q 15.375 64.15625 9.8125 62.3125 
L 9.8125 71.09375 
Q 15.4375 72.65625 20.34375 73.4375 
Q 25.25 74.21875 29.59375 74.21875 
Q 40.828125 74.21875 47.359375 69.109375 
Q 53.90625 64.015625 53.90625 55.328125 
Q 53.90625 49.265625 50.4375 45.09375 
Q 46.96875 40.921875 40.578125 39.3125 
z
" id="DejaVuSans-51"/>
       </defs>
       <use xlink:href="#DejaVuSans-49"/>
       <use x="63.623047" xlink:href="#DejaVuSans-57"/>
       <use x="127.246094" xlink:href="#DejaVuSans-56"/>
       <use x="190.869141" xlink:href="#DejaVuSans-51"/>
      </g>
     </g>
    </g>
    <g id="xtick_4">
     <g id="line2d_4">
      <g>
       <use style="stroke:#000000;stroke-width:0.8;" x="133.452273" xlink:href="#m724ed6bdb7" y="203.04"/>
      </g>
     </g>
     <g id="text_4">
      <!-- 1984 -->
      <g transform="translate(110.372082 229.34544)rotate(-30)scale(0.1 -0.1)">
       <defs>
        <path d="M 37.796875 64.3125 
L 12.890625 25.390625 
L 37.796875 25.390625 
z
M 35.203125 72.90625 
L 47.609375 72.90625 
L 47.609375 25.390625 
L 58.015625 25.390625 
L 58.015625 17.1875 
L 47.609375 17.1875 
L 47.609375 0 
L 37.796875 0 
L 37.796875 17.1875 
L 4.890625 17.1875 
L 4.890625 26.703125 
z
" id="DejaVuSans-52"/>
       </defs>
       <use xlink:href="#DejaVuSans-49"/>
       <use x="63.623047" xlink:href="#DejaVuSans-57"/>
       <use x="127.246094" xlink:href="#DejaVuSans-56"/>
       <use x="190.869141" xlink:href="#DejaVuSans-52"/>
      </g>
     </g>
    </g>
    <g id="xtick_5">
     <g id="line2d_5">
      <g>
       <use style="stroke:#000000;stroke-width:0.8;" x="163.972024" xlink:href="#m724ed6bdb7" y="203.04"/>
      </g>
     </g>
     <g id="text_5">
      <!-- 1985 -->
      <g transform="translate(140.891833 229.34544)rotate(-30)scale(0.1 -0.1)">
       <defs>
        <path d="M 10.796875 72.90625 
L 49.515625 72.90625 
L 49.515625 64.59375 
L 19.828125 64.59375 
L 19.828125 46.734375 
Q 21.96875 47.46875 24.109375 47.828125 
Q 26.265625 48.1875 28.421875 48.1875 
Q 40.625 48.1875 47.75 41.5 
Q 54.890625 34.8125 54.890625 23.390625 
Q 54.890625 11.625 47.5625 5.09375 
Q 40.234375 -1.421875 26.90625 -1.421875 
Q 22.3125 -1.421875 17.546875 -0.640625 
Q 12.796875 0.140625 7.71875 1.703125 
L 7.71875 11.625 
Q 12.109375 9.234375 16.796875 8.0625 
Q 21.484375 6.890625 26.703125 6.890625 
Q 35.15625 6.890625 40.078125 11.328125 
Q 45.015625 15.765625 45.015625 23.390625 
Q 45.015625 31 40.078125 35.4375 
Q 35.15625 39.890625 26.703125 39.890625 
Q 22.75 39.890625 18.8125 39.015625 
Q 14.890625 38.140625 10.796875 36.28125 
z
" id="DejaVuSans-53"/>
       </defs>
       <use xlink:href="#DejaVuSans-49"/>
       <use x="63.623047" xlink:href="#DejaVuSans-57"/>
       <use x="127.246094" xlink:href="#DejaVuSans-56"/>
       <use x="190.869141" xlink:href="#DejaVuSans-53"/>
      </g>
     </g>
    </g>
    <g id="xtick_6">
     <g id="line2d_6">
      <g>
       <use style="stroke:#000000;stroke-width:0.8;" x="194.408387" xlink:href="#m724ed6bdb7" y="203.04"/>
      </g>
     </g>
     <g id="text_6">
      <!-- 1986 -->
      <g transform="translate(171.328197 229.34544)rotate(-30)scale(0.1 -0.1)">
       <defs>
        <path d="M 33.015625 40.375 
Q 26.375 40.375 22.484375 35.828125 
Q 18.609375 31.296875 18.609375 23.390625 
Q 18.609375 15.53125 22.484375 10.953125 
Q 26.375 6.390625 33.015625 6.390625 
Q 39.65625 6.390625 43.53125 10.953125 
Q 47.40625 15.53125 47.40625 23.390625 
Q 47.40625 31.296875 43.53125 35.828125 
Q 39.65625 40.375 33.015625 40.375 
z
M 52.59375 71.296875 
L 52.59375 62.3125 
Q 48.875 64.0625 45.09375 64.984375 
Q 41.3125 65.921875 37.59375 65.921875 
Q 27.828125 65.921875 22.671875 59.328125 
Q 17.53125 52.734375 16.796875 39.40625 
Q 19.671875 43.65625 24.015625 45.921875 
Q 28.375 48.1875 33.59375 48.1875 
Q 44.578125 48.1875 50.953125 41.515625 
Q 57.328125 34.859375 57.328125 23.390625 
Q 57.328125 12.15625 50.6875 5.359375 
Q 44.046875 -1.421875 33.015625 -1.421875 
Q 20.359375 -1.421875 13.671875 8.265625 
Q 6.984375 17.96875 6.984375 36.375 
Q 6.984375 53.65625 15.1875 63.9375 
Q 23.390625 74.21875 37.203125 74.21875 
Q 40.921875 74.21875 44.703125 73.484375 
Q 48.484375 72.75 52.59375 71.296875 
z
" id="DejaVuSans-54"/>
       </defs>
       <use xlink:href="#DejaVuSans-49"/>
       <use x="63.623047" xlink:href="#DejaVuSans-57"/>
       <use x="127.246094" xlink:href="#DejaVuSans-56"/>
       <use x="190.869141" xlink:href="#DejaVuSans-54"/>
      </g>
     </g>
    </g>
    <g id="xtick_7">
     <g id="line2d_7">
      <g>
       <use style="stroke:#000000;stroke-width:0.8;" x="224.844751" xlink:href="#m724ed6bdb7" y="203.04"/>
      </g>
     </g>
     <g id="text_7">
      <!-- 1987 -->
      <g transform="translate(201.764561 229.34544)rotate(-30)scale(0.1 -0.1)">
       <defs>
        <path d="M 8.203125 72.90625 
L 55.078125 72.90625 
L 55.078125 68.703125 
L 28.609375 0 
L 18.3125 0 
L 43.21875 64.59375 
L 8.203125 64.59375 
z
" id="DejaVuSans-55"/>
       </defs>
       <use xlink:href="#DejaVuSans-49"/>
       <use x="63.623047" xlink:href="#DejaVuSans-57"/>
       <use x="127.246094" xlink:href="#DejaVuSans-56"/>
       <use x="190.869141" xlink:href="#DejaVuSans-55"/>
      </g>
     </g>
    </g>
    <g id="xtick_8">
     <g id="line2d_8">
      <g>
       <use style="stroke:#000000;stroke-width:0.8;" x="255.281115" xlink:href="#m724ed6bdb7" y="203.04"/>
      </g>
     </g>
     <g id="text_8">
      <!-- 1988 -->
      <g transform="translate(232.200924 229.34544)rotate(-30)scale(0.1 -0.1)">
       <use xlink:href="#DejaVuSans-49"/>
       <use x="63.623047" xlink:href="#DejaVuSans-57"/>
       <use x="127.246094" xlink:href="#DejaVuSans-56"/>
       <use x="190.869141" xlink:href="#DejaVuSans-56"/>
      </g>
     </g>
    </g>
    <g id="xtick_9">
     <g id="line2d_9">
      <g>
       <use style="stroke:#000000;stroke-width:0.8;" x="285.800866" xlink:href="#m724ed6bdb7" y="203.04"/>
      </g>
     </g>
     <g id="text_9">
      <!-- 1989 -->
      <g transform="translate(262.720675 229.34544)rotate(-30)scale(0.1 -0.1)">
       <use xlink:href="#DejaVuSans-49"/>
       <use x="63.623047" xlink:href="#DejaVuSans-57"/>
       <use x="127.246094" xlink:href="#DejaVuSans-56"/>
       <use x="190.869141" xlink:href="#DejaVuSans-57"/>
      </g>
     </g>
    </g>
    <g id="xtick_10">
     <g id="line2d_10">
      <g>
       <use style="stroke:#000000;stroke-width:0.8;" x="316.237229" xlink:href="#m724ed6bdb7" y="203.04"/>
      </g>
     </g>
     <g id="text_10">
      <!-- 1990 -->
      <g transform="translate(293.157039 229.34544)rotate(-30)scale(0.1 -0.1)">
       <defs>
        <path d="M 31.78125 66.40625 
Q 24.171875 66.40625 20.328125 58.90625 
Q 16.5 51.421875 16.5 36.375 
Q 16.5 21.390625 20.328125 13.890625 
Q 24.171875 6.390625 31.78125 6.390625 
Q 39.453125 6.390625 43.28125 13.890625 
Q 47.125 21.390625 47.125 36.375 
Q 47.125 51.421875 43.28125 58.90625 
Q 39.453125 66.40625 31.78125 66.40625 
z
M 31.78125 74.21875 
Q 44.046875 74.21875 50.515625 64.515625 
Q 56.984375 54.828125 56.984375 36.375 
Q 56.984375 17.96875 50.515625 8.265625 
Q 44.046875 -1.421875 31.78125 -1.421875 
Q 19.53125 -1.421875 13.0625 8.265625 
Q 6.59375 17.96875 6.59375 36.375 
Q 6.59375 54.828125 13.0625 64.515625 
Q 19.53125 74.21875 31.78125 74.21875 
z
" id="DejaVuSans-48"/>
       </defs>
       <use xlink:href="#DejaVuSans-49"/>
       <use x="63.623047" xlink:href="#DejaVuSans-57"/>
       <use x="127.246094" xlink:href="#DejaVuSans-57"/>
       <use x="190.869141" xlink:href="#DejaVuSans-48"/>
      </g>
     </g>
    </g>
    <g id="xtick_11">
     <g id="line2d_11">
      <g>
       <use style="stroke:#000000;stroke-width:0.8;" x="346.673593" xlink:href="#m724ed6bdb7" y="203.04"/>
      </g>
     </g>
     <g id="text_11">
      <!-- 1991 -->
      <g transform="translate(323.593403 229.34544)rotate(-30)scale(0.1 -0.1)">
       <use xlink:href="#DejaVuSans-49"/>
       <use x="63.623047" xlink:href="#DejaVuSans-57"/>
       <use x="127.246094" xlink:href="#DejaVuSans-57"/>
       <use x="190.869141" xlink:href="#DejaVuSans-49"/>
      </g>
     </g>
    </g>
   </g>
   <g id="matplotlib.axis_2">
    <g id="ytick_1">
     <g id="line2d_12">
      <defs>
       <path d="M 0 0 
L -3.5 0 
" id="mfdfbd94847" style="stroke:#000000;stroke-width:0.8;"/>
      </defs>
      <g>
       <use style="stroke:#000000;stroke-width:0.8;" x="26.925" xlink:href="#mfdfbd94847" y="194.138182"/>
      </g>
     </g>
     <g id="text_12">
      <!-- 0 -->
      <g transform="translate(13.5625 197.937401)scale(0.1 -0.1)">
       <use xlink:href="#DejaVuSans-48"/>
      </g>
     </g>
    </g>
    <g id="ytick_2">
     <g id="line2d_13">
      <g>
       <use style="stroke:#000000;stroke-width:0.8;" x="26.925" xlink:href="#mfdfbd94847" y="160.290964"/>
      </g>
     </g>
     <g id="text_13">
      <!-- 5 -->
      <g transform="translate(13.5625 164.090183)scale(0.1 -0.1)">
       <use xlink:href="#DejaVuSans-53"/>
      </g>
     </g>
    </g>
    <g id="ytick_3">
     <g id="line2d_14">
      <g>
       <use style="stroke:#000000;stroke-width:0.8;" x="26.925" xlink:href="#mfdfbd94847" y="126.443747"/>
      </g>
     </g>
     <g id="text_14">
      <!-- 10 -->
      <g transform="translate(7.2 130.242966)scale(0.1 -0.1)">
       <use xlink:href="#DejaVuSans-49"/>
       <use x="63.623047" xlink:href="#DejaVuSans-48"/>
      </g>
     </g>
    </g>
    <g id="ytick_4">
     <g id="line2d_15">
      <g>
       <use style="stroke:#000000;stroke-width:0.8;" x="26.925" xlink:href="#mfdfbd94847" y="92.59653"/>
      </g>
     </g>
     <g id="text_15">
      <!-- 15 -->
      <g transform="translate(7.2 96.395748)scale(0.1 -0.1)">
       <use xlink:href="#DejaVuSans-49"/>
       <use x="63.623047" xlink:href="#DejaVuSans-53"/>
      </g>
     </g>
    </g>
    <g id="ytick_5">
     <g id="line2d_16">
      <g>
       <use style="stroke:#000000;stroke-width:0.8;" x="26.925" xlink:href="#mfdfbd94847" y="58.749312"/>
      </g>
     </g>
     <g id="text_16">
      <!-- 20 -->
      <g transform="translate(7.2 62.548531)scale(0.1 -0.1)">
       <use xlink:href="#DejaVuSans-50"/>
       <use x="63.623047" xlink:href="#DejaVuSans-48"/>
      </g>
     </g>
    </g>
    <g id="ytick_6">
     <g id="line2d_17">
      <g>
       <use style="stroke:#000000;stroke-width:0.8;" x="26.925" xlink:href="#mfdfbd94847" y="24.902095"/>
      </g>
     </g>
     <g id="text_17">
      <!-- 25 -->
      <g transform="translate(7.2 28.701313)scale(0.1 -0.1)">
       <use xlink:href="#DejaVuSans-50"/>
       <use x="63.623047" xlink:href="#DejaVuSans-53"/>
      </g>
     </g>
    </g>
   </g>
   <g id="line2d_18">
    <path clip-path="url(#pd3c17d274b)" d="M 42.143182 72.965143 
L 42.226569 66.872644 
L 42.309956 95.304307 
L 42.393344 87.180975 
L 42.560118 87.180975 
L 42.643506 76.349865 
L 42.726893 46.564314 
L 42.893667 84.473197 
L 42.977055 104.104583 
L 43.227217 24.902095 
L 43.393991 54.687646 
L 43.477379 26.255983 
L 43.644153 89.211808 
L 43.72754 70.93431 
L 43.810928 112.227916 
L 44.144477 67.549589 
L 44.227864 62.810978 
L 44.478026 91.919585 
L 44.561413 89.888752 
L 44.644801 90.565697 
L 44.811575 45.88737 
L 45.145125 95.304307 
L 45.228512 78.380698 
L 45.311899 24.902095 
L 45.478674 101.396806 
L 45.562061 100.042917 
L 45.812223 44.533481 
L 45.89561 50.62598 
L 46.145772 85.150142 
L 46.229159 87.857919 
L 46.312547 81.76542 
L 46.395934 82.442364 
L 46.562709 96.658196 
L 46.646096 68.903477 
L 46.729483 79.734587 
L 46.81287 75.672921 
L 46.896258 50.62598 
L 46.979645 73.642088 
L 47.063032 68.226533 
L 47.479969 116.966526 
L 47.563356 83.796253 
L 47.646743 85.150142 
L 47.730131 114.258749 
L 47.813518 111.550971 
L 47.896905 94.627363 
L 48.06368 117.64347 
L 48.147067 122.382081 
L 48.313842 98.012084 
L 48.397229 118.320415 
L 48.480616 79.734587 
L 48.564004 81.088476 
L 48.730778 139.982634 
L 48.814166 134.567079 
L 48.897553 103.427639 
L 48.98094 120.351248 
L 49.064328 103.427639 
L 49.147715 119.674303 
L 49.314489 87.857919 
L 49.397877 95.981251 
L 49.648039 80.411531 
L 49.731426 75.672921 
L 49.814813 78.380698 
L 49.8982 71.611255 
L 49.981588 81.76542 
L 50.064975 126.443747 
L 50.23175 86.50403 
L 50.398524 142.690411 
L 50.565299 102.750695 
L 50.648686 106.135417 
L 50.732073 104.104583 
L 50.815461 112.227916 
L 50.898848 110.197083 
L 51.065623 100.719862 
L 51.232397 133.21319 
L 51.482559 116.289582 
L 51.649334 144.0443 
L 51.732721 127.120691 
L 51.816108 131.182357 
L 51.899496 127.120691 
L 51.982883 144.0443 
L 52.06627 135.920968 
L 52.233045 99.365973 
L 52.316432 135.920968 
L 52.399819 126.443747 
L 52.483207 102.750695 
L 52.816756 139.30569 
L 52.983531 122.382081 
L 53.066918 158.260131 
L 53.150305 149.459855 
L 53.31708 118.320415 
L 53.400467 127.797636 
L 53.650629 179.922351 
L 53.817403 157.583187 
L 53.984178 116.289582 
L 54.150953 108.843194 
L 54.23434 119.674303 
L 54.317727 118.320415 
L 54.484502 114.258749 
L 54.567889 107.489305 
L 54.818051 127.797636 
L 54.901438 118.320415 
L 54.984826 155.552354 
L 55.068213 146.075133 
L 55.1516 177.214573 
L 55.234988 170.44513 
L 55.318375 162.998742 
L 55.401762 119.674303 
L 55.485149 155.552354 
L 55.735311 116.966526 
L 55.985473 175.860684 
L 56.068861 165.029575 
L 56.152248 151.490688 
L 56.235635 168.414297 
L 56.319022 164.35263 
L 56.40241 146.075133 
L 56.485797 161.644853 
L 56.902733 125.089858 
L 56.986121 129.828469 
L 57.069508 129.828469 
L 57.152895 121.705137 
L 57.236283 126.443747 
L 57.31967 150.136799 
L 57.403057 146.752077 
L 57.569832 139.30569 
L 57.653219 149.459855 
L 57.819994 133.890135 
L 57.903381 162.998742 
L 57.986768 148.105966 
L 58.070156 155.552354 
L 58.320318 145.398189 
L 58.403705 151.490688 
L 58.487092 134.567079 
L 58.570479 160.290964 
L 58.820641 112.90486 
L 58.987416 133.890135 
L 59.070803 127.797636 
L 59.320965 142.013467 
L 59.404352 139.982634 
L 59.654514 172.475963 
L 59.988064 126.443747 
L 60.071451 152.167632 
L 60.154838 147.429022 
L 60.238225 150.136799 
L 60.405 146.752077 
L 60.571775 173.829851 
L 60.821936 133.21319 
L 60.905324 135.920968 
L 61.072098 123.059025 
L 61.155486 142.690411 
L 61.32226 109.520138 
L 61.572422 167.737352 
L 61.655809 149.459855 
L 61.739197 162.998742 
L 61.822584 146.752077 
L 61.989359 156.906243 
L 62.072746 139.30569 
L 62.156133 156.906243 
L 62.239521 152.167632 
L 62.406295 124.412914 
L 62.489682 127.797636 
L 62.57307 129.151524 
L 62.739844 143.367356 
L 62.906619 95.304307 
L 63.073394 141.336523 
L 63.156781 110.874027 
L 63.240168 125.766803 
L 63.323555 116.289582 
L 63.406943 144.721244 
L 63.573717 98.689029 
L 63.657105 121.705137 
L 63.740492 79.734587 
L 63.907267 150.136799 
L 63.990654 119.674303 
L 64.074041 151.490688 
L 64.157428 123.059025 
L 64.240816 145.398189 
L 64.324203 142.690411 
L 64.40759 121.705137 
L 64.490978 141.336523 
L 64.741139 110.197083 
L 64.824527 133.890135 
L 64.907914 104.781528 
L 65.074689 152.167632 
L 65.241463 104.781528 
L 65.324851 97.33514 
L 65.408238 144.721244 
L 65.491625 106.812361 
L 65.6584 152.167632 
L 65.741787 156.229298 
L 65.908562 104.104583 
L 65.991949 137.951801 
L 66.075336 125.089858 
L 66.242111 144.721244 
L 66.492273 104.781528 
L 66.742435 149.459855 
L 66.992597 104.781528 
L 67.075984 109.520138 
L 67.242758 119.674303 
L 67.326146 114.935693 
L 67.409533 131.859302 
L 67.659695 101.396806 
L 67.743082 123.73597 
L 67.826469 116.289582 
L 67.909857 142.690411 
L 68.160019 87.857919 
L 68.326793 123.059025 
L 68.493568 129.828469 
L 68.576955 117.64347 
L 68.660342 133.890135 
L 68.74373 130.505413 
L 68.827117 113.581804 
L 68.910504 114.935693 
L 68.993892 103.427639 
L 69.077279 108.843194 
L 69.160666 125.766803 
L 69.244054 87.180975 
L 69.494215 127.120691 
L 69.66099 73.642088 
L 69.744377 92.59653 
L 69.994539 123.059025 
L 70.077927 98.012084 
L 70.161314 116.289582 
L 70.328088 92.59653 
L 70.411476 94.627363 
L 70.57825 109.520138 
L 70.745025 93.950418 
L 70.828412 77.703754 
L 70.9118 128.47458 
L 70.995187 112.227916 
L 71.078574 107.489305 
L 71.161961 118.320415 
L 71.245349 83.119309 
L 71.328736 88.534863 
L 71.495511 119.674303 
L 71.578898 118.997359 
L 71.662285 92.59653 
L 71.745672 107.489305 
L 71.82906 92.59653 
L 71.995834 99.365973 
L 72.079222 89.211808 
L 72.162609 104.104583 
L 72.412771 76.349865 
L 72.496158 79.057643 
L 72.662933 102.750695 
L 72.74632 91.242641 
L 72.913095 109.520138 
L 73.163257 84.473197 
L 73.246644 87.180975 
L 73.413418 43.856536 
L 73.580193 106.135417 
L 73.746968 87.180975 
L 73.830355 31.671538 
L 73.913742 72.288199 
L 73.99713 60.780145 
L 74.080517 23.548206 
L 74.330679 87.180975 
L 74.497453 69.580422 
L 74.580841 104.104583 
L 74.664228 95.304307 
L 74.747615 109.520138 
L 74.91439 78.380698 
L 74.997777 99.365973 
L 75.081164 95.304307 
L 75.164552 104.104583 
L 75.331326 91.919585 
L 75.414714 105.458472 
L 75.498101 102.07375 
L 75.664875 40.471815 
L 75.83165 102.750695 
L 76.165199 39.79487 
L 76.248587 16.101818 
L 76.415361 79.057643 
L 76.582136 107.489305 
L 76.74891 88.534863 
L 76.832298 105.458472 
L 76.915685 91.242641 
L 77.08246 109.520138 
L 77.165847 95.304307 
L 77.249234 123.73597 
L 77.332621 100.042917 
L 77.416009 113.581804 
L 77.499396 102.750695 
L 77.582783 127.797636 
L 77.749558 48.595147 
L 77.832945 62.134034 
L 77.916333 81.088476 
L 77.99972 64.841811 
L 78.166494 133.21319 
L 78.249882 126.443747 
L 78.333269 95.304307 
L 78.416656 109.520138 
L 78.666818 43.856536 
L 78.91698 127.797636 
L 79.167142 54.010702 
L 79.333917 104.781528 
L 79.584078 77.703754 
L 79.667466 103.427639 
L 79.750853 98.012084 
L 79.83424 97.33514 
L 79.917628 125.089858 
L 80.001015 123.73597 
L 80.084402 110.874027 
L 80.16779 113.581804 
L 80.251177 118.320415 
L 80.334564 136.597912 
L 80.501339 110.197083 
L 80.584726 106.812361 
L 80.668113 125.766803 
L 80.751501 92.59653 
L 80.834888 102.07375 
L 80.918275 110.197083 
L 81.08505 85.150142 
L 81.168437 62.134034 
L 81.335212 131.182357 
L 81.418599 125.766803 
L 81.501986 144.0443 
L 81.585374 135.920968 
L 81.668761 141.336523 
L 81.752148 132.536246 
L 81.918923 82.442364 
L 82.169085 147.429022 
L 82.419247 121.028192 
L 82.586021 151.490688 
L 82.752796 100.719862 
L 83.002958 125.766803 
L 83.169732 156.906243 
L 83.503281 118.320415 
L 83.586669 132.536246 
L 83.670056 169.091241 
L 83.753443 162.998742 
L 83.836831 149.459855 
L 84.003605 91.242641 
L 84.086993 142.690411 
L 84.17038 137.274857 
L 84.253767 153.521521 
L 84.503929 118.997359 
L 84.754091 99.365973 
L 84.920866 116.289582 
L 85.004253 146.752077 
L 85.08764 146.075133 
L 85.171027 133.21319 
L 85.337802 177.214573 
L 85.421189 194.138182 
L 85.671351 155.552354 
L 85.754738 178.568462 
L 85.921513 138.628745 
L 86.0049 147.429022 
L 86.088288 144.721244 
L 86.171675 153.521521 
L 86.33845 142.690411 
L 86.505224 139.982634 
L 86.588611 148.105966 
L 86.671999 144.721244 
L 86.755386 152.167632 
L 86.838773 147.429022 
L 86.922161 133.890135 
L 87.088935 185.337905 
L 87.172323 188.722627 
L 87.422484 142.013467 
L 87.505872 133.21319 
L 87.672646 183.307072 
L 87.922808 167.737352 
L 88.089583 141.336523 
L 88.256357 177.891517 
L 88.339745 175.18374 
L 88.423132 167.060408 
L 88.589907 141.336523 
L 88.756681 171.799018 
L 88.840068 160.290964 
L 88.923456 169.091241 
L 89.006843 167.737352 
L 89.09023 158.937076 
L 89.173618 192.784293 
L 89.257005 188.722627 
L 89.340392 188.045683 
L 89.590554 129.828469 
L 89.673941 133.21319 
L 89.757329 170.44513 
L 89.840716 163.675686 
L 90.174265 128.47458 
L 90.257653 137.951801 
L 90.34104 132.536246 
L 90.507814 179.245406 
L 90.591202 163.675686 
L 90.674589 168.414297 
L 90.757976 168.414297 
L 90.924751 116.289582 
L 91.008138 125.089858 
L 91.091526 140.659578 
L 91.2583 129.828469 
L 91.341687 153.521521 
L 91.508462 131.859302 
L 91.591849 165.029575 
L 91.842011 104.781528 
L 92.008786 159.61402 
L 92.092173 112.227916 
L 92.17556 118.320415 
L 92.342335 162.998742 
L 92.425722 146.752077 
L 92.50911 98.012084 
L 92.592497 108.16625 
L 92.759271 167.060408 
L 92.926046 123.059025 
L 93.092821 163.675686 
L 93.176208 138.628745 
L 93.259595 165.029575 
L 93.342983 127.797636 
L 93.509757 160.290964 
L 93.676532 133.21319 
L 93.759919 169.768185 
L 94.093468 92.59653 
L 94.34363 165.706519 
L 94.427017 167.060408 
L 94.677179 136.597912 
L 94.760567 116.289582 
L 94.843954 142.013467 
L 94.927341 131.859302 
L 95.177503 151.490688 
L 95.26089 135.920968 
L 95.344278 152.844577 
L 95.427665 104.781528 
L 95.59444 162.321797 
L 95.677827 154.87541 
L 95.761214 93.273474 
L 95.927989 135.920968 
L 96.011376 130.505413 
L 96.094763 155.552354 
L 96.261538 105.458472 
L 96.428313 138.628745 
L 96.5117 127.797636 
L 96.678474 154.87541 
L 96.761862 127.797636 
L 96.845249 140.659578 
L 97.095411 122.382081 
L 97.178798 139.982634 
L 97.345573 91.919585 
L 97.42896 100.042917 
L 97.595735 133.21319 
L 97.679122 104.781528 
L 97.762509 146.752077 
L 97.845897 122.382081 
L 97.929284 147.429022 
L 98.262833 74.319032 
L 98.34622 85.827086 
L 98.512995 123.059025 
L 98.596382 96.658196 
L 98.763157 133.21319 
L 99.013319 72.288199 
L 99.263481 132.536246 
L 99.346868 135.244024 
L 99.513643 108.843194 
L 99.59703 124.412914 
L 99.763804 85.827086 
L 99.847192 87.180975 
L 99.930579 112.227916 
L 100.013966 109.520138 
L 100.097354 111.550971 
L 100.264128 85.150142 
L 100.347516 89.211808 
L 100.430903 124.412914 
L 100.51429 123.059025 
L 100.681065 113.581804 
L 100.764452 106.135417 
L 100.931227 122.382081 
L 101.098001 106.135417 
L 101.181389 111.550971 
L 101.264776 108.843194 
L 101.348163 67.549589 
L 101.43155 91.242641 
L 101.514938 90.565697 
L 101.598325 100.042917 
L 101.681712 87.180975 
L 101.848487 106.135417 
L 101.931874 101.396806 
L 102.098649 121.028192 
L 102.182036 88.534863 
L 102.265423 90.565697 
L 102.432198 106.135417 
L 102.598973 83.796253 
L 102.68236 87.180975 
L 102.765747 74.319032 
L 102.849134 83.796253 
L 102.932522 69.580422 
L 103.099296 120.351248 
L 103.182684 116.966526 
L 103.266071 93.950418 
L 103.349458 112.227916 
L 103.432846 107.489305 
L 103.516233 84.473197 
L 103.59962 89.211808 
L 103.849782 132.536246 
L 104.099944 108.16625 
L 104.183331 108.16625 
L 104.266719 116.289582 
L 104.350106 100.719862 
L 104.433493 104.104583 
L 104.51688 115.612637 
L 104.600268 89.888752 
L 104.683655 110.197083 
L 104.767042 79.734587 
L 104.933817 122.382081 
L 105.017204 88.534863 
L 105.100592 121.705137 
L 105.350753 97.33514 
L 105.434141 99.365973 
L 105.517528 71.611255 
L 105.600915 77.02681 
L 105.684303 106.135417 
L 105.76769 85.827086 
L 105.851077 93.273474 
L 105.934465 84.473197 
L 106.101239 41.825703 
L 106.268014 86.50403 
L 106.351401 80.411531 
L 106.518176 107.489305 
L 106.601563 99.365973 
L 106.768337 48.595147 
L 106.935112 102.07375 
L 107.018499 95.981251 
L 107.101887 98.012084 
L 107.185274 87.857919 
L 107.268661 60.780145 
L 107.435436 96.658196 
L 107.685598 56.041535 
L 107.852372 59.426256 
L 107.93576 45.210425 
L 108.019147 55.36459 
L 108.102534 44.533481 
L 108.185922 54.687646 
L 108.269309 92.59653 
L 108.436083 48.595147 
L 108.602858 98.689029 
L 108.686245 95.981251 
L 108.769633 51.302924 
L 108.936407 91.242641 
L 109.019795 105.458472 
L 109.103182 104.781528 
L 109.186569 109.520138 
L 109.353344 74.995976 
L 109.436731 89.211808 
L 109.520118 81.088476 
L 109.603506 83.796253 
L 109.77028 108.16625 
L 109.853667 126.443747 
L 110.020442 108.843194 
L 110.187217 126.443747 
L 110.270604 100.042917 
L 110.353991 103.427639 
L 110.437379 109.520138 
L 110.520766 107.489305 
L 110.604153 141.336523 
L 110.68754 118.997359 
L 110.770928 121.705137 
L 110.937702 148.78291 
L 111.02109 155.552354 
L 111.271252 89.211808 
L 111.354639 118.997359 
L 111.438026 114.935693 
L 111.521413 116.289582 
L 111.688188 152.167632 
L 111.771575 148.78291 
L 111.93835 134.567079 
L 112.021737 139.982634 
L 112.271899 82.442364 
L 112.438674 123.059025 
L 112.605448 106.135417 
L 112.688836 135.244024 
L 112.772223 125.766803 
L 113.022385 102.750695 
L 113.105772 101.396806 
L 113.189159 102.750695 
L 113.272547 121.705137 
L 113.355934 106.135417 
L 113.439321 115.612637 
L 113.522709 106.135417 
L 113.606096 118.320415 
L 113.689483 102.750695 
L 113.77287 106.812361 
L 113.856258 148.105966 
L 114.023032 95.981251 
L 114.273194 162.998742 
L 114.356582 160.967909 
L 114.523356 137.951801 
L 114.690131 152.167632 
L 114.773518 141.336523 
L 114.856905 104.781528 
L 114.940293 113.581804 
L 115.02368 150.136799 
L 115.190455 112.227916 
L 115.357229 143.367356 
L 115.524004 119.674303 
L 115.607391 121.028192 
L 115.690778 158.260131 
L 115.774166 142.690411 
L 115.857553 156.229298 
L 116.024328 129.151524 
L 116.107715 146.752077 
L 116.191102 137.951801 
L 116.274489 141.336523 
L 116.357877 162.321797 
L 116.608039 137.951801 
L 116.691426 129.828469 
L 116.8582 173.829851 
L 116.941588 183.984017 
L 117.024975 177.214573 
L 117.19175 115.612637 
L 117.358524 149.459855 
L 117.441912 139.982634 
L 117.525299 140.659578 
L 117.608686 171.799018 
L 117.692073 167.737352 
L 117.775461 153.521521 
L 117.858848 167.060408 
L 118.10901 127.797636 
L 118.192397 129.828469 
L 118.275785 145.398189 
L 118.359172 139.30569 
L 118.442559 139.982634 
L 118.609334 134.567079 
L 118.692721 137.951801 
L 118.776108 177.891517 
L 119.02627 148.78291 
L 119.109658 137.274857 
L 119.193045 150.136799 
L 119.276432 140.659578 
L 119.359819 166.383464 
L 119.526594 143.367356 
L 119.693369 177.214573 
L 119.860143 149.459855 
L 119.943531 194.138182 
L 120.026918 189.399571 
L 120.193692 110.874027 
L 120.27708 131.859302 
L 120.360467 129.151524 
L 120.443854 129.828469 
L 120.527242 126.443747 
L 120.610629 142.013467 
L 120.694016 139.982634 
L 120.860791 137.951801 
L 120.944178 163.675686 
L 121.277727 123.059025 
L 121.361115 121.705137 
L 121.444502 127.120691 
L 121.611276 154.87541 
L 121.861438 97.33514 
L 122.1116 173.829851 
L 122.361762 118.997359 
L 122.445149 123.059025 
L 122.528537 133.21319 
L 122.611924 106.135417 
L 122.695311 150.813744 
L 122.778699 137.274857 
L 122.862086 148.78291 
L 123.028861 118.320415 
L 123.112248 126.443747 
L 123.195635 125.766803 
L 123.36241 120.351248 
L 123.445797 155.552354 
L 123.612572 123.73597 
L 123.779346 111.550971 
L 124.112895 156.906243 
L 124.196283 146.075133 
L 124.27967 150.136799 
L 124.363057 165.029575 
L 124.446445 160.290964 
L 124.529832 118.320415 
L 124.613219 143.367356 
L 124.779994 102.07375 
L 124.863381 137.951801 
L 124.946768 136.597912 
L 125.030156 106.812361 
L 125.280318 170.44513 
L 125.447092 89.888752 
L 125.613867 129.151524 
L 125.697254 131.182357 
L 125.780641 100.042917 
L 125.864029 142.013467 
L 125.947416 129.828469 
L 126.114191 147.429022 
L 126.197578 148.105966 
L 126.280965 154.87541 
L 126.364352 153.521521 
L 126.781289 84.473197 
L 126.948064 114.258749 
L 127.114838 126.443747 
L 127.198225 111.550971 
L 127.281613 133.890135 
L 127.365 124.412914 
L 127.448387 143.367356 
L 127.615162 108.843194 
L 127.698549 106.812361 
L 127.781936 114.935693 
L 127.865324 99.365973 
L 128.032098 133.21319 
L 128.115486 131.859302 
L 128.198873 127.797636 
L 128.28226 114.258749 
L 128.365648 122.382081 
L 128.449035 108.843194 
L 128.699197 143.367356 
L 128.865971 93.950418 
L 129.032746 142.013467 
L 129.199521 121.028192 
L 129.282908 121.028192 
L 129.449682 104.781528 
L 129.616457 155.552354 
L 129.699844 127.797636 
L 129.783232 144.721244 
L 130.033394 84.473197 
L 130.200168 95.981251 
L 130.283555 86.50403 
L 130.45033 98.012084 
L 130.700492 74.995976 
L 130.867267 116.966526 
L 131.034041 104.781528 
L 131.117428 112.90486 
L 131.200816 90.565697 
L 131.36759 112.227916 
L 131.450978 100.719862 
L 131.534365 120.351248 
L 131.617752 112.90486 
L 131.701139 82.442364 
L 131.784527 92.59653 
L 131.867914 118.320415 
L 132.034689 92.59653 
L 132.118076 93.950418 
L 132.201463 92.59653 
L 132.284851 104.104583 
L 132.368238 56.041535 
L 132.451625 72.288199 
L 132.535012 111.550971 
L 132.6184 81.088476 
L 132.701787 100.719862 
L 132.785174 75.672921 
L 133.035336 118.997359 
L 133.202111 56.041535 
L 133.285498 72.288199 
L 133.368885 62.134034 
L 133.702435 119.674303 
L 133.785822 83.796253 
L 133.869209 85.150142 
L 133.952597 106.135417 
L 134.035984 103.427639 
L 134.119371 91.242641 
L 134.202758 109.520138 
L 134.45292 68.226533 
L 134.536308 72.288199 
L 134.619695 70.93431 
L 134.703082 116.966526 
L 134.786469 113.581804 
L 134.869857 111.550971 
L 134.953244 93.950418 
L 135.203406 123.059025 
L 135.370181 66.872644 
L 135.620342 122.382081 
L 135.70373 94.627363 
L 135.870504 112.227916 
L 135.953892 94.627363 
L 136.037279 118.997359 
L 136.204054 88.534863 
L 136.287441 98.012084 
L 136.454215 72.288199 
L 136.537603 92.59653 
L 136.62099 86.50403 
L 136.704377 89.211808 
L 136.787765 87.180975 
L 136.871152 81.76542 
L 136.954539 102.07375 
L 137.037927 100.719862 
L 137.288088 81.76542 
L 137.371476 97.33514 
L 137.53825 66.1957 
L 137.621638 67.549589 
L 137.705025 95.981251 
L 137.788412 82.442364 
L 138.038574 114.935693 
L 138.121961 91.919585 
L 138.205349 118.320415 
L 138.288736 102.750695 
L 138.372123 108.843194 
L 138.455511 134.567079 
L 138.705672 95.981251 
L 138.78906 62.134034 
L 138.955834 100.719862 
L 139.039222 123.059025 
L 139.122609 100.719862 
L 139.205996 116.966526 
L 139.289384 88.534863 
L 139.372771 118.997359 
L 139.456158 112.227916 
L 139.539545 98.012084 
L 139.622933 120.351248 
L 139.70632 98.012084 
L 139.789707 100.719862 
L 139.873095 91.919585 
L 140.039869 112.227916 
L 140.290031 73.642088 
L 140.373418 130.505413 
L 140.456806 125.089858 
L 140.540193 144.0443 
L 140.62358 135.244024 
L 140.790355 90.565697 
L 140.95713 128.47458 
L 141.040517 124.412914 
L 141.207291 138.628745 
L 141.457453 109.520138 
L 141.540841 133.21319 
L 141.624228 128.47458 
L 141.707615 125.766803 
L 141.87439 112.90486 
L 142.041164 121.028192 
L 142.124552 107.489305 
L 142.207939 127.797636 
L 142.291326 101.396806 
L 142.374714 119.674303 
L 142.458101 104.781528 
L 142.541488 106.135417 
L 142.624875 125.089858 
L 142.708263 104.781528 
L 142.79165 131.182357 
L 142.875037 118.997359 
L 143.041812 135.244024 
L 143.208587 109.520138 
L 143.291974 150.136799 
L 143.542136 94.627363 
L 143.792298 171.799018 
L 143.875685 170.44513 
L 143.959072 155.552354 
L 144.04246 156.906243 
L 144.292621 127.120691 
L 144.376009 160.967909 
L 144.459396 151.490688 
L 144.542783 161.644853 
L 144.876333 130.505413 
L 144.95972 135.244024 
L 145.043107 129.828469 
L 145.126494 112.227916 
L 145.293269 131.182357 
L 145.460044 139.982634 
L 145.543431 127.797636 
L 145.626818 152.167632 
L 145.710205 144.721244 
L 145.793593 120.351248 
L 145.87698 126.443747 
L 145.960367 135.244024 
L 146.043755 133.21319 
L 146.210529 110.197083 
L 146.377304 145.398189 
L 146.460691 118.997359 
L 146.544078 131.182357 
L 146.627466 125.766803 
L 146.710853 167.737352 
L 146.79424 160.290964 
L 146.877628 138.628745 
L 146.961015 175.18374 
L 147.044402 165.029575 
L 147.211177 118.997359 
L 147.294564 162.321797 
L 147.377951 158.260131 
L 147.461339 126.443747 
L 147.628113 179.245406 
L 147.794888 137.951801 
L 147.878275 135.920968 
L 147.961663 125.766803 
L 148.128437 145.398189 
L 148.461986 130.505413 
L 148.545374 141.336523 
L 148.712148 177.891517 
L 148.795535 167.737352 
L 148.878923 185.337905 
L 148.96231 179.922351 
L 149.045697 144.0443 
L 149.129085 145.398189 
L 149.295859 133.890135 
L 149.379247 134.567079 
L 149.462634 139.982634 
L 149.629408 193.461237 
L 149.712796 188.045683 
L 149.796183 141.336523 
L 149.87957 145.398189 
L 149.962958 139.982634 
L 150.046345 162.998742 
L 150.129732 158.937076 
L 150.296507 148.105966 
L 150.379894 139.30569 
L 150.463281 143.367356 
L 150.630056 162.998742 
L 150.796831 128.47458 
L 150.880218 146.752077 
L 151.046993 122.382081 
L 151.13038 116.289582 
L 151.213767 125.089858 
L 151.297154 118.997359 
L 151.380542 119.674303 
L 151.463929 133.890135 
L 151.630704 114.935693 
L 151.714091 115.612637 
L 151.880866 151.490688 
L 151.964253 135.244024 
L 152.04764 136.597912 
L 152.131027 136.597912 
L 152.214415 139.982634 
L 152.297802 153.521521 
L 152.464577 136.597912 
L 152.547964 142.013467 
L 152.714738 133.21319 
L 152.881513 148.105966 
L 152.9649 131.182357 
L 153.048288 148.78291 
L 153.131675 133.21319 
L 153.29845 151.490688 
L 153.381837 140.659578 
L 153.465224 158.937076 
L 153.631999 117.64347 
L 153.715386 131.859302 
L 153.798773 117.64347 
L 153.882161 146.752077 
L 153.965548 139.982634 
L 154.048935 162.998742 
L 154.21571 129.828469 
L 154.299097 130.505413 
L 154.382484 123.059025 
L 154.465872 128.47458 
L 154.549259 160.967909 
L 154.632646 139.982634 
L 154.799421 156.906243 
L 154.966196 114.935693 
L 155.13297 133.890135 
L 155.216357 117.64347 
L 155.383132 152.167632 
L 155.466519 149.459855 
L 155.549907 132.536246 
L 155.633294 152.844577 
L 155.800068 121.705137 
L 155.966843 156.906243 
L 156.05023 148.78291 
L 156.133618 165.706519 
L 156.300392 83.796253 
L 156.467167 124.412914 
L 156.633941 142.013467 
L 156.717329 85.827086 
L 156.800716 95.304307 
L 156.967491 139.30569 
L 157.134265 77.703754 
L 157.30104 135.244024 
L 157.467814 161.644853 
L 157.717976 128.47458 
L 157.801364 127.120691 
L 157.884751 150.136799 
L 157.968138 127.797636 
L 158.051526 70.93431 
L 158.2183 132.536246 
L 158.301687 129.151524 
L 158.385075 102.750695 
L 158.635237 136.597912 
L 158.802011 81.76542 
L 158.885399 115.612637 
L 158.968786 111.550971 
L 159.13556 131.859302 
L 159.218948 127.120691 
L 159.385722 88.534863 
L 159.46911 65.518756 
L 159.635884 111.550971 
L 159.719271 112.90486 
L 159.802659 118.997359 
L 159.886046 114.258749 
L 159.969433 142.690411 
L 160.052821 106.135417 
L 160.136208 108.16625 
L 160.219595 85.827086 
L 160.38637 98.012084 
L 160.553144 134.567079 
L 160.636532 115.612637 
L 160.719919 135.920968 
L 160.886694 29.640705 
L 161.053468 121.028192 
L 161.136856 112.90486 
L 161.220243 119.674303 
L 161.30363 108.843194 
L 161.470405 132.536246 
L 161.637179 106.135417 
L 161.720567 107.489305 
L 161.803954 127.120691 
L 161.887341 115.612637 
L 161.970729 123.059025 
L 162.054116 86.50403 
L 162.137503 111.550971 
L 162.22089 106.135417 
L 162.471052 116.966526 
L 162.55444 112.227916 
L 162.637827 80.411531 
L 162.804601 117.64347 
L 162.887989 123.73597 
L 162.971376 98.012084 
L 163.054763 116.966526 
L 163.221538 82.442364 
L 163.388313 111.550971 
L 163.4717 112.90486 
L 163.555087 108.843194 
L 163.721862 83.119309 
L 163.805249 104.104583 
L 163.972024 91.242641 
L 164.138798 108.16625 
L 164.222186 95.304307 
L 164.305573 119.674303 
L 164.38896 104.781528 
L 164.472347 111.550971 
L 164.555735 96.658196 
L 164.639122 101.396806 
L 164.722509 95.981251 
L 164.805897 98.689029 
L 164.889284 96.658196 
L 164.972671 60.780145 
L 165.222833 114.258749 
L 165.30622 112.90486 
L 165.389608 116.966526 
L 165.472995 96.658196 
L 165.556382 110.197083 
L 165.723157 88.534863 
L 165.806544 91.242641 
L 165.889932 107.489305 
L 165.973319 104.104583 
L 166.056706 75.672921 
L 166.223481 102.750695 
L 166.306868 81.088476 
L 166.473643 93.273474 
L 166.55703 125.089858 
L 166.723804 65.518756 
L 166.807192 87.857919 
L 166.890579 72.288199 
L 167.057354 100.042917 
L 167.140741 106.135417 
L 167.224128 90.565697 
L 167.307516 97.33514 
L 167.47429 85.827086 
L 167.557677 93.273474 
L 167.641065 118.997359 
L 167.724452 93.950418 
L 167.974614 120.351248 
L 168.224776 71.611255 
L 168.39155 124.412914 
L 168.558325 100.719862 
L 168.641712 124.412914 
L 168.7251 119.674303 
L 168.891874 89.211808 
L 168.975262 94.627363 
L 169.142036 121.705137 
L 169.225423 108.843194 
L 169.308811 127.797636 
L 169.725747 42.502648 
L 169.809134 79.057643 
L 169.892522 47.241258 
L 169.975909 49.272091 
L 170.142684 84.473197 
L 170.392846 69.580422 
L 170.476233 77.703754 
L 170.643007 66.872644 
L 170.976557 117.64347 
L 171.143331 81.76542 
L 171.226719 99.365973 
L 171.310106 97.33514 
L 171.393493 83.119309 
L 171.47688 113.581804 
L 171.643655 74.995976 
L 171.727042 75.672921 
L 171.81043 86.50403 
L 171.893817 84.473197 
L 172.060592 86.50403 
L 172.227366 84.473197 
L 172.310753 62.134034 
L 172.394141 70.93431 
L 172.477528 46.564314 
L 172.72769 139.30569 
L 172.977852 122.382081 
L 173.061239 151.490688 
L 173.144626 135.920968 
L 173.228014 148.105966 
L 173.311401 135.244024 
L 173.394788 137.274857 
L 173.728337 112.90486 
L 173.895112 130.505413 
L 173.978499 125.766803 
L 174.061887 139.982634 
L 174.312049 89.888752 
L 174.395436 133.21319 
L 174.478823 123.73597 
L 174.645598 112.227916 
L 174.728985 103.427639 
L 174.89576 148.78291 
L 174.979147 127.797636 
L 175.062534 121.028192 
L 175.229309 163.675686 
L 175.312696 142.690411 
L 175.396083 147.429022 
L 175.562858 136.597912 
L 175.646245 156.906243 
L 175.729633 129.828469 
L 175.896407 157.583187 
L 175.979795 156.906243 
L 176.229956 103.427639 
L 176.396731 125.766803 
L 176.480118 165.029575 
L 176.563506 156.906243 
L 176.646893 164.35263 
L 176.897055 138.628745 
L 176.980442 138.628745 
L 177.063829 165.706519 
L 177.230604 126.443747 
L 177.313991 134.567079 
L 177.397379 149.459855 
L 177.564153 125.766803 
L 177.64754 146.075133 
L 177.730928 142.013467 
L 177.814315 136.597912 
L 177.98109 147.429022 
L 178.064477 137.274857 
L 178.231252 151.490688 
L 178.314639 190.076516 
L 178.398026 183.307072 
L 178.564801 137.951801 
L 178.648188 139.982634 
L 178.814963 122.382081 
L 178.89835 123.73597 
L 178.981737 115.612637 
L 179.148512 121.705137 
L 179.315286 165.706519 
L 179.398674 162.321797 
L 179.482061 156.229298 
L 179.565448 142.013467 
L 179.648836 143.367356 
L 179.732223 160.967909 
L 179.898998 141.336523 
L 179.982385 154.87541 
L 180.149159 137.274857 
L 180.232547 152.167632 
L 180.315934 143.367356 
L 180.482709 171.799018 
L 180.566096 172.475963 
L 180.73287 137.274857 
L 180.899645 192.107349 
L 180.983032 179.922351 
L 181.06642 136.597912 
L 181.149807 184.660961 
L 181.316582 124.412914 
L 181.399969 149.459855 
L 181.483356 152.844577 
L 181.566743 146.752077 
L 181.650131 159.61402 
L 181.816905 147.429022 
L 181.900293 116.966526 
L 181.98368 123.73597 
L 182.067067 124.412914 
L 182.233842 145.398189 
L 182.317229 143.367356 
L 182.400616 167.060408 
L 182.734166 119.674303 
L 182.817553 137.274857 
L 182.90094 134.567079 
L 183.067715 137.951801 
L 183.234489 169.768185 
L 183.317877 155.552354 
L 183.401264 122.382081 
L 183.484651 147.429022 
L 183.568039 126.443747 
L 183.651426 127.797636 
L 183.734813 145.398189 
L 183.8182 123.059025 
L 183.901588 169.768185 
L 183.984975 158.260131 
L 184.15175 124.412914 
L 184.235137 140.659578 
L 184.318524 136.597912 
L 184.401912 140.659578 
L 184.485299 139.982634 
L 184.568686 127.797636 
L 184.735461 161.644853 
L 184.902235 107.489305 
L 184.985623 120.351248 
L 185.152397 114.935693 
L 185.235785 119.674303 
L 185.485946 157.583187 
L 185.652721 128.47458 
L 185.736108 137.274857 
L 185.819496 133.21319 
L 185.902883 135.244024 
L 185.98627 149.459855 
L 186.153045 105.458472 
L 186.319819 150.136799 
L 186.486594 135.244024 
L 186.569981 145.398189 
L 186.653369 123.059025 
L 186.820143 145.398189 
L 186.986918 84.473197 
L 187.070305 152.844577 
L 187.320467 102.07375 
L 187.403854 121.705137 
L 187.487242 94.627363 
L 187.654016 144.721244 
L 187.737403 139.982634 
L 187.820791 129.151524 
L 187.904178 85.827086 
L 187.987565 91.919585 
L 188.070953 107.489305 
L 188.15434 152.167632 
L 188.237727 146.075133 
L 188.487889 108.16625 
L 188.738051 150.136799 
L 188.988213 94.627363 
L 189.154988 148.105966 
L 189.238375 144.0443 
L 189.321762 118.320415 
L 189.405149 131.859302 
L 189.655311 78.380698 
L 189.822086 104.104583 
L 189.905473 89.888752 
L 189.988861 104.781528 
L 190.072248 96.658196 
L 190.155635 99.365973 
L 190.239022 89.211808 
L 190.32241 51.979869 
L 190.489184 129.151524 
L 190.655959 111.550971 
L 190.739346 117.64347 
L 190.822733 104.781528 
L 190.989508 125.766803 
L 191.072895 134.567079 
L 191.23967 84.473197 
L 191.323057 85.827086 
L 191.573219 109.520138 
L 191.656606 107.489305 
L 191.739994 110.874027 
L 191.823381 91.242641 
L 191.906768 92.59653 
L 191.990156 83.119309 
L 192.073543 85.150142 
L 192.15693 95.304307 
L 192.240318 70.93431 
L 192.490479 94.627363 
L 192.573867 87.180975 
L 192.740641 102.750695 
L 192.907416 101.396806 
L 192.990803 102.07375 
L 193.074191 112.227916 
L 193.40774 92.59653 
L 193.574514 112.90486 
L 193.741289 104.781528 
L 193.824676 104.104583 
L 193.991451 121.028192 
L 194.074838 112.90486 
L 194.158225 83.796253 
L 194.325 106.812361 
L 194.408387 100.719862 
L 194.491775 122.382081 
L 194.658549 101.396806 
L 194.741936 108.843194 
L 194.825324 105.458472 
L 194.908711 89.888752 
L 194.992098 113.581804 
L 195.24226 91.242641 
L 195.409035 111.550971 
L 195.492422 85.150142 
L 195.659197 115.612637 
L 195.742584 105.458472 
L 195.825971 107.489305 
L 195.909359 91.242641 
L 195.992746 100.719862 
L 196.076133 92.59653 
L 196.242908 114.258749 
L 196.326295 90.565697 
L 196.409682 102.750695 
L 196.49307 90.565697 
L 196.576457 100.719862 
L 196.743232 76.349865 
L 196.910006 95.304307 
L 196.993394 93.950418 
L 197.076781 121.705137 
L 197.160168 115.612637 
L 197.326943 96.658196 
L 197.41033 114.258749 
L 197.577105 85.827086 
L 197.660492 114.258749 
L 197.743879 95.981251 
L 197.827267 121.705137 
L 198.077428 49.272091 
L 198.32759 108.16625 
L 198.577752 92.59653 
L 198.661139 95.981251 
L 198.827914 116.966526 
L 198.911301 109.520138 
L 198.994689 112.90486 
L 199.244851 74.319032 
L 199.411625 104.104583 
L 199.745174 58.749312 
L 199.828562 109.520138 
L 199.911949 108.16625 
L 199.995336 114.935693 
L 200.078724 108.16625 
L 200.162111 135.920968 
L 200.328885 85.827086 
L 200.412273 91.242641 
L 200.662435 118.997359 
L 200.829209 79.057643 
L 200.912597 68.903477 
L 201.162758 84.473197 
L 201.246146 85.150142 
L 201.329533 104.781528 
L 201.41292 72.288199 
L 201.579695 114.935693 
L 201.663082 81.088476 
L 201.746469 88.534863 
L 201.829857 125.089858 
L 201.913244 124.412914 
L 202.080019 72.288199 
L 202.246793 123.059025 
L 202.330181 114.258749 
L 202.413568 145.398189 
L 202.496955 115.612637 
L 202.580342 144.0443 
L 202.66373 98.012084 
L 202.747117 111.550971 
L 202.830504 133.21319 
L 202.997279 60.780145 
L 203.164054 110.197083 
L 203.414215 118.997359 
L 203.58099 98.012084 
L 203.664377 115.612637 
L 203.747765 112.90486 
L 203.831152 116.289582 
L 203.914539 137.951801 
L 203.997927 123.059025 
L 204.164701 147.429022 
L 204.331476 118.997359 
L 204.49825 142.013467 
L 204.665025 123.73597 
L 204.748412 139.982634 
L 204.998574 106.812361 
L 205.081961 110.874027 
L 205.165349 147.429022 
L 205.332123 119.674303 
L 205.415511 128.47458 
L 205.665672 103.427639 
L 205.74906 120.351248 
L 205.915834 112.227916 
L 206.082609 126.443747 
L 206.165996 129.151524 
L 206.249384 117.64347 
L 206.416158 151.490688 
L 206.582933 121.705137 
L 206.66632 124.412914 
L 206.749707 129.828469 
L 206.916482 120.351248 
L 206.999869 165.029575 
L 207.083257 158.937076 
L 207.250031 115.612637 
L 207.416806 130.505413 
L 207.500193 126.443747 
L 207.666968 129.828469 
L 207.750355 128.47458 
L 207.833742 129.151524 
L 208.000517 146.752077 
L 208.083904 148.105966 
L 208.167291 147.429022 
L 208.250679 139.982634 
L 208.334066 142.690411 
L 208.417453 135.920968 
L 208.584228 156.906243 
L 208.751002 155.552354 
L 208.83439 149.459855 
L 208.917777 153.521521 
L 209.167939 139.982634 
L 209.334714 188.722627 
L 209.418101 175.18374 
L 209.584875 127.797636 
L 209.668263 116.966526 
L 209.835037 158.937076 
L 209.918425 149.459855 
L 210.085199 162.998742 
L 210.251974 146.752077 
L 210.418748 164.35263 
L 210.502136 164.35263 
L 210.66891 122.382081 
L 210.752298 160.290964 
L 211.00246 128.47458 
L 211.169234 148.105966 
L 211.336009 119.674303 
L 211.502783 179.922351 
L 211.752945 141.336523 
L 211.836333 144.0443 
L 212.003107 131.182357 
L 212.086494 129.828469 
L 212.169882 136.597912 
L 212.253269 126.443747 
L 212.336656 142.013467 
L 212.420044 131.182357 
L 212.503431 132.536246 
L 212.586818 170.44513 
L 212.670205 169.768185 
L 212.83698 182.630128 
L 213.087142 158.260131 
L 213.337304 130.505413 
L 213.420691 144.721244 
L 213.587466 131.859302 
L 213.670853 149.459855 
L 213.837628 110.197083 
L 214.004402 154.198465 
L 214.08779 146.075133 
L 214.171177 143.367356 
L 214.337951 111.550971 
L 214.504726 157.583187 
L 214.671501 122.382081 
L 214.754888 132.536246 
L 214.838275 117.64347 
L 214.921663 120.351248 
L 215.088437 151.490688 
L 215.171824 133.21319 
L 215.255212 152.844577 
L 215.421986 129.151524 
L 215.505374 153.521521 
L 215.672148 119.674303 
L 215.755535 152.167632 
L 216.005697 117.64347 
L 216.172472 149.459855 
L 216.255859 116.966526 
L 216.339247 147.429022 
L 216.422634 122.382081 
L 216.506021 135.920968 
L 216.672796 109.520138 
L 216.922958 156.906243 
L 217.089732 119.674303 
L 217.17312 84.473197 
L 217.339894 135.244024 
L 217.506669 111.550971 
L 217.756831 156.906243 
L 217.840218 133.21319 
L 217.923605 150.813744 
L 218.006993 145.398189 
L 218.09038 106.812361 
L 218.173767 112.90486 
L 218.257154 144.721244 
L 218.340542 128.47458 
L 218.423929 137.274857 
L 218.507316 94.627363 
L 218.674091 140.659578 
L 218.757478 148.105966 
L 218.840866 108.843194 
L 218.924253 158.937076 
L 219.00764 143.367356 
L 219.091027 135.244024 
L 219.174415 142.690411 
L 219.257802 133.21319 
L 219.341189 145.398189 
L 219.591351 100.042917 
L 219.758126 123.73597 
L 219.841513 132.536246 
L 220.008288 51.979869 
L 220.175062 135.920968 
L 220.25845 131.859302 
L 220.341837 109.520138 
L 220.425224 128.47458 
L 220.508611 109.520138 
L 220.591999 124.412914 
L 220.675386 112.90486 
L 220.758773 119.674303 
L 220.925548 92.59653 
L 221.008935 90.565697 
L 221.092323 124.412914 
L 221.17571 121.705137 
L 221.259097 123.059025 
L 221.425872 139.30569 
L 221.592646 107.489305 
L 221.676034 132.536246 
L 221.759421 95.304307 
L 221.926196 118.320415 
L 222.009583 108.843194 
L 222.09297 143.367356 
L 222.343132 68.903477 
L 222.509907 105.458472 
L 222.676681 57.395423 
L 222.760068 116.289582 
L 222.843456 110.197083 
L 222.926843 120.351248 
L 223.01023 108.16625 
L 223.093618 111.550971 
L 223.177005 110.197083 
L 223.34378 136.597912 
L 223.427167 94.627363 
L 223.593941 124.412914 
L 223.677329 119.674303 
L 223.760716 125.089858 
L 223.844103 108.843194 
L 224.010878 128.47458 
L 224.094265 103.427639 
L 224.177653 123.059025 
L 224.26104 94.627363 
L 224.344427 95.304307 
L 224.427814 98.012084 
L 224.594589 114.935693 
L 224.677976 77.703754 
L 224.761364 110.874027 
L 224.844751 100.719862 
L 225.011526 88.534863 
L 225.261687 80.411531 
L 225.428462 136.597912 
L 225.511849 104.781528 
L 225.595237 106.135417 
L 225.678624 110.197083 
L 225.762011 106.135417 
L 225.845399 81.76542 
L 225.928786 112.90486 
L 226.012173 110.197083 
L 226.09556 92.59653 
L 226.262335 115.612637 
L 226.345722 111.550971 
L 226.42911 101.396806 
L 226.512497 118.320415 
L 226.595884 110.197083 
L 226.679271 116.289582 
L 226.846046 87.857919 
L 227.096208 119.674303 
L 227.34637 82.442364 
L 227.513144 108.16625 
L 227.596532 108.16625 
L 227.679919 115.612637 
L 227.930081 83.119309 
L 228.013468 113.581804 
L 228.096856 91.919585 
L 228.180243 122.382081 
L 228.26363 102.07375 
L 228.347017 112.227916 
L 228.513792 80.411531 
L 228.597179 81.76542 
L 228.763954 91.242641 
L 228.930729 51.979869 
L 229.097503 123.059025 
L 229.18089 129.828469 
L 229.264278 112.90486 
L 229.347665 123.73597 
L 229.597827 92.59653 
L 229.681214 98.689029 
L 229.764601 110.197083 
L 229.847989 103.427639 
L 229.931376 109.520138 
L 230.098151 74.995976 
L 230.264925 127.120691 
L 230.348313 125.089858 
L 230.4317 117.64347 
L 230.515087 129.828469 
L 230.598474 114.258749 
L 230.681862 116.289582 
L 230.765249 123.059025 
L 230.848636 121.028192 
L 230.932024 106.135417 
L 231.098798 67.549589 
L 231.34896 117.64347 
L 231.515735 104.104583 
L 231.682509 124.412914 
L 231.932671 88.534863 
L 232.016059 125.089858 
L 232.099446 121.028192 
L 232.26622 104.104583 
L 232.349608 114.935693 
L 232.59977 93.273474 
L 232.683157 57.395423 
L 233.016706 144.721244 
L 233.183481 74.319032 
L 233.266868 83.796253 
L 233.433643 128.47458 
L 233.51703 141.336523 
L 233.767192 98.689029 
L 233.850579 146.075133 
L 233.933966 139.30569 
L 234.017354 141.336523 
L 234.100741 122.382081 
L 234.267516 133.21319 
L 234.43429 78.380698 
L 234.517677 80.411531 
L 234.767839 146.752077 
L 234.934614 127.120691 
L 235.101389 117.64347 
L 235.184776 114.258749 
L 235.35155 146.075133 
L 235.518325 127.797636 
L 235.601712 122.382081 
L 235.768487 82.442364 
L 235.851874 114.935693 
L 235.935262 110.874027 
L 236.018649 111.550971 
L 236.102036 114.258749 
L 236.268811 125.089858 
L 236.352198 126.443747 
L 236.518973 149.459855 
L 236.685747 110.874027 
L 236.769134 142.690411 
L 236.852522 131.182357 
L 237.019296 165.029575 
L 237.186071 121.028192 
L 237.269458 141.336523 
L 237.352846 136.597912 
L 237.603007 119.674303 
L 237.686395 125.089858 
L 237.853169 152.844577 
L 237.936557 154.198465 
L 238.103331 106.135417 
L 238.186719 108.843194 
L 238.270106 157.583187 
L 238.353493 153.521521 
L 238.520268 133.21319 
L 238.687042 173.829851 
L 238.853817 152.167632 
L 238.937204 113.581804 
L 239.020592 114.258749 
L 239.103979 130.505413 
L 239.187366 129.151524 
L 239.270753 130.505413 
L 239.354141 146.752077 
L 239.520915 131.182357 
L 239.604303 148.105966 
L 239.68769 143.367356 
L 239.854465 137.951801 
L 239.937852 175.860684 
L 240.021239 167.737352 
L 240.104626 166.383464 
L 240.271401 154.87541 
L 240.438176 166.383464 
L 240.60495 132.536246 
L 240.688337 140.659578 
L 240.855112 175.18374 
L 241.021887 133.890135 
L 241.105274 157.583187 
L 241.355436 130.505413 
L 241.438823 151.490688 
L 241.52221 146.752077 
L 241.605598 150.813744 
L 241.688985 148.78291 
L 241.772372 183.984017 
L 241.85576 174.506796 
L 242.022534 151.490688 
L 242.105922 155.552354 
L 242.272696 134.567079 
L 242.356083 135.244024 
L 242.522858 129.151524 
L 242.606245 139.982634 
L 242.689633 137.274857 
L 242.77302 139.30569 
L 242.856407 133.21319 
L 242.939795 158.260131 
L 243.023182 133.890135 
L 243.106569 135.244024 
L 243.189956 160.967909 
L 243.356731 143.367356 
L 243.440118 146.752077 
L 243.606893 114.258749 
L 243.857055 165.706519 
L 243.940442 165.029575 
L 244.023829 139.982634 
L 244.107217 159.61402 
L 244.190604 130.505413 
L 244.273991 132.536246 
L 244.440766 122.382081 
L 244.524153 135.920968 
L 244.690928 119.674303 
L 244.774315 128.47458 
L 244.857702 160.290964 
L 244.94109 152.844577 
L 245.024477 157.583187 
L 245.107864 154.87541 
L 245.191252 144.721244 
L 245.358026 161.644853 
L 245.608188 129.828469 
L 245.691575 124.412914 
L 245.774963 146.752077 
L 245.941737 125.089858 
L 246.025125 148.105966 
L 246.191899 127.797636 
L 246.275286 121.705137 
L 246.358674 141.336523 
L 246.442061 131.859302 
L 246.525448 92.59653 
L 246.692223 158.260131 
L 246.77561 129.828469 
L 246.858998 142.690411 
L 247.025772 93.273474 
L 247.109159 93.273474 
L 247.192547 64.164867 
L 247.526096 129.828469 
L 247.609483 124.412914 
L 247.69287 131.182357 
L 247.776258 117.64347 
L 247.859645 150.136799 
L 247.943032 112.90486 
L 248.02642 137.951801 
L 248.109807 135.244024 
L 248.193194 135.244024 
L 248.276582 125.089858 
L 248.443356 160.967909 
L 248.526743 126.443747 
L 248.610131 142.690411 
L 248.693518 95.981251 
L 248.776905 104.781528 
L 248.860293 127.120691 
L 248.94368 125.766803 
L 249.027067 117.64347 
L 249.110455 123.73597 
L 249.193842 120.351248 
L 249.277229 131.859302 
L 249.527391 102.750695 
L 249.610778 127.797636 
L 249.694166 105.458472 
L 249.777553 128.47458 
L 249.86094 116.966526 
L 249.944328 127.120691 
L 250.194489 38.440982 
L 250.361264 129.151524 
L 250.528039 112.227916 
L 250.611426 119.674303 
L 250.7782 94.627363 
L 250.944975 125.766803 
L 251.11175 106.135417 
L 251.278524 129.828469 
L 251.612073 30.994594 
L 251.778848 121.705137 
L 251.862235 135.244024 
L 251.945623 104.104583 
L 252.112397 127.120691 
L 252.279172 116.289582 
L 252.362559 126.443747 
L 252.445946 100.042917 
L 252.529334 102.07375 
L 252.779496 138.628745 
L 252.862883 130.505413 
L 252.94627 108.16625 
L 253.113045 119.674303 
L 253.196432 117.64347 
L 253.446594 91.242641 
L 253.529981 100.042917 
L 253.780143 74.319032 
L 253.863531 55.36459 
L 254.030305 109.520138 
L 254.113692 120.351248 
L 254.19708 107.489305 
L 254.280467 108.16625 
L 254.363854 118.320415 
L 254.447242 116.966526 
L 254.530629 118.320415 
L 254.697403 108.16625 
L 254.780791 84.473197 
L 254.864178 98.012084 
L 254.947565 97.33514 
L 255.030953 104.104583 
L 255.11434 81.088476 
L 255.364502 102.750695 
L 255.447889 92.59653 
L 255.531276 102.07375 
L 255.781438 67.549589 
L 255.864826 82.442364 
L 256.114988 70.257366 
L 256.198375 42.502648 
L 256.281762 49.272091 
L 256.365149 52.656813 
L 256.531924 89.211808 
L 256.615311 81.76542 
L 256.782086 88.534863 
L 256.948861 99.365973 
L 257.032248 88.534863 
L 257.199022 115.612637 
L 257.365797 93.273474 
L 257.615959 35.733204 
L 257.782733 98.689029 
L 257.866121 92.59653 
L 257.949508 95.981251 
L 258.032895 91.919585 
L 258.19967 103.427639 
L 258.283057 131.859302 
L 258.449832 91.919585 
L 258.533219 112.227916 
L 258.783381 82.442364 
L 259.033543 114.258749 
L 259.200318 84.473197 
L 259.367092 102.750695 
L 259.617254 84.473197 
L 259.700641 84.473197 
L 259.784029 104.104583 
L 259.950803 69.580422 
L 260.200965 110.197083 
L 260.284352 88.534863 
L 260.36774 93.273474 
L 260.451127 93.950418 
L 260.534514 108.16625 
L 260.701289 80.411531 
L 260.784676 81.088476 
L 260.868064 84.473197 
L 260.951451 95.981251 
L 261.034838 126.443747 
L 261.118225 108.843194 
L 261.201613 113.581804 
L 261.285 114.258749 
L 261.535162 87.857919 
L 261.618549 90.565697 
L 261.785324 101.396806 
L 261.952098 88.534863 
L 262.118873 100.042917 
L 262.285648 81.088476 
L 262.369035 89.211808 
L 262.619197 70.93431 
L 262.869359 95.304307 
L 262.952746 83.119309 
L 263.036133 102.07375 
L 263.119521 86.50403 
L 263.202908 113.581804 
L 263.286295 94.627363 
L 263.45307 149.459855 
L 263.536457 140.659578 
L 263.703232 87.857919 
L 263.786619 91.242641 
L 263.870006 86.50403 
L 264.036781 137.951801 
L 264.120168 135.920968 
L 264.203555 108.16625 
L 264.286943 123.059025 
L 264.37033 112.90486 
L 264.453717 118.997359 
L 264.537105 106.135417 
L 264.620492 110.197083 
L 264.703879 104.104583 
L 264.787267 86.50403 
L 264.870654 112.90486 
L 265.037428 74.995976 
L 265.204203 101.396806 
L 265.28759 91.242641 
L 265.370978 95.981251 
L 265.537752 89.211808 
L 265.621139 83.119309 
L 265.787914 108.843194 
L 265.871301 102.07375 
L 266.038076 119.674303 
L 266.121463 112.90486 
L 266.204851 148.105966 
L 266.455012 102.750695 
L 266.5384 114.935693 
L 266.621787 104.781528 
L 266.955336 138.628745 
L 267.122111 124.412914 
L 267.205498 139.30569 
L 267.288885 135.244024 
L 267.372273 108.843194 
L 267.705822 151.490688 
L 268.122758 108.843194 
L 268.206146 125.089858 
L 268.289533 118.997359 
L 268.37292 135.244024 
L 268.539695 128.47458 
L 268.706469 160.290964 
L 268.789857 150.136799 
L 268.873244 112.227916 
L 269.123406 175.18374 
L 269.206793 169.091241 
L 269.290181 148.105966 
L 269.373568 149.459855 
L 269.62373 140.659578 
L 269.707117 122.382081 
L 269.873892 148.78291 
L 270.040666 126.443747 
L 270.124054 148.78291 
L 270.207441 130.505413 
L 270.290828 131.182357 
L 270.457603 154.87541 
L 270.54099 160.967909 
L 270.624377 160.290964 
L 270.874539 106.135417 
L 270.957927 116.966526 
L 271.041314 148.105966 
L 271.124701 142.690411 
L 271.208088 110.197083 
L 271.291476 146.075133 
L 271.374863 143.367356 
L 271.45825 126.443747 
L 271.541638 158.260131 
L 271.625025 151.490688 
L 271.875187 131.182357 
L 271.958574 129.828469 
L 272.041961 156.229298 
L 272.292123 136.597912 
L 272.375511 138.628745 
L 272.458898 136.597912 
L 272.625672 128.47458 
L 272.70906 146.075133 
L 272.959222 127.797636 
L 273.042609 139.30569 
L 273.209384 126.443747 
L 273.292771 159.61402 
L 273.376158 148.78291 
L 273.459545 147.429022 
L 273.542933 148.105966 
L 273.709707 132.536246 
L 273.793095 167.737352 
L 273.876482 161.644853 
L 274.126644 112.227916 
L 274.210031 110.197083 
L 274.293418 126.443747 
L 274.376806 125.766803 
L 274.460193 128.47458 
L 274.54358 114.935693 
L 274.626968 140.659578 
L 274.710355 135.920968 
L 274.87713 154.87541 
L 275.043904 122.382081 
L 275.127291 148.78291 
L 275.294066 128.47458 
L 275.377453 133.21319 
L 275.544228 91.242641 
L 275.79439 156.906243 
L 275.877777 130.505413 
L 275.961164 134.567079 
L 276.044552 158.260131 
L 276.211326 91.242641 
L 276.544875 162.321797 
L 276.628263 158.937076 
L 276.71165 148.105966 
L 276.795037 121.705137 
L 276.878425 125.766803 
L 277.045199 127.797636 
L 277.128587 156.906243 
L 277.295361 81.76542 
L 277.462136 138.628745 
L 277.545523 118.997359 
L 277.62891 121.028192 
L 277.712298 134.567079 
L 277.795685 121.028192 
L 277.879072 135.244024 
L 277.96246 110.197083 
L 278.045847 133.21319 
L 278.212621 94.627363 
L 278.462783 153.521521 
L 278.546171 108.16625 
L 278.629558 118.997359 
L 278.712945 135.244024 
L 278.87972 104.104583 
L 278.963107 156.229298 
L 279.046494 101.396806 
L 279.129882 136.597912 
L 279.213269 118.320415 
L 279.296656 135.244024 
L 279.463431 109.520138 
L 279.546818 138.628745 
L 279.630205 88.534863 
L 279.713593 124.412914 
L 279.79698 116.966526 
L 279.963755 151.490688 
L 280.047142 97.33514 
L 280.213917 144.721244 
L 280.297304 107.489305 
L 280.380691 113.581804 
L 280.464078 97.33514 
L 280.547466 115.612637 
L 280.71424 89.211808 
L 280.797628 98.689029 
L 280.964402 145.398189 
L 281.131177 80.411531 
L 281.297951 130.505413 
L 281.381339 113.581804 
L 281.464726 124.412914 
L 281.631501 75.672921 
L 281.714888 143.367356 
L 281.798275 135.920968 
L 281.96505 116.289582 
L 282.048437 121.705137 
L 282.131824 87.857919 
L 282.215212 107.489305 
L 282.298599 106.135417 
L 282.381986 106.812361 
L 282.465374 97.33514 
L 282.548761 101.396806 
L 282.715535 113.581804 
L 282.798923 114.258749 
L 282.88231 116.966526 
L 282.965697 124.412914 
L 283.132472 112.90486 
L 283.215859 76.349865 
L 283.299247 80.411531 
L 283.382634 84.473197 
L 283.549408 109.520138 
L 283.632796 110.197083 
L 283.79957 57.395423 
L 283.966345 119.674303 
L 284.383281 32.348483 
L 284.466669 81.76542 
L 284.550056 75.672921 
L 284.800218 113.581804 
L 285.05038 60.103201 
L 285.217154 129.828469 
L 285.300542 106.812361 
L 285.383929 106.812361 
L 285.467316 93.950418 
L 285.550704 98.689029 
L 285.634091 97.33514 
L 285.884253 68.903477 
L 285.96764 80.411531 
L 286.134415 129.828469 
L 286.384577 83.796253 
L 286.551351 108.843194 
L 286.634738 100.719862 
L 286.718126 112.227916 
L 286.801513 103.427639 
L 286.968288 62.810978 
L 287.21845 105.458472 
L 287.301837 85.827086 
L 287.385224 95.981251 
L 287.468611 92.59653 
L 287.635386 109.520138 
L 287.802161 84.473197 
L 287.885548 82.442364 
L 288.052323 54.687646 
L 288.219097 82.442364 
L 288.302484 85.150142 
L 288.385872 96.658196 
L 288.469259 83.796253 
L 288.552646 87.857919 
L 288.719421 104.781528 
L 288.886196 68.903477 
L 289.05297 90.565697 
L 289.136357 86.50403 
L 289.219745 91.242641 
L 289.469907 62.810978 
L 289.553294 62.810978 
L 289.636681 62.134034 
L 289.720068 55.36459 
L 289.886843 92.59653 
L 289.97023 85.150142 
L 290.137005 106.135417 
L 290.30378 74.319032 
L 290.387167 104.781528 
L 290.720716 45.210425 
L 290.887491 61.45709 
L 290.970878 56.718479 
L 291.054265 70.257366 
L 291.137653 66.1957 
L 291.304427 49.272091 
L 291.471202 73.642088 
L 291.554589 74.319032 
L 291.637976 107.489305 
L 291.721364 91.919585 
L 291.804751 92.59653 
L 291.888138 93.950418 
L 291.971526 112.90486 
L 292.054913 109.520138 
L 292.305075 77.02681 
L 292.471849 82.442364 
L 292.722011 130.505413 
L 292.805399 129.828469 
L 292.888786 114.258749 
L 293.05556 128.47458 
L 293.305722 91.919585 
L 293.472497 98.012084 
L 293.555884 64.164867 
L 293.639271 108.843194 
L 293.722659 98.012084 
L 293.806046 113.581804 
L 294.056208 90.565697 
L 294.389757 136.597912 
L 294.473144 116.966526 
L 294.556532 120.351248 
L 294.639919 112.90486 
L 294.723306 135.920968 
L 294.806694 133.21319 
L 294.973468 125.089858 
L 295.056856 127.797636 
L 295.140243 137.951801 
L 295.473792 87.180975 
L 295.640567 104.781528 
L 295.807341 95.304307 
L 295.890729 114.258749 
L 295.974116 96.658196 
L 296.14089 124.412914 
L 296.224278 121.028192 
L 296.307665 123.059025 
L 296.391052 129.828469 
L 296.557827 101.396806 
L 297.058151 139.30569 
L 297.141538 114.935693 
L 297.224925 115.612637 
L 297.3917 158.937076 
L 297.475087 119.674303 
L 297.558474 129.828469 
L 297.641862 131.859302 
L 297.725249 121.705137 
L 297.808636 133.21319 
L 298.142186 104.781528 
L 298.392347 184.660961 
L 298.475735 179.922351 
L 298.642509 133.890135 
L 298.725897 141.336523 
L 298.892671 124.412914 
L 299.059446 145.398189 
L 299.22622 134.567079 
L 299.309608 152.167632 
L 299.476382 125.089858 
L 299.55977 128.47458 
L 299.643157 118.320415 
L 300.560417 190.75346 
L 300.643804 177.891517 
L 300.727192 139.982634 
L 300.810579 153.521521 
L 300.893966 146.075133 
L 300.977354 128.47458 
L 301.144128 158.260131 
L 301.227516 146.752077 
L 301.310903 152.167632 
L 301.39429 146.752077 
L 301.477677 128.47458 
L 301.561065 139.982634 
L 301.644452 136.597912 
L 301.978001 181.953184 
L 302.061389 176.537629 
L 302.228163 154.87541 
L 302.31155 154.87541 
L 302.394938 145.398189 
L 302.561712 183.307072 
L 302.6451 173.152907 
L 302.811874 142.013467 
L 302.895262 165.706519 
L 302.978649 156.906243 
L 303.145423 118.320415 
L 303.395585 169.091241 
L 303.56236 139.30569 
L 303.645747 137.274857 
L 303.729134 146.075133 
L 303.895909 142.690411 
L 303.979296 156.229298 
L 304.062684 146.752077 
L 304.146071 123.059025 
L 304.229458 144.721244 
L 304.312846 141.336523 
L 304.47962 168.414297 
L 304.646395 148.78291 
L 304.813169 149.459855 
L 304.896557 133.21319 
L 304.979944 139.30569 
L 305.063331 159.61402 
L 305.146719 135.920968 
L 305.313493 156.906243 
L 305.39688 144.0443 
L 305.563655 165.706519 
L 305.73043 146.752077 
L 305.813817 167.060408 
L 305.980592 134.567079 
L 306.063979 134.567079 
L 306.147366 152.844577 
L 306.314141 133.890135 
L 306.397528 141.336523 
L 306.480915 160.290964 
L 306.564303 146.752077 
L 306.64769 104.104583 
L 306.814465 143.367356 
L 306.897852 137.951801 
L 307.064626 150.136799 
L 307.148014 133.890135 
L 307.231401 144.0443 
L 307.314788 127.120691 
L 307.398176 131.182357 
L 307.481563 122.382081 
L 307.648337 145.398189 
L 307.731725 108.843194 
L 307.898499 151.490688 
L 307.981887 131.859302 
L 308.065274 154.87541 
L 308.148661 133.21319 
L 308.232049 160.290964 
L 308.398823 103.427639 
L 308.648985 159.61402 
L 308.81576 114.935693 
L 308.982534 144.721244 
L 309.065922 128.47458 
L 309.149309 130.505413 
L 309.399471 119.674303 
L 309.482858 120.351248 
L 309.566245 139.982634 
L 309.649633 118.320415 
L 309.816407 145.398189 
L 309.899795 104.781528 
L 309.983182 106.812361 
L 310.066569 130.505413 
L 310.149956 125.089858 
L 310.233344 129.828469 
L 310.316731 110.197083 
L 310.400118 125.089858 
L 310.483506 103.427639 
L 310.65028 139.982634 
L 310.733667 133.21319 
L 310.817055 131.182357 
L 310.900442 102.750695 
L 310.983829 139.982634 
L 311.067217 139.30569 
L 311.150604 126.443747 
L 311.233991 136.597912 
L 311.400766 92.59653 
L 311.734315 137.951801 
L 311.984477 109.520138 
L 312.067864 130.505413 
L 312.401413 85.827086 
L 312.484801 120.351248 
L 312.568188 113.581804 
L 312.734963 104.781528 
L 312.81835 89.211808 
L 312.901737 47.918203 
L 313.068512 96.658196 
L 313.151899 106.812361 
L 313.235286 105.458472 
L 313.318674 99.365973 
L 313.402061 72.965143 
L 313.485448 74.319032 
L 313.568836 83.796253 
L 313.652223 70.257366 
L 313.902385 122.382081 
L 314.152547 82.442364 
L 314.235934 98.689029 
L 314.319321 67.549589 
L 314.65287 123.73597 
L 314.819645 108.843194 
L 314.903032 112.227916 
L 314.98642 77.02681 
L 315.069807 83.119309 
L 315.236582 110.874027 
L 315.319969 114.258749 
L 315.403356 112.90486 
L 315.486743 108.16625 
L 315.570131 83.119309 
L 315.653518 85.827086 
L 315.90368 123.73597 
L 315.987067 96.658196 
L 316.070455 108.16625 
L 316.153842 93.950418 
L 316.237229 104.104583 
L 316.320616 88.534863 
L 316.487391 97.33514 
L 316.654166 83.119309 
L 316.737553 93.950418 
L 316.987715 44.533481 
L 317.154489 89.211808 
L 317.237877 87.180975 
L 317.321264 94.627363 
L 317.404651 121.705137 
L 317.488039 116.289582 
L 317.571426 92.59653 
L 317.654813 95.981251 
L 317.7382 95.981251 
L 317.821588 104.104583 
L 317.988362 97.33514 
L 318.07175 55.36459 
L 318.155137 92.59653 
L 318.238524 78.380698 
L 318.321912 79.734587 
L 318.405299 79.734587 
L 318.488686 102.07375 
L 318.572073 83.119309 
L 318.655461 85.150142 
L 318.738848 112.90486 
L 318.822235 111.550971 
L 318.98901 93.950418 
L 319.072397 96.658196 
L 319.155785 106.812361 
L 319.239172 103.427639 
L 319.489334 74.995976 
L 319.739496 106.135417 
L 319.822883 98.689029 
L 319.90627 77.02681 
L 319.989658 87.857919 
L 320.073045 68.226533 
L 320.156432 108.16625 
L 320.239819 99.365973 
L 320.323207 101.396806 
L 320.489981 58.749312 
L 320.656756 91.242641 
L 320.823531 82.442364 
L 321.073692 63.487923 
L 321.15708 77.02681 
L 321.323854 60.103201 
L 321.407242 63.487923 
L 321.657403 124.412914 
L 321.740791 106.135417 
L 321.824178 90.565697 
L 321.907565 92.59653 
L 322.07434 131.859302 
L 322.241115 92.59653 
L 322.407889 115.612637 
L 322.491276 91.919585 
L 322.574664 92.59653 
L 322.741438 109.520138 
L 322.9916 76.349865 
L 323.074988 79.734587 
L 323.158375 72.288199 
L 323.241762 54.687646 
L 323.408537 120.351248 
L 323.575311 104.104583 
L 323.658699 90.565697 
L 323.742086 94.627363 
L 323.825473 119.674303 
L 323.908861 111.550971 
L 324.075635 79.057643 
L 324.159022 87.180975 
L 324.409184 94.627363 
L 324.492572 68.903477 
L 324.575959 83.119309 
L 324.659346 69.580422 
L 324.826121 127.120691 
L 324.909508 125.089858 
L 325.076283 104.781528 
L 325.15967 116.289582 
L 325.326445 95.981251 
L 325.409832 94.627363 
L 325.493219 118.320415 
L 325.659994 101.396806 
L 325.910156 133.890135 
L 325.993543 118.997359 
L 326.07693 129.828469 
L 326.243705 100.042917 
L 326.327092 108.843194 
L 326.493867 85.827086 
L 326.577254 104.104583 
L 326.744029 160.967909 
L 326.827416 147.429022 
L 326.910803 101.396806 
L 326.994191 122.382081 
L 327.077578 110.874027 
L 327.411127 133.890135 
L 327.494514 103.427639 
L 327.577902 132.536246 
L 327.661289 130.505413 
L 327.744676 135.244024 
L 327.911451 163.675686 
L 328.161613 123.059025 
L 328.245 121.705137 
L 328.495162 163.675686 
L 328.661936 127.797636 
L 328.745324 128.47458 
L 328.828711 138.628745 
L 328.912098 137.274857 
L 328.995486 136.597912 
L 329.078873 123.73597 
L 329.245648 153.521521 
L 329.412422 141.336523 
L 329.495809 124.412914 
L 329.579197 145.398189 
L 329.662584 144.0443 
L 329.745971 116.966526 
L 329.912746 164.35263 
L 330.079521 131.182357 
L 330.162908 142.013467 
L 330.246295 139.30569 
L 330.329682 137.951801 
L 330.41307 132.536246 
L 330.496457 142.013467 
L 330.579844 122.382081 
L 330.830006 158.937076 
L 330.913394 154.198465 
L 330.996781 169.091241 
L 331.163555 130.505413 
L 331.246943 144.0443 
L 331.33033 144.721244 
L 331.497105 142.013467 
L 331.580492 131.182357 
L 331.663879 164.35263 
L 331.747267 155.552354 
L 331.914041 125.089858 
L 331.997428 131.182357 
L 332.164203 160.290964 
L 332.414365 123.73597 
L 332.497752 118.320415 
L 332.581139 132.536246 
L 332.664527 118.320415 
L 332.747914 148.105966 
L 332.914689 128.47458 
L 332.998076 129.151524 
L 333.081463 127.797636 
L 333.164851 121.028192 
L 333.331625 150.136799 
L 333.415012 139.30569 
L 333.4984 144.721244 
L 333.581787 140.659578 
L 333.748562 160.290964 
L 333.915336 127.797636 
L 333.998724 155.552354 
L 334.165498 122.382081 
L 334.332273 142.013467 
L 334.41566 135.920968 
L 334.499047 150.136799 
L 334.582435 147.429022 
L 334.665822 150.813744 
L 334.749209 136.597912 
L 334.832597 141.336523 
L 334.915984 131.182357 
L 335.166146 144.0443 
L 335.249533 142.013467 
L 335.499695 127.120691 
L 335.583082 152.844577 
L 335.666469 149.459855 
L 335.749857 142.690411 
L 335.833244 144.0443 
L 335.916631 139.982634 
L 336.000019 179.922351 
L 336.166793 115.612637 
L 336.250181 135.920968 
L 336.333568 140.659578 
L 336.416955 153.521521 
L 336.500342 129.828469 
L 336.58373 135.920968 
L 336.667117 142.690411 
L 336.750504 123.73597 
L 336.833892 124.412914 
L 337.000666 173.829851 
L 337.084054 158.260131 
L 337.250828 95.304307 
L 337.50099 145.398189 
L 337.667765 123.73597 
L 337.751152 169.091241 
L 338.001314 83.796253 
L 338.168088 148.105966 
L 338.251476 158.937076 
L 338.41825 83.796253 
L 338.585025 162.998742 
L 338.668412 118.997359 
L 338.7518 135.244024 
L 338.918574 117.64347 
L 339.085349 127.120691 
L 339.168736 119.674303 
L 339.252123 99.365973 
L 339.335511 131.859302 
L 339.418898 127.797636 
L 339.502285 153.521521 
L 339.585672 127.797636 
L 339.66906 131.859302 
L 339.752447 114.258749 
L 339.919222 143.367356 
L 340.002609 142.013467 
L 340.085996 87.180975 
L 340.169384 95.304307 
L 340.252771 123.059025 
L 340.336158 117.64347 
L 340.419545 120.351248 
L 340.502933 150.813744 
L 340.58632 120.351248 
L 340.669707 133.21319 
L 340.836482 110.197083 
L 340.919869 115.612637 
L 341.170031 69.580422 
L 341.253418 102.07375 
L 341.336806 93.273474 
L 341.420193 93.950418 
L 341.50358 89.888752 
L 341.586968 114.258749 
L 341.670355 106.135417 
L 341.753742 118.997359 
L 341.83713 109.520138 
L 342.003904 64.164867 
L 342.337453 135.920968 
L 342.504228 100.719862 
L 342.587615 95.304307 
L 342.837777 134.567079 
L 342.921164 121.705137 
L 343.087939 137.951801 
L 343.171326 92.59653 
L 343.338101 123.059025 
L 343.421488 118.997359 
L 343.504875 106.135417 
L 343.588263 106.812361 
L 343.67165 134.567079 
L 343.838425 94.627363 
L 343.921812 108.16625 
L 344.005199 104.104583 
L 344.088587 104.781528 
L 344.338748 55.36459 
L 344.422136 57.395423 
L 344.505523 62.810978 
L 344.755685 119.674303 
L 344.839072 118.997359 
L 344.92246 99.365973 
L 345.005847 116.966526 
L 345.256009 102.07375 
L 345.339396 100.042917 
L 345.422783 77.703754 
L 345.506171 94.627363 
L 345.589558 89.888752 
L 345.672945 105.458472 
L 345.756333 104.781528 
L 345.83972 100.042917 
L 345.923107 126.443747 
L 346.089882 95.304307 
L 346.340044 102.750695 
L 346.423431 87.857919 
L 346.506818 106.135417 
L 346.506818 106.135417 
" style="fill:none;stroke:#9c00ff;stroke-linecap:square;stroke-width:1.5;"/>
   </g>
   <g id="patch_3">
    <path d="M 26.925 203.04 
L 26.925 7.2 
" style="fill:none;stroke:#000000;stroke-linecap:square;stroke-linejoin:miter;stroke-width:0.8;"/>
   </g>
   <g id="patch_4">
    <path d="M 361.725 203.04 
L 361.725 7.2 
" style="fill:none;stroke:#000000;stroke-linecap:square;stroke-linejoin:miter;stroke-width:0.8;"/>
   </g>
   <g id="patch_5">
    <path d="M 26.925 203.04 
L 361.725 203.04 
" style="fill:none;stroke:#000000;stroke-linecap:square;stroke-linejoin:miter;stroke-width:0.8;"/>
   </g>
   <g id="patch_6">
    <path d="M 26.925 7.2 
L 361.725 7.2 
" style="fill:none;stroke:#000000;stroke-linecap:square;stroke-linejoin:miter;stroke-width:0.8;"/>
   </g>
  </g>
 </g>
 <defs>
  <clipPath id="pd3c17d274b">
   <rect height="195.84" width="334.8" x="26.925" y="7.2"/>
  </clipPath>
 </defs>
</svg>
