<?xml version="1.0" encoding="utf-8" standalone="no"?>
<!DOCTYPE svg PUBLIC "-//W3C//DTD SVG 1.1//EN"
  "http://www.w3.org/Graphics/SVG/1.1/DTD/svg11.dtd">
<!-- Created with matplotlib (https://matplotlib.org/) -->
<svg height="465.958125pt" version="1.1" viewBox="0 0 926.925 465.958125" width="926.925pt" xmlns="http://www.w3.org/2000/svg" xmlns:xlink="http://www.w3.org/1999/xlink">
 <metadata>
  <rdf:RDF xmlns:cc="http://creativecommons.org/ns#" xmlns:dc="http://purl.org/dc/elements/1.1/" xmlns:rdf="http://www.w3.org/1999/02/22-rdf-syntax-ns#">
   <cc:Work>
    <dc:type rdf:resource="http://purl.org/dc/dcmitype/StillImage"/>
    <dc:date>2021-02-14T09:58:57.545925</dc:date>
    <dc:format>image/svg+xml</dc:format>
    <dc:creator>
     <cc:Agent>
      <dc:title>Matplotlib v3.3.3, https://matplotlib.org/</dc:title>
     </cc:Agent>
    </dc:creator>
   </cc:Work>
  </rdf:RDF>
 </metadata>
 <defs>
  <style type="text/css">*{stroke-linecap:butt;stroke-linejoin:round;}</style>
 </defs>
 <g id="figure_1">
  <g id="patch_1">
   <path d="M 0 465.958125 
L 926.925 465.958125 
L 926.925 0 
L 0 0 
z
" style="fill:none;"/>
  </g>
  <g id="axes_1">
   <g id="patch_2">
    <path d="M 26.925 442.08 
L 919.725 442.08 
L 919.725 7.2 
L 26.925 7.2 
z
" style="fill:#ffffff;"/>
   </g>
   <g id="matplotlib.axis_1">
    <g id="xtick_1">
     <g id="line2d_1">
      <defs>
       <path d="M 0 0 
L 0 3.5 
" id="m74c3b7daaa" style="stroke:#000000;stroke-width:0.8;"/>
      </defs>
      <g>
       <use style="stroke:#000000;stroke-width:0.8;" x="135.411614" xlink:href="#m74c3b7daaa" y="442.08"/>
      </g>
     </g>
     <g id="text_1">
      <!-- 2015-12-15 -->
      <g transform="translate(106.353802 456.678437)scale(0.1 -0.1)">
       <defs>
        <path d="M 19.1875 8.296875 
L 53.609375 8.296875 
L 53.609375 0 
L 7.328125 0 
L 7.328125 8.296875 
Q 12.9375 14.109375 22.625 23.890625 
Q 32.328125 33.6875 34.8125 36.53125 
Q 39.546875 41.84375 41.421875 45.53125 
Q 43.3125 49.21875 43.3125 52.78125 
Q 43.3125 58.59375 39.234375 62.25 
Q 35.15625 65.921875 28.609375 65.921875 
Q 23.96875 65.921875 18.8125 64.3125 
Q 13.671875 62.703125 7.8125 59.421875 
L 7.8125 69.390625 
Q 13.765625 71.78125 18.9375 73 
Q 24.125 74.21875 28.421875 74.21875 
Q 39.75 74.21875 46.484375 68.546875 
Q 53.21875 62.890625 53.21875 53.421875 
Q 53.21875 48.921875 51.53125 44.890625 
Q 49.859375 40.875 45.40625 35.40625 
Q 44.1875 33.984375 37.640625 27.21875 
Q 31.109375 20.453125 19.1875 8.296875 
z
" id="DejaVuSans-50"/>
        <path d="M 31.78125 66.40625 
Q 24.171875 66.40625 20.328125 58.90625 
Q 16.5 51.421875 16.5 36.375 
Q 16.5 21.390625 20.328125 13.890625 
Q 24.171875 6.390625 31.78125 6.390625 
Q 39.453125 6.390625 43.28125 13.890625 
Q 47.125 21.390625 47.125 36.375 
Q 47.125 51.421875 43.28125 58.90625 
Q 39.453125 66.40625 31.78125 66.40625 
z
M 31.78125 74.21875 
Q 44.046875 74.21875 50.515625 64.515625 
Q 56.984375 54.828125 56.984375 36.375 
Q 56.984375 17.96875 50.515625 8.265625 
Q 44.046875 -1.421875 31.78125 -1.421875 
Q 19.53125 -1.421875 13.0625 8.265625 
Q 6.59375 17.96875 6.59375 36.375 
Q 6.59375 54.828125 13.0625 64.515625 
Q 19.53125 74.21875 31.78125 74.21875 
z
" id="DejaVuSans-48"/>
        <path d="M 12.40625 8.296875 
L 28.515625 8.296875 
L 28.515625 63.921875 
L 10.984375 60.40625 
L 10.984375 69.390625 
L 28.421875 72.90625 
L 38.28125 72.90625 
L 38.28125 8.296875 
L 54.390625 8.296875 
L 54.390625 0 
L 12.40625 0 
z
" id="DejaVuSans-49"/>
        <path d="M 10.796875 72.90625 
L 49.515625 72.90625 
L 49.515625 64.59375 
L 19.828125 64.59375 
L 19.828125 46.734375 
Q 21.96875 47.46875 24.109375 47.828125 
Q 26.265625 48.1875 28.421875 48.1875 
Q 40.625 48.1875 47.75 41.5 
Q 54.890625 34.8125 54.890625 23.390625 
Q 54.890625 11.625 47.5625 5.09375 
Q 40.234375 -1.421875 26.90625 -1.421875 
Q 22.3125 -1.421875 17.546875 -0.640625 
Q 12.796875 0.140625 7.71875 1.703125 
L 7.71875 11.625 
Q 12.109375 9.234375 16.796875 8.0625 
Q 21.484375 6.890625 26.703125 6.890625 
Q 35.15625 6.890625 40.078125 11.328125 
Q 45.015625 15.765625 45.015625 23.390625 
Q 45.015625 31 40.078125 35.4375 
Q 35.15625 39.890625 26.703125 39.890625 
Q 22.75 39.890625 18.8125 39.015625 
Q 14.890625 38.140625 10.796875 36.28125 
z
" id="DejaVuSans-53"/>
        <path d="M 4.890625 31.390625 
L 31.203125 31.390625 
L 31.203125 23.390625 
L 4.890625 23.390625 
z
" id="DejaVuSans-45"/>
       </defs>
       <use xlink:href="#DejaVuSans-50"/>
       <use x="63.623047" xlink:href="#DejaVuSans-48"/>
       <use x="127.246094" xlink:href="#DejaVuSans-49"/>
       <use x="190.869141" xlink:href="#DejaVuSans-53"/>
       <use x="254.492188" xlink:href="#DejaVuSans-45"/>
       <use x="290.576172" xlink:href="#DejaVuSans-49"/>
       <use x="354.199219" xlink:href="#DejaVuSans-50"/>
       <use x="417.822266" xlink:href="#DejaVuSans-45"/>
       <use x="453.90625" xlink:href="#DejaVuSans-49"/>
       <use x="517.529297" xlink:href="#DejaVuSans-53"/>
      </g>
     </g>
    </g>
    <g id="xtick_2">
     <g id="line2d_2">
      <g>
       <use style="stroke:#000000;stroke-width:0.8;" x="317.104631" xlink:href="#m74c3b7daaa" y="442.08"/>
      </g>
     </g>
     <g id="text_2">
      <!-- 2016-01-01 -->
      <g transform="translate(288.046819 456.678437)scale(0.1 -0.1)">
       <defs>
        <path d="M 33.015625 40.375 
Q 26.375 40.375 22.484375 35.828125 
Q 18.609375 31.296875 18.609375 23.390625 
Q 18.609375 15.53125 22.484375 10.953125 
Q 26.375 6.390625 33.015625 6.390625 
Q 39.65625 6.390625 43.53125 10.953125 
Q 47.40625 15.53125 47.40625 23.390625 
Q 47.40625 31.296875 43.53125 35.828125 
Q 39.65625 40.375 33.015625 40.375 
z
M 52.59375 71.296875 
L 52.59375 62.3125 
Q 48.875 64.0625 45.09375 64.984375 
Q 41.3125 65.921875 37.59375 65.921875 
Q 27.828125 65.921875 22.671875 59.328125 
Q 17.53125 52.734375 16.796875 39.40625 
Q 19.671875 43.65625 24.015625 45.921875 
Q 28.375 48.1875 33.59375 48.1875 
Q 44.578125 48.1875 50.953125 41.515625 
Q 57.328125 34.859375 57.328125 23.390625 
Q 57.328125 12.15625 50.6875 5.359375 
Q 44.046875 -1.421875 33.015625 -1.421875 
Q 20.359375 -1.421875 13.671875 8.265625 
Q 6.984375 17.96875 6.984375 36.375 
Q 6.984375 53.65625 15.1875 63.9375 
Q 23.390625 74.21875 37.203125 74.21875 
Q 40.921875 74.21875 44.703125 73.484375 
Q 48.484375 72.75 52.59375 71.296875 
z
" id="DejaVuSans-54"/>
       </defs>
       <use xlink:href="#DejaVuSans-50"/>
       <use x="63.623047" xlink:href="#DejaVuSans-48"/>
       <use x="127.246094" xlink:href="#DejaVuSans-49"/>
       <use x="190.869141" xlink:href="#DejaVuSans-54"/>
       <use x="254.492188" xlink:href="#DejaVuSans-45"/>
       <use x="290.576172" xlink:href="#DejaVuSans-48"/>
       <use x="354.199219" xlink:href="#DejaVuSans-49"/>
       <use x="417.822266" xlink:href="#DejaVuSans-45"/>
       <use x="453.90625" xlink:href="#DejaVuSans-48"/>
       <use x="517.529297" xlink:href="#DejaVuSans-49"/>
      </g>
     </g>
    </g>
    <g id="xtick_3">
     <g id="line2d_3">
      <g>
       <use style="stroke:#000000;stroke-width:0.8;" x="466.734175" xlink:href="#m74c3b7daaa" y="442.08"/>
      </g>
     </g>
     <g id="text_3">
      <!-- 2016-01-15 -->
      <g transform="translate(437.676362 456.678437)scale(0.1 -0.1)">
       <use xlink:href="#DejaVuSans-50"/>
       <use x="63.623047" xlink:href="#DejaVuSans-48"/>
       <use x="127.246094" xlink:href="#DejaVuSans-49"/>
       <use x="190.869141" xlink:href="#DejaVuSans-54"/>
       <use x="254.492188" xlink:href="#DejaVuSans-45"/>
       <use x="290.576172" xlink:href="#DejaVuSans-48"/>
       <use x="354.199219" xlink:href="#DejaVuSans-49"/>
       <use x="417.822266" xlink:href="#DejaVuSans-45"/>
       <use x="453.90625" xlink:href="#DejaVuSans-49"/>
       <use x="517.529297" xlink:href="#DejaVuSans-53"/>
      </g>
     </g>
    </g>
    <g id="xtick_4">
     <g id="line2d_4">
      <g>
       <use style="stroke:#000000;stroke-width:0.8;" x="648.427192" xlink:href="#m74c3b7daaa" y="442.08"/>
      </g>
     </g>
     <g id="text_4">
      <!-- 2016-02-01 -->
      <g transform="translate(619.369379 456.678437)scale(0.1 -0.1)">
       <use xlink:href="#DejaVuSans-50"/>
       <use x="63.623047" xlink:href="#DejaVuSans-48"/>
       <use x="127.246094" xlink:href="#DejaVuSans-49"/>
       <use x="190.869141" xlink:href="#DejaVuSans-54"/>
       <use x="254.492188" xlink:href="#DejaVuSans-45"/>
       <use x="290.576172" xlink:href="#DejaVuSans-48"/>
       <use x="354.199219" xlink:href="#DejaVuSans-50"/>
       <use x="417.822266" xlink:href="#DejaVuSans-45"/>
       <use x="453.90625" xlink:href="#DejaVuSans-48"/>
       <use x="517.529297" xlink:href="#DejaVuSans-49"/>
      </g>
     </g>
    </g>
    <g id="xtick_5">
     <g id="line2d_5">
      <g>
       <use style="stroke:#000000;stroke-width:0.8;" x="798.056735" xlink:href="#m74c3b7daaa" y="442.08"/>
      </g>
     </g>
     <g id="text_5">
      <!-- 2016-02-15 -->
      <g transform="translate(768.998923 456.678437)scale(0.1 -0.1)">
       <use xlink:href="#DejaVuSans-50"/>
       <use x="63.623047" xlink:href="#DejaVuSans-48"/>
       <use x="127.246094" xlink:href="#DejaVuSans-49"/>
       <use x="190.869141" xlink:href="#DejaVuSans-54"/>
       <use x="254.492188" xlink:href="#DejaVuSans-45"/>
       <use x="290.576172" xlink:href="#DejaVuSans-48"/>
       <use x="354.199219" xlink:href="#DejaVuSans-50"/>
       <use x="417.822266" xlink:href="#DejaVuSans-45"/>
       <use x="453.90625" xlink:href="#DejaVuSans-49"/>
       <use x="517.529297" xlink:href="#DejaVuSans-53"/>
      </g>
     </g>
    </g>
   </g>
   <g id="matplotlib.axis_2">
    <g id="ytick_1">
     <g id="line2d_6">
      <defs>
       <path d="M 0 0 
L -3.5 0 
" id="mc042046d80" style="stroke:#000000;stroke-width:0.8;"/>
      </defs>
      <g>
       <use style="stroke:#000000;stroke-width:0.8;" x="26.925" xlink:href="#mc042046d80" y="422.312727"/>
      </g>
     </g>
     <g id="text_6">
      <!-- 0 -->
      <g transform="translate(13.5625 426.111946)scale(0.1 -0.1)">
       <use xlink:href="#DejaVuSans-48"/>
      </g>
     </g>
    </g>
    <g id="ytick_2">
     <g id="line2d_7">
      <g>
       <use style="stroke:#000000;stroke-width:0.8;" x="26.925" xlink:href="#mc042046d80" y="341.629981"/>
      </g>
     </g>
     <g id="text_7">
      <!-- 10 -->
      <g transform="translate(7.2 345.4292)scale(0.1 -0.1)">
       <use xlink:href="#DejaVuSans-49"/>
       <use x="63.623047" xlink:href="#DejaVuSans-48"/>
      </g>
     </g>
    </g>
    <g id="ytick_3">
     <g id="line2d_8">
      <g>
       <use style="stroke:#000000;stroke-width:0.8;" x="26.925" xlink:href="#mc042046d80" y="260.947236"/>
      </g>
     </g>
     <g id="text_8">
      <!-- 20 -->
      <g transform="translate(7.2 264.746454)scale(0.1 -0.1)">
       <use xlink:href="#DejaVuSans-50"/>
       <use x="63.623047" xlink:href="#DejaVuSans-48"/>
      </g>
     </g>
    </g>
    <g id="ytick_4">
     <g id="line2d_9">
      <g>
       <use style="stroke:#000000;stroke-width:0.8;" x="26.925" xlink:href="#mc042046d80" y="180.26449"/>
      </g>
     </g>
     <g id="text_9">
      <!-- 30 -->
      <g transform="translate(7.2 184.063709)scale(0.1 -0.1)">
       <defs>
        <path d="M 40.578125 39.3125 
Q 47.65625 37.796875 51.625 33 
Q 55.609375 28.21875 55.609375 21.1875 
Q 55.609375 10.40625 48.1875 4.484375 
Q 40.765625 -1.421875 27.09375 -1.421875 
Q 22.515625 -1.421875 17.65625 -0.515625 
Q 12.796875 0.390625 7.625 2.203125 
L 7.625 11.71875 
Q 11.71875 9.328125 16.59375 8.109375 
Q 21.484375 6.890625 26.8125 6.890625 
Q 36.078125 6.890625 40.9375 10.546875 
Q 45.796875 14.203125 45.796875 21.1875 
Q 45.796875 27.640625 41.28125 31.265625 
Q 36.765625 34.90625 28.71875 34.90625 
L 20.21875 34.90625 
L 20.21875 43.015625 
L 29.109375 43.015625 
Q 36.375 43.015625 40.234375 45.921875 
Q 44.09375 48.828125 44.09375 54.296875 
Q 44.09375 59.90625 40.109375 62.90625 
Q 36.140625 65.921875 28.71875 65.921875 
Q 24.65625 65.921875 20.015625 65.03125 
Q 15.375 64.15625 9.8125 62.3125 
L 9.8125 71.09375 
Q 15.4375 72.65625 20.34375 73.4375 
Q 25.25 74.21875 29.59375 74.21875 
Q 40.828125 74.21875 47.359375 69.109375 
Q 53.90625 64.015625 53.90625 55.328125 
Q 53.90625 49.265625 50.4375 45.09375 
Q 46.96875 40.921875 40.578125 39.3125 
z
" id="DejaVuSans-51"/>
       </defs>
       <use xlink:href="#DejaVuSans-51"/>
       <use x="63.623047" xlink:href="#DejaVuSans-48"/>
      </g>
     </g>
    </g>
    <g id="ytick_5">
     <g id="line2d_10">
      <g>
       <use style="stroke:#000000;stroke-width:0.8;" x="26.925" xlink:href="#mc042046d80" y="99.581744"/>
      </g>
     </g>
     <g id="text_10">
      <!-- 40 -->
      <g transform="translate(7.2 103.380963)scale(0.1 -0.1)">
       <defs>
        <path d="M 37.796875 64.3125 
L 12.890625 25.390625 
L 37.796875 25.390625 
z
M 35.203125 72.90625 
L 47.609375 72.90625 
L 47.609375 25.390625 
L 58.015625 25.390625 
L 58.015625 17.1875 
L 47.609375 17.1875 
L 47.609375 0 
L 37.796875 0 
L 37.796875 17.1875 
L 4.890625 17.1875 
L 4.890625 26.703125 
z
" id="DejaVuSans-52"/>
       </defs>
       <use xlink:href="#DejaVuSans-52"/>
       <use x="63.623047" xlink:href="#DejaVuSans-48"/>
      </g>
     </g>
    </g>
    <g id="ytick_6">
     <g id="line2d_11">
      <g>
       <use style="stroke:#000000;stroke-width:0.8;" x="26.925" xlink:href="#mc042046d80" y="18.898998"/>
      </g>
     </g>
     <g id="text_11">
      <!-- 50 -->
      <g transform="translate(7.2 22.698217)scale(0.1 -0.1)">
       <use xlink:href="#DejaVuSans-53"/>
       <use x="63.623047" xlink:href="#DejaVuSans-48"/>
      </g>
     </g>
    </g>
   </g>
   <g id="line2d_12">
    <path clip-path="url(#p143ef65baa)" d="M 67.506818 422.312727 
L 67.521662 422.312727 
L 67.521662 414.244453 
L 163.162848 414.244453 
L 163.162848 406.176178 
L 163.608174 406.176178 
L 163.608174 398.107904 
L 227.163619 398.107904 
L 227.163619 390.039629 
L 227.430815 390.039629 
L 227.430815 381.971354 
L 228.187869 381.971354 
L 228.187869 373.90308 
L 228.58124 373.90308 
L 228.640617 357.766531 
L 238.682719 357.766531 
L 238.682719 349.698256 
L 259.427489 349.698256 
L 259.427489 341.629981 
L 259.902504 341.629981 
L 259.902504 333.561707 
L 261.260748 333.561707 
L 261.364658 317.425158 
L 262.567038 317.425158 
L 262.567038 309.356883 
L 270.130158 309.356883 
L 270.130158 301.288609 
L 270.753615 301.288609 
L 270.753615 293.220334 
L 271.065343 293.220334 
L 271.065343 285.152059 
L 271.221207 285.152059 
L 271.221207 277.083785 
L 280.714073 277.083785 
L 280.714073 269.01551 
L 281.285575 269.01551 
L 281.285575 260.947236 
L 281.419173 260.947236 
L 281.419173 252.878961 
L 281.61957 252.878961 
L 281.701213 236.742412 
L 281.864499 236.742412 
L 281.923876 220.605863 
L 282.124272 220.605863 
L 282.124272 212.537588 
L 291.468697 212.537588 
L 291.468697 204.469314 
L 291.654249 204.469314 
L 291.676516 188.332764 
L 291.951133 188.332764 
L 291.951133 180.26449 
L 292.099575 180.26449 
L 292.144108 156.059666 
L 292.29255 156.059666 
L 292.389037 131.854842 
L 292.678499 131.854842 
L 292.678499 123.786568 
L 293.057026 123.786568 
L 293.057026 115.718293 
L 293.264845 115.718293 
L 293.264845 107.650019 
L 293.383599 107.650019 
L 293.383599 99.581744 
L 293.554307 99.581744 
L 293.554307 91.513469 
L 301.970969 91.513469 
L 302.052612 26.967273 
L 302.097145 26.967273 
L 302.097145 422.312727 
L 342.918697 422.312727 
L 342.918697 26.967273 
L 342.963229 51.172096 
L 343.312068 51.172096 
L 343.312068 59.240371 
L 344.789066 59.240371 
L 344.878131 35.035547 
L 344.996885 35.035547 
L 344.996885 26.967273 
L 345.063684 422.312727 
L 395.934759 422.312727 
L 395.934759 26.967273 
L 395.964448 51.172096 
L 396.120312 51.172096 
L 396.201955 91.513469 
L 396.231643 91.513469 
L 396.283598 123.786568 
L 396.706658 123.786568 
L 396.706658 131.854842 
L 398.191078 131.854842 
L 398.191078 123.786568 
L 398.33952 123.786568 
L 398.33952 115.718293 
L 398.525072 115.718293 
L 398.525072 107.650019 
L 398.76258 107.650019 
L 398.777424 91.513469 
L 398.94071 91.513469 
L 398.94071 83.445195 
L 399.08173 83.445195 
L 399.08173 75.37692 
L 399.237594 75.37692 
L 399.252438 59.240371 
L 399.40088 59.240371 
L 399.40088 51.172096 
L 399.556744 51.172096 
L 399.593855 35.035547 
L 399.757141 35.035547 
L 399.757141 26.967273 
L 399.972382 26.967273 
L 399.972382 422.312727 
L 405.479581 422.312727 
L 405.479581 26.967273 
L 406.18468 26.967273 
L 406.192102 51.172096 
L 406.347966 51.172096 
L 406.392499 67.308646 
L 406.578051 67.308646 
L 406.578051 75.37692 
L 406.793292 75.37692 
L 406.852669 91.513469 
L 406.949156 91.513469 
L 406.978845 115.718293 
L 408.841792 115.718293 
L 408.916013 91.513469 
L 408.960546 91.513469 
L 409.005078 67.308646 
L 409.108988 67.308646 
L 409.108988 59.240371 
L 409.235163 59.240371 
L 409.339073 35.035547 
L 409.368761 35.035547 
L 409.368761 26.967273 
L 409.376183 422.312727 
L 417.295564 422.312727 
L 417.295564 26.967273 
L 417.399474 59.240371 
L 417.533072 59.240371 
L 417.629559 99.581744 
L 418.171372 99.581744 
L 418.171372 107.650019 
L 419.581571 107.650019 
L 419.640948 83.445195 
L 419.715169 83.445195 
L 419.715169 75.37692 
L 419.893299 75.37692 
L 419.997209 51.172096 
L 420.205028 51.172096 
L 420.205028 43.103822 
L 420.398002 43.103822 
L 420.420269 26.967273 
L 420.657776 26.967273 
L 420.657776 422.312727 
L 427.471264 422.312727 
L 427.471264 26.967273 
L 427.567751 43.103822 
L 427.619706 43.103822 
L 427.619706 51.172096 
L 427.820103 51.172096 
L 427.857213 83.445195 
L 427.961123 83.445195 
L 428.065032 107.650019 
L 428.250584 107.650019 
L 428.324805 139.923117 
L 428.436137 139.923117 
L 428.436137 147.991391 
L 428.577157 147.991391 
L 428.577157 156.059666 
L 430.217441 156.059666 
L 430.254552 131.854842 
L 430.358461 131.854842 
L 430.46237 107.650019 
L 430.484637 107.650019 
L 430.581124 91.513469 
L 430.662767 91.513469 
L 430.692455 59.240371 
L 430.803787 59.240371 
L 430.840897 26.967273 
L 430.981917 26.967273 
L 430.981917 422.312727 
L 438.982942 422.312727 
L 438.982942 26.967273 
L 439.079429 51.172096 
L 439.109117 51.172096 
L 439.123962 75.37692 
L 439.33178 75.37692 
L 439.33178 83.445195 
L 440.905266 83.445195 
L 441.001753 35.035547 
L 441.046285 35.035547 
L 441.046285 26.967273 
L 441.06113 422.312727 
L 449.663344 422.312727 
L 449.663344 26.967273 
L 449.767253 83.445195 
L 450.368444 83.445195 
L 450.368444 91.513469 
L 450.576262 91.513469 
L 450.576262 99.581744 
L 451.652467 99.581744 
L 451.652467 91.513469 
L 451.771221 91.513469 
L 451.87513 67.308646 
L 452.068105 67.308646 
L 452.105215 43.103822 
L 452.261079 43.103822 
L 452.290768 26.967273 
L 452.513431 26.967273 
L 452.513431 422.312727 
L 460.343746 422.312727 
L 460.343746 26.967273 
L 460.42539 43.103822 
L 460.826183 43.103822 
L 460.826183 51.172096 
L 462.362558 51.172096 
L 462.384824 35.035547 
L 462.429357 422.312727 
L 471.038993 422.312727 
L 471.038993 26.967273 
L 471.09837 43.103822 
L 471.172591 43.103822 
L 471.2765 75.37692 
L 471.9816 75.37692 
L 472.01871 91.513469 
L 473.258201 91.513469 
L 473.339844 59.240371 
L 473.458598 59.240371 
L 473.473442 35.035547 
L 473.60704 35.035547 
L 473.60704 26.967273 
L 473.621884 422.312727 
L 481.830727 422.312727 
L 481.830727 26.967273 
L 481.838149 35.035547 
L 483.663986 35.035547 
L 483.663986 26.967273 
L 483.753051 422.312727 
L 492.206823 422.312727 
L 492.206823 26.967273 
L 492.288466 51.172096 
L 492.377532 51.172096 
L 492.481441 107.650019 
L 492.488863 107.650019 
L 492.54824 139.923117 
L 492.696682 139.923117 
L 492.696682 147.991391 
L 492.845124 147.991391 
L 492.845124 156.059666 
L 492.9713 156.059666 
L 492.9713 164.127941 
L 494.552207 164.127941 
L 494.552207 156.059666 
L 494.745182 156.059666 
L 494.804558 131.854842 
L 495.123709 131.854842 
L 495.123709 123.786568 
L 495.331528 123.786568 
L 495.361216 107.650019 
L 495.465125 107.650019 
L 495.465125 99.581744 
L 496.637817 99.581744 
L 496.637817 91.513469 
L 497.973795 91.513469 
L 497.973795 83.445195 
L 502.412211 83.445195 
L 502.412211 91.513469 
L 502.545809 91.513469 
L 502.649719 107.650019 
L 502.686829 107.650019 
L 502.775894 123.786568 
L 502.894648 123.786568 
L 502.894648 139.923117 
L 503.04309 139.923117 
L 503.050512 164.127941 
L 503.154421 164.127941 
L 503.22122 180.26449 
L 505.099012 180.26449 
L 505.106434 164.127941 
L 505.254876 164.127941 
L 505.277142 139.923117 
L 505.403318 139.923117 
L 505.403318 131.854842 
L 505.633403 131.854842 
L 505.722468 99.581744 
L 505.789267 99.581744 
L 505.885754 67.308646 
L 505.922865 67.308646 
L 505.967397 51.172096 
L 506.242015 51.172096 
L 506.301392 35.035547 
L 506.360769 35.035547 
L 506.360769 26.967273 
L 506.368191 422.312727 
L 513.812558 422.312727 
L 513.812558 26.967273 
L 513.916467 59.240371 
L 513.931311 59.240371 
L 513.931311 67.308646 
L 514.243039 67.308646 
L 514.243039 75.37692 
L 514.658677 75.37692 
L 514.666099 91.513469 
L 515.757148 91.513469 
L 515.853635 67.308646 
L 515.883324 67.308646 
L 515.890746 51.172096 
L 516.024343 51.172096 
L 516.098564 26.967273 
L 516.143097 26.967273 
L 516.143097 422.312727 
L 524.233186 422.312727 
L 524.233186 26.967273 
L 524.329674 43.103822 
L 524.389051 43.103822 
L 524.448427 59.240371 
L 524.537493 59.240371 
L 524.604291 99.581744 
L 526.467239 99.581744 
L 526.571148 75.37692 
L 526.608259 75.37692 
L 526.630525 59.240371 
L 526.86061 59.240371 
L 526.934831 26.967273 
L 526.949675 422.312727 
L 534.972966 422.312727 
L 534.972966 43.103822 
L 535.069453 99.581744 
L 535.113986 99.581744 
L 535.188207 131.854842 
L 535.225317 131.854842 
L 535.314382 147.991391 
L 535.640955 147.991391 
L 535.640955 156.059666 
L 537.184752 156.059666 
L 537.221862 131.854842 
L 537.325771 131.854842 
L 537.414837 107.650019 
L 537.548434 107.650019 
L 537.548434 99.581744 
L 537.659766 99.581744 
L 537.659766 91.513469 
L 537.81563 91.513469 
L 537.81563 83.445195 
L 538.008605 83.445195 
L 538.008605 75.37692 
L 538.149625 75.37692 
L 538.253534 59.240371 
L 538.52073 59.240371 
L 538.609795 35.035547 
L 538.684016 35.035547 
L 538.684016 26.967273 
L 538.787925 422.312727 
L 544.992801 422.312727 
L 544.992801 26.967273 
L 545.334218 26.967273 
L 545.334218 35.035547 
L 545.527192 35.035547 
L 545.62368 67.308646 
L 545.645946 67.308646 
L 545.727589 91.513469 
L 545.786966 91.513469 
L 545.883453 123.786568 
L 545.920564 123.786568 
L 545.987363 139.923117 
L 546.358468 139.923117 
L 546.417844 156.059666 
L 547.998752 156.059666 
L 548.050707 139.923117 
L 548.117505 139.923117 
L 548.206571 99.581744 
L 548.228837 99.581744 
L 548.332746 83.445195 
L 548.444078 83.445195 
L 548.444078 75.37692 
L 548.562831 75.37692 
L 548.614786 59.240371 
L 548.830027 59.240371 
L 548.919092 26.967273 
L 548.993313 26.967273 
L 548.993313 422.312727 
L 555.858756 422.312727 
L 555.858756 26.967273 
L 555.918133 43.103822 
L 556.073997 43.103822 
L 556.148218 75.37692 
L 556.222439 75.37692 
L 556.326348 99.581744 
L 556.370881 99.581744 
L 556.393147 115.718293 
L 556.482213 115.718293 
L 556.482213 123.786568 
L 556.61581 123.786568 
L 556.61581 131.854842 
L 558.493602 131.854842 
L 558.567823 99.581744 
L 558.731109 99.581744 
L 558.835018 83.445195 
L 558.886973 83.445195 
L 558.924084 59.240371 
L 559.072526 59.240371 
L 559.08737 43.103822 
L 559.235812 43.103822 
L 559.250656 26.967273 
L 559.295189 422.312727 
L 566.880575 422.312727 
L 566.880575 26.967273 
L 566.984485 51.172096 
L 566.991907 51.172096 
L 567.095816 107.650019 
L 567.132927 107.650019 
L 567.21457 164.127941 
L 567.266524 164.127941 
L 567.318479 196.401039 
L 567.429811 196.401039 
L 567.429811 204.469314 
L 567.979046 204.469314 
L 567.979046 212.537588 
L 569.418933 212.537588 
L 569.426356 196.401039 
L 569.790038 196.401039 
L 569.790038 188.332764 
L 569.931058 188.332764 
L 569.960747 172.196215 
L 570.138877 172.196215 
L 570.213098 156.059666 
L 577.026586 156.059666 
L 577.026586 164.127941 
L 577.241827 164.127941 
L 577.271516 180.26449 
L 577.449646 180.26449 
L 577.449646 188.332764 
L 577.627776 188.332764 
L 577.627776 196.401039 
L 577.739108 196.401039 
L 577.813329 220.605863 
L 577.850439 220.605863 
L 577.917238 236.742412 
L 577.976615 236.742412 
L 577.991459 252.878961 
L 580.106758 252.878961 
L 580.151291 236.742412 
L 580.225512 236.742412 
L 580.292311 220.605863 
L 580.351687 220.605863 
L 580.351687 212.537588 
L 580.655993 212.537588 
L 580.663416 196.401039 
L 580.811858 196.401039 
L 580.841546 172.196215 
L 581.309138 172.196215 
L 581.375937 147.991391 
L 581.494691 147.991391 
L 581.494691 139.923117 
L 581.954861 139.923117 
L 581.954861 131.854842 
L 587.625346 131.854842 
L 587.625346 139.923117 
L 587.833164 139.923117 
L 587.899963 164.127941 
L 588.152315 164.127941 
L 588.152315 172.196215 
L 588.263646 172.196215 
L 588.263646 180.26449 
L 588.3824 180.26449 
L 588.434355 196.401039 
L 588.538264 196.401039 
L 588.590219 220.605863 
L 588.723817 220.605863 
L 588.723817 228.674137 
L 590.564497 228.674137 
L 590.60903 204.469314 
L 590.705517 204.469314 
L 590.75005 188.332764 
L 590.853959 188.332764 
L 590.913336 156.059666 
L 591.002401 156.059666 
L 591.039512 139.923117 
L 591.113733 139.923117 
L 591.17311 123.786568 
L 591.49226 123.786568 
L 591.588747 83.445195 
L 591.618436 83.445195 
L 591.67039 67.308646 
L 591.789144 67.308646 
L 591.81141 43.103822 
L 592.034073 43.103822 
L 592.100872 26.967273 
L 592.204782 26.967273 
L 592.204782 422.312727 
L 598.91436 422.312727 
L 598.91436 26.967273 
L 599.010848 51.172096 
L 599.040536 51.172096 
L 599.114757 75.37692 
L 599.151868 75.37692 
L 599.240933 131.854842 
L 599.307732 131.854842 
L 599.411641 172.196215 
L 599.419063 172.196215 
L 599.419063 180.26449 
L 601.222634 180.26449 
L 601.326543 156.059666 
L 601.415608 156.059666 
L 601.437874 139.923117 
L 601.623427 139.923117 
L 601.623427 131.854842 
L 601.808979 131.854842 
L 601.890623 107.650019 
L 601.98711 107.650019 
L 602.031642 91.513469 
L 602.157818 91.513469 
L 602.180084 75.37692 
L 602.432436 75.37692 
L 602.536345 59.240371 
L 602.595722 59.240371 
L 602.595722 51.172096 
L 603.055892 51.172096 
L 603.055892 43.103822 
L 603.382465 43.103822 
L 603.449264 26.967273 
L 603.812947 26.967273 
L 603.812947 422.312727 
L 608.481448 422.312727 
L 608.481448 26.967273 
L 608.533402 35.035547 
L 609.015839 35.035547 
L 609.045527 51.172096 
L 609.156859 51.172096 
L 609.208814 67.308646 
L 609.379522 67.308646 
L 609.476009 107.650019 
L 609.498275 107.650019 
L 609.565074 131.854842 
L 609.639295 131.854842 
L 609.668984 147.991391 
L 609.758049 147.991391 
L 609.780315 172.196215 
L 609.86938 172.196215 
L 609.884225 188.332764 
L 610.002978 188.332764 
L 610.002978 196.401039 
L 610.121732 196.401039 
L 610.121732 204.469314 
L 611.999523 204.469314 
L 612.081166 188.332764 
L 612.185076 188.332764 
L 612.244453 156.059666 
L 612.296407 156.059666 
L 612.363206 139.923117 
L 612.407739 139.923117 
L 612.422583 123.786568 
L 612.51907 123.786568 
L 612.51907 115.718293 
L 612.630402 115.718293 
L 612.734311 75.37692 
L 612.860487 75.37692 
L 612.919864 59.240371 
L 613.008929 59.240371 
L 613.090572 35.035547 
L 613.12026 35.035547 
L 613.12026 26.967273 
L 613.179637 422.312727 
L 620.275165 422.312727 
L 620.275165 26.967273 
L 620.379075 91.513469 
L 620.497828 91.513469 
L 620.557205 115.718293 
L 620.631426 115.718293 
L 620.661114 131.854842 
L 621.009953 131.854842 
L 621.009953 139.923117 
L 622.672504 139.923117 
L 622.73188 123.786568 
L 622.806101 123.786568 
L 622.910011 99.581744 
L 622.969388 99.581744 
L 622.969388 91.513469 
L 623.088141 91.513469 
L 623.088141 83.445195 
L 623.288538 83.445195 
L 623.377603 51.172096 
L 623.407292 51.172096 
L 623.407292 43.103822 
L 623.518623 43.103822 
L 623.555734 26.967273 
L 623.800663 26.967273 
L 623.800663 422.312727 
L 631.274718 422.312727 
L 631.274718 26.967273 
L 631.378627 51.172096 
L 631.415738 51.172096 
L 631.467693 67.308646 
L 633.382594 67.308646 
L 633.382594 59.240371 
L 633.560725 59.240371 
L 633.620102 26.967273 
L 633.857609 26.967273 
L 633.857609 422.312727 
L 641.442995 422.312727 
L 641.442995 35.035547 
L 641.546905 51.172096 
L 641.554327 51.172096 
L 641.569171 67.308646 
L 641.695347 67.308646 
L 641.739879 91.513469 
L 641.806678 91.513469 
L 641.910588 123.786568 
L 641.947698 123.786568 
L 642.021919 156.059666 
L 642.073874 156.059666 
L 642.162939 172.196215 
L 642.192628 172.196215 
L 642.192628 188.332764 
L 642.333647 188.332764 
L 642.333647 196.401039 
L 642.511778 196.401039 
L 642.511778 204.469314 
L 642.949682 204.469314 
L 642.949682 212.537588 
L 643.981354 212.537588 
L 644.062997 188.332764 
L 644.204017 188.332764 
L 644.263394 164.127941 
L 644.396991 164.127941 
L 644.396991 147.991391 
L 645.035292 147.991391 
L 645.035292 139.923117 
L 645.376709 139.923117 
L 645.376709 131.854842 
L 645.673593 131.854842 
L 645.673593 123.786568 
L 646.170873 123.786568 
L 646.170873 115.718293 
L 651.403454 115.718293 
L 651.403454 123.786568 
L 651.885891 123.786568 
L 651.885891 131.854842 
L 652.219885 131.854842 
L 652.323795 164.127941 
L 652.331217 164.127941 
L 652.331217 172.196215 
L 652.576146 172.196215 
L 652.605834 188.332764 
L 652.843342 188.332764 
L 652.843342 196.401039 
L 654.713711 196.401039 
L 654.765666 180.26449 
L 654.914108 180.26449 
L 655.003173 139.923117 
L 655.047705 139.923117 
L 655.151615 107.650019 
L 655.20357 107.650019 
L 655.210992 83.445195 
L 655.344589 83.445195 
L 655.344589 75.37692 
L 655.478187 75.37692 
L 655.478187 67.308646 
L 655.641473 67.308646 
L 655.693428 51.172096 
L 656.027423 51.172096 
L 656.109066 26.967273 
L 656.153598 26.967273 
L 656.153598 422.312727 
L 662.8038 422.312727 
L 662.8038 26.967273 
L 662.90771 35.035547 
L 662.974509 35.035547 
L 662.981931 51.172096 
L 663.115529 51.172096 
L 663.145217 67.308646 
L 663.241704 67.308646 
L 663.278815 83.445195 
L 663.442101 83.445195 
L 663.471789 99.581744 
L 663.568277 99.581744 
L 663.568277 107.650019 
L 664.124934 107.650019 
L 664.124934 115.718293 
L 665.364425 115.718293 
L 665.394113 99.581744 
L 665.549977 99.581744 
L 665.653887 67.308646 
L 665.668731 67.308646 
L 665.728108 43.103822 
L 665.787485 43.103822 
L 665.787485 35.035547 
L 665.832017 422.312727 
L 674.100237 422.312727 
L 674.100237 26.967273 
L 674.152192 43.103822 
L 676.133893 43.103822 
L 676.156159 26.967273 
L 676.178425 422.312727 
L 684.81775 422.312727 
L 684.81775 35.035547 
L 684.877127 51.172096 
L 684.936504 51.172096 
L 684.981036 75.37692 
L 685.084946 75.37692 
L 685.084946 83.445195 
L 686.72523 83.445195 
L 686.829139 51.172096 
L 686.851405 51.172096 
L 686.881094 26.967273 
L 686.947893 422.312727 
L 696.782176 422.312727 
L 696.782176 26.967273 
L 697.413054 26.967273 
L 697.413054 422.312727 
L 866.41428 422.312727 
L 866.41428 26.967273 
L 866.473656 43.103822 
L 866.562722 43.103822 
L 866.629521 83.445195 
L 868.462779 83.445195 
L 868.49989 59.240371 
L 868.707709 59.240371 
L 868.722553 43.103822 
L 868.870995 43.103822 
L 868.870995 35.035547 
L 869.264366 35.035547 
L 869.264366 26.967273 
L 869.509296 26.967273 
L 869.509296 422.312727 
L 877.124371 422.312727 
L 877.124371 26.967273 
L 877.198592 35.035547 
L 879.13576 35.035547 
L 879.13576 26.967273 
L 879.143182 422.312727 
L 879.143182 422.312727 
" style="fill:none;stroke:#9c00ff;stroke-linecap:square;stroke-width:1.5;"/>
   </g>
   <g id="patch_3">
    <path d="M 26.925 442.08 
L 26.925 7.2 
" style="fill:none;stroke:#000000;stroke-linecap:square;stroke-linejoin:miter;stroke-width:0.8;"/>
   </g>
   <g id="patch_4">
    <path d="M 919.725 442.08 
L 919.725 7.2 
" style="fill:none;stroke:#000000;stroke-linecap:square;stroke-linejoin:miter;stroke-width:0.8;"/>
   </g>
   <g id="patch_5">
    <path d="M 26.925 442.08 
L 919.725 442.08 
" style="fill:none;stroke:#000000;stroke-linecap:square;stroke-linejoin:miter;stroke-width:0.8;"/>
   </g>
   <g id="patch_6">
    <path d="M 26.925 7.2 
L 919.725 7.2 
" style="fill:none;stroke:#000000;stroke-linecap:square;stroke-linejoin:miter;stroke-width:0.8;"/>
   </g>
  </g>
 </g>
 <defs>
  <clipPath id="p143ef65baa">
   <rect height="434.88" width="892.8" x="26.925" y="7.2"/>
  </clipPath>
 </defs>
</svg>
