<?xml version="1.0" encoding="utf-8" standalone="no"?>
<!DOCTYPE svg PUBLIC "-//W3C//DTD SVG 1.1//EN"
  "http://www.w3.org/Graphics/SVG/1.1/DTD/svg11.dtd">
<!-- Created with matplotlib (https://matplotlib.org/) -->
<svg height="252.014152pt" version="1.1" viewBox="0 0 480.525 252.014152" width="480.525pt" xmlns="http://www.w3.org/2000/svg" xmlns:xlink="http://www.w3.org/1999/xlink">
 <metadata>
  <rdf:RDF xmlns:cc="http://creativecommons.org/ns#" xmlns:dc="http://purl.org/dc/elements/1.1/" xmlns:rdf="http://www.w3.org/1999/02/22-rdf-syntax-ns#">
   <cc:Work>
    <dc:type rdf:resource="http://purl.org/dc/dcmitype/StillImage"/>
    <dc:date>2021-03-05T05:31:53.808362</dc:date>
    <dc:format>image/svg+xml</dc:format>
    <dc:creator>
     <cc:Agent>
      <dc:title>Matplotlib v3.3.3, https://matplotlib.org/</dc:title>
     </cc:Agent>
    </dc:creator>
   </cc:Work>
  </rdf:RDF>
 </metadata>
 <defs>
  <style type="text/css">*{stroke-linecap:butt;stroke-linejoin:round;}</style>
 </defs>
 <g id="figure_1">
  <g id="patch_1">
   <path d="M 0 252.014152 
L 480.525 252.014152 
L 480.525 0 
L 0 0 
z
" style="fill:none;"/>
  </g>
  <g id="axes_1">
   <g id="patch_2">
    <path d="M 26.925 228.136027 
L 473.325 228.136027 
L 473.325 10.696027 
L 26.925 10.696027 
z
" style="fill:#ffffff;"/>
   </g>
   <g id="matplotlib.axis_1">
    <g id="xtick_1">
     <g id="line2d_1">
      <defs>
       <path d="M 0 0 
L 0 3.5 
" id="m0715647a5c" style="stroke:#000000;stroke-width:0.8;"/>
      </defs>
      <g>
       <use style="stroke:#000000;stroke-width:0.8;" x="50.143374" xlink:href="#m0715647a5c" y="228.136027"/>
      </g>
     </g>
     <g id="text_1">
      <!-- 0 -->
      <g transform="translate(46.962124 242.734465)scale(0.1 -0.1)">
       <defs>
        <path d="M 31.78125 66.40625 
Q 24.171875 66.40625 20.328125 58.90625 
Q 16.5 51.421875 16.5 36.375 
Q 16.5 21.390625 20.328125 13.890625 
Q 24.171875 6.390625 31.78125 6.390625 
Q 39.453125 6.390625 43.28125 13.890625 
Q 47.125 21.390625 47.125 36.375 
Q 47.125 51.421875 43.28125 58.90625 
Q 39.453125 66.40625 31.78125 66.40625 
z
M 31.78125 74.21875 
Q 44.046875 74.21875 50.515625 64.515625 
Q 56.984375 54.828125 56.984375 36.375 
Q 56.984375 17.96875 50.515625 8.265625 
Q 44.046875 -1.421875 31.78125 -1.421875 
Q 19.53125 -1.421875 13.0625 8.265625 
Q 6.59375 17.96875 6.59375 36.375 
Q 6.59375 54.828125 13.0625 64.515625 
Q 19.53125 74.21875 31.78125 74.21875 
z
" id="DejaVuSans-48"/>
       </defs>
       <use xlink:href="#DejaVuSans-48"/>
      </g>
     </g>
    </g>
    <g id="xtick_2">
     <g id="line2d_2">
      <g>
       <use style="stroke:#000000;stroke-width:0.8;" x="107.149419" xlink:href="#m0715647a5c" y="228.136027"/>
      </g>
     </g>
     <g id="text_2">
      <!-- 200 -->
      <g transform="translate(97.605669 242.734465)scale(0.1 -0.1)">
       <defs>
        <path d="M 19.1875 8.296875 
L 53.609375 8.296875 
L 53.609375 0 
L 7.328125 0 
L 7.328125 8.296875 
Q 12.9375 14.109375 22.625 23.890625 
Q 32.328125 33.6875 34.8125 36.53125 
Q 39.546875 41.84375 41.421875 45.53125 
Q 43.3125 49.21875 43.3125 52.78125 
Q 43.3125 58.59375 39.234375 62.25 
Q 35.15625 65.921875 28.609375 65.921875 
Q 23.96875 65.921875 18.8125 64.3125 
Q 13.671875 62.703125 7.8125 59.421875 
L 7.8125 69.390625 
Q 13.765625 71.78125 18.9375 73 
Q 24.125 74.21875 28.421875 74.21875 
Q 39.75 74.21875 46.484375 68.546875 
Q 53.21875 62.890625 53.21875 53.421875 
Q 53.21875 48.921875 51.53125 44.890625 
Q 49.859375 40.875 45.40625 35.40625 
Q 44.1875 33.984375 37.640625 27.21875 
Q 31.109375 20.453125 19.1875 8.296875 
z
" id="DejaVuSans-50"/>
       </defs>
       <use xlink:href="#DejaVuSans-50"/>
       <use x="63.623047" xlink:href="#DejaVuSans-48"/>
       <use x="127.246094" xlink:href="#DejaVuSans-48"/>
      </g>
     </g>
    </g>
    <g id="xtick_3">
     <g id="line2d_3">
      <g>
       <use style="stroke:#000000;stroke-width:0.8;" x="164.155464" xlink:href="#m0715647a5c" y="228.136027"/>
      </g>
     </g>
     <g id="text_3">
      <!-- 400 -->
      <g transform="translate(154.611714 242.734465)scale(0.1 -0.1)">
       <defs>
        <path d="M 37.796875 64.3125 
L 12.890625 25.390625 
L 37.796875 25.390625 
z
M 35.203125 72.90625 
L 47.609375 72.90625 
L 47.609375 25.390625 
L 58.015625 25.390625 
L 58.015625 17.1875 
L 47.609375 17.1875 
L 47.609375 0 
L 37.796875 0 
L 37.796875 17.1875 
L 4.890625 17.1875 
L 4.890625 26.703125 
z
" id="DejaVuSans-52"/>
       </defs>
       <use xlink:href="#DejaVuSans-52"/>
       <use x="63.623047" xlink:href="#DejaVuSans-48"/>
       <use x="127.246094" xlink:href="#DejaVuSans-48"/>
      </g>
     </g>
    </g>
    <g id="xtick_4">
     <g id="line2d_4">
      <g>
       <use style="stroke:#000000;stroke-width:0.8;" x="221.16151" xlink:href="#m0715647a5c" y="228.136027"/>
      </g>
     </g>
     <g id="text_4">
      <!-- 600 -->
      <g transform="translate(211.61776 242.734465)scale(0.1 -0.1)">
       <defs>
        <path d="M 33.015625 40.375 
Q 26.375 40.375 22.484375 35.828125 
Q 18.609375 31.296875 18.609375 23.390625 
Q 18.609375 15.53125 22.484375 10.953125 
Q 26.375 6.390625 33.015625 6.390625 
Q 39.65625 6.390625 43.53125 10.953125 
Q 47.40625 15.53125 47.40625 23.390625 
Q 47.40625 31.296875 43.53125 35.828125 
Q 39.65625 40.375 33.015625 40.375 
z
M 52.59375 71.296875 
L 52.59375 62.3125 
Q 48.875 64.0625 45.09375 64.984375 
Q 41.3125 65.921875 37.59375 65.921875 
Q 27.828125 65.921875 22.671875 59.328125 
Q 17.53125 52.734375 16.796875 39.40625 
Q 19.671875 43.65625 24.015625 45.921875 
Q 28.375 48.1875 33.59375 48.1875 
Q 44.578125 48.1875 50.953125 41.515625 
Q 57.328125 34.859375 57.328125 23.390625 
Q 57.328125 12.15625 50.6875 5.359375 
Q 44.046875 -1.421875 33.015625 -1.421875 
Q 20.359375 -1.421875 13.671875 8.265625 
Q 6.984375 17.96875 6.984375 36.375 
Q 6.984375 53.65625 15.1875 63.9375 
Q 23.390625 74.21875 37.203125 74.21875 
Q 40.921875 74.21875 44.703125 73.484375 
Q 48.484375 72.75 52.59375 71.296875 
z
" id="DejaVuSans-54"/>
       </defs>
       <use xlink:href="#DejaVuSans-54"/>
       <use x="63.623047" xlink:href="#DejaVuSans-48"/>
       <use x="127.246094" xlink:href="#DejaVuSans-48"/>
      </g>
     </g>
    </g>
    <g id="xtick_5">
     <g id="line2d_5">
      <g>
       <use style="stroke:#000000;stroke-width:0.8;" x="278.167555" xlink:href="#m0715647a5c" y="228.136027"/>
      </g>
     </g>
     <g id="text_5">
      <!-- 800 -->
      <g transform="translate(268.623805 242.734465)scale(0.1 -0.1)">
       <defs>
        <path d="M 31.78125 34.625 
Q 24.75 34.625 20.71875 30.859375 
Q 16.703125 27.09375 16.703125 20.515625 
Q 16.703125 13.921875 20.71875 10.15625 
Q 24.75 6.390625 31.78125 6.390625 
Q 38.8125 6.390625 42.859375 10.171875 
Q 46.921875 13.96875 46.921875 20.515625 
Q 46.921875 27.09375 42.890625 30.859375 
Q 38.875 34.625 31.78125 34.625 
z
M 21.921875 38.8125 
Q 15.578125 40.375 12.03125 44.71875 
Q 8.5 49.078125 8.5 55.328125 
Q 8.5 64.0625 14.71875 69.140625 
Q 20.953125 74.21875 31.78125 74.21875 
Q 42.671875 74.21875 48.875 69.140625 
Q 55.078125 64.0625 55.078125 55.328125 
Q 55.078125 49.078125 51.53125 44.71875 
Q 48 40.375 41.703125 38.8125 
Q 48.828125 37.15625 52.796875 32.3125 
Q 56.78125 27.484375 56.78125 20.515625 
Q 56.78125 9.90625 50.3125 4.234375 
Q 43.84375 -1.421875 31.78125 -1.421875 
Q 19.734375 -1.421875 13.25 4.234375 
Q 6.78125 9.90625 6.78125 20.515625 
Q 6.78125 27.484375 10.78125 32.3125 
Q 14.796875 37.15625 21.921875 38.8125 
z
M 18.3125 54.390625 
Q 18.3125 48.734375 21.84375 45.5625 
Q 25.390625 42.390625 31.78125 42.390625 
Q 38.140625 42.390625 41.71875 45.5625 
Q 45.3125 48.734375 45.3125 54.390625 
Q 45.3125 60.0625 41.71875 63.234375 
Q 38.140625 66.40625 31.78125 66.40625 
Q 25.390625 66.40625 21.84375 63.234375 
Q 18.3125 60.0625 18.3125 54.390625 
z
" id="DejaVuSans-56"/>
       </defs>
       <use xlink:href="#DejaVuSans-56"/>
       <use x="63.623047" xlink:href="#DejaVuSans-48"/>
       <use x="127.246094" xlink:href="#DejaVuSans-48"/>
      </g>
     </g>
    </g>
    <g id="xtick_6">
     <g id="line2d_6">
      <g>
       <use style="stroke:#000000;stroke-width:0.8;" x="335.1736" xlink:href="#m0715647a5c" y="228.136027"/>
      </g>
     </g>
     <g id="text_6">
      <!-- 1000 -->
      <g transform="translate(322.4486 242.734465)scale(0.1 -0.1)">
       <defs>
        <path d="M 12.40625 8.296875 
L 28.515625 8.296875 
L 28.515625 63.921875 
L 10.984375 60.40625 
L 10.984375 69.390625 
L 28.421875 72.90625 
L 38.28125 72.90625 
L 38.28125 8.296875 
L 54.390625 8.296875 
L 54.390625 0 
L 12.40625 0 
z
" id="DejaVuSans-49"/>
       </defs>
       <use xlink:href="#DejaVuSans-49"/>
       <use x="63.623047" xlink:href="#DejaVuSans-48"/>
       <use x="127.246094" xlink:href="#DejaVuSans-48"/>
       <use x="190.869141" xlink:href="#DejaVuSans-48"/>
      </g>
     </g>
    </g>
    <g id="xtick_7">
     <g id="line2d_7">
      <g>
       <use style="stroke:#000000;stroke-width:0.8;" x="392.179646" xlink:href="#m0715647a5c" y="228.136027"/>
      </g>
     </g>
     <g id="text_7">
      <!-- 1200 -->
      <g transform="translate(379.454646 242.734465)scale(0.1 -0.1)">
       <use xlink:href="#DejaVuSans-49"/>
       <use x="63.623047" xlink:href="#DejaVuSans-50"/>
       <use x="127.246094" xlink:href="#DejaVuSans-48"/>
       <use x="190.869141" xlink:href="#DejaVuSans-48"/>
      </g>
     </g>
    </g>
    <g id="xtick_8">
     <g id="line2d_8">
      <g>
       <use style="stroke:#000000;stroke-width:0.8;" x="449.185691" xlink:href="#m0715647a5c" y="228.136027"/>
      </g>
     </g>
     <g id="text_8">
      <!-- 1400 -->
      <g transform="translate(436.460691 242.734465)scale(0.1 -0.1)">
       <use xlink:href="#DejaVuSans-49"/>
       <use x="63.623047" xlink:href="#DejaVuSans-52"/>
       <use x="127.246094" xlink:href="#DejaVuSans-48"/>
       <use x="190.869141" xlink:href="#DejaVuSans-48"/>
      </g>
     </g>
    </g>
   </g>
   <g id="matplotlib.axis_2">
    <g id="ytick_1">
     <g id="line2d_9">
      <defs>
       <path d="M 0 0 
L -3.5 0 
" id="m1dd51e9177" style="stroke:#000000;stroke-width:0.8;"/>
      </defs>
      <g>
       <use style="stroke:#000000;stroke-width:0.8;" x="26.925" xlink:href="#m1dd51e9177" y="201.525219"/>
      </g>
     </g>
     <g id="text_9">
      <!-- 4 -->
      <g transform="translate(13.5625 205.324438)scale(0.1 -0.1)">
       <use xlink:href="#DejaVuSans-52"/>
      </g>
     </g>
    </g>
    <g id="ytick_2">
     <g id="line2d_10">
      <g>
       <use style="stroke:#000000;stroke-width:0.8;" x="26.925" xlink:href="#m1dd51e9177" y="174.307219"/>
      </g>
     </g>
     <g id="text_10">
      <!-- 5 -->
      <g transform="translate(13.5625 178.106438)scale(0.1 -0.1)">
       <defs>
        <path d="M 10.796875 72.90625 
L 49.515625 72.90625 
L 49.515625 64.59375 
L 19.828125 64.59375 
L 19.828125 46.734375 
Q 21.96875 47.46875 24.109375 47.828125 
Q 26.265625 48.1875 28.421875 48.1875 
Q 40.625 48.1875 47.75 41.5 
Q 54.890625 34.8125 54.890625 23.390625 
Q 54.890625 11.625 47.5625 5.09375 
Q 40.234375 -1.421875 26.90625 -1.421875 
Q 22.3125 -1.421875 17.546875 -0.640625 
Q 12.796875 0.140625 7.71875 1.703125 
L 7.71875 11.625 
Q 12.109375 9.234375 16.796875 8.0625 
Q 21.484375 6.890625 26.703125 6.890625 
Q 35.15625 6.890625 40.078125 11.328125 
Q 45.015625 15.765625 45.015625 23.390625 
Q 45.015625 31 40.078125 35.4375 
Q 35.15625 39.890625 26.703125 39.890625 
Q 22.75 39.890625 18.8125 39.015625 
Q 14.890625 38.140625 10.796875 36.28125 
z
" id="DejaVuSans-53"/>
       </defs>
       <use xlink:href="#DejaVuSans-53"/>
      </g>
     </g>
    </g>
    <g id="ytick_3">
     <g id="line2d_11">
      <g>
       <use style="stroke:#000000;stroke-width:0.8;" x="26.925" xlink:href="#m1dd51e9177" y="147.089219"/>
      </g>
     </g>
     <g id="text_11">
      <!-- 6 -->
      <g transform="translate(13.5625 150.888438)scale(0.1 -0.1)">
       <use xlink:href="#DejaVuSans-54"/>
      </g>
     </g>
    </g>
    <g id="ytick_4">
     <g id="line2d_12">
      <g>
       <use style="stroke:#000000;stroke-width:0.8;" x="26.925" xlink:href="#m1dd51e9177" y="119.871219"/>
      </g>
     </g>
     <g id="text_12">
      <!-- 7 -->
      <g transform="translate(13.5625 123.670438)scale(0.1 -0.1)">
       <defs>
        <path d="M 8.203125 72.90625 
L 55.078125 72.90625 
L 55.078125 68.703125 
L 28.609375 0 
L 18.3125 0 
L 43.21875 64.59375 
L 8.203125 64.59375 
z
" id="DejaVuSans-55"/>
       </defs>
       <use xlink:href="#DejaVuSans-55"/>
      </g>
     </g>
    </g>
    <g id="ytick_5">
     <g id="line2d_13">
      <g>
       <use style="stroke:#000000;stroke-width:0.8;" x="26.925" xlink:href="#m1dd51e9177" y="92.653219"/>
      </g>
     </g>
     <g id="text_13">
      <!-- 8 -->
      <g transform="translate(13.5625 96.452438)scale(0.1 -0.1)">
       <use xlink:href="#DejaVuSans-56"/>
      </g>
     </g>
    </g>
    <g id="ytick_6">
     <g id="line2d_14">
      <g>
       <use style="stroke:#000000;stroke-width:0.8;" x="26.925" xlink:href="#m1dd51e9177" y="65.435219"/>
      </g>
     </g>
     <g id="text_14">
      <!-- 9 -->
      <g transform="translate(13.5625 69.234438)scale(0.1 -0.1)">
       <defs>
        <path d="M 10.984375 1.515625 
L 10.984375 10.5 
Q 14.703125 8.734375 18.5 7.8125 
Q 22.3125 6.890625 25.984375 6.890625 
Q 35.75 6.890625 40.890625 13.453125 
Q 46.046875 20.015625 46.78125 33.40625 
Q 43.953125 29.203125 39.59375 26.953125 
Q 35.25 24.703125 29.984375 24.703125 
Q 19.046875 24.703125 12.671875 31.3125 
Q 6.296875 37.9375 6.296875 49.421875 
Q 6.296875 60.640625 12.9375 67.421875 
Q 19.578125 74.21875 30.609375 74.21875 
Q 43.265625 74.21875 49.921875 64.515625 
Q 56.59375 54.828125 56.59375 36.375 
Q 56.59375 19.140625 48.40625 8.859375 
Q 40.234375 -1.421875 26.421875 -1.421875 
Q 22.703125 -1.421875 18.890625 -0.6875 
Q 15.09375 0.046875 10.984375 1.515625 
z
M 30.609375 32.421875 
Q 37.25 32.421875 41.125 36.953125 
Q 45.015625 41.5 45.015625 49.421875 
Q 45.015625 57.28125 41.125 61.84375 
Q 37.25 66.40625 30.609375 66.40625 
Q 23.96875 66.40625 20.09375 61.84375 
Q 16.21875 57.28125 16.21875 49.421875 
Q 16.21875 41.5 20.09375 36.953125 
Q 23.96875 32.421875 30.609375 32.421875 
z
" id="DejaVuSans-57"/>
       </defs>
       <use xlink:href="#DejaVuSans-57"/>
      </g>
     </g>
    </g>
    <g id="ytick_7">
     <g id="line2d_15">
      <g>
       <use style="stroke:#000000;stroke-width:0.8;" x="26.925" xlink:href="#m1dd51e9177" y="38.217219"/>
      </g>
     </g>
     <g id="text_15">
      <!-- 10 -->
      <g transform="translate(7.2 42.016438)scale(0.1 -0.1)">
       <use xlink:href="#DejaVuSans-49"/>
       <use x="63.623047" xlink:href="#DejaVuSans-48"/>
      </g>
     </g>
    </g>
    <g id="ytick_8">
     <g id="line2d_16">
      <g>
       <use style="stroke:#000000;stroke-width:0.8;" x="26.925" xlink:href="#m1dd51e9177" y="10.999219"/>
      </g>
     </g>
     <g id="text_16">
      <!-- 11 -->
      <g transform="translate(7.2 14.798438)scale(0.1 -0.1)">
       <use xlink:href="#DejaVuSans-49"/>
       <use x="63.623047" xlink:href="#DejaVuSans-49"/>
      </g>
     </g>
    </g>
   </g>
   <g id="line2d_17">
    <path clip-path="url(#pcb2bb91a38)" d="M 47.215909 190.188991 
L 50.376976 133.261178 
L 51.491862 116.809545 
L 52.580671 103.859367 
L 53.147363 98.451413 
L 54.218956 90.823196 
L 55.042517 87.294252 
L 55.359077 86.471557 
L 55.786158 85.820012 
L 55.997665 85.687799 
L 56.482993 85.844078 
L 56.703548 86.118722 
L 57.092197 86.895089 
L 58.120456 90.545844 
L 58.791342 93.926933 
L 60.432357 103.849282 
L 61.862384 112.108511 
L 62.849553 116.605704 
L 63.839893 119.985043 
L 64.639913 122.091974 
L 66.326571 126.063759 
L 67.43199 129.290703 
L 68.431071 133.020864 
L 70.116097 140.845596 
L 71.451319 147.312454 
L 72.655371 151.935665 
L 73.139145 153.1705 
L 73.636368 153.953169 
L 76.146772 148.891191 
L 76.886052 144.565444 
L 77.771946 138.090121 
L 79.415104 124.039644 
L 81.154994 109.511095 
L 82.305975 101.564383 
L 83.787594 93.945524 
L 84.430672 91.512873 
L 85.497776 88.431392 
L 86.162353 86.986609 
L 87.319046 85.059525 
L 89.599288 82.141073 
L 90.812007 80.412273 
L 93.251727 76.752716 
L 94.151375 76.293365 
L 94.624263 76.515622 
L 95.014403 77.007888 
L 95.441418 77.912969 
L 96.146587 80.347744 
L 96.704021 83.172666 
L 97.283367 86.988524 
L 98.345034 96.275654 
L 99.397309 108.090098 
L 100.871599 127.558883 
L 102.905518 154.481593 
L 104.527853 170.101742 
L 104.99459 172.981022 
L 106.154967 176.517445 
L 106.800838 176.240471 
L 107.004078 175.8369 
L 107.330135 174.890341 
L 108.130055 171.140383 
L 109.234179 163.24857 
L 110.837178 148.325044 
L 113.825117 118.934707 
L 114.69985 111.659487 
L 115.962679 103.106183 
L 116.593528 99.7721 
L 117.43516 96.244116 
L 118.359456 93.359846 
L 119.30769 91.065156 
L 121.024119 87.029444 
L 121.956919 84.262004 
L 124.030595 76.757865 
L 124.972166 73.650583 
L 125.841681 71.638284 
L 126.428347 70.944666 
L 126.579397 70.864588 
L 127.010165 70.867532 
L 127.570366 71.384797 
L 128.28544 72.83769 
L 128.909171 74.716469 
L 129.627828 77.377884 
L 132.028969 86.940066 
L 133.742707 92.533613 
L 135.204619 97.264436 
L 137.057599 104.39496 
L 139.337841 113.346679 
L 140.850274 117.993588 
L 142.053828 120.925393 
L 143.778997 124.40062 
L 144.793032 126.102601 
L 145.674636 127.317317 
L 146.576689 128.256528 
L 147.735211 129.001728 
L 148.421841 129.226489 
L 149.497171 129.33698 
L 152.917534 129.237128 
L 156.377293 129.668167 
L 157.090196 129.417172 
L 157.364965 129.25151 
L 158.516471 128.0839 
L 159.517645 126.488547 
L 161.683409 122.641868 
L 162.367948 121.909323 
L 162.745898 121.703781 
L 163.231307 121.678855 
L 163.753904 121.969559 
L 164.988278 123.916023 
L 165.680938 125.648413 
L 167.175215 130.226995 
L 169.11484 136.119356 
L 170.025186 138.32297 
L 170.762505 139.701497 
L 171.866219 140.957784 
L 172.148583 141.110118 
L 173.384605 140.925189 
L 174.015609 140.290788 
L 174.623572 139.33359 
L 175.443041 137.498194 
L 176.612223 133.742716 
L 177.188844 131.372406 
L 177.723282 128.867466 
L 179.462525 118.99208 
L 181.435822 107.041783 
L 182.62522 101.527619 
L 183.377296 99.250718 
L 183.901911 98.288425 
L 184.241371 97.938259 
L 184.804894 97.80079 
L 185.377677 98.161904 
L 185.55977 98.366098 
L 186.626395 100.158129 
L 188.177109 103.21241 
L 188.621606 103.887661 
L 189.68169 104.779905 
L 190.332825 104.764557 
L 190.831236 104.476566 
L 191.534131 103.734088 
L 192.6974 101.984648 
L 193.959338 100.007977 
L 195.41501 98.172916 
L 196.986917 96.280481 
L 197.891184 94.792902 
L 198.968408 92.437455 
L 201.642109 85.714222 
L 202.379458 84.474017 
L 203.03707 83.854945 
L 203.432734 83.741894 
L 203.694687 83.783966 
L 204.251605 84.203286 
L 204.700304 84.885791 
L 205.31689 86.352714 
L 205.961786 88.562605 
L 206.675931 91.809427 
L 207.993218 99.735812 
L 212.271837 129.049033 
L 212.465157 130.049181 
L 213.976051 136.19914 
L 214.337331 137.215533 
L 215.122139 138.799662 
L 215.54712 139.294591 
L 215.970253 139.529566 
L 216.332542 139.524131 
L 216.740611 139.288241 
L 217.235853 138.674873 
L 217.960698 137.138756 
L 218.803061 134.439002 
L 219.252513 132.622591 
L 220.27409 127.627959 
L 221.984272 117.125519 
L 223.951701 103.101311 
L 226.880005 82.226058 
L 228.40209 72.541208 
L 230.397302 61.25136 
L 232.381696 51.769836 
L 233.374732 48.02653 
L 234.359217 45.387336 
L 234.890473 44.561983 
L 235.10925 44.368394 
L 235.554876 44.267982 
L 235.961707 44.549413 
L 236.520095 45.564167 
L 236.95232 46.87339 
L 237.835118 50.968567 
L 238.241948 53.453877 
L 239.62179 63.900383 
L 241.503464 78.863144 
L 241.891615 81.428521 
L 243.139278 87.665634 
L 243.843275 89.850186 
L 244.03152 90.297121 
L 245.151633 92.141566 
L 247.022159 94.499973 
L 247.766681 95.866963 
L 248.701467 98.062774 
L 250.090787 102.041444 
L 254.037995 113.844524 
L 254.883094 115.819324 
L 256.284227 117.966271 
L 256.623605 118.212515 
L 256.936576 118.333075 
L 257.70719 118.188845 
L 259.21612 116.347777 
L 261.605368 112.417492 
L 261.737866 112.280311 
L 262.50425 111.796026 
L 262.851453 111.76346 
L 263.476579 112.008079 
L 263.860668 112.347036 
L 264.735205 113.6093 
L 265.570849 115.365915 
L 266.940183 119.163196 
L 268.322092 123.922015 
L 270.040924 130.827533 
L 273.811008 146.505697 
L 274.687623 149.104553 
L 275.227353 150.218051 
L 275.735742 150.85144 
L 276.66131 150.85472 
L 277.867951 148.695512 
L 278.995322 145.115578 
L 281.402616 136.942507 
L 284.288952 128.301002 
L 285.304596 124.025447 
L 286.541956 117.650754 
L 290.22382 97.45516 
L 293.147985 82.442045 
L 294.450447 74.551091 
L 298.626321 48.102949 
L 299.214989 45.705145 
L 300.020961 43.545858 
L 300.613748 42.87507 
L 301.036434 42.890874 
L 301.176238 42.986611 
L 301.505682 43.387603 
L 301.970213 44.359855 
L 302.651021 46.587901 
L 303.14301 48.730823 
L 304.418805 55.932975 
L 305.952717 66.530787 
L 308.70643 85.762723 
L 309.313286 89.400368 
L 310.724511 96.564753 
L 312.35056 102.994493 
L 313.870745 108.634272 
L 315.872685 117.354667 
L 317.320368 123.731003 
L 317.952023 125.994863 
L 319.002573 128.514346 
L 319.451836 129.035907 
L 320.10871 129.185639 
L 320.26749 129.117878 
L 320.932337 128.444817 
L 321.462613 127.530635 
L 321.850181 126.705542 
L 327.255551 113.11886 
L 328.373123 108.885906 
L 328.796882 106.828707 
L 329.811981 100.619317 
L 330.216397 97.589323 
L 331.565424 85.113985 
L 332.947313 69.167095 
L 335.653867 36.93879 
L 336.55921 28.906845 
L 337.222355 24.62063 
L 337.835944 22.00673 
L 338.261747 20.979035 
L 338.485825 20.694261 
L 338.907311 20.622146 
L 339.166122 20.865558 
L 339.427196 21.320554 
L 340.207817 23.811322 
L 340.952107 27.499726 
L 341.732209 32.393097 
L 343.158676 43.182605 
L 344.84277 58.038646 
L 348.390063 90.815246 
L 348.940704 94.835839 
L 350.594529 103.186432 
L 351.388118 105.005459 
L 351.696018 105.333911 
L 351.9818 105.459436 
L 352.476115 105.293831 
L 352.565836 105.214963 
L 353.569937 103.457188 
L 354.292745 101.41884 
L 355.787961 96.236899 
L 357.367923 90.805856 
L 358.989021 86.091295 
L 359.977603 83.760898 
L 360.937653 82.133163 
L 361.254521 81.793245 
L 361.813165 81.498692 
L 362.482231 81.739561 
L 362.841451 82.163637 
L 363.273949 82.958939 
L 363.682996 83.996081 
L 364.742476 87.868826 
L 365.444536 91.20154 
L 368.545164 107.262025 
L 368.944566 108.787144 
L 369.508898 110.477984 
L 370.254199 111.73398 
L 370.604251 111.899662 
L 370.969944 111.769523 
L 371.412508 111.19555 
L 371.794869 110.340725 
L 372.154654 109.24846 
L 373.535216 102.951493 
L 376.44905 87.223863 
L 377.226978 84.544579 
L 377.578338 83.688545 
L 378.290167 82.667562 
L 378.782889 82.521638 
L 379.178548 82.727133 
L 379.732866 83.471615 
L 380.335241 84.827879 
L 381.08809 87.182828 
L 381.896847 90.269441 
L 383.919337 98.191748 
L 384.565068 100.187216 
L 385.566905 102.492591 
L 386.161438 103.459026 
L 388.226663 106.204489 
L 388.915049 107.646897 
L 389.288454 108.680591 
L 390.149527 111.901544 
L 390.915401 115.844792 
L 391.929143 122.550517 
L 394.164167 140.48934 
L 395.382068 149.414383 
L 396.79324 156.825284 
L 397.58453 159.354621 
L 398.420471 160.882327 
L 399.194523 161.485732 
L 399.516064 161.573547 
L 400.213603 161.563272 
L 402.059309 161.286381 
L 403.167922 161.437724 
L 405.007064 161.832836 
L 405.389203 161.798166 
L 406.201294 161.435218 
L 407.022856 160.560562 
L 407.443375 159.887315 
L 408.931921 156.220033 
L 409.968836 152.533483 
L 411.209341 147.050219 
L 411.460384 145.813452 
L 413.534631 134.192045 
L 415.160836 123.544035 
L 419.011163 96.973716 
L 419.979592 92.079158 
L 420.691212 89.476327 
L 421.015206 88.598926 
L 421.489707 87.669494 
L 422.037288 87.115478 
L 422.344798 87.039031 
L 422.760975 87.188631 
L 423.440167 88.00027 
L 424.040938 89.218153 
L 425.132862 92.294768 
L 428.203962 101.916178 
L 428.717609 103.083679 
L 429.722691 104.825328 
L 431.347054 106.76336 
L 431.750306 107.295959 
L 432.704938 109.079567 
L 433.319931 110.823886 
L 433.992154 113.422007 
L 434.832439 117.774857 
L 436.011628 125.76803 
L 439.499929 152.308757 
L 440.293656 156.577979 
L 441.344168 160.341074 
L 442.403909 161.864642 
L 443.559469 161.277098 
L 444.479501 159.777887 
L 445.597225 157.956792 
L 446.271064 157.519189 
L 446.788629 157.804605 
L 447.393968 159.031826 
L 447.897167 160.902349 
L 448.447527 163.907875 
L 449.105094 168.837402 
L 450.24427 180.543521 
L 451.082241 191.137336 
L 453.034091 218.252391 
L 453.034091 218.252391 
" style="fill:none;stroke:#008000;stroke-linecap:square;stroke-width:1.5;"/>
   </g>
   <g id="patch_3">
    <path d="M 26.925 228.136027 
L 26.925 10.696027 
" style="fill:none;stroke:#000000;stroke-linecap:square;stroke-linejoin:miter;stroke-width:0.8;"/>
   </g>
   <g id="patch_4">
    <path d="M 473.325 228.136027 
L 473.325 10.696027 
" style="fill:none;stroke:#000000;stroke-linecap:square;stroke-linejoin:miter;stroke-width:0.8;"/>
   </g>
   <g id="patch_5">
    <path d="M 26.925 228.136027 
L 473.325 228.136027 
" style="fill:none;stroke:#000000;stroke-linecap:square;stroke-linejoin:miter;stroke-width:0.8;"/>
   </g>
   <g id="patch_6">
    <path d="M 26.925 10.696027 
L 473.325 10.696027 
" style="fill:none;stroke:#000000;stroke-linecap:square;stroke-linejoin:miter;stroke-width:0.8;"/>
   </g>
  </g>
 </g>
 <defs>
  <clipPath id="pcb2bb91a38">
   <rect height="217.44" width="446.4" x="26.925" y="10.696027"/>
  </clipPath>
 </defs>
</svg>
